<?xml version="1.0" encoding="UTF-8" standalone="no"?>
<!DOCTYPE svg PUBLIC "-//W3C//DTD SVG 1.1//EN"
 "http://www.w3.org/Graphics/SVG/1.1/DTD/svg11.dtd">
<!-- Generated by graphviz version 2.38.0 (20140413.2041)
 -->
<!-- Pages: 1 -->
<svg width="543pt" height="207pt"
 viewBox="0.00 0.00 652.00 248.00" xmlns="http://www.w3.org/2000/svg" xmlns:xlink="http://www.w3.org/1999/xlink">
<g id="graph0" class="graph" transform="scale(0.833333 0.833333) rotate(0) translate(4 244)">
<polygon fill="white" stroke="none" points="-4,4 -4,-244 648,-244 648,4 -4,4"/>
<g id="clust1" class="cluster"><title>clusterA</title>
<polygon fill="none" stroke="none" points="8,-90 8,-224 150,-224 150,-90 8,-90"/>
</g>
<g id="clust5" class="cluster"><title>clusterB</title>
<polygon fill="none" stroke="none" points="220,-90 220,-224 362,-224 362,-90 220,-90"/>
</g>
<g id="clust10" class="cluster"><title>clusterC</title>
<polygon fill="none" stroke="none" points="478,-8 478,-232 636,-232 636,-8 478,-8"/>
</g>
<g id="clust11" class="cluster"><title>clusterSubC</title>
<polygon fill="none" stroke="none" points="486,-94.5 486,-224 628,-224 628,-94.5 486,-94.5"/>
</g>
<!-- A_u1 -->
<g id="node1" class="node"><title>A_u1</title>
<polygon fill="none" stroke="black" points="43,-180 70,-207 16,-207 43,-180"/>
<text text-anchor="middle" x="43" y="-193.8" font-family="Times,serif" font-size="14.00">u</text>
</g>
<!-- A_left -->
<g id="node3" class="node"><title>A_left</title>
<polygon fill="none" stroke="black" points="58,-98.5 58,-142.5 112,-142.5 112,-98.5 58,-98.5"/>
<text text-anchor="middle" x="71.1069" y="-127.3" font-family="Times,serif" font-size="14.00"> </text>
<polyline fill="none" stroke="black" points="58,-120.5 84.2139,-120.5 "/>
<text text-anchor="middle" x="71.1069" y="-105.3" font-family="Times,serif" font-size="14.00">a</text>
<polyline fill="none" stroke="black" points="84.2139,-98.5 84.2139,-142.5 "/>
<text text-anchor="middle" x="97.7139" y="-127.3" font-family="Times,serif" font-size="14.00"> </text>
<polyline fill="none" stroke="black" points="84.2139,-120.5 111.214,-120.5 "/>
<text text-anchor="middle" x="97.7139" y="-105.3" font-family="Times,serif" font-size="14.00">b</text>
</g>
<!-- A_u1&#45;&gt;A_left -->
<g id="edge1" class="edge"><title>A_u1:s&#45;&gt;A_left:a:n</title>
<path fill="none" stroke="black" d="M45.7871,-170.392C52.8694,-160.087 71,-159.595 71,-143"/>
<polygon fill="black" stroke="black" points="42.4246,-169.421 43,-180 49.1474,-171.371 42.4246,-169.421"/>
</g>
<!-- A_v1 -->
<g id="node2" class="node"><title>A_v1</title>
<polygon fill="none" stroke="black" points="115,-180 142,-207 88,-207 115,-180"/>
<text text-anchor="middle" x="115" y="-193.8" font-family="Times,serif" font-size="14.00">v</text>
</g>
<!-- A_v1&#45;&gt;A_left -->
<g id="edge2" class="edge"><title>A_v1:s&#45;&gt;A_left:b:n</title>
<path fill="none" stroke="black" d="M112.778,-169.96C108.169,-160.65 98,-156.997 98,-143"/>
<polygon fill="black" stroke="black" points="109.421,-170.993 115,-180 116.256,-169.48 109.421,-170.993"/>
</g>
<!-- temp0 -->
<g id="node4" class="node"><title>temp0</title>
<ellipse fill="none" stroke="none" cx="185" cy="-198" rx="1.8" ry="1.8"/>
</g>
<!-- temp1 -->
<g id="node5" class="node"><title>temp1</title>
<text text-anchor="middle" x="185" y="-116.3" font-family="Times,serif" font-size="14.00">+</text>
</g>
<!-- temp0&#45;&gt;temp1 -->
<g id="edge3" class="edge"><title>temp0&#45;&gt;temp1</title>
</g>
<!-- A_w1 -->
<g id="node6" class="node"><title>A_w1</title>
<polygon fill="none" stroke="black" points="255,-180 282,-207 228,-207 255,-180"/>
<text text-anchor="middle" x="255" y="-193.8" font-family="Times,serif" font-size="14.00">v</text>
</g>
<!-- A_right -->
<g id="node8" class="node"><title>A_right</title>
<polygon fill="none" stroke="black" points="269,-98.5 269,-142.5 323,-142.5 323,-98.5 269,-98.5"/>
<text text-anchor="middle" x="282.5" y="-127.3" font-family="Times,serif" font-size="14.00"> </text>
<polyline fill="none" stroke="black" points="269,-120.5 296,-120.5 "/>
<text text-anchor="middle" x="282.5" y="-105.3" font-family="Times,serif" font-size="14.00">b</text>
<polyline fill="none" stroke="black" points="296,-98.5 296,-142.5 "/>
<text text-anchor="middle" x="309.5" y="-127.3" font-family="Times,serif" font-size="14.00"> </text>
<polyline fill="none" stroke="black" points="296,-120.5 323,-120.5 "/>
<text text-anchor="middle" x="309.5" y="-105.3" font-family="Times,serif" font-size="14.00">d</text>
</g>
<!-- A_w1&#45;&gt;A_right -->
<g id="edge4" class="edge"><title>A_w1:s&#45;&gt;A_right:b:n</title>
<path fill="none" stroke="black" d="M257.889,-170.171C264.855,-160.159 282,-159.222 282,-143"/>
<polygon fill="black" stroke="black" points="254.463,-169.419 255,-180 261.178,-171.393 254.463,-169.419"/>
</g>
<!-- A_x1 -->
<g id="node7" class="node"><title>A_x1</title>
<polygon fill="none" stroke="black" points="327,-180 354,-207 300,-207 327,-180"/>
<text text-anchor="middle" x="327" y="-193.8" font-family="Times,serif" font-size="14.00">u</text>
</g>
<!-- A_x1&#45;&gt;A_right -->
<g id="edge5" class="edge"><title>A_x1:s&#45;&gt;A_right:d:n</title>
<path fill="none" stroke="black" d="M324.778,-169.96C320.169,-160.65 310,-156.997 310,-143"/>
<polygon fill="black" stroke="black" points="321.421,-170.993 327,-180 328.256,-169.48 321.421,-170.993"/>
</g>
<!-- temp2a -->
<g id="node9" class="node"><title>temp2a</title>
<ellipse fill="none" stroke="none" cx="426" cy="-198" rx="1.8" ry="1.8"/>
</g>
<!-- temp2b -->
<g id="node10" class="node"><title>temp2b</title>
<ellipse fill="none" stroke="none" cx="376" cy="-120.5" rx="1.8" ry="1.8"/>
</g>
<!-- temp2a&#45;&gt;temp2b -->
<g id="edge6" class="edge"><title>temp2a&#45;&gt;temp2b</title>
</g>
<!-- temp2c -->
<g id="node11" class="node"><title>temp2c</title>
<ellipse fill="none" stroke="none" cx="468" cy="-120.5" rx="1.8" ry="1.8"/>
</g>
<!-- temp2a&#45;&gt;temp2c -->
<g id="edge7" class="edge"><title>temp2a&#45;&gt;temp2c</title>
</g>
<!-- temp2b&#45;&gt;temp2c -->
<g id="edge8" class="edge"><title>temp2b&#45;&gt;temp2c</title>
<path fill="none" stroke="black" d="M377.922,-120.5C387.837,-120.5 433.605,-120.5 455.827,-120.5"/>
<polygon fill="black" stroke="black" points="456.089,-124 466.089,-120.5 456.089,-117 456.089,-124"/>
<text text-anchor="middle" x="422" y="-126.3" font-family="Times,serif" font-size="14.00" fill="#fffffe">wwwwwww</text>
</g>
<!-- A_u2 -->
<g id="node12" class="node"><title>A_u2</title>
<polygon fill="none" stroke="black" points="557,-180 584,-207 530,-207 557,-180"/>
<text text-anchor="middle" x="557" y="-193.8" font-family="Times,serif" font-size="14.00">u</text>
</g>
<!-- A_ut1 -->
<g id="node13" class="node"><title>A_ut1</title>
<ellipse fill="none" stroke="none" cx="494" cy="-120.5" rx="0.0108" ry="0.0108"/>
</g>
<!-- A_u2&#45;&gt;A_ut1 -->
<g id="edge12" class="edge"><title>A_u2:sw&#45;&gt;A_ut1:n</title>
<path fill="none" stroke="black" d="M540.447,-181.047C516.239,-160.475 494,-156.003 494,-121.5"/>
<polygon fill="black" stroke="black" points="538.272,-183.803 548,-188 543.013,-178.652 538.272,-183.803"/>
</g>
<!-- A_v2 -->
<g id="node14" class="node"><title>A_v2</title>
<polygon fill="none" stroke="black" points="557,-102.5 584,-129.5 530,-129.5 557,-102.5"/>
<text text-anchor="middle" x="557" y="-116.3" font-family="Times,serif" font-size="14.00">v</text>
</g>
<!-- A_u2&#45;&gt;A_v2 -->
<g id="edge11" class="edge"><title>A_u2&#45;&gt;A_v2</title>
</g>
<!-- A_ut2 -->
<g id="node15" class="node"><title>A_ut2</title>
<ellipse fill="none" stroke="none" cx="620" cy="-120.5" rx="0.0108" ry="0.0108"/>
</g>
<!-- A_u2&#45;&gt;A_ut2 -->
<g id="edge14" class="edge"><title>A_u2:se&#45;&gt;A_ut2:n</title>
<path fill="none" stroke="black" d="M573.553,-181.047C597.761,-160.475 620,-156.003 620,-121.5"/>
<polygon fill="black" stroke="black" points="570.987,-178.652 566,-188 575.728,-183.803 570.987,-178.652"/>
</g>
<!-- A_ut1&#45;&gt;A_v2 -->
<g id="edge9" class="edge"><title>A_ut1&#45;&gt;A_v2</title>
</g>
<!-- A_result -->
<g id="node16" class="node"><title>A_result</title>
<polygon fill="none" stroke="black" points="522.893,-16.5 522.893,-60.5 591.107,-60.5 591.107,-16.5 522.893,-16.5"/>
<text text-anchor="middle" x="534" y="-45.3" font-family="Times,serif" font-size="14.00"> </text>
<polyline fill="none" stroke="black" points="522.893,-38.5 545.107,-38.5 "/>
<text text-anchor="middle" x="534" y="-23.3" font-family="Times,serif" font-size="14.00">a</text>
<polyline fill="none" stroke="black" points="545.107,-16.5 545.107,-60.5 "/>
<text text-anchor="middle" x="556.607" y="-45.3" font-family="Times,serif" font-size="14.00"> </text>
<polyline fill="none" stroke="black" points="545.107,-38.5 568.107,-38.5 "/>
<text text-anchor="middle" x="556.607" y="-23.3" font-family="Times,serif" font-size="14.00">b</text>
<polyline fill="none" stroke="black" points="568.107,-16.5 568.107,-60.5 "/>
<text text-anchor="middle" x="579.607" y="-45.3" font-family="Times,serif" font-size="14.00"> </text>
<polyline fill="none" stroke="black" points="568.107,-38.5 591.107,-38.5 "/>
<text text-anchor="middle" x="579.607" y="-23.3" font-family="Times,serif" font-size="14.00">d</text>
</g>
<!-- A_ut1&#45;&gt;A_result -->
<g id="edge16" class="edge"><title>A_ut1:s&#45;&gt;A_result:a:n</title>
<path fill="none" stroke="black" d="M494,-119.5C494,-88.0032 534,-92.4968 534,-61"/>
</g>
<!-- A_v2&#45;&gt;A_ut2 -->
<g id="edge10" class="edge"><title>A_v2&#45;&gt;A_ut2</title>
</g>
<!-- A_v2&#45;&gt;A_result -->
<g id="edge13" class="edge"><title>A_v2:s&#45;&gt;A_result:b:n</title>
<path fill="none" stroke="black" d="M557,-91.3429C557,-80.8853 557,-75.0625 557,-61"/>
<polygon fill="black" stroke="black" points="553.5,-91.5 557,-101.5 560.5,-91.5 553.5,-91.5"/>
</g>
<!-- A_v2&#45;&gt;A_result -->
<g id="edge15" class="edge"><title>A_v2:s&#45;&gt;A_result:n</title>
</g>
<!-- A_ut2&#45;&gt;A_result -->
<g id="edge17" class="edge"><title>A_ut2:s&#45;&gt;A_result:d:n</title>
<path fill="none" stroke="black" d="M620,-119.5C620,-88.0032 580,-92.4968 580,-61"/>
</g>
</g>
</svg>
