<?xml version="1.0" encoding="UTF-8" standalone="no"?>
<!DOCTYPE svg PUBLIC "-//W3C//DTD SVG 1.1//EN"
 "http://www.w3.org/Graphics/SVG/1.1/DTD/svg11.dtd">
<!-- Generated by graphviz version 2.30.0 (20130114.0323)
 -->
<!-- Pages: 1 -->
<svg width="590pt" height="140pt"
 viewBox="0.00 0.00 708.00 168.00" xmlns="http://www.w3.org/2000/svg" xmlns:xlink="http://www.w3.org/1999/xlink">
<g id="graph0" class="graph" transform="scale(0.833333 0.833333) rotate(0) translate(4 164)">
<polygon fill="white" stroke="white" points="-4,5 -4,-164 705,-164 705,5 -4,5"/>
<g id="clust1" class="cluster"><title>clusterA</title>
<polygon fill="none" stroke="none" points="8,-8 8,-152 150,-152 150,-8 8,-8"/>
</g>
<g id="clust5" class="cluster"><title>clusterB</title>
<polygon fill="none" stroke="none" points="220,-8 220,-152 362,-152 362,-8 220,-8"/>
</g>
<g id="clust10" class="cluster"><title>clusterC</title>
<polygon fill="none" stroke="none" points="478,-8 478,-152 692,-152 692,-8 478,-8"/>
</g>
<!-- A_u1 -->
<g id="node1" class="node"><title>A_u1</title>
<polygon fill="none" stroke="black" points="43,-106.398 70,-134.301 16,-134.301 43,-106.398"/>
<text text-anchor="middle" x="43" y="-120.8" font-family="Times New Roman,serif" font-size="14.00">u</text>
</g>
<!-- A_left -->
<g id="node3" class="node"><title>A_left</title>
<polygon fill="none" stroke="black" points="58,-17.2 58,-66.8 112,-66.8 112,-17.2 58,-17.2"/>
<text text-anchor="middle" x="71.1073" y="-50.2" font-family="Times New Roman,serif" font-size="14.00"> </text>
<polyline fill="none" stroke="black" points="58,-42 84.2146,-42 "/>
<text text-anchor="middle" x="71.1073" y="-25.4" font-family="Times New Roman,serif" font-size="14.00">a</text>
<polyline fill="none" stroke="black" points="84.2146,-17.2 84.2146,-66.8 "/>
<text text-anchor="middle" x="97.7146" y="-50.2" font-family="Times New Roman,serif" font-size="14.00"> </text>
<polyline fill="none" stroke="black" points="84.2146,-42 111.215,-42 "/>
<text text-anchor="middle" x="97.7146" y="-25.4" font-family="Times New Roman,serif" font-size="14.00">b</text>
</g>
<!-- A_u1&#45;&gt;A_left -->
<g id="edge1" class="edge"><title>A_u1:s&#45;&gt;A_left:a:n</title>
<path fill="none" stroke="black" d="M45.7871,-96.19C52.8694,-85.616 71,-84.8812 71,-68"/>
<polygon fill="black" stroke="black" points="42.3662,-95.4241 43,-106 49.0998,-97.3372 42.3662,-95.4241"/>
</g>
<!-- A_v1 -->
<g id="node2" class="node"><title>A_v1</title>
<polygon fill="none" stroke="black" points="115,-106.398 142,-134.301 88,-134.301 115,-106.398"/>
<text text-anchor="middle" x="115" y="-120.8" font-family="Times New Roman,serif" font-size="14.00">v</text>
</g>
<!-- A_v1&#45;&gt;A_left -->
<g id="edge2" class="edge"><title>A_v1:s&#45;&gt;A_left:b:n</title>
<path fill="none" stroke="black" d="M112.915,-96.0047C108.376,-86.2246 98,-82.4546 98,-68"/>
<polygon fill="black" stroke="black" points="109.532,-96.9252 115,-106 116.385,-95.496 109.532,-96.9252"/>
</g>
<!-- temp0 -->
<g id="node4" class="node"><title>temp0</title>
<ellipse fill="none" stroke="none" cx="185" cy="-125" rx="1.8" ry="1.8"/>
</g>
<!-- temp1 -->
<g id="node5" class="node"><title>temp1</title>
<text text-anchor="middle" x="185" y="-37.8" font-family="Times New Roman,serif" font-size="14.00">+</text>
</g>
<!-- temp0&#45;&gt;temp1 -->
<g id="edge3" class="edge"><title>temp0&#45;&gt;temp1</title>
</g>
<!-- A_w1 -->
<g id="node6" class="node"><title>A_w1</title>
<polygon fill="none" stroke="black" points="255,-106.398 282,-134.301 228,-134.301 255,-106.398"/>
<text text-anchor="middle" x="255" y="-120.8" font-family="Times New Roman,serif" font-size="14.00">v</text>
</g>
<!-- A_right -->
<g id="node8" class="node"><title>A_right</title>
<polygon fill="none" stroke="black" points="269,-17.2 269,-66.8 323,-66.8 323,-17.2 269,-17.2"/>
<text text-anchor="middle" x="282.5" y="-50.2" font-family="Times New Roman,serif" font-size="14.00"> </text>
<polyline fill="none" stroke="black" points="269,-42 296,-42 "/>
<text text-anchor="middle" x="282.5" y="-25.4" font-family="Times New Roman,serif" font-size="14.00">b</text>
<polyline fill="none" stroke="black" points="296,-17.2 296,-66.8 "/>
<text text-anchor="middle" x="309.5" y="-50.2" font-family="Times New Roman,serif" font-size="14.00"> </text>
<polyline fill="none" stroke="black" points="296,-42 323,-42 "/>
<text text-anchor="middle" x="309.5" y="-25.4" font-family="Times New Roman,serif" font-size="14.00">d</text>
</g>
<!-- A_w1&#45;&gt;A_right -->
<g id="edge4" class="edge"><title>A_w1:s&#45;&gt;A_right:b:n</title>
<path fill="none" stroke="black" d="M257.688,-96.2648C264.517,-85.7028 282,-84.6715 282,-68"/>
<polygon fill="black" stroke="black" points="254.287,-95.4292 255,-106 261.035,-97.292 254.287,-95.4292"/>
</g>
<!-- A_x1 -->
<g id="node7" class="node"><title>A_x1</title>
<polygon fill="none" stroke="black" points="327,-106.398 354,-134.301 300,-134.301 327,-106.398"/>
<text text-anchor="middle" x="327" y="-120.8" font-family="Times New Roman,serif" font-size="14.00">x</text>
</g>
<!-- A_x1&#45;&gt;A_right -->
<g id="edge5" class="edge"><title>A_x1:s&#45;&gt;A_right:d:n</title>
<path fill="none" stroke="black" d="M324.915,-96.0047C320.376,-86.2246 310,-82.4546 310,-68"/>
<polygon fill="black" stroke="black" points="321.532,-96.9252 327,-106 328.385,-95.496 321.532,-96.9252"/>
</g>
<!-- temp2a -->
<g id="node9" class="node"><title>temp2a</title>
<ellipse fill="none" stroke="none" cx="426" cy="-125" rx="1.8" ry="1.8"/>
</g>
<!-- temp2b -->
<g id="node10" class="node"><title>temp2b</title>
<ellipse fill="none" stroke="none" cx="376" cy="-42" rx="1.8" ry="1.8"/>
</g>
<!-- temp2a&#45;&gt;temp2b -->
<g id="edge6" class="edge"><title>temp2a&#45;&gt;temp2b</title>
</g>
<!-- temp2c -->
<g id="node11" class="node"><title>temp2c</title>
<ellipse fill="none" stroke="none" cx="468" cy="-42" rx="1.8" ry="1.8"/>
</g>
<!-- temp2a&#45;&gt;temp2c -->
<g id="edge7" class="edge"><title>temp2a&#45;&gt;temp2c</title>
</g>
<!-- temp2b&#45;&gt;temp2c -->
<g id="edge8" class="edge"><title>temp2b&#45;&gt;temp2c</title>
<path fill="none" stroke="black" d="M378.156,-42C403.975,-42 429.794,-42 455.612,-42"/>
<polygon fill="black" stroke="black" points="455.894,-45.5001 465.894,-42 455.894,-38.5001 455.894,-45.5001"/>
</g>
<!-- A_u2 -->
<g id="node12" class="node"><title>A_u2</title>
<polygon fill="none" stroke="black" points="513,-106.398 540,-134.301 486,-134.301 513,-106.398"/>
<text text-anchor="middle" x="513" y="-120.8" font-family="Times New Roman,serif" font-size="14.00">u</text>
</g>
<!-- A_result -->
<g id="node15" class="node"><title>A_result</title>
<polygon fill="none" stroke="black" points="550.893,-17.2 550.893,-66.8 619.107,-66.8 619.107,-17.2 550.893,-17.2"/>
<text text-anchor="middle" x="562" y="-50.2" font-family="Times New Roman,serif" font-size="14.00"> </text>
<polyline fill="none" stroke="black" points="550.893,-42 573.107,-42 "/>
<text text-anchor="middle" x="562" y="-25.4" font-family="Times New Roman,serif" font-size="14.00">a</text>
<polyline fill="none" stroke="black" points="573.107,-17.2 573.107,-66.8 "/>
<text text-anchor="middle" x="584.607" y="-50.2" font-family="Times New Roman,serif" font-size="14.00"> </text>
<polyline fill="none" stroke="black" points="573.107,-42 596.107,-42 "/>
<text text-anchor="middle" x="584.607" y="-25.4" font-family="Times New Roman,serif" font-size="14.00">b</text>
<polyline fill="none" stroke="black" points="596.107,-17.2 596.107,-66.8 "/>
<text text-anchor="middle" x="607.607" y="-50.2" font-family="Times New Roman,serif" font-size="14.00"> </text>
<polyline fill="none" stroke="black" points="596.107,-42 619.107,-42 "/>
<text text-anchor="middle" x="607.607" y="-25.4" font-family="Times New Roman,serif" font-size="14.00">d</text>
</g>
<!-- A_u2&#45;&gt;A_result -->
<g id="edge9" class="edge"><title>A_u2:s&#45;&gt;A_result:a:n</title>
<path fill="none" stroke="black" d="M515.918,-96.3885C526.467,-82.5384 562,-91.4683 562,-68"/>
<polygon fill="black" stroke="black" points="512.556,-95.4145 513,-106 519.255,-97.4483 512.556,-95.4145"/>
</g>
<!-- A_v2 -->
<g id="node13" class="node"><title>A_v2</title>
<polygon fill="none" stroke="black" points="585,-106.398 612,-134.301 558,-134.301 585,-106.398"/>
<text text-anchor="middle" x="585" y="-120.8" font-family="Times New Roman,serif" font-size="14.00">v</text>
</g>
<!-- A_v2&#45;&gt;A_result -->
<g id="edge10" class="edge"><title>A_v2:s&#45;&gt;A_result:b:n</title>
<path fill="none" stroke="black" d="M585,-95.8862C585,-86.4361 585,-80.9306 585,-68"/>
<polygon fill="black" stroke="black" points="581.5,-96 585,-106 588.5,-96 581.5,-96"/>
</g>
<!-- A_x2 -->
<g id="node14" class="node"><title>A_x2</title>
<polygon fill="none" stroke="black" points="657,-106.398 684,-134.301 630,-134.301 657,-106.398"/>
<text text-anchor="middle" x="657" y="-120.8" font-family="Times New Roman,serif" font-size="14.00">x</text>
</g>
<!-- A_x2&#45;&gt;A_result -->
<g id="edge11" class="edge"><title>A_x2:s&#45;&gt;A_result:d:n</title>
<path fill="none" stroke="black" d="M654.082,-96.3885C643.533,-82.5384 608,-91.4683 608,-68"/>
<polygon fill="black" stroke="black" points="650.745,-97.4483 657,-106 657.444,-95.4145 650.745,-97.4483"/>
</g>
</g>
</svg>
