<?xml version="1.0" encoding="UTF-8" standalone="no"?>
<!DOCTYPE svg PUBLIC "-//W3C//DTD SVG 1.1//EN"
 "http://www.w3.org/Graphics/SVG/1.1/DTD/svg11.dtd">
<!-- Generated by graphviz version 2.30.0 (20130114.0323)
 -->
<!-- Pages: 1 -->
<svg width="543pt" height="222pt"
 viewBox="0.00 0.00 652.00 266.00" xmlns="http://www.w3.org/2000/svg" xmlns:xlink="http://www.w3.org/1999/xlink">
<g id="graph0" class="graph" transform="scale(0.833333 0.833333) rotate(0) translate(4 262)">
<polygon fill="white" stroke="white" points="-4,5 -4,-262 649,-262 649,5 -4,5"/>
<g id="clust1" class="cluster"><title>clusterA</title>
<polygon fill="none" stroke="none" points="8,-98 8,-242 150,-242 150,-98 8,-98"/>
</g>
<g id="clust5" class="cluster"><title>clusterB</title>
<polygon fill="none" stroke="none" points="220,-98 220,-242 362,-242 362,-98 220,-98"/>
</g>
<g id="clust10" class="cluster"><title>clusterC</title>
<polygon fill="none" stroke="none" points="478,-8 478,-250 636,-250 636,-8 478,-8"/>
</g>
<g id="clust11" class="cluster"><title>clusterSubC</title>
<polygon fill="none" stroke="none" points="486,-105 486,-242 628,-242 628,-105 486,-105"/>
</g>
<!-- A_u1 -->
<g id="node1" class="node"><title>A_u1</title>
<polygon fill="none" stroke="black" points="43,-196.398 70,-224.301 16,-224.301 43,-196.398"/>
<text text-anchor="middle" x="43" y="-210.8" font-family="Times New Roman,serif" font-size="14.00">u</text>
</g>
<!-- A_left -->
<g id="node3" class="node"><title>A_left</title>
<polygon fill="none" stroke="black" points="58,-107.2 58,-156.8 112,-156.8 112,-107.2 58,-107.2"/>
<text text-anchor="middle" x="71.1073" y="-140.2" font-family="Times New Roman,serif" font-size="14.00"> </text>
<polyline fill="none" stroke="black" points="58,-132 84.2146,-132 "/>
<text text-anchor="middle" x="71.1073" y="-115.4" font-family="Times New Roman,serif" font-size="14.00">a</text>
<polyline fill="none" stroke="black" points="84.2146,-107.2 84.2146,-156.8 "/>
<text text-anchor="middle" x="97.7146" y="-140.2" font-family="Times New Roman,serif" font-size="14.00"> </text>
<polyline fill="none" stroke="black" points="84.2146,-132 111.215,-132 "/>
<text text-anchor="middle" x="97.7146" y="-115.4" font-family="Times New Roman,serif" font-size="14.00">b</text>
</g>
<!-- A_u1&#45;&gt;A_left -->
<g id="edge1" class="edge"><title>A_u1:s&#45;&gt;A_left:a:n</title>
<path fill="none" stroke="black" d="M45.7871,-186.19C52.8694,-175.616 71,-174.881 71,-158"/>
<polygon fill="black" stroke="black" points="42.3662,-185.424 43,-196 49.0998,-187.337 42.3662,-185.424"/>
</g>
<!-- A_v1 -->
<g id="node2" class="node"><title>A_v1</title>
<polygon fill="none" stroke="black" points="115,-196.398 142,-224.301 88,-224.301 115,-196.398"/>
<text text-anchor="middle" x="115" y="-210.8" font-family="Times New Roman,serif" font-size="14.00">v</text>
</g>
<!-- A_v1&#45;&gt;A_left -->
<g id="edge2" class="edge"><title>A_v1:s&#45;&gt;A_left:b:n</title>
<path fill="none" stroke="black" d="M112.915,-186.005C108.376,-176.225 98,-172.455 98,-158"/>
<polygon fill="black" stroke="black" points="109.532,-186.925 115,-196 116.385,-185.496 109.532,-186.925"/>
</g>
<!-- temp0 -->
<g id="node4" class="node"><title>temp0</title>
<ellipse fill="none" stroke="none" cx="185" cy="-215" rx="1.8" ry="1.8"/>
</g>
<!-- temp1 -->
<g id="node5" class="node"><title>temp1</title>
<text text-anchor="middle" x="185" y="-127.8" font-family="Times New Roman,serif" font-size="14.00">+</text>
</g>
<!-- temp0&#45;&gt;temp1 -->
<g id="edge3" class="edge"><title>temp0&#45;&gt;temp1</title>
</g>
<!-- A_w1 -->
<g id="node6" class="node"><title>A_w1</title>
<polygon fill="none" stroke="black" points="255,-196.398 282,-224.301 228,-224.301 255,-196.398"/>
<text text-anchor="middle" x="255" y="-210.8" font-family="Times New Roman,serif" font-size="14.00">v</text>
</g>
<!-- A_right -->
<g id="node8" class="node"><title>A_right</title>
<polygon fill="none" stroke="black" points="269,-107.2 269,-156.8 323,-156.8 323,-107.2 269,-107.2"/>
<text text-anchor="middle" x="282.5" y="-140.2" font-family="Times New Roman,serif" font-size="14.00"> </text>
<polyline fill="none" stroke="black" points="269,-132 296,-132 "/>
<text text-anchor="middle" x="282.5" y="-115.4" font-family="Times New Roman,serif" font-size="14.00">b</text>
<polyline fill="none" stroke="black" points="296,-107.2 296,-156.8 "/>
<text text-anchor="middle" x="309.5" y="-140.2" font-family="Times New Roman,serif" font-size="14.00"> </text>
<polyline fill="none" stroke="black" points="296,-132 323,-132 "/>
<text text-anchor="middle" x="309.5" y="-115.4" font-family="Times New Roman,serif" font-size="14.00">d</text>
</g>
<!-- A_w1&#45;&gt;A_right -->
<g id="edge4" class="edge"><title>A_w1:s&#45;&gt;A_right:b:n</title>
<path fill="none" stroke="black" d="M257.688,-186.265C264.517,-175.703 282,-174.671 282,-158"/>
<polygon fill="black" stroke="black" points="254.287,-185.429 255,-196 261.035,-187.292 254.287,-185.429"/>
</g>
<!-- A_x1 -->
<g id="node7" class="node"><title>A_x1</title>
<polygon fill="none" stroke="black" points="327,-196.398 354,-224.301 300,-224.301 327,-196.398"/>
<text text-anchor="middle" x="327" y="-210.8" font-family="Times New Roman,serif" font-size="14.00">u</text>
</g>
<!-- A_x1&#45;&gt;A_right -->
<g id="edge5" class="edge"><title>A_x1:s&#45;&gt;A_right:d:n</title>
<path fill="none" stroke="black" d="M324.915,-186.005C320.376,-176.225 310,-172.455 310,-158"/>
<polygon fill="black" stroke="black" points="321.532,-186.925 327,-196 328.385,-185.496 321.532,-186.925"/>
</g>
<!-- temp2a -->
<g id="node9" class="node"><title>temp2a</title>
<ellipse fill="none" stroke="none" cx="426" cy="-215" rx="1.8" ry="1.8"/>
</g>
<!-- temp2b -->
<g id="node10" class="node"><title>temp2b</title>
<ellipse fill="none" stroke="none" cx="376" cy="-132" rx="1.8" ry="1.8"/>
</g>
<!-- temp2a&#45;&gt;temp2b -->
<g id="edge6" class="edge"><title>temp2a&#45;&gt;temp2b</title>
</g>
<!-- temp2c -->
<g id="node11" class="node"><title>temp2c</title>
<ellipse fill="none" stroke="none" cx="468" cy="-132" rx="1.8" ry="1.8"/>
</g>
<!-- temp2a&#45;&gt;temp2c -->
<g id="edge7" class="edge"><title>temp2a&#45;&gt;temp2c</title>
</g>
<!-- temp2b&#45;&gt;temp2c -->
<g id="edge8" class="edge"><title>temp2b&#45;&gt;temp2c</title>
<path fill="none" stroke="black" d="M378.156,-132C403.975,-132 429.794,-132 455.612,-132"/>
<polygon fill="black" stroke="black" points="455.894,-135.5 465.894,-132 455.894,-128.5 455.894,-135.5"/>
</g>
<!-- A_u2 -->
<g id="node12" class="node"><title>A_u2</title>
<polygon fill="none" stroke="black" points="557,-196.398 584,-224.301 530,-224.301 557,-196.398"/>
<text text-anchor="middle" x="557" y="-210.8" font-family="Times New Roman,serif" font-size="14.00">u</text>
</g>
<!-- A_v2 -->
<g id="node14" class="node"><title>A_v2</title>
<polygon fill="none" stroke="black" points="557,-113.398 584,-141.301 530,-141.301 557,-113.398"/>
<text text-anchor="middle" x="557" y="-127.8" font-family="Times New Roman,serif" font-size="14.00">v</text>
</g>
<!-- A_u2&#45;&gt;A_v2 -->
<g id="edge11" class="edge"><title>A_u2&#45;&gt;A_v2</title>
</g>
<!-- A_ut1 -->
<g id="node13" class="node"><title>A_ut1</title>
<ellipse fill="none" stroke="none" cx="494" cy="-132" rx="0.0108" ry="0.0108"/>
</g>
<!-- A_u2&#45;&gt;A_ut1 -->
<g id="edge12" class="edge"><title>A_u2:sw&#45;&gt;A_ut1:n</title>
<path fill="none" stroke="black" d="M540.455,-197.927C515.303,-175.755 494,-169.406 494,-133"/>
<polygon fill="black" stroke="black" points="538.311,-200.714 548,-205 543.098,-195.607 538.311,-200.714"/>
</g>
<!-- A_ut2 -->
<g id="node15" class="node"><title>A_ut2</title>
<ellipse fill="none" stroke="none" cx="620" cy="-132" rx="0.0108" ry="0.0108"/>
</g>
<!-- A_u2&#45;&gt;A_ut2 -->
<g id="edge14" class="edge"><title>A_u2:se&#45;&gt;A_ut2:n</title>
<path fill="none" stroke="black" d="M573.545,-197.927C598.697,-175.755 620,-169.406 620,-133"/>
<polygon fill="black" stroke="black" points="570.902,-195.607 566,-205 575.689,-200.714 570.902,-195.607"/>
</g>
<!-- A_ut1&#45;&gt;A_v2 -->
<g id="edge9" class="edge"><title>A_ut1&#45;&gt;A_v2</title>
</g>
<!-- A_result -->
<g id="node16" class="node"><title>A_result</title>
<polygon fill="none" stroke="black" points="522.893,-17.2 522.893,-66.8 591.107,-66.8 591.107,-17.2 522.893,-17.2"/>
<text text-anchor="middle" x="534" y="-50.2" font-family="Times New Roman,serif" font-size="14.00"> </text>
<polyline fill="none" stroke="black" points="522.893,-42 545.107,-42 "/>
<text text-anchor="middle" x="534" y="-25.4" font-family="Times New Roman,serif" font-size="14.00">a</text>
<polyline fill="none" stroke="black" points="545.107,-17.2 545.107,-66.8 "/>
<text text-anchor="middle" x="556.607" y="-50.2" font-family="Times New Roman,serif" font-size="14.00"> </text>
<polyline fill="none" stroke="black" points="545.107,-42 568.107,-42 "/>
<text text-anchor="middle" x="556.607" y="-25.4" font-family="Times New Roman,serif" font-size="14.00">b</text>
<polyline fill="none" stroke="black" points="568.107,-17.2 568.107,-66.8 "/>
<text text-anchor="middle" x="579.607" y="-50.2" font-family="Times New Roman,serif" font-size="14.00"> </text>
<polyline fill="none" stroke="black" points="568.107,-42 591.107,-42 "/>
<text text-anchor="middle" x="579.607" y="-25.4" font-family="Times New Roman,serif" font-size="14.00">d</text>
</g>
<!-- A_ut1&#45;&gt;A_result -->
<g id="edge16" class="edge"><title>A_ut1:s&#45;&gt;A_result:a:n</title>
<path fill="none" stroke="black" d="M494,-131C494,-97.833 534,-101.167 534,-68"/>
</g>
<!-- A_v2&#45;&gt;A_ut2 -->
<g id="edge10" class="edge"><title>A_v2&#45;&gt;A_ut2</title>
</g>
<!-- A_v2&#45;&gt;A_result -->
<g id="edge13" class="edge"><title>A_v2:s&#45;&gt;A_result:b:n</title>
<path fill="none" stroke="black" d="M557,-101.653C557,-89.8532 557,-83.5833 557,-68"/>
<polygon fill="black" stroke="black" points="553.5,-102 557,-112 560.5,-102 553.5,-102"/>
</g>
<!-- A_v2&#45;&gt;A_result -->
<g id="edge15" class="edge"><title>A_v2:s&#45;&gt;A_result:n</title>
</g>
<!-- A_ut2&#45;&gt;A_result -->
<g id="edge17" class="edge"><title>A_ut2:s&#45;&gt;A_result:d:n</title>
<path fill="none" stroke="black" d="M620,-131C620,-97.833 580,-101.167 580,-68"/>
</g>
</g>
</svg>
