<?xml version="1.0" encoding="UTF-8" standalone="no"?>
<!DOCTYPE svg PUBLIC "-//W3C//DTD SVG 1.1//EN"
 "http://www.w3.org/Graphics/SVG/1.1/DTD/svg11.dtd">
<!-- Generated by graphviz version 2.37.20140119.0545 (20140119.0545)
 -->
<!-- Pages: 1 -->
<svg width="413pt" height="197pt"
 viewBox="0.00 0.00 412.50 196.67" xmlns="http://www.w3.org/2000/svg" xmlns:xlink="http://www.w3.org/1999/xlink">
<g id="graph0" class="graph" transform="scale(0.833333 0.833333) rotate(0) translate(4 232)">
<polygon fill="white" stroke="none" points="-4,4 -4,-232 491,-232 491,4 -4,4"/>
<g id="clust1" class="cluster"><title>clusterA</title>
<polygon fill="none" stroke="none" points="8,-82 8,-220 78,-220 78,-82 8,-82"/>
</g>
<g id="clust5" class="cluster"><title>clusterB</title>
<polygon fill="none" stroke="none" points="152,-82 152,-220 222,-220 222,-82 152,-82"/>
</g>
<g id="clust10" class="cluster"><title>clusterC</title>
<polygon fill="none" stroke="none" points="337,-8 337,-220 479,-220 479,-8 337,-8"/>
</g>
<!-- A_u1 -->
<g id="node1" class="node"><title>A_u1</title>
<polygon fill="none" stroke="black" points="43,-176 70,-203 16,-203 43,-176"/>
<text text-anchor="middle" x="43" y="-190.3" font-family="Times New Roman,serif" font-size="14.00">x</text>
</g>
<!-- A_left -->
<g id="node2" class="node"><title>A_left</title>
<polygon fill="none" stroke="black" points="16,-91 16,-137 70,-137 70,-91 16,-91"/>
<text text-anchor="middle" x="43" y="-121.8" font-family="Times New Roman,serif" font-size="14.00"> </text>
<polyline fill="none" stroke="black" points="16,-114 70,-114 "/>
<text text-anchor="middle" x="43" y="-98.8" font-family="Times New Roman,serif" font-size="14.00">a</text>
</g>
<!-- A_u1&#45;&gt;A_left -->
<g id="edge1" class="edge"><title>A_u1:s&#45;&gt;A_left:a:n</title>
<path fill="none" stroke="black" d="M43,-165.886C43,-156.436 43,-150.931 43,-138"/>
<polygon fill="black" stroke="black" points="39.5001,-166 43,-176 46.5001,-166 39.5001,-166"/>
</g>
<!-- temp0 -->
<g id="node3" class="node"><title>temp0</title>
<ellipse fill="none" stroke="none" cx="115" cy="-194" rx="1.8" ry="1.8"/>
</g>
<!-- temp1 -->
<g id="node4" class="node"><title>temp1</title>
<text text-anchor="middle" x="115" y="-110.3" font-family="Times New Roman,serif" font-size="14.00">+</text>
</g>
<!-- temp0&#45;&gt;temp1 -->
<g id="edge2" class="edge"><title>temp0&#45;&gt;temp1</title>
</g>
<!-- A_w1 -->
<g id="node5" class="node"><title>A_w1</title>
<polygon fill="none" stroke="black" points="187,-176 214,-203 160,-203 187,-176"/>
<text text-anchor="middle" x="187" y="-190.3" font-family="Times New Roman,serif" font-size="14.00">y</text>
</g>
<!-- A_right -->
<g id="node6" class="node"><title>A_right</title>
<polygon fill="none" stroke="black" points="160,-91 160,-137 214,-137 214,-91 160,-91"/>
<text text-anchor="middle" x="187" y="-121.8" font-family="Times New Roman,serif" font-size="14.00"> </text>
<polyline fill="none" stroke="black" points="160,-114 214,-114 "/>
<text text-anchor="middle" x="187" y="-98.8" font-family="Times New Roman,serif" font-size="14.00">a</text>
</g>
<!-- A_w1&#45;&gt;A_right -->
<g id="edge3" class="edge"><title>A_w1:s&#45;&gt;A_right:a:n</title>
<path fill="none" stroke="black" d="M187,-165.886C187,-156.436 187,-150.931 187,-138"/>
<polygon fill="black" stroke="black" points="183.5,-166 187,-176 190.5,-166 183.5,-166"/>
</g>
<!-- temp2a -->
<g id="node7" class="node"><title>temp2a</title>
<ellipse fill="none" stroke="none" cx="279" cy="-194" rx="1.8" ry="1.8"/>
</g>
<!-- temp2b -->
<g id="node8" class="node"><title>temp2b</title>
<ellipse fill="none" stroke="none" cx="237" cy="-114" rx="1.8" ry="1.8"/>
</g>
<!-- temp2a&#45;&gt;temp2b -->
<g id="edge4" class="edge"><title>temp2a&#45;&gt;temp2b</title>
</g>
<!-- temp2c -->
<g id="node9" class="node"><title>temp2c</title>
<ellipse fill="none" stroke="none" cx="327" cy="-114" rx="1.8" ry="1.8"/>
</g>
<!-- temp2a&#45;&gt;temp2c -->
<g id="edge5" class="edge"><title>temp2a&#45;&gt;temp2c</title>
</g>
<!-- temp2b&#45;&gt;temp2c -->
<g id="edge6" class="edge"><title>temp2b&#45;&gt;temp2c</title>
<path fill="none" stroke="black" d="M238.88,-114C248.579,-114 293.352,-114 315.091,-114"/>
<polygon fill="black" stroke="black" points="315.131,-117.5 325.131,-114 315.131,-110.5 315.131,-117.5"/>
<text text-anchor="middle" x="281.6" y="-120.8" font-family="Times New Roman,serif" font-size="14.00" fill="#fffffe">wwwwwww</text>
</g>
<!-- A_u2 -->
<g id="node10" class="node"><title>A_u2</title>
<polygon fill="none" stroke="black" points="372,-176 399,-203 345,-203 372,-176"/>
</g>
<!-- A_result -->
<g id="node12" class="node"><title>A_result</title>
<polygon fill="none" stroke="black" points="386,-91 386,-137 440,-137 440,-91 386,-91"/>
<text text-anchor="middle" x="399.5" y="-121.8" font-family="Times New Roman,serif" font-size="14.00"> </text>
<polyline fill="none" stroke="black" points="386,-114 413,-114 "/>
<text text-anchor="middle" x="399.5" y="-98.8" font-family="Times New Roman,serif" font-size="14.00">x</text>
<polyline fill="none" stroke="black" points="413,-91 413,-137 "/>
<text text-anchor="middle" x="426.5" y="-121.8" font-family="Times New Roman,serif" font-size="14.00"> </text>
<polyline fill="none" stroke="black" points="413,-114 440,-114 "/>
<text text-anchor="middle" x="426.5" y="-98.8" font-family="Times New Roman,serif" font-size="14.00">y</text>
</g>
<!-- A_u2&#45;&gt;A_result -->
<g id="edge7" class="edge"><title>A_u2:s&#45;&gt;A_result:x:n</title>
<path fill="none" stroke="black" d="M374.688,-166.265C381.517,-155.703 399,-154.671 399,-138"/>
<polygon fill="black" stroke="black" points="371.287,-165.429 372,-176 378.035,-167.292 371.287,-165.429"/>
</g>
<!-- A_v2 -->
<g id="node11" class="node"><title>A_v2</title>
<polygon fill="none" stroke="black" points="444,-176 471,-203 417,-203 444,-176"/>
</g>
<!-- A_v2&#45;&gt;A_result -->
<g id="edge8" class="edge"><title>A_v2:s&#45;&gt;A_result:y:n</title>
<path fill="none" stroke="black" d="M441.915,-166.005C437.376,-156.225 427,-152.455 427,-138"/>
<polygon fill="black" stroke="black" points="438.532,-166.925 444,-176 445.385,-165.496 438.532,-166.925"/>
</g>
<!-- A_ap -->
<g id="node13" class="node"><title>A_ap</title>
<text text-anchor="middle" x="413" y="-30.3" font-family="Times New Roman,serif" font-size="14.00">a&#39;</text>
</g>
<!-- A_result&#45;&gt;A_ap -->
<g id="edge9" class="edge"><title>A_result:s&#45;&gt;A_ap:n</title>
<path fill="none" stroke="black" d="M413,-79.8862C413,-70.4361 413,-64.9306 413,-52"/>
<polygon fill="black" stroke="black" points="409.5,-80 413,-90 416.5,-80 409.5,-80"/>
</g>
</g>
</svg>
