<?xml version="1.0" encoding="UTF-8" standalone="no"?>
<!DOCTYPE svg PUBLIC "-//W3C//DTD SVG 1.1//EN"
 "http://www.w3.org/Graphics/SVG/1.1/DTD/svg11.dtd">
<!-- Generated by graphviz version 2.30.0 (20130114.0323)
 -->
<!-- Pages: 1 -->
<svg width="414pt" height="202pt"
 viewBox="0.00 0.00 497.00 242.00" xmlns="http://www.w3.org/2000/svg" xmlns:xlink="http://www.w3.org/1999/xlink">
<g id="graph0" class="graph" transform="scale(0.833333 0.833333) rotate(0) translate(4 238)">
<polygon fill="white" stroke="white" points="-4,5 -4,-238 494,-238 494,5 -4,5"/>
<g id="clust1" class="cluster"><title>clusterA</title>
<polygon fill="none" stroke="none" points="8,-82 8,-226 78,-226 78,-82 8,-82"/>
</g>
<g id="clust5" class="cluster"><title>clusterB</title>
<polygon fill="none" stroke="none" points="152,-82 152,-226 222,-226 222,-82 152,-82"/>
</g>
<g id="clust10" class="cluster"><title>clusterC</title>
<polygon fill="none" stroke="none" points="339,-8 339,-225 481,-225 481,-8 339,-8"/>
</g>
<!-- A_u1 -->
<g id="node1" class="node"><title>A_u1</title>
<polygon fill="none" stroke="black" points="43,-180.398 70,-208.301 16,-208.301 43,-180.398"/>
<text text-anchor="middle" x="43" y="-194.8" font-family="Times New Roman,serif" font-size="14.00">x</text>
</g>
<!-- A_left -->
<g id="node2" class="node"><title>A_left</title>
<polygon fill="none" stroke="black" points="16,-91.2 16,-140.8 70,-140.8 70,-91.2 16,-91.2"/>
<text text-anchor="middle" x="42.6073" y="-124.2" font-family="Times New Roman,serif" font-size="14.00"> </text>
<polyline fill="none" stroke="black" points="16,-116 69.2146,-116 "/>
<text text-anchor="middle" x="42.6073" y="-99.4" font-family="Times New Roman,serif" font-size="14.00">a</text>
</g>
<!-- A_u1&#45;&gt;A_left -->
<g id="edge1" class="edge"><title>A_u1:s&#45;&gt;A_left:a:n</title>
<path fill="none" stroke="black" d="M43,-169.886C43,-160.436 43,-154.931 43,-142"/>
<polygon fill="black" stroke="black" points="39.5001,-170 43,-180 46.5001,-170 39.5001,-170"/>
</g>
<!-- temp0 -->
<g id="node3" class="node"><title>temp0</title>
<ellipse fill="none" stroke="none" cx="115" cy="-199" rx="1.8" ry="1.8"/>
</g>
<!-- temp1 -->
<g id="node4" class="node"><title>temp1</title>
<text text-anchor="middle" x="115" y="-111.8" font-family="Times New Roman,serif" font-size="14.00">+</text>
</g>
<!-- temp0&#45;&gt;temp1 -->
<g id="edge2" class="edge"><title>temp0&#45;&gt;temp1</title>
</g>
<!-- A_w1 -->
<g id="node5" class="node"><title>A_w1</title>
<polygon fill="none" stroke="black" points="187,-180.398 214,-208.301 160,-208.301 187,-180.398"/>
<text text-anchor="middle" x="187" y="-194.8" font-family="Times New Roman,serif" font-size="14.00">y</text>
</g>
<!-- A_right -->
<g id="node6" class="node"><title>A_right</title>
<polygon fill="none" stroke="black" points="160,-91.2 160,-140.8 214,-140.8 214,-91.2 160,-91.2"/>
<text text-anchor="middle" x="186.607" y="-124.2" font-family="Times New Roman,serif" font-size="14.00"> </text>
<polyline fill="none" stroke="black" points="160,-116 213.215,-116 "/>
<text text-anchor="middle" x="186.607" y="-99.4" font-family="Times New Roman,serif" font-size="14.00">a</text>
</g>
<!-- A_w1&#45;&gt;A_right -->
<g id="edge3" class="edge"><title>A_w1:s&#45;&gt;A_right:a:n</title>
<path fill="none" stroke="black" d="M187,-169.886C187,-160.436 187,-154.931 187,-142"/>
<polygon fill="black" stroke="black" points="183.5,-170 187,-180 190.5,-170 183.5,-170"/>
</g>
<!-- temp2a -->
<g id="node7" class="node"><title>temp2a</title>
<ellipse fill="none" stroke="none" cx="280" cy="-199" rx="1.8" ry="1.8"/>
</g>
<!-- temp2b -->
<g id="node8" class="node"><title>temp2b</title>
<ellipse fill="none" stroke="none" cx="237" cy="-116" rx="1.8" ry="1.8"/>
</g>
<!-- temp2a&#45;&gt;temp2b -->
<g id="edge4" class="edge"><title>temp2a&#45;&gt;temp2b</title>
</g>
<!-- temp2c -->
<g id="node9" class="node"><title>temp2c</title>
<ellipse fill="none" stroke="none" cx="329" cy="-116" rx="1.8" ry="1.8"/>
</g>
<!-- temp2a&#45;&gt;temp2c -->
<g id="edge5" class="edge"><title>temp2a&#45;&gt;temp2c</title>
</g>
<!-- temp2b&#45;&gt;temp2c -->
<g id="edge6" class="edge"><title>temp2b&#45;&gt;temp2c</title>
<path fill="none" stroke="black" d="M239.156,-116C264.975,-116 290.794,-116 316.612,-116"/>
<polygon fill="black" stroke="black" points="316.894,-119.5 326.894,-116 316.894,-112.5 316.894,-119.5"/>
</g>
<!-- A_u2 -->
<g id="node10" class="node"><title>A_u2</title>
<polygon fill="none" stroke="black" points="374,-181 401,-208 347,-208 374,-181"/>
</g>
<!-- A_result -->
<g id="node12" class="node"><title>A_result</title>
<polygon fill="none" stroke="black" points="388,-91.2 388,-140.8 442,-140.8 442,-91.2 388,-91.2"/>
<text text-anchor="middle" x="401.5" y="-124.2" font-family="Times New Roman,serif" font-size="14.00"> </text>
<polyline fill="none" stroke="black" points="388,-116 415,-116 "/>
<text text-anchor="middle" x="401.5" y="-99.4" font-family="Times New Roman,serif" font-size="14.00">x</text>
<polyline fill="none" stroke="black" points="415,-91.2 415,-140.8 "/>
<text text-anchor="middle" x="428.5" y="-124.2" font-family="Times New Roman,serif" font-size="14.00"> </text>
<polyline fill="none" stroke="black" points="415,-116 442,-116 "/>
<text text-anchor="middle" x="428.5" y="-99.4" font-family="Times New Roman,serif" font-size="14.00">y</text>
</g>
<!-- A_u2&#45;&gt;A_result -->
<g id="edge7" class="edge"><title>A_u2:s&#45;&gt;A_result:x:n</title>
<path fill="none" stroke="black" d="M376.688,-170.265C383.517,-159.703 401,-158.671 401,-142"/>
<polygon fill="black" stroke="black" points="373.287,-169.429 374,-180 380.035,-171.292 373.287,-169.429"/>
</g>
<!-- A_v2 -->
<g id="node11" class="node"><title>A_v2</title>
<polygon fill="none" stroke="black" points="446,-181 473,-208 419,-208 446,-181"/>
</g>
<!-- A_v2&#45;&gt;A_result -->
<g id="edge8" class="edge"><title>A_v2:s&#45;&gt;A_result:y:n</title>
<path fill="none" stroke="black" d="M443.915,-170.005C439.376,-160.225 429,-156.455 429,-142"/>
<polygon fill="black" stroke="black" points="440.532,-170.925 446,-180 447.385,-169.496 440.532,-170.925"/>
</g>
<!-- A_ap -->
<g id="node13" class="node"><title>A_ap</title>
<text text-anchor="middle" x="415" y="-29.8" font-family="Times New Roman,serif" font-size="14.00">a&#39;</text>
</g>
<!-- A_result&#45;&gt;A_ap -->
<g id="edge9" class="edge"><title>A_result:s&#45;&gt;A_ap:n</title>
<path fill="none" stroke="black" d="M415,-79.8862C415,-70.4361 415,-64.9306 415,-52"/>
<polygon fill="black" stroke="black" points="411.5,-80 415,-90 418.5,-80 411.5,-80"/>
</g>
</g>
</svg>
