<?xml version="1.0" encoding="UTF-8" standalone="no"?>
<!DOCTYPE svg PUBLIC "-//W3C//DTD SVG 1.1//EN"
 "http://www.w3.org/Graphics/SVG/1.1/DTD/svg11.dtd">
<!-- Generated by graphviz version 2.37.20140119.0545 (20140119.0545)
 -->
<!-- Pages: 1 -->
<svg width="588pt" height="135pt"
 viewBox="0.00 0.00 588.33 135.00" xmlns="http://www.w3.org/2000/svg" xmlns:xlink="http://www.w3.org/1999/xlink">
<g id="graph0" class="graph" transform="scale(0.833333 0.833333) rotate(0) translate(4 158)">
<polygon fill="white" stroke="none" points="-4,4 -4,-158 702,-158 702,4 -4,4"/>
<g id="clust1" class="cluster"><title>clusterA</title>
<polygon fill="none" stroke="none" points="8,-8 8,-146 150,-146 150,-8 8,-8"/>
</g>
<g id="clust5" class="cluster"><title>clusterB</title>
<polygon fill="none" stroke="none" points="220,-8 220,-146 362,-146 362,-8 220,-8"/>
</g>
<g id="clust10" class="cluster"><title>clusterC</title>
<polygon fill="none" stroke="none" points="476,-8 476,-146 690,-146 690,-8 476,-8"/>
</g>
<!-- A_u1 -->
<g id="node1" class="node"><title>A_u1</title>
<polygon fill="none" stroke="black" points="43,-102 70,-129 16,-129 43,-102"/>
<text text-anchor="middle" x="43" y="-116.3" font-family="Times New Roman,serif" font-size="14.00">u</text>
</g>
<!-- A_left -->
<g id="node3" class="node"><title>A_left</title>
<polygon fill="none" stroke="black" points="58,-17 58,-63 112,-63 112,-17 58,-17"/>
<text text-anchor="middle" x="71" y="-47.8" font-family="Times New Roman,serif" font-size="14.00"> </text>
<polyline fill="none" stroke="black" points="58,-40 84,-40 "/>
<text text-anchor="middle" x="71" y="-24.8" font-family="Times New Roman,serif" font-size="14.00">a</text>
<polyline fill="none" stroke="black" points="84,-17 84,-63 "/>
<text text-anchor="middle" x="98" y="-47.8" font-family="Times New Roman,serif" font-size="14.00"> </text>
<polyline fill="none" stroke="black" points="84,-40 112,-40 "/>
<text text-anchor="middle" x="98" y="-24.8" font-family="Times New Roman,serif" font-size="14.00">b</text>
</g>
<!-- A_u1&#45;&gt;A_left -->
<g id="edge1" class="edge"><title>A_u1:s&#45;&gt;A_left:a:n</title>
<path fill="none" stroke="black" d="M45.7871,-92.19C52.8694,-81.616 71,-80.8812 71,-64"/>
<polygon fill="black" stroke="black" points="42.3662,-91.4241 43,-102 49.0998,-93.3372 42.3662,-91.4241"/>
</g>
<!-- A_v1 -->
<g id="node2" class="node"><title>A_v1</title>
<polygon fill="none" stroke="black" points="115,-102 142,-129 88,-129 115,-102"/>
<text text-anchor="middle" x="115" y="-116.3" font-family="Times New Roman,serif" font-size="14.00">v</text>
</g>
<!-- A_v1&#45;&gt;A_left -->
<g id="edge2" class="edge"><title>A_v1:s&#45;&gt;A_left:b:n</title>
<path fill="none" stroke="black" d="M112.915,-92.0047C108.376,-82.2246 98,-78.4546 98,-64"/>
<polygon fill="black" stroke="black" points="109.532,-92.9252 115,-102 116.385,-91.496 109.532,-92.9252"/>
</g>
<!-- temp0 -->
<g id="node4" class="node"><title>temp0</title>
<ellipse fill="none" stroke="none" cx="185" cy="-120" rx="1.8" ry="1.8"/>
</g>
<!-- temp1 -->
<g id="node5" class="node"><title>temp1</title>
<text text-anchor="middle" x="185" y="-36.3" font-family="Times New Roman,serif" font-size="14.00">+</text>
</g>
<!-- temp0&#45;&gt;temp1 -->
<g id="edge3" class="edge"><title>temp0&#45;&gt;temp1</title>
</g>
<!-- A_w1 -->
<g id="node6" class="node"><title>A_w1</title>
<polygon fill="none" stroke="black" points="255,-102 282,-129 228,-129 255,-102"/>
<text text-anchor="middle" x="255" y="-116.3" font-family="Times New Roman,serif" font-size="14.00">v</text>
</g>
<!-- A_right -->
<g id="node8" class="node"><title>A_right</title>
<polygon fill="none" stroke="black" points="269,-17 269,-63 323,-63 323,-17 269,-17"/>
<text text-anchor="middle" x="282.5" y="-47.8" font-family="Times New Roman,serif" font-size="14.00"> </text>
<polyline fill="none" stroke="black" points="269,-40 296,-40 "/>
<text text-anchor="middle" x="282.5" y="-24.8" font-family="Times New Roman,serif" font-size="14.00">b</text>
<polyline fill="none" stroke="black" points="296,-17 296,-63 "/>
<text text-anchor="middle" x="309.5" y="-47.8" font-family="Times New Roman,serif" font-size="14.00"> </text>
<polyline fill="none" stroke="black" points="296,-40 323,-40 "/>
<text text-anchor="middle" x="309.5" y="-24.8" font-family="Times New Roman,serif" font-size="14.00">d</text>
</g>
<!-- A_w1&#45;&gt;A_right -->
<g id="edge4" class="edge"><title>A_w1:s&#45;&gt;A_right:b:n</title>
<path fill="none" stroke="black" d="M257.688,-92.2648C264.517,-81.7028 282,-80.6715 282,-64"/>
<polygon fill="black" stroke="black" points="254.287,-91.4292 255,-102 261.035,-93.292 254.287,-91.4292"/>
</g>
<!-- A_x1 -->
<g id="node7" class="node"><title>A_x1</title>
<polygon fill="none" stroke="black" points="327,-102 354,-129 300,-129 327,-102"/>
<text text-anchor="middle" x="327" y="-116.3" font-family="Times New Roman,serif" font-size="14.00">x</text>
</g>
<!-- A_x1&#45;&gt;A_right -->
<g id="edge5" class="edge"><title>A_x1:s&#45;&gt;A_right:d:n</title>
<path fill="none" stroke="black" d="M324.915,-92.0047C320.376,-82.2246 310,-78.4546 310,-64"/>
<polygon fill="black" stroke="black" points="321.532,-92.9252 327,-102 328.385,-91.496 321.532,-92.9252"/>
</g>
<!-- temp2a -->
<g id="node9" class="node"><title>temp2a</title>
<ellipse fill="none" stroke="none" cx="425" cy="-120" rx="1.8" ry="1.8"/>
</g>
<!-- temp2b -->
<g id="node10" class="node"><title>temp2b</title>
<ellipse fill="none" stroke="none" cx="376" cy="-40" rx="1.8" ry="1.8"/>
</g>
<!-- temp2a&#45;&gt;temp2b -->
<g id="edge6" class="edge"><title>temp2a&#45;&gt;temp2b</title>
</g>
<!-- temp2c -->
<g id="node11" class="node"><title>temp2c</title>
<ellipse fill="none" stroke="none" cx="466" cy="-40" rx="1.8" ry="1.8"/>
</g>
<!-- temp2a&#45;&gt;temp2c -->
<g id="edge7" class="edge"><title>temp2a&#45;&gt;temp2c</title>
</g>
<!-- temp2b&#45;&gt;temp2c -->
<g id="edge8" class="edge"><title>temp2b&#45;&gt;temp2c</title>
<path fill="none" stroke="black" d="M377.88,-40C387.579,-40 432.352,-40 454.091,-40"/>
<polygon fill="black" stroke="black" points="454.131,-43.5001 464.131,-40 454.131,-36.5001 454.131,-43.5001"/>
<text text-anchor="middle" x="420.6" y="-46.8" font-family="Times New Roman,serif" font-size="14.00" fill="#fffffe">wwwwwww</text>
</g>
<!-- A_u2 -->
<g id="node12" class="node"><title>A_u2</title>
<polygon fill="none" stroke="black" points="511,-102 538,-129 484,-129 511,-102"/>
<text text-anchor="middle" x="511" y="-116.3" font-family="Times New Roman,serif" font-size="14.00">u</text>
</g>
<!-- A_result -->
<g id="node15" class="node"><title>A_result</title>
<polygon fill="none" stroke="black" points="548.5,-17 548.5,-63 619.5,-63 619.5,-17 548.5,-17"/>
<text text-anchor="middle" x="560" y="-47.8" font-family="Times New Roman,serif" font-size="14.00"> </text>
<polyline fill="none" stroke="black" points="548.5,-40 571.5,-40 "/>
<text text-anchor="middle" x="560" y="-24.8" font-family="Times New Roman,serif" font-size="14.00">a</text>
<polyline fill="none" stroke="black" points="571.5,-17 571.5,-63 "/>
<text text-anchor="middle" x="583.5" y="-47.8" font-family="Times New Roman,serif" font-size="14.00"> </text>
<polyline fill="none" stroke="black" points="571.5,-40 595.5,-40 "/>
<text text-anchor="middle" x="583.5" y="-24.8" font-family="Times New Roman,serif" font-size="14.00">b</text>
<polyline fill="none" stroke="black" points="595.5,-17 595.5,-63 "/>
<text text-anchor="middle" x="607.5" y="-47.8" font-family="Times New Roman,serif" font-size="14.00"> </text>
<polyline fill="none" stroke="black" points="595.5,-40 619.5,-40 "/>
<text text-anchor="middle" x="607.5" y="-24.8" font-family="Times New Roman,serif" font-size="14.00">d</text>
</g>
<!-- A_u2&#45;&gt;A_result -->
<g id="edge9" class="edge"><title>A_u2:s&#45;&gt;A_result:a:n</title>
<path fill="none" stroke="black" d="M513.918,-92.3885C524.467,-78.5384 560,-87.4683 560,-64"/>
<polygon fill="black" stroke="black" points="510.556,-91.4145 511,-102 517.255,-93.4483 510.556,-91.4145"/>
</g>
<!-- A_v2 -->
<g id="node13" class="node"><title>A_v2</title>
<polygon fill="none" stroke="black" points="583,-102 610,-129 556,-129 583,-102"/>
<text text-anchor="middle" x="583" y="-116.3" font-family="Times New Roman,serif" font-size="14.00">v</text>
</g>
<!-- A_v2&#45;&gt;A_result -->
<g id="edge10" class="edge"><title>A_v2:s&#45;&gt;A_result:b:n</title>
<path fill="none" stroke="black" d="M583,-91.8862C583,-82.4361 583,-76.9306 583,-64"/>
<polygon fill="black" stroke="black" points="579.5,-92 583,-102 586.5,-92 579.5,-92"/>
</g>
<!-- A_x2 -->
<g id="node14" class="node"><title>A_x2</title>
<polygon fill="none" stroke="black" points="655,-102 682,-129 628,-129 655,-102"/>
<text text-anchor="middle" x="655" y="-116.3" font-family="Times New Roman,serif" font-size="14.00">x</text>
</g>
<!-- A_x2&#45;&gt;A_result -->
<g id="edge11" class="edge"><title>A_x2:s&#45;&gt;A_result:d:n</title>
<path fill="none" stroke="black" d="M651.916,-92.2026C641.46,-79.0119 608,-86.665 608,-64"/>
<polygon fill="black" stroke="black" points="648.659,-93.5122 655,-102 655.336,-91.4105 648.659,-93.5122"/>
</g>
</g>
</svg>
