<?xml version="1.0" encoding="UTF-8" standalone="no"?>
<!DOCTYPE svg PUBLIC "-//W3C//DTD SVG 1.1//EN"
 "http://www.w3.org/Graphics/SVG/1.1/DTD/svg11.dtd">
<!-- Generated by graphviz version 2.38.0 (20140413.2041)
 -->
<!-- Pages: 1 -->
<svg width="414pt" height="193pt"
 viewBox="0.00 0.00 497.00 231.00" xmlns="http://www.w3.org/2000/svg" xmlns:xlink="http://www.w3.org/1999/xlink">
<g id="graph0" class="graph" transform="scale(0.833333 0.833333) rotate(0) translate(4 227)">
<polygon fill="white" stroke="none" points="-4,4 -4,-227 493,-227 493,4 -4,4"/>
<g id="clust1" class="cluster"><title>clusterA</title>
<polygon fill="none" stroke="none" points="8,-81 8,-215 78,-215 78,-81 8,-81"/>
</g>
<g id="clust5" class="cluster"><title>clusterB</title>
<polygon fill="none" stroke="none" points="152,-81 152,-215 222,-215 222,-81 152,-81"/>
</g>
<g id="clust10" class="cluster"><title>clusterC</title>
<polygon fill="none" stroke="none" points="339,-8 339,-215 481,-215 481,-8 339,-8"/>
</g>
<!-- A_u1 -->
<g id="node1" class="node"><title>A_u1</title>
<polygon fill="none" stroke="black" points="43,-171 70,-198 16,-198 43,-171"/>
<text text-anchor="middle" x="43" y="-184.8" font-family="Times,serif" font-size="14.00">x</text>
</g>
<!-- A_left -->
<g id="node2" class="node"><title>A_left</title>
<polygon fill="none" stroke="black" points="16,-89.5 16,-133.5 70,-133.5 70,-89.5 16,-89.5"/>
<text text-anchor="middle" x="42.6069" y="-118.3" font-family="Times,serif" font-size="14.00"> </text>
<polyline fill="none" stroke="black" points="16,-111.5 69.2139,-111.5 "/>
<text text-anchor="middle" x="42.6069" y="-96.3" font-family="Times,serif" font-size="14.00">a</text>
</g>
<!-- A_u1&#45;&gt;A_left -->
<g id="edge1" class="edge"><title>A_u1:s&#45;&gt;A_left:a:n</title>
<path fill="none" stroke="black" d="M43,-160.872C43,-151.841 43,-146.462 43,-134"/>
<polygon fill="black" stroke="black" points="39.5001,-161 43,-171 46.5001,-161 39.5001,-161"/>
</g>
<!-- temp0 -->
<g id="node3" class="node"><title>temp0</title>
<ellipse fill="none" stroke="none" cx="115" cy="-189" rx="1.8" ry="1.8"/>
</g>
<!-- temp1 -->
<g id="node4" class="node"><title>temp1</title>
<text text-anchor="middle" x="115" y="-107.3" font-family="Times,serif" font-size="14.00">+</text>
</g>
<!-- temp0&#45;&gt;temp1 -->
<g id="edge2" class="edge"><title>temp0&#45;&gt;temp1</title>
</g>
<!-- A_w1 -->
<g id="node5" class="node"><title>A_w1</title>
<polygon fill="none" stroke="black" points="187,-171 214,-198 160,-198 187,-171"/>
<text text-anchor="middle" x="187" y="-184.8" font-family="Times,serif" font-size="14.00">y</text>
</g>
<!-- A_right -->
<g id="node6" class="node"><title>A_right</title>
<polygon fill="none" stroke="black" points="160,-89.5 160,-133.5 214,-133.5 214,-89.5 160,-89.5"/>
<text text-anchor="middle" x="186.607" y="-118.3" font-family="Times,serif" font-size="14.00"> </text>
<polyline fill="none" stroke="black" points="160,-111.5 213.214,-111.5 "/>
<text text-anchor="middle" x="186.607" y="-96.3" font-family="Times,serif" font-size="14.00">a</text>
</g>
<!-- A_w1&#45;&gt;A_right -->
<g id="edge3" class="edge"><title>A_w1:s&#45;&gt;A_right:a:n</title>
<path fill="none" stroke="black" d="M187,-160.872C187,-151.841 187,-146.462 187,-134"/>
<polygon fill="black" stroke="black" points="183.5,-161 187,-171 190.5,-161 183.5,-161"/>
</g>
<!-- temp2a -->
<g id="node7" class="node"><title>temp2a</title>
<ellipse fill="none" stroke="none" cx="280" cy="-189" rx="1.8" ry="1.8"/>
</g>
<!-- temp2b -->
<g id="node8" class="node"><title>temp2b</title>
<ellipse fill="none" stroke="none" cx="237" cy="-111.5" rx="1.8" ry="1.8"/>
</g>
<!-- temp2a&#45;&gt;temp2b -->
<g id="edge4" class="edge"><title>temp2a&#45;&gt;temp2b</title>
</g>
<!-- temp2c -->
<g id="node9" class="node"><title>temp2c</title>
<ellipse fill="none" stroke="none" cx="329" cy="-111.5" rx="1.8" ry="1.8"/>
</g>
<!-- temp2a&#45;&gt;temp2c -->
<g id="edge5" class="edge"><title>temp2a&#45;&gt;temp2c</title>
</g>
<!-- temp2b&#45;&gt;temp2c -->
<g id="edge6" class="edge"><title>temp2b&#45;&gt;temp2c</title>
<path fill="none" stroke="black" d="M238.922,-111.5C248.837,-111.5 294.605,-111.5 316.827,-111.5"/>
<polygon fill="black" stroke="black" points="317.089,-115 327.089,-111.5 317.089,-108 317.089,-115"/>
<text text-anchor="middle" x="283" y="-117.3" font-family="Times,serif" font-size="14.00" fill="#fffffe">wwwwwww</text>
</g>
<!-- A_u2 -->
<g id="node10" class="node"><title>A_u2</title>
<polygon fill="none" stroke="black" points="374,-171 401,-198 347,-198 374,-171"/>
</g>
<!-- A_result -->
<g id="node12" class="node"><title>A_result</title>
<polygon fill="none" stroke="black" points="388,-89.5 388,-133.5 442,-133.5 442,-89.5 388,-89.5"/>
<text text-anchor="middle" x="401.5" y="-118.3" font-family="Times,serif" font-size="14.00"> </text>
<polyline fill="none" stroke="black" points="388,-111.5 415,-111.5 "/>
<text text-anchor="middle" x="401.5" y="-96.3" font-family="Times,serif" font-size="14.00">x</text>
<polyline fill="none" stroke="black" points="415,-89.5 415,-133.5 "/>
<text text-anchor="middle" x="428.5" y="-118.3" font-family="Times,serif" font-size="14.00"> </text>
<polyline fill="none" stroke="black" points="415,-111.5 442,-111.5 "/>
<text text-anchor="middle" x="428.5" y="-96.3" font-family="Times,serif" font-size="14.00">y</text>
</g>
<!-- A_u2&#45;&gt;A_result -->
<g id="edge7" class="edge"><title>A_u2:s&#45;&gt;A_result:x:n</title>
<path fill="none" stroke="black" d="M376.889,-161.171C383.855,-151.159 401,-150.222 401,-134"/>
<polygon fill="black" stroke="black" points="373.463,-160.419 374,-171 380.178,-162.393 373.463,-160.419"/>
</g>
<!-- A_v2 -->
<g id="node11" class="node"><title>A_v2</title>
<polygon fill="none" stroke="black" points="446,-171 473,-198 419,-198 446,-171"/>
</g>
<!-- A_v2&#45;&gt;A_result -->
<g id="edge8" class="edge"><title>A_v2:s&#45;&gt;A_result:y:n</title>
<path fill="none" stroke="black" d="M443.778,-160.96C439.169,-151.65 429,-147.997 429,-134"/>
<polygon fill="black" stroke="black" points="440.421,-161.993 446,-171 447.256,-160.48 440.421,-161.993"/>
</g>
<!-- A_ap -->
<g id="node13" class="node"><title>A_ap</title>
<text text-anchor="middle" x="415" y="-29.8" font-family="Times,serif" font-size="14.00">a&#39;</text>
</g>
<!-- A_result&#45;&gt;A_ap -->
<g id="edge9" class="edge"><title>A_result:s&#45;&gt;A_ap:n</title>
<path fill="none" stroke="black" d="M415,-78.2344C415,-69.4896 415,-64.1667 415,-52"/>
<polygon fill="black" stroke="black" points="411.5,-78.5 415,-88.5 418.5,-78.5 411.5,-78.5"/>
</g>
</g>
</svg>
