<?xml version="1.0" encoding="UTF-8" standalone="no"?>
<!DOCTYPE svg PUBLIC "-//W3C//DTD SVG 1.1//EN"
 "http://www.w3.org/Graphics/SVG/1.1/DTD/svg11.dtd">
<!-- Generated by graphviz version 3.0.0 (20220226.1711)
 -->
<!-- Pages: 1 -->
<svg width="590pt" height="203pt"
 viewBox="0.00 0.00 708.00 244.00" xmlns="http://www.w3.org/2000/svg" xmlns:xlink="http://www.w3.org/1999/xlink">
<g id="graph0" class="graph" transform="scale(0.833333 0.833333) rotate(0) translate(4 240)">
<polygon fill="white" stroke="transparent" points="-4,4 -4,-240 704,-240 704,4 -4,4"/>
<g id="clust1" class="cluster">
<title>clusterA</title>
<polygon fill="none" stroke="transparent" points="8,-92 8,-228 150,-228 150,-92 8,-92"/>
</g>
<g id="clust5" class="cluster">
<title>clusterB</title>
<polygon fill="none" stroke="transparent" points="220,-92 220,-228 362,-228 362,-92 220,-92"/>
</g>
<g id="clust10" class="cluster">
<title>clusterC</title>
<polygon fill="none" stroke="transparent" points="478,-8 478,-228 692,-228 692,-8 478,-8"/>
</g>
<!-- A_u1 -->
<g id="node1" class="node">
<title>A_u1</title>
<polygon fill="none" stroke="black" points="43,-184 70,-211 16,-211 43,-184"/>
<text text-anchor="middle" x="43" y="-198.3" font-family="Times,serif" font-size="14.00">u</text>
</g>
<!-- A_left -->
<g id="node3" class="node">
<title>A_left</title>
<polygon fill="none" stroke="black" points="57,-100.5 57,-146.5 111,-146.5 111,-100.5 57,-100.5"/>
<text text-anchor="middle" x="70.5" y="-131.3" font-family="Times,serif" font-size="14.00"> </text>
<polyline fill="none" stroke="black" points="57,-123.5 84,-123.5 "/>
<text text-anchor="middle" x="70.5" y="-108.3" font-family="Times,serif" font-size="14.00">a</text>
<polyline fill="none" stroke="black" points="84,-100.5 84,-146.5 "/>
<text text-anchor="middle" x="97.5" y="-131.3" font-family="Times,serif" font-size="14.00"> </text>
<polyline fill="none" stroke="black" points="84,-123.5 111,-123.5 "/>
<text text-anchor="middle" x="97.5" y="-108.3" font-family="Times,serif" font-size="14.00">b</text>
</g>
<!-- A_u1&#45;&gt;A_left -->
<g id="edge1" class="edge">
<title>A_u1:s&#45;&gt;A_left:n</title>
<path fill="none" stroke="black" d="M45.89,-174.17C52.85,-164.16 70,-163.22 70,-147"/>
<polygon fill="black" stroke="black" points="42.46,-173.42 43,-184 49.18,-175.39 42.46,-173.42"/>
</g>
<!-- A_v1 -->
<g id="node2" class="node">
<title>A_v1</title>
<polygon fill="none" stroke="black" points="115,-184 142,-211 88,-211 115,-184"/>
<text text-anchor="middle" x="115" y="-198.3" font-family="Times,serif" font-size="14.00">v</text>
</g>
<!-- A_v1&#45;&gt;A_left -->
<g id="edge2" class="edge">
<title>A_v1:s&#45;&gt;A_left:n</title>
<path fill="none" stroke="black" d="M112.78,-173.96C108.17,-164.65 98,-161 98,-147"/>
<polygon fill="black" stroke="black" points="109.42,-174.99 115,-184 116.26,-173.48 109.42,-174.99"/>
</g>
<!-- temp0 -->
<g id="node4" class="node">
<title>temp0</title>
<ellipse fill="transparent" stroke="transparent" cx="185" cy="-202" rx="1.8" ry="1.8"/>
</g>
<!-- temp1 -->
<g id="node5" class="node">
<title>temp1</title>
<text text-anchor="middle" x="185" y="-119.8" font-family="Times,serif" font-size="14.00">+</text>
</g>
<!-- temp0&#45;&gt;temp1 -->
<g id="edge3" class="edge">
<title>temp0&#45;&gt;temp1</title>
</g>
<!-- A_w1 -->
<g id="node6" class="node">
<title>A_w1</title>
<polygon fill="none" stroke="black" points="255,-184 282,-211 228,-211 255,-184"/>
<text text-anchor="middle" x="255" y="-198.3" font-family="Times,serif" font-size="14.00">w</text>
</g>
<!-- A_right -->
<g id="node8" class="node">
<title>A_right</title>
<polygon fill="none" stroke="black" points="269,-100.5 269,-146.5 323,-146.5 323,-100.5 269,-100.5"/>
<text text-anchor="middle" x="282.5" y="-131.3" font-family="Times,serif" font-size="14.00"> </text>
<polyline fill="none" stroke="black" points="269,-123.5 296,-123.5 "/>
<text text-anchor="middle" x="282.5" y="-108.3" font-family="Times,serif" font-size="14.00">b</text>
<polyline fill="none" stroke="black" points="296,-100.5 296,-146.5 "/>
<text text-anchor="middle" x="309.5" y="-131.3" font-family="Times,serif" font-size="14.00"> </text>
<polyline fill="none" stroke="black" points="296,-123.5 323,-123.5 "/>
<text text-anchor="middle" x="309.5" y="-108.3" font-family="Times,serif" font-size="14.00">d</text>
</g>
<!-- A_w1&#45;&gt;A_right -->
<g id="edge4" class="edge">
<title>A_w1:s&#45;&gt;A_right:n</title>
<path fill="none" stroke="black" d="M257.89,-174.17C264.85,-164.16 282,-163.22 282,-147"/>
<polygon fill="black" stroke="black" points="254.46,-173.42 255,-184 261.18,-175.39 254.46,-173.42"/>
</g>
<!-- A_x1 -->
<g id="node7" class="node">
<title>A_x1</title>
<polygon fill="none" stroke="black" points="327,-184 354,-211 300,-211 327,-184"/>
<text text-anchor="middle" x="327" y="-198.3" font-family="Times,serif" font-size="14.00">x</text>
</g>
<!-- A_x1&#45;&gt;A_right -->
<g id="edge5" class="edge">
<title>A_x1:s&#45;&gt;A_right:n</title>
<path fill="none" stroke="black" d="M324.78,-173.96C320.17,-164.65 310,-161 310,-147"/>
<polygon fill="black" stroke="black" points="321.42,-174.99 327,-184 328.26,-173.48 321.42,-174.99"/>
</g>
<!-- temp2a -->
<g id="node9" class="node">
<title>temp2a</title>
<ellipse fill="transparent" stroke="transparent" cx="426" cy="-202" rx="1.8" ry="1.8"/>
</g>
<!-- temp2b -->
<g id="node10" class="node">
<title>temp2b</title>
<ellipse fill="transparent" stroke="transparent" cx="376" cy="-123.5" rx="1.8" ry="1.8"/>
</g>
<!-- temp2a&#45;&gt;temp2b -->
<g id="edge6" class="edge">
<title>temp2a&#45;&gt;temp2b</title>
</g>
<!-- temp2c -->
<g id="node11" class="node">
<title>temp2c</title>
<ellipse fill="transparent" stroke="transparent" cx="466" cy="-123.5" rx="1.8" ry="1.8"/>
</g>
<!-- temp2a&#45;&gt;temp2c -->
<g id="edge7" class="edge">
<title>temp2a&#45;&gt;temp2c</title>
</g>
<!-- temp2b&#45;&gt;temp2c -->
<g id="edge8" class="edge">
<title>temp2b&#45;&gt;temp2c</title>
<path fill="none" stroke="black" d="M377.88,-123.5C387.58,-123.5 432.35,-123.5 454.09,-123.5"/>
<polygon fill="black" stroke="black" points="454.13,-127 464.13,-123.5 454.13,-120 454.13,-127"/>
<text text-anchor="middle" x="421" y="-130.3" font-family="Times,serif" font-size="14.00" fill="#fffffe">wwwwwww</text>
</g>
<!-- A_u2 -->
<g id="node12" class="node">
<title>A_u2</title>
<polygon fill="none" stroke="black" points="513,-105.5 540,-132.5 486,-132.5 513,-105.5"/>
<text text-anchor="middle" x="513" y="-119.8" font-family="Times,serif" font-size="14.00">u</text>
</g>
<!-- A_result -->
<g id="node17" class="node">
<title>A_result</title>
<polygon fill="none" stroke="black" points="549,-16.5 549,-62.5 621,-62.5 621,-16.5 549,-16.5"/>
<text text-anchor="middle" x="560.5" y="-47.3" font-family="Times,serif" font-size="14.00"> </text>
<polyline fill="none" stroke="black" points="549,-39.5 572,-39.5 "/>
<text text-anchor="middle" x="560.5" y="-24.3" font-family="Times,serif" font-size="14.00">a</text>
<polyline fill="none" stroke="black" points="572,-16.5 572,-62.5 "/>
<text text-anchor="middle" x="585" y="-47.3" font-family="Times,serif" font-size="14.00"> </text>
<polyline fill="none" stroke="black" points="572,-39.5 598,-39.5 "/>
<text text-anchor="middle" x="585" y="-24.3" font-family="Times,serif" font-size="14.00">b&#39;</text>
<polyline fill="none" stroke="black" points="598,-16.5 598,-62.5 "/>
<text text-anchor="middle" x="609.5" y="-47.3" font-family="Times,serif" font-size="14.00"> </text>
<polyline fill="none" stroke="black" points="598,-39.5 621,-39.5 "/>
<text text-anchor="middle" x="609.5" y="-24.3" font-family="Times,serif" font-size="14.00">d</text>
</g>
<!-- A_u2&#45;&gt;A_result -->
<g id="edge9" class="edge">
<title>A_u2:s&#45;&gt;A_result:n</title>
<path fill="none" stroke="black" d="M515.8,-94.6C525.92,-79.93 560,-86.73 560,-63"/>
<polygon fill="black" stroke="black" points="512.35,-93.92 513,-104.5 519.09,-95.83 512.35,-93.92"/>
</g>
<!-- A_vw -->
<g id="node13" class="node">
<title>A_vw</title>
<polygon fill="none" stroke="black" points="558,-105.5 558,-141.5 612,-141.5 612,-105.5 558,-105.5"/>
<text text-anchor="middle" x="570.5" y="-128.8" font-family="Times,serif" font-size="14.00"> </text>
<polyline fill="none" stroke="black" points="558,-123.5 583,-123.5 "/>
<text text-anchor="middle" x="570.5" y="-110.8" font-family="Times,serif" font-size="14.00">v</text>
<polyline fill="none" stroke="black" points="583,-105.5 583,-141.5 "/>
<text text-anchor="middle" x="597.5" y="-128.8" font-family="Times,serif" font-size="14.00"> </text>
<polyline fill="none" stroke="black" points="583,-123.5 612,-123.5 "/>
<text text-anchor="middle" x="597.5" y="-110.8" font-family="Times,serif" font-size="14.00">w</text>
</g>
<!-- A_vw&#45;&gt;A_result -->
<g id="edge10" class="edge">
<title>A_vw:s&#45;&gt;A_result:n</title>
<path fill="none" stroke="black" d="M585,-94.41C585,-83.49 585,-77.55 585,-63"/>
<polygon fill="black" stroke="black" points="581.5,-94.5 585,-104.5 588.5,-94.5 581.5,-94.5"/>
</g>
<!-- A_x2 -->
<g id="node14" class="node">
<title>A_x2</title>
<polygon fill="none" stroke="black" points="657,-105.5 684,-132.5 630,-132.5 657,-105.5"/>
<text text-anchor="middle" x="657" y="-119.8" font-family="Times,serif" font-size="14.00">x</text>
</g>
<!-- A_x2&#45;&gt;A_result -->
<g id="edge11" class="edge">
<title>A_x2:s&#45;&gt;A_result:n</title>
<path fill="none" stroke="black" d="M654.2,-94.6C644.08,-79.93 610,-86.73 610,-63"/>
<polygon fill="black" stroke="black" points="650.91,-95.83 657,-104.5 657.65,-93.92 650.91,-95.83"/>
</g>
<!-- A_vp -->
<g id="node15" class="node">
<title>A_vp</title>
<polygon fill="none" stroke="black" points="543,-184 570,-211 516,-211 543,-184"/>
</g>
<!-- A_vp&#45;&gt;A_vw -->
<g id="edge12" class="edge">
<title>A_vp:s&#45;&gt;A_vw:n</title>
<path fill="none" stroke="black" d="M545.3,-174.23C551.83,-162.11 570,-160.55 570,-142.5"/>
<polygon fill="black" stroke="black" points="541.89,-173.46 543,-184 548.7,-175.07 541.89,-173.46"/>
</g>
<!-- A_wp -->
<g id="node16" class="node">
<title>A_wp</title>
<polygon fill="none" stroke="black" points="615,-184 642,-211 588,-211 615,-184"/>
</g>
<!-- A_wp&#45;&gt;A_vw -->
<g id="edge13" class="edge">
<title>A_wp:s&#45;&gt;A_vw:n</title>
<path fill="none" stroke="black" d="M613.31,-174.14C609.01,-162.73 598,-158.54 598,-142.5"/>
<polygon fill="black" stroke="black" points="609.86,-174.74 615,-184 616.76,-173.55 609.86,-174.74"/>
</g>
</g>
</svg>
