<?xml version="1.0" encoding="UTF-8" standalone="no"?>
<!DOCTYPE svg PUBLIC "-//W3C//DTD SVG 1.1//EN"
 "http://www.w3.org/Graphics/SVG/1.1/DTD/svg11.dtd">
<!-- Generated by graphviz version 3.0.0 (20220226.1711)
 -->
<!-- Pages: 1 -->
<svg width="648pt" height="133pt"
 viewBox="0.00 0.00 778.00 160.00" xmlns="http://www.w3.org/2000/svg" xmlns:xlink="http://www.w3.org/1999/xlink">
<g id="graph0" class="graph" transform="scale(0.833333 0.833333) rotate(0) translate(4 156)">
<polygon fill="white" stroke="transparent" points="-4,4 -4,-156 774,-156 774,4 -4,4"/>
<g id="clust1" class="cluster">
<title>clusterA</title>
<polygon fill="none" stroke="transparent" points="8,-8 8,-144 150,-144 150,-8 8,-8"/>
</g>
<g id="clust5" class="cluster">
<title>clusterB</title>
<polygon fill="none" stroke="transparent" points="220,-8 220,-144 362,-144 362,-8 220,-8"/>
</g>
<g id="clust10" class="cluster">
<title>clusterC</title>
<polygon fill="none" stroke="transparent" points="476,-8 476,-144 762,-144 762,-8 476,-8"/>
</g>
<!-- A_u1 -->
<g id="node1" class="node">
<title>A_u1</title>
<polygon fill="none" stroke="black" points="43,-100 70,-127 16,-127 43,-100"/>
<text text-anchor="middle" x="43" y="-114.3" font-family="Times,serif" font-size="14.00">u</text>
</g>
<!-- A_left -->
<g id="node3" class="node">
<title>A_left</title>
<polygon fill="none" stroke="black" points="57,-16.5 57,-62.5 111,-62.5 111,-16.5 57,-16.5"/>
<text text-anchor="middle" x="70.5" y="-47.3" font-family="Times,serif" font-size="14.00"> </text>
<polyline fill="none" stroke="black" points="57,-39.5 84,-39.5 "/>
<text text-anchor="middle" x="70.5" y="-24.3" font-family="Times,serif" font-size="14.00">a</text>
<polyline fill="none" stroke="black" points="84,-16.5 84,-62.5 "/>
<text text-anchor="middle" x="97.5" y="-47.3" font-family="Times,serif" font-size="14.00"> </text>
<polyline fill="none" stroke="black" points="84,-39.5 111,-39.5 "/>
<text text-anchor="middle" x="97.5" y="-24.3" font-family="Times,serif" font-size="14.00">b</text>
</g>
<!-- A_u1&#45;&gt;A_left -->
<g id="edge1" class="edge">
<title>A_u1:s&#45;&gt;A_left:n</title>
<path fill="none" stroke="black" d="M45.89,-90.17C52.85,-80.16 70,-79.22 70,-63"/>
<polygon fill="black" stroke="black" points="42.46,-89.42 43,-100 49.18,-91.39 42.46,-89.42"/>
</g>
<!-- A_v1 -->
<g id="node2" class="node">
<title>A_v1</title>
<polygon fill="none" stroke="black" points="115,-100 142,-127 88,-127 115,-100"/>
<text text-anchor="middle" x="115" y="-114.3" font-family="Times,serif" font-size="14.00">v</text>
</g>
<!-- A_v1&#45;&gt;A_left -->
<g id="edge2" class="edge">
<title>A_v1:s&#45;&gt;A_left:n</title>
<path fill="none" stroke="black" d="M112.78,-89.96C108.17,-80.65 98,-77 98,-63"/>
<polygon fill="black" stroke="black" points="109.42,-90.99 115,-100 116.26,-89.48 109.42,-90.99"/>
</g>
<!-- temp0 -->
<g id="node4" class="node">
<title>temp0</title>
<ellipse fill="transparent" stroke="transparent" cx="185" cy="-118" rx="1.8" ry="1.8"/>
</g>
<!-- temp1 -->
<g id="node5" class="node">
<title>temp1</title>
<text text-anchor="middle" x="185" y="-35.8" font-family="Times,serif" font-size="14.00">+</text>
</g>
<!-- temp0&#45;&gt;temp1 -->
<g id="edge3" class="edge">
<title>temp0&#45;&gt;temp1</title>
</g>
<!-- A_w1 -->
<g id="node6" class="node">
<title>A_w1</title>
<polygon fill="none" stroke="black" points="255,-100 282,-127 228,-127 255,-100"/>
<text text-anchor="middle" x="255" y="-114.3" font-family="Times,serif" font-size="14.00">w</text>
</g>
<!-- A_right -->
<g id="node8" class="node">
<title>A_right</title>
<polygon fill="none" stroke="black" points="269,-16.5 269,-62.5 323,-62.5 323,-16.5 269,-16.5"/>
<text text-anchor="middle" x="282.5" y="-47.3" font-family="Times,serif" font-size="14.00"> </text>
<polyline fill="none" stroke="black" points="269,-39.5 296,-39.5 "/>
<text text-anchor="middle" x="282.5" y="-24.3" font-family="Times,serif" font-size="14.00">c</text>
<polyline fill="none" stroke="black" points="296,-16.5 296,-62.5 "/>
<text text-anchor="middle" x="309.5" y="-47.3" font-family="Times,serif" font-size="14.00"> </text>
<polyline fill="none" stroke="black" points="296,-39.5 323,-39.5 "/>
<text text-anchor="middle" x="309.5" y="-24.3" font-family="Times,serif" font-size="14.00">d</text>
</g>
<!-- A_w1&#45;&gt;A_right -->
<g id="edge4" class="edge">
<title>A_w1:s&#45;&gt;A_right:n</title>
<path fill="none" stroke="black" d="M257.89,-90.17C264.85,-80.16 282,-79.22 282,-63"/>
<polygon fill="black" stroke="black" points="254.46,-89.42 255,-100 261.18,-91.39 254.46,-89.42"/>
</g>
<!-- A_x1 -->
<g id="node7" class="node">
<title>A_x1</title>
<polygon fill="none" stroke="black" points="327,-100 354,-127 300,-127 327,-100"/>
<text text-anchor="middle" x="327" y="-114.3" font-family="Times,serif" font-size="14.00">x</text>
</g>
<!-- A_x1&#45;&gt;A_right -->
<g id="edge5" class="edge">
<title>A_x1:s&#45;&gt;A_right:n</title>
<path fill="none" stroke="black" d="M324.78,-89.96C320.17,-80.65 310,-77 310,-63"/>
<polygon fill="black" stroke="black" points="321.42,-90.99 327,-100 328.26,-89.48 321.42,-90.99"/>
</g>
<!-- temp2a -->
<g id="node9" class="node">
<title>temp2a</title>
<ellipse fill="transparent" stroke="transparent" cx="425" cy="-118" rx="1.8" ry="1.8"/>
</g>
<!-- temp2b -->
<g id="node10" class="node">
<title>temp2b</title>
<ellipse fill="transparent" stroke="transparent" cx="376" cy="-39.5" rx="1.8" ry="1.8"/>
</g>
<!-- temp2a&#45;&gt;temp2b -->
<g id="edge6" class="edge">
<title>temp2a&#45;&gt;temp2b</title>
</g>
<!-- temp2c -->
<g id="node11" class="node">
<title>temp2c</title>
<ellipse fill="transparent" stroke="transparent" cx="466" cy="-39.5" rx="1.8" ry="1.8"/>
</g>
<!-- temp2a&#45;&gt;temp2c -->
<g id="edge7" class="edge">
<title>temp2a&#45;&gt;temp2c</title>
</g>
<!-- temp2b&#45;&gt;temp2c -->
<g id="edge8" class="edge">
<title>temp2b&#45;&gt;temp2c</title>
<path fill="none" stroke="black" d="M377.88,-39.5C387.58,-39.5 432.35,-39.5 454.09,-39.5"/>
<polygon fill="black" stroke="black" points="454.13,-43 464.13,-39.5 454.13,-36 454.13,-43"/>
<text text-anchor="middle" x="421" y="-46.3" font-family="Times,serif" font-size="14.00" fill="#fffffe">wwwwwww</text>
</g>
<!-- A_u2 -->
<g id="node12" class="node">
<title>A_u2</title>
<polygon fill="none" stroke="black" points="511,-100 538,-127 484,-127 511,-100"/>
<text text-anchor="middle" x="511" y="-114.3" font-family="Times,serif" font-size="14.00">u</text>
</g>
<!-- A_result -->
<g id="node16" class="node">
<title>A_result</title>
<polygon fill="none" stroke="black" points="581,-16.5 581,-62.5 673,-62.5 673,-16.5 581,-16.5"/>
<text text-anchor="middle" x="592.5" y="-47.3" font-family="Times,serif" font-size="14.00"> </text>
<polyline fill="none" stroke="black" points="581,-39.5 604,-39.5 "/>
<text text-anchor="middle" x="592.5" y="-24.3" font-family="Times,serif" font-size="14.00">a</text>
<polyline fill="none" stroke="black" points="604,-16.5 604,-62.5 "/>
<text text-anchor="middle" x="615.5" y="-47.3" font-family="Times,serif" font-size="14.00"> </text>
<polyline fill="none" stroke="black" points="604,-39.5 627,-39.5 "/>
<text text-anchor="middle" x="615.5" y="-24.3" font-family="Times,serif" font-size="14.00">b</text>
<polyline fill="none" stroke="black" points="627,-16.5 627,-62.5 "/>
<text text-anchor="middle" x="638.5" y="-47.3" font-family="Times,serif" font-size="14.00"> </text>
<polyline fill="none" stroke="black" points="627,-39.5 650,-39.5 "/>
<text text-anchor="middle" x="638.5" y="-24.3" font-family="Times,serif" font-size="14.00">c</text>
<polyline fill="none" stroke="black" points="650,-16.5 650,-62.5 "/>
<text text-anchor="middle" x="661.5" y="-47.3" font-family="Times,serif" font-size="14.00"> </text>
<polyline fill="none" stroke="black" points="650,-39.5 673,-39.5 "/>
<text text-anchor="middle" x="661.5" y="-24.3" font-family="Times,serif" font-size="14.00">d</text>
</g>
<!-- A_u2&#45;&gt;A_result -->
<g id="edge9" class="edge">
<title>A_u2:s&#45;&gt;A_result:n</title>
<path fill="none" stroke="black" d="M513.51,-90.01C527.18,-68.41 592,-98.4 592,-63"/>
<polygon fill="black" stroke="black" points="510.05,-89.45 511,-100 516.83,-91.16 510.05,-89.45"/>
</g>
<!-- A_v2 -->
<g id="node13" class="node">
<title>A_v2</title>
<polygon fill="none" stroke="black" points="583,-100 610,-127 556,-127 583,-100"/>
<text text-anchor="middle" x="583" y="-114.3" font-family="Times,serif" font-size="14.00">v</text>
</g>
<!-- A_v2&#45;&gt;A_result -->
<g id="edge10" class="edge">
<title>A_v2:s&#45;&gt;A_result:n</title>
<path fill="none" stroke="black" d="M585.95,-90.38C593.88,-79.7 615,-80.66 615,-63"/>
<polygon fill="black" stroke="black" points="582.59,-89.41 583,-100 589.28,-91.47 582.59,-89.41"/>
</g>
<!-- A_w2 -->
<g id="node14" class="node">
<title>A_w2</title>
<polygon fill="none" stroke="black" points="655,-100 682,-127 628,-127 655,-100"/>
<text text-anchor="middle" x="655" y="-114.3" font-family="Times,serif" font-size="14.00">w</text>
</g>
<!-- A_w2&#45;&gt;A_result -->
<g id="edge11" class="edge">
<title>A_w2:s&#45;&gt;A_result:n</title>
<path fill="none" stroke="black" d="M652.91,-90.01C648.57,-80.7 639,-76.86 639,-63"/>
<polygon fill="black" stroke="black" points="649.52,-90.93 655,-100 656.38,-89.49 649.52,-90.93"/>
</g>
<!-- A_x2 -->
<g id="node15" class="node">
<title>A_x2</title>
<polygon fill="none" stroke="black" points="727,-100 754,-127 700,-127 727,-100"/>
<text text-anchor="middle" x="727" y="-114.3" font-family="Times,serif" font-size="14.00">x</text>
</g>
<!-- A_x2&#45;&gt;A_result -->
<g id="edge12" class="edge">
<title>A_x2:s&#45;&gt;A_result:n</title>
<path fill="none" stroke="black" d="M724.21,-90.23C711.77,-73.15 662,-92.09 662,-63"/>
<polygon fill="black" stroke="black" points="720.89,-91.35 727,-100 727.62,-89.42 720.89,-91.35"/>
</g>
</g>
</svg>
