<?xml version="1.0" encoding="UTF-8" standalone="no"?>
<!DOCTYPE svg PUBLIC "-//W3C//DTD SVG 1.1//EN"
 "http://www.w3.org/Graphics/SVG/1.1/DTD/svg11.dtd">
<!-- Generated by graphviz version 2.38.0 (20140413.2041)
 -->
<!-- Pages: 1 -->
<svg width="592pt" height="200pt"
 viewBox="0.00 0.00 710.00 240.00" xmlns="http://www.w3.org/2000/svg" xmlns:xlink="http://www.w3.org/1999/xlink">
<g id="graph0" class="graph" transform="scale(0.833333 0.833333) rotate(0) translate(4 236)">
<polygon fill="white" stroke="none" points="-4,4 -4,-236 706,-236 706,4 -4,4"/>
<g id="clust1" class="cluster"><title>clusterA</title>
<polygon fill="none" stroke="none" points="8,-90 8,-224 150,-224 150,-90 8,-90"/>
</g>
<g id="clust5" class="cluster"><title>clusterB</title>
<polygon fill="none" stroke="none" points="220,-90 220,-224 362,-224 362,-90 220,-90"/>
</g>
<g id="clust10" class="cluster"><title>clusterC</title>
<polygon fill="none" stroke="none" points="480,-8 480,-224 694,-224 694,-8 480,-8"/>
</g>
<!-- A_u1 -->
<g id="node1" class="node"><title>A_u1</title>
<polygon fill="none" stroke="black" points="43,-180 70,-207 16,-207 43,-180"/>
<text text-anchor="middle" x="43" y="-193.8" font-family="Times,serif" font-size="14.00">u</text>
</g>
<!-- A_left -->
<g id="node3" class="node"><title>A_left</title>
<polygon fill="none" stroke="black" points="58,-98.5 58,-142.5 112,-142.5 112,-98.5 58,-98.5"/>
<text text-anchor="middle" x="71.1069" y="-127.3" font-family="Times,serif" font-size="14.00"> </text>
<polyline fill="none" stroke="black" points="58,-120.5 84.2139,-120.5 "/>
<text text-anchor="middle" x="71.1069" y="-105.3" font-family="Times,serif" font-size="14.00">a</text>
<polyline fill="none" stroke="black" points="84.2139,-98.5 84.2139,-142.5 "/>
<text text-anchor="middle" x="97.7139" y="-127.3" font-family="Times,serif" font-size="14.00"> </text>
<polyline fill="none" stroke="black" points="84.2139,-120.5 111.214,-120.5 "/>
<text text-anchor="middle" x="97.7139" y="-105.3" font-family="Times,serif" font-size="14.00">b</text>
</g>
<!-- A_u1&#45;&gt;A_left -->
<g id="edge1" class="edge"><title>A_u1:s&#45;&gt;A_left:a:n</title>
<path fill="none" stroke="black" d="M45.7871,-170.392C52.8694,-160.087 71,-159.595 71,-143"/>
<polygon fill="black" stroke="black" points="42.4246,-169.421 43,-180 49.1474,-171.371 42.4246,-169.421"/>
</g>
<!-- A_v1 -->
<g id="node2" class="node"><title>A_v1</title>
<polygon fill="none" stroke="black" points="115,-180 142,-207 88,-207 115,-180"/>
<text text-anchor="middle" x="115" y="-193.8" font-family="Times,serif" font-size="14.00">v</text>
</g>
<!-- A_v1&#45;&gt;A_left -->
<g id="edge2" class="edge"><title>A_v1:s&#45;&gt;A_left:b:n</title>
<path fill="none" stroke="black" d="M112.778,-169.96C108.169,-160.65 98,-156.997 98,-143"/>
<polygon fill="black" stroke="black" points="109.421,-170.993 115,-180 116.256,-169.48 109.421,-170.993"/>
</g>
<!-- temp0 -->
<g id="node4" class="node"><title>temp0</title>
<ellipse fill="none" stroke="none" cx="185" cy="-198" rx="1.8" ry="1.8"/>
</g>
<!-- temp1 -->
<g id="node5" class="node"><title>temp1</title>
<text text-anchor="middle" x="185" y="-116.3" font-family="Times,serif" font-size="14.00">+</text>
</g>
<!-- temp0&#45;&gt;temp1 -->
<g id="edge3" class="edge"><title>temp0&#45;&gt;temp1</title>
</g>
<!-- A_w1 -->
<g id="node6" class="node"><title>A_w1</title>
<polygon fill="none" stroke="black" points="255,-180 282,-207 228,-207 255,-180"/>
<text text-anchor="middle" x="255" y="-193.8" font-family="Times,serif" font-size="14.00">w</text>
</g>
<!-- A_right -->
<g id="node8" class="node"><title>A_right</title>
<polygon fill="none" stroke="black" points="269,-98.5 269,-142.5 323,-142.5 323,-98.5 269,-98.5"/>
<text text-anchor="middle" x="282.5" y="-127.3" font-family="Times,serif" font-size="14.00"> </text>
<polyline fill="none" stroke="black" points="269,-120.5 296,-120.5 "/>
<text text-anchor="middle" x="282.5" y="-105.3" font-family="Times,serif" font-size="14.00">b</text>
<polyline fill="none" stroke="black" points="296,-98.5 296,-142.5 "/>
<text text-anchor="middle" x="309.5" y="-127.3" font-family="Times,serif" font-size="14.00"> </text>
<polyline fill="none" stroke="black" points="296,-120.5 323,-120.5 "/>
<text text-anchor="middle" x="309.5" y="-105.3" font-family="Times,serif" font-size="14.00">d</text>
</g>
<!-- A_w1&#45;&gt;A_right -->
<g id="edge4" class="edge"><title>A_w1:s&#45;&gt;A_right:b:n</title>
<path fill="none" stroke="black" d="M257.889,-170.171C264.855,-160.159 282,-159.222 282,-143"/>
<polygon fill="black" stroke="black" points="254.463,-169.419 255,-180 261.178,-171.393 254.463,-169.419"/>
</g>
<!-- A_x1 -->
<g id="node7" class="node"><title>A_x1</title>
<polygon fill="none" stroke="black" points="327,-180 354,-207 300,-207 327,-180"/>
<text text-anchor="middle" x="327" y="-193.8" font-family="Times,serif" font-size="14.00">x</text>
</g>
<!-- A_x1&#45;&gt;A_right -->
<g id="edge5" class="edge"><title>A_x1:s&#45;&gt;A_right:d:n</title>
<path fill="none" stroke="black" d="M324.778,-169.96C320.169,-160.65 310,-156.997 310,-143"/>
<polygon fill="black" stroke="black" points="321.421,-170.993 327,-180 328.256,-169.48 321.421,-170.993"/>
</g>
<!-- temp2a -->
<g id="node9" class="node"><title>temp2a</title>
<ellipse fill="none" stroke="none" cx="427" cy="-198" rx="1.8" ry="1.8"/>
</g>
<!-- temp2b -->
<g id="node10" class="node"><title>temp2b</title>
<ellipse fill="none" stroke="none" cx="376" cy="-120.5" rx="1.8" ry="1.8"/>
</g>
<!-- temp2a&#45;&gt;temp2b -->
<g id="edge6" class="edge"><title>temp2a&#45;&gt;temp2b</title>
</g>
<!-- temp2c -->
<g id="node11" class="node"><title>temp2c</title>
<ellipse fill="none" stroke="none" cx="468" cy="-120.5" rx="1.8" ry="1.8"/>
</g>
<!-- temp2a&#45;&gt;temp2c -->
<g id="edge7" class="edge"><title>temp2a&#45;&gt;temp2c</title>
</g>
<!-- temp2b&#45;&gt;temp2c -->
<g id="edge8" class="edge"><title>temp2b&#45;&gt;temp2c</title>
<path fill="none" stroke="black" d="M377.922,-120.5C387.837,-120.5 433.605,-120.5 455.827,-120.5"/>
<polygon fill="black" stroke="black" points="456.089,-124 466.089,-120.5 456.089,-117 456.089,-124"/>
<text text-anchor="middle" x="422" y="-126.3" font-family="Times,serif" font-size="14.00" fill="#fffffe">wwwwwww</text>
</g>
<!-- A_u2 -->
<g id="node12" class="node"><title>A_u2</title>
<polygon fill="none" stroke="black" points="515,-102.5 542,-129.5 488,-129.5 515,-102.5"/>
<text text-anchor="middle" x="515" y="-116.3" font-family="Times,serif" font-size="14.00">u</text>
</g>
<!-- A_result -->
<g id="node17" class="node"><title>A_result</title>
<polygon fill="none" stroke="black" points="551.632,-16.5 551.632,-60.5 622.368,-60.5 622.368,-16.5 551.632,-16.5"/>
<text text-anchor="middle" x="562.739" y="-45.3" font-family="Times,serif" font-size="14.00"> </text>
<polyline fill="none" stroke="black" points="551.632,-38.5 573.846,-38.5 "/>
<text text-anchor="middle" x="562.739" y="-23.3" font-family="Times,serif" font-size="14.00">a</text>
<polyline fill="none" stroke="black" points="573.846,-16.5 573.846,-60.5 "/>
<text text-anchor="middle" x="586.607" y="-45.3" font-family="Times,serif" font-size="14.00"> </text>
<polyline fill="none" stroke="black" points="573.846,-38.5 599.368,-38.5 "/>
<text text-anchor="middle" x="586.607" y="-23.3" font-family="Times,serif" font-size="14.00">b&#39;</text>
<polyline fill="none" stroke="black" points="599.368,-16.5 599.368,-60.5 "/>
<text text-anchor="middle" x="610.868" y="-45.3" font-family="Times,serif" font-size="14.00"> </text>
<polyline fill="none" stroke="black" points="599.368,-38.5 622.368,-38.5 "/>
<text text-anchor="middle" x="610.868" y="-23.3" font-family="Times,serif" font-size="14.00">d</text>
</g>
<!-- A_u2&#45;&gt;A_result -->
<g id="edge9" class="edge"><title>A_u2:s&#45;&gt;A_result:a:n</title>
<path fill="none" stroke="black" d="M517.859,-91.6454C528.192,-77.1844 563,-84.7693 563,-61"/>
<polygon fill="black" stroke="black" points="514.425,-90.9208 515,-101.5 521.148,-92.8712 514.425,-90.9208"/>
</g>
<!-- A_vw -->
<g id="node13" class="node"><title>A_vw</title>
<polygon fill="none" stroke="black" points="560,-102.5 560,-138.5 614,-138.5 614,-102.5 560,-102.5"/>
<text text-anchor="middle" x="572.5" y="-125.3" font-family="Times,serif" font-size="14.00"> </text>
<polyline fill="none" stroke="black" points="560,-120.5 585,-120.5 "/>
<text text-anchor="middle" x="572.5" y="-107.3" font-family="Times,serif" font-size="14.00">v</text>
<polyline fill="none" stroke="black" points="585,-102.5 585,-138.5 "/>
<text text-anchor="middle" x="599.055" y="-125.3" font-family="Times,serif" font-size="14.00"> </text>
<polyline fill="none" stroke="black" points="585,-120.5 613.11,-120.5 "/>
<text text-anchor="middle" x="599.055" y="-107.3" font-family="Times,serif" font-size="14.00">w</text>
</g>
<!-- A_vw&#45;&gt;A_result -->
<g id="edge10" class="edge"><title>A_vw:s&#45;&gt;A_result:b:n</title>
<path fill="none" stroke="black" d="M587,-91.3429C587,-80.8853 587,-75.0625 587,-61"/>
<polygon fill="black" stroke="black" points="583.5,-91.5 587,-101.5 590.5,-91.5 583.5,-91.5"/>
</g>
<!-- A_x2 -->
<g id="node14" class="node"><title>A_x2</title>
<polygon fill="none" stroke="black" points="659,-102.5 686,-129.5 632,-129.5 659,-102.5"/>
<text text-anchor="middle" x="659" y="-116.3" font-family="Times,serif" font-size="14.00">x</text>
</g>
<!-- A_x2&#45;&gt;A_result -->
<g id="edge11" class="edge"><title>A_x2:s&#45;&gt;A_result:d:n</title>
<path fill="none" stroke="black" d="M656.141,-91.6454C645.808,-77.1844 611,-84.7693 611,-61"/>
<polygon fill="black" stroke="black" points="652.852,-92.8712 659,-101.5 659.575,-90.9208 652.852,-92.8712"/>
</g>
<!-- A_vp -->
<g id="node15" class="node"><title>A_vp</title>
<polygon fill="none" stroke="black" points="544,-180 571,-207 517,-207 544,-180"/>
</g>
<!-- A_vp&#45;&gt;A_vw -->
<g id="edge12" class="edge"><title>A_vp:s&#45;&gt;A_vw:v:n</title>
<path fill="none" stroke="black" d="M546.584,-170.012C553.516,-158.458 572,-157.28 572,-139.5"/>
<polygon fill="black" stroke="black" points="543.116,-169.442 544,-180 549.893,-171.195 543.116,-169.442"/>
</g>
<!-- A_wp -->
<g id="node16" class="node"><title>A_wp</title>
<polygon fill="none" stroke="black" points="616,-180 643,-207 589,-207 616,-180"/>
</g>
<!-- A_wp&#45;&gt;A_vw -->
<g id="edge13" class="edge"><title>A_wp:s&#45;&gt;A_vw:w:n</title>
<path fill="none" stroke="black" d="M614.181,-170.037C609.795,-159.141 599,-155.056 599,-139.5"/>
<polygon fill="black" stroke="black" points="610.76,-170.791 616,-180 617.647,-169.534 610.76,-170.791"/>
</g>
</g>
</svg>
