<?xml version="1.0" encoding="UTF-8" standalone="no"?>
<!DOCTYPE svg PUBLIC "-//W3C//DTD SVG 1.1//EN"
 "http://www.w3.org/Graphics/SVG/1.1/DTD/svg11.dtd">
<!-- Generated by graphviz version 7.1.0 (20230121.1956)
 -->
<!-- Pages: 1 -->
<svg width="648pt" height="133pt"
 viewBox="0.00 0.00 778.00 160.00" xmlns="http://www.w3.org/2000/svg" xmlns:xlink="http://www.w3.org/1999/xlink">
<g id="graph0" class="graph" transform="scale(0.833333 0.833333) rotate(0) translate(4 156)">
<polygon fill="white" stroke="none" points="-4,4 -4,-156 774,-156 774,4 -4,4"/>
<g id="clust1" class="cluster">
<title>clusterA</title>
<polygon fill="none" stroke="none" points="8,-8 8,-144 150,-144 150,-8 8,-8"/>
</g>
<g id="clust5" class="cluster">
<title>clusterB</title>
<polygon fill="none" stroke="none" points="220,-8 220,-144 362,-144 362,-8 220,-8"/>
</g>
<g id="clust10" class="cluster">
<title>clusterC</title>
<polygon fill="none" stroke="none" points="476,-8 476,-144 762,-144 762,-8 476,-8"/>
</g>
<!-- A_u1 -->
<g id="node1" class="node">
<title>A_u1</title>
<polygon fill="none" stroke="black" points="43,-100 70,-127 16,-127 43,-100"/>
<text text-anchor="middle" x="43" y="-114.3" font-family="Times,serif" font-size="14.00">u</text>
</g>
<!-- A_left -->
<g id="node3" class="node">
<title>A_left</title>
<polygon fill="none" stroke="black" points="57,-16.5 57,-62.5 111,-62.5 111,-16.5 57,-16.5"/>
<text text-anchor="middle" x="70.5" y="-47.3" font-family="Times,serif" font-size="14.00"> </text>
<polyline fill="none" stroke="black" points="57,-39.5 84,-39.5"/>
<text text-anchor="middle" x="70.5" y="-24.3" font-family="Times,serif" font-size="14.00">a</text>
<polyline fill="none" stroke="black" points="84,-16.5 84,-62.5"/>
<text text-anchor="middle" x="97.5" y="-47.3" font-family="Times,serif" font-size="14.00"> </text>
<polyline fill="none" stroke="black" points="84,-39.5 111,-39.5"/>
<text text-anchor="middle" x="97.5" y="-24.3" font-family="Times,serif" font-size="14.00">b</text>
</g>
<!-- A_u1&#45;&gt;A_left -->
<g id="edge1" class="edge">
<title>A_u1:s&#45;&gt;A_left:n</title>
<path fill="none" stroke="black" d="M46.53,-89.31C53.85,-80.09 70,-78.75 70,-63"/>
<polygon fill="black" stroke="black" points="43.29,-87.97 43.47,-98.56 49.93,-90.16 43.29,-87.97"/>
</g>
<!-- A_v1 -->
<g id="node2" class="node">
<title>A_v1</title>
<polygon fill="none" stroke="black" points="115,-100 142,-127 88,-127 115,-100"/>
<text text-anchor="middle" x="115" y="-114.3" font-family="Times,serif" font-size="14.00">v</text>
</g>
<!-- A_v1&#45;&gt;A_left -->
<g id="edge2" class="edge">
<title>A_v1:s&#45;&gt;A_left:n</title>
<path fill="none" stroke="black" d="M112.19,-88.86C107.36,-80.34 98,-76.43 98,-63"/>
<polygon fill="black" stroke="black" points="108.79,-89.69 114.63,-98.53 115.58,-87.98 108.79,-89.69"/>
</g>
<!-- temp0 -->
<g id="node4" class="node">
<title>temp0</title>
<ellipse fill="none" stroke="none" cx="185" cy="-118" rx="1.8" ry="1.8"/>
</g>
<!-- temp1 -->
<g id="node5" class="node">
<title>temp1</title>
<text text-anchor="middle" x="185" y="-35.8" font-family="Times,serif" font-size="14.00">+</text>
</g>
<!-- temp0&#45;&gt;temp1 -->
<g id="edge3" class="edge">
<title>temp0&#45;&gt;temp1</title>
</g>
<!-- A_w1 -->
<g id="node6" class="node">
<title>A_w1</title>
<polygon fill="none" stroke="black" points="255,-100 282,-127 228,-127 255,-100"/>
<text text-anchor="middle" x="255" y="-114.3" font-family="Times,serif" font-size="14.00">w</text>
</g>
<!-- A_right -->
<g id="node8" class="node">
<title>A_right</title>
<polygon fill="none" stroke="black" points="269,-16.5 269,-62.5 323,-62.5 323,-16.5 269,-16.5"/>
<text text-anchor="middle" x="282.5" y="-47.3" font-family="Times,serif" font-size="14.00"> </text>
<polyline fill="none" stroke="black" points="269,-39.5 296,-39.5"/>
<text text-anchor="middle" x="282.5" y="-24.3" font-family="Times,serif" font-size="14.00">c</text>
<polyline fill="none" stroke="black" points="296,-16.5 296,-62.5"/>
<text text-anchor="middle" x="309.5" y="-47.3" font-family="Times,serif" font-size="14.00"> </text>
<polyline fill="none" stroke="black" points="296,-39.5 323,-39.5"/>
<text text-anchor="middle" x="309.5" y="-24.3" font-family="Times,serif" font-size="14.00">d</text>
</g>
<!-- A_w1&#45;&gt;A_right -->
<g id="edge4" class="edge">
<title>A_w1:s&#45;&gt;A_right:n</title>
<path fill="none" stroke="black" d="M258.53,-89.31C265.85,-80.09 282,-78.75 282,-63"/>
<polygon fill="black" stroke="black" points="255.29,-87.97 255.47,-98.56 261.93,-90.16 255.29,-87.97"/>
</g>
<!-- A_x1 -->
<g id="node7" class="node">
<title>A_x1</title>
<polygon fill="none" stroke="black" points="327,-100 354,-127 300,-127 327,-100"/>
<text text-anchor="middle" x="327" y="-114.3" font-family="Times,serif" font-size="14.00">x</text>
</g>
<!-- A_x1&#45;&gt;A_right -->
<g id="edge5" class="edge">
<title>A_x1:s&#45;&gt;A_right:n</title>
<path fill="none" stroke="black" d="M324.19,-88.86C319.36,-80.34 310,-76.43 310,-63"/>
<polygon fill="black" stroke="black" points="320.79,-89.69 326.63,-98.53 327.58,-87.98 320.79,-89.69"/>
</g>
<!-- temp2a -->
<g id="node9" class="node">
<title>temp2a</title>
<ellipse fill="none" stroke="none" cx="425" cy="-118" rx="1.8" ry="1.8"/>
</g>
<!-- temp2b -->
<g id="node10" class="node">
<title>temp2b</title>
<ellipse fill="none" stroke="none" cx="376" cy="-39.5" rx="1.8" ry="1.8"/>
</g>
<!-- temp2a&#45;&gt;temp2b -->
<g id="edge6" class="edge">
<title>temp2a&#45;&gt;temp2b</title>
</g>
<!-- temp2c -->
<g id="node11" class="node">
<title>temp2c</title>
<ellipse fill="none" stroke="none" cx="466" cy="-39.5" rx="1.8" ry="1.8"/>
</g>
<!-- temp2a&#45;&gt;temp2c -->
<g id="edge7" class="edge">
<title>temp2a&#45;&gt;temp2c</title>
</g>
<!-- temp2b&#45;&gt;temp2c -->
<g id="edge8" class="edge">
<title>temp2b&#45;&gt;temp2c</title>
<path fill="none" stroke="black" d="M378.22,-39.5C388.34,-39.5 430.46,-39.5 452.47,-39.5"/>
<polygon fill="black" stroke="black" points="452.34,-43 462.34,-39.5 452.34,-36 452.34,-43"/>
<text text-anchor="middle" x="421" y="-46.3" font-family="Times,serif" font-size="14.00" fill="#fffffe" fill-opacity="0.000000">wwwwwww</text>
</g>
<!-- A_u2 -->
<g id="node12" class="node">
<title>A_u2</title>
<polygon fill="none" stroke="black" points="511,-100 538,-127 484,-127 511,-100"/>
<text text-anchor="middle" x="511" y="-114.3" font-family="Times,serif" font-size="14.00">u</text>
</g>
<!-- A_result -->
<g id="node16" class="node">
<title>A_result</title>
<polygon fill="none" stroke="black" points="581,-16.5 581,-62.5 673,-62.5 673,-16.5 581,-16.5"/>
<text text-anchor="middle" x="592.5" y="-47.3" font-family="Times,serif" font-size="14.00"> </text>
<polyline fill="none" stroke="black" points="581,-39.5 604,-39.5"/>
<text text-anchor="middle" x="592.5" y="-24.3" font-family="Times,serif" font-size="14.00">a</text>
<polyline fill="none" stroke="black" points="604,-16.5 604,-62.5"/>
<text text-anchor="middle" x="615.5" y="-47.3" font-family="Times,serif" font-size="14.00"> </text>
<polyline fill="none" stroke="black" points="604,-39.5 627,-39.5"/>
<text text-anchor="middle" x="615.5" y="-24.3" font-family="Times,serif" font-size="14.00">b</text>
<polyline fill="none" stroke="black" points="627,-16.5 627,-62.5"/>
<text text-anchor="middle" x="638.5" y="-47.3" font-family="Times,serif" font-size="14.00"> </text>
<polyline fill="none" stroke="black" points="627,-39.5 650,-39.5"/>
<text text-anchor="middle" x="638.5" y="-24.3" font-family="Times,serif" font-size="14.00">c</text>
<polyline fill="none" stroke="black" points="650,-16.5 650,-62.5"/>
<text text-anchor="middle" x="661.5" y="-47.3" font-family="Times,serif" font-size="14.00"> </text>
<polyline fill="none" stroke="black" points="650,-39.5 673,-39.5"/>
<text text-anchor="middle" x="661.5" y="-24.3" font-family="Times,serif" font-size="14.00">d</text>
</g>
<!-- A_u2&#45;&gt;A_result -->
<g id="edge9" class="edge">
<title>A_u2:s&#45;&gt;A_result:n</title>
<path fill="none" stroke="black" d="M514.08,-89.19C528.87,-69.18 592,-97.94 592,-63"/>
<polygon fill="black" stroke="black" points="510.79,-87.97 511.41,-98.54 517.52,-89.88 510.79,-87.97"/>
</g>
<!-- A_v2 -->
<g id="node13" class="node">
<title>A_v2</title>
<polygon fill="none" stroke="black" points="583,-100 610,-127 556,-127 583,-100"/>
<text text-anchor="middle" x="583" y="-114.3" font-family="Times,serif" font-size="14.00">v</text>
</g>
<!-- A_v2&#45;&gt;A_result -->
<g id="edge10" class="edge">
<title>A_v2:s&#45;&gt;A_result:n</title>
<path fill="none" stroke="black" d="M586.92,-89.19C595.47,-79.74 615,-79.99 615,-63"/>
<polygon fill="black" stroke="black" points="583.64,-87.98 583.52,-98.58 590.22,-90.37 583.64,-87.98"/>
</g>
<!-- A_w2 -->
<g id="node14" class="node">
<title>A_w2</title>
<polygon fill="none" stroke="black" points="655,-100 682,-127 628,-127 655,-100"/>
<text text-anchor="middle" x="655" y="-114.3" font-family="Times,serif" font-size="14.00">w</text>
</g>
<!-- A_w2&#45;&gt;A_result -->
<g id="edge11" class="edge">
<title>A_w2:s&#45;&gt;A_result:n</title>
<path fill="none" stroke="black" d="M652.36,-88.91C647.81,-80.37 639,-76.3 639,-63"/>
<polygon fill="black" stroke="black" points="648.93,-89.61 654.65,-98.53 655.74,-87.99 648.93,-89.61"/>
</g>
<!-- A_x2 -->
<g id="node15" class="node">
<title>A_x2</title>
<polygon fill="none" stroke="black" points="727,-100 754,-127 700,-127 727,-100"/>
<text text-anchor="middle" x="727" y="-114.3" font-family="Times,serif" font-size="14.00">x</text>
</g>
<!-- A_x2&#45;&gt;A_result -->
<g id="edge12" class="edge">
<title>A_x2:s&#45;&gt;A_result:n</title>
<path fill="none" stroke="black" d="M723.51,-89.35C710,-73.81 662,-91.57 662,-63"/>
<polygon fill="black" stroke="black" points="720.09,-90.15 726.53,-98.56 726.74,-87.97 720.09,-90.15"/>
</g>
</g>
</svg>
