<?xml version="1.0" encoding="UTF-8" standalone="no"?>
<!DOCTYPE svg PUBLIC "-//W3C//DTD SVG 1.1//EN"
 "http://www.w3.org/Graphics/SVG/1.1/DTD/svg11.dtd">
<!-- Generated by graphviz version 8.0.5 (20230430.1635)
 -->
<!-- Pages: 1 -->
<svg width="589pt" height="208pt"
 viewBox="0.00 0.00 707.00 250.00" xmlns="http://www.w3.org/2000/svg" xmlns:xlink="http://www.w3.org/1999/xlink">
<g id="graph0" class="graph" transform="scale(0.833333 0.833333) rotate(0) translate(4 246)">
<polygon fill="white" stroke="none" points="-4,4 -4,-246 703,-246 703,4 -4,4"/>
<g id="clust1" class="cluster">
<title>clusterA</title>
<polygon fill="none" stroke="none" points="8,-95 8,-234 150,-234 150,-95 8,-95"/>
</g>
<g id="clust5" class="cluster">
<title>clusterB</title>
<polygon fill="none" stroke="none" points="220,-95 220,-234 362,-234 362,-95 220,-95"/>
</g>
<g id="clust10" class="cluster">
<title>clusterC</title>
<polygon fill="none" stroke="none" points="477,-8 477,-234 691,-234 691,-8 477,-8"/>
</g>
<!-- A_u1 -->
<g id="node1" class="node">
<title>A_u1</title>
<polygon fill="none" stroke="black" points="43,-190 70,-217 16,-217 43,-190"/>
<text text-anchor="middle" x="43" y="-202.95" font-family="Times,serif" font-size="14.00">u</text>
</g>
<!-- A_left -->
<g id="node3" class="node">
<title>A_left</title>
<polygon fill="none" stroke="black" points="58,-103.5 58,-152.5 112,-152.5 112,-103.5 58,-103.5"/>
<text text-anchor="middle" x="71" y="-135.2" font-family="Times,serif" font-size="14.00"> </text>
<polyline fill="none" stroke="black" points="58,-128 84,-128"/>
<text text-anchor="middle" x="71" y="-110.7" font-family="Times,serif" font-size="14.00">a</text>
<polyline fill="none" stroke="black" points="84,-103.5 84,-152.5"/>
<text text-anchor="middle" x="97.88" y="-135.2" font-family="Times,serif" font-size="14.00"> </text>
<polyline fill="none" stroke="black" points="84,-128 111.75,-128"/>
<text text-anchor="middle" x="97.88" y="-110.7" font-family="Times,serif" font-size="14.00">b</text>
</g>
<!-- A_u1&#45;&gt;A_left -->
<g id="edge1" class="edge">
<title>A_u1:s&#45;&gt;A_left:n</title>
<path fill="none" stroke="black" d="M46.21,-179.8C53.57,-170.06 71,-169.27 71,-153"/>
<polygon fill="black" stroke="black" points="42.67,-178.41 43,-189 49.34,-180.51 42.67,-178.41"/>
</g>
<!-- A_v1 -->
<g id="node2" class="node">
<title>A_v1</title>
<polygon fill="none" stroke="black" points="115,-190 142,-217 88,-217 115,-190"/>
<text text-anchor="middle" x="115" y="-202.95" font-family="Times,serif" font-size="14.00">v</text>
</g>
<!-- A_v1&#45;&gt;A_left -->
<g id="edge2" class="edge">
<title>A_v1:s&#45;&gt;A_left:n</title>
<path fill="none" stroke="black" d="M112.49,-179.4C107.76,-170.5 98,-166.71 98,-153"/>
<polygon fill="black" stroke="black" points="109.29,-180.08 115,-189 116.1,-178.46 109.29,-180.08"/>
</g>
<!-- temp0 -->
<g id="node4" class="node">
<title>temp0</title>
<ellipse fill="none" stroke="none" cx="185" cy="-208" rx="1.8" ry="1.8"/>
</g>
<!-- temp1 -->
<g id="node5" class="node">
<title>temp1</title>
<text text-anchor="middle" x="185" y="-122.95" font-family="Times,serif" font-size="14.00">+</text>
</g>
<!-- temp0&#45;&gt;temp1 -->
<g id="edge3" class="edge">
<title>temp0&#45;&gt;temp1</title>
</g>
<!-- A_w1 -->
<g id="node6" class="node">
<title>A_w1</title>
<polygon fill="none" stroke="black" points="255,-190 282,-217 228,-217 255,-190"/>
<text text-anchor="middle" x="255" y="-202.95" font-family="Times,serif" font-size="14.00">w</text>
</g>
<!-- A_right -->
<g id="node8" class="node">
<title>A_right</title>
<polygon fill="none" stroke="black" points="270,-103.5 270,-152.5 324,-152.5 324,-103.5 270,-103.5"/>
<text text-anchor="middle" x="283.38" y="-135.2" font-family="Times,serif" font-size="14.00"> </text>
<polyline fill="none" stroke="black" points="270,-128 296.75,-128"/>
<text text-anchor="middle" x="283.38" y="-110.7" font-family="Times,serif" font-size="14.00">b</text>
<polyline fill="none" stroke="black" points="296.75,-103.5 296.75,-152.5"/>
<text text-anchor="middle" x="310.12" y="-135.2" font-family="Times,serif" font-size="14.00"> </text>
<polyline fill="none" stroke="black" points="296.75,-128 323.5,-128"/>
<text text-anchor="middle" x="310.12" y="-110.7" font-family="Times,serif" font-size="14.00">d</text>
</g>
<!-- A_w1&#45;&gt;A_right -->
<g id="edge4" class="edge">
<title>A_w1:s&#45;&gt;A_right:n</title>
<path fill="none" stroke="black" d="M258.21,-179.8C265.57,-170.06 283,-169.27 283,-153"/>
<polygon fill="black" stroke="black" points="254.67,-178.41 255,-189 261.34,-180.51 254.67,-178.41"/>
</g>
<!-- A_x1 -->
<g id="node7" class="node">
<title>A_x1</title>
<polygon fill="none" stroke="black" points="327,-190 354,-217 300,-217 327,-190"/>
<text text-anchor="middle" x="327" y="-202.95" font-family="Times,serif" font-size="14.00">x</text>
</g>
<!-- A_x1&#45;&gt;A_right -->
<g id="edge5" class="edge">
<title>A_x1:s&#45;&gt;A_right:n</title>
<path fill="none" stroke="black" d="M324.49,-179.4C319.76,-170.5 310,-166.71 310,-153"/>
<polygon fill="black" stroke="black" points="321.29,-180.08 327,-189 328.1,-178.46 321.29,-180.08"/>
</g>
<!-- temp2a -->
<g id="node9" class="node">
<title>temp2a</title>
<ellipse fill="none" stroke="none" cx="426" cy="-208" rx="1.8" ry="1.8"/>
</g>
<!-- temp2b -->
<g id="node10" class="node">
<title>temp2b</title>
<ellipse fill="none" stroke="none" cx="376" cy="-128" rx="1.8" ry="1.8"/>
</g>
<!-- temp2a&#45;&gt;temp2b -->
<g id="edge6" class="edge">
<title>temp2a&#45;&gt;temp2b</title>
</g>
<!-- temp2c -->
<g id="node11" class="node">
<title>temp2c</title>
<ellipse fill="none" stroke="none" cx="465" cy="-128" rx="1.8" ry="1.8"/>
</g>
<!-- temp2a&#45;&gt;temp2c -->
<g id="edge7" class="edge">
<title>temp2a&#45;&gt;temp2c</title>
</g>
<!-- temp2b&#45;&gt;temp2c -->
<g id="edge8" class="edge">
<title>temp2b&#45;&gt;temp2c</title>
<path fill="none" stroke="black" d="M378.2,-128C388.25,-128 430.26,-128 451.93,-128"/>
<polygon fill="black" stroke="black" points="451.88,-131.5 461.88,-128 451.88,-124.5 451.88,-131.5"/>
<text text-anchor="middle" x="420.5" y="-134.2" font-family="Times,serif" font-size="14.00" fill="#fffffe" fill-opacity="0.000000">wwwwwww</text>
</g>
<!-- A_u2 -->
<g id="node12" class="node">
<title>A_u2</title>
<polygon fill="none" stroke="black" points="512,-110 539,-137 485,-137 512,-110"/>
<text text-anchor="middle" x="512" y="-122.95" font-family="Times,serif" font-size="14.00">u</text>
</g>
<!-- A_result -->
<g id="node17" class="node">
<title>A_result</title>
<polygon fill="none" stroke="black" points="549.12,-16.5 549.12,-65.5 618.88,-65.5 618.88,-16.5 549.12,-16.5"/>
<text text-anchor="middle" x="560.12" y="-48.2" font-family="Times,serif" font-size="14.00"> </text>
<polyline fill="none" stroke="black" points="549.12,-41 571.12,-41"/>
<text text-anchor="middle" x="560.12" y="-23.7" font-family="Times,serif" font-size="14.00">a</text>
<polyline fill="none" stroke="black" points="571.12,-16.5 571.12,-65.5"/>
<text text-anchor="middle" x="583.62" y="-48.2" font-family="Times,serif" font-size="14.00"> </text>
<polyline fill="none" stroke="black" points="571.12,-41 596.12,-41"/>
<text text-anchor="middle" x="583.62" y="-23.7" font-family="Times,serif" font-size="14.00">b&#39;</text>
<polyline fill="none" stroke="black" points="596.12,-16.5 596.12,-65.5"/>
<text text-anchor="middle" x="607.5" y="-48.2" font-family="Times,serif" font-size="14.00"> </text>
<polyline fill="none" stroke="black" points="596.12,-41 618.88,-41"/>
<text text-anchor="middle" x="607.5" y="-23.7" font-family="Times,serif" font-size="14.00">d</text>
</g>
<!-- A_u2&#45;&gt;A_result -->
<g id="edge9" class="edge">
<title>A_u2:s&#45;&gt;A_result:n</title>
<path fill="none" stroke="black" d="M514.86,-98.8C525.19,-83.65 560,-90.39 560,-66"/>
<polygon fill="black" stroke="black" points="511.33,-97.43 512,-108 518.07,-99.32 511.33,-97.43"/>
</g>
<!-- A_vw -->
<g id="node13" class="node">
<title>A_vw</title>
<polygon fill="none" stroke="black" points="557,-110 557,-146 611,-146 611,-110 557,-110"/>
<text text-anchor="middle" x="569.6" y="-131.98" font-family="Times,serif" font-size="14.00"> </text>
<polyline fill="none" stroke="black" points="557,-128.06 582.19,-128.06"/>
<text text-anchor="middle" x="569.6" y="-114.04" font-family="Times,serif" font-size="14.00">v</text>
<polyline fill="none" stroke="black" points="582.19,-110 582.19,-146"/>
<text text-anchor="middle" x="596.28" y="-131.98" font-family="Times,serif" font-size="14.00"> </text>
<polyline fill="none" stroke="black" points="582.19,-128.06 610.38,-128.06"/>
<text text-anchor="middle" x="596.28" y="-114.04" font-family="Times,serif" font-size="14.00">w</text>
</g>
<!-- A_vw&#45;&gt;A_result -->
<g id="edge10" class="edge">
<title>A_vw:s&#45;&gt;A_result:n</title>
<path fill="none" stroke="black" d="M584,-98.22C584,-87.11 584,-80.93 584,-66"/>
<polygon fill="black" stroke="black" points="580.5,-98 584,-108 587.5,-98 580.5,-98"/>
</g>
<!-- A_x2 -->
<g id="node14" class="node">
<title>A_x2</title>
<polygon fill="none" stroke="black" points="656,-110 683,-137 629,-137 656,-110"/>
<text text-anchor="middle" x="656" y="-122.95" font-family="Times,serif" font-size="14.00">x</text>
</g>
<!-- A_x2&#45;&gt;A_result -->
<g id="edge11" class="edge">
<title>A_x2:s&#45;&gt;A_result:n</title>
<path fill="none" stroke="black" d="M653.14,-98.8C642.81,-83.65 608,-90.39 608,-66"/>
<polygon fill="black" stroke="black" points="649.93,-99.32 656,-108 656.67,-97.43 649.93,-99.32"/>
</g>
<!-- A_vp -->
<g id="node15" class="node">
<title>A_vp</title>
<polygon fill="none" stroke="black" points="541,-190 568,-217 514,-217 541,-190"/>
</g>
<!-- A_vp&#45;&gt;A_vw -->
<g id="edge12" class="edge">
<title>A_vp:s&#45;&gt;A_vw:n</title>
<path fill="none" stroke="black" d="M543.68,-179.45C550.86,-167.19 570,-165.73 570,-147"/>
<polygon fill="black" stroke="black" points="540.07,-178.45 541,-189 546.85,-180.17 540.07,-178.45"/>
</g>
<!-- A_wp -->
<g id="node16" class="node">
<title>A_wp</title>
<polygon fill="none" stroke="black" points="613,-190 640,-217 586,-217 613,-190"/>
</g>
<!-- A_wp&#45;&gt;A_vw -->
<g id="edge13" class="edge">
<title>A_wp:s&#45;&gt;A_vw:n</title>
<path fill="none" stroke="black" d="M611.18,-179.47C606.8,-167.91 596,-163.38 596,-147"/>
<polygon fill="black" stroke="black" points="607.85,-179.74 613,-189 614.75,-178.55 607.85,-179.74"/>
</g>
</g>
</svg>
