<?xml version="1.0" encoding="UTF-8" standalone="no"?>
<!DOCTYPE svg PUBLIC "-//W3C//DTD SVG 1.1//EN"
 "http://www.w3.org/Graphics/SVG/1.1/DTD/svg11.dtd">
<!-- Generated by graphviz version 8.0.5 (20230430.1635)
 -->
<!-- Pages: 1 -->
<svg width="412pt" height="197pt"
 viewBox="0.00 0.00 494.00 236.00" xmlns="http://www.w3.org/2000/svg" xmlns:xlink="http://www.w3.org/1999/xlink">
<g id="graph0" class="graph" transform="scale(0.833333 0.833333) rotate(0) translate(4 232)">
<polygon fill="white" stroke="none" points="-4,4 -4,-232 490,-232 490,4 -4,4"/>
<g id="clust1" class="cluster">
<title>clusterA</title>
<polygon fill="none" stroke="none" points="8,-81 8,-220 78,-220 78,-81 8,-81"/>
</g>
<g id="clust5" class="cluster">
<title>clusterB</title>
<polygon fill="none" stroke="none" points="152,-81 152,-220 222,-220 222,-81 152,-81"/>
</g>
<g id="clust10" class="cluster">
<title>clusterC</title>
<polygon fill="none" stroke="none" points="336,-8 336,-220 478,-220 478,-8 336,-8"/>
</g>
<!-- A_u1 -->
<g id="node1" class="node">
<title>A_u1</title>
<polygon fill="none" stroke="black" points="43,-176 70,-203 16,-203 43,-176"/>
<text text-anchor="middle" x="43" y="-188.95" font-family="Times,serif" font-size="14.00">x</text>
</g>
<!-- A_left -->
<g id="node2" class="node">
<title>A_left</title>
<polygon fill="none" stroke="black" points="16,-89.5 16,-138.5 70,-138.5 70,-89.5 16,-89.5"/>
<text text-anchor="middle" x="43" y="-121.2" font-family="Times,serif" font-size="14.00"> </text>
<polyline fill="none" stroke="black" points="16,-114 70,-114"/>
<text text-anchor="middle" x="43" y="-96.7" font-family="Times,serif" font-size="14.00">a</text>
</g>
<!-- A_u1&#45;&gt;A_left -->
<g id="edge1" class="edge">
<title>A_u1:s&#45;&gt;A_left:n</title>
<path fill="none" stroke="black" d="M43,-165.04C43,-156.5 43,-151.08 43,-139"/>
<polygon fill="black" stroke="black" points="39.5,-165 43,-175 46.5,-165 39.5,-165"/>
</g>
<!-- temp0 -->
<g id="node3" class="node">
<title>temp0</title>
<ellipse fill="none" stroke="none" cx="115" cy="-194" rx="1.8" ry="1.8"/>
</g>
<!-- temp1 -->
<g id="node4" class="node">
<title>temp1</title>
<text text-anchor="middle" x="115" y="-108.95" font-family="Times,serif" font-size="14.00">+</text>
</g>
<!-- temp0&#45;&gt;temp1 -->
<g id="edge2" class="edge">
<title>temp0&#45;&gt;temp1</title>
</g>
<!-- A_w1 -->
<g id="node5" class="node">
<title>A_w1</title>
<polygon fill="none" stroke="black" points="187,-176 214,-203 160,-203 187,-176"/>
<text text-anchor="middle" x="187" y="-188.95" font-family="Times,serif" font-size="14.00">y</text>
</g>
<!-- A_right -->
<g id="node6" class="node">
<title>A_right</title>
<polygon fill="none" stroke="black" points="160,-89.5 160,-138.5 214,-138.5 214,-89.5 160,-89.5"/>
<text text-anchor="middle" x="187" y="-121.2" font-family="Times,serif" font-size="14.00"> </text>
<polyline fill="none" stroke="black" points="160,-114 214,-114"/>
<text text-anchor="middle" x="187" y="-96.7" font-family="Times,serif" font-size="14.00">a</text>
</g>
<!-- A_w1&#45;&gt;A_right -->
<g id="edge3" class="edge">
<title>A_w1:s&#45;&gt;A_right:n</title>
<path fill="none" stroke="black" d="M187,-165.04C187,-156.5 187,-151.08 187,-139"/>
<polygon fill="black" stroke="black" points="183.5,-165 187,-175 190.5,-165 183.5,-165"/>
</g>
<!-- temp2a -->
<g id="node7" class="node">
<title>temp2a</title>
<ellipse fill="none" stroke="none" cx="285" cy="-194" rx="1.8" ry="1.8"/>
</g>
<!-- temp2b -->
<g id="node8" class="node">
<title>temp2b</title>
<ellipse fill="none" stroke="none" cx="237" cy="-114" rx="1.8" ry="1.8"/>
</g>
<!-- temp2a&#45;&gt;temp2b -->
<g id="edge4" class="edge">
<title>temp2a&#45;&gt;temp2b</title>
</g>
<!-- temp2c -->
<g id="node9" class="node">
<title>temp2c</title>
<ellipse fill="none" stroke="none" cx="326" cy="-114" rx="1.8" ry="1.8"/>
</g>
<!-- temp2a&#45;&gt;temp2c -->
<g id="edge5" class="edge">
<title>temp2a&#45;&gt;temp2c</title>
</g>
<!-- temp2b&#45;&gt;temp2c -->
<g id="edge6" class="edge">
<title>temp2b&#45;&gt;temp2c</title>
<path fill="none" stroke="black" d="M239.2,-114C249.25,-114 291.26,-114 312.93,-114"/>
<polygon fill="black" stroke="black" points="312.88,-117.5 322.88,-114 312.88,-110.5 312.88,-117.5"/>
<text text-anchor="middle" x="281.5" y="-120.2" font-family="Times,serif" font-size="14.00" fill="#fffffe" fill-opacity="0.000000">wwwwwww</text>
</g>
<!-- A_u2 -->
<g id="node10" class="node">
<title>A_u2</title>
<polygon fill="none" stroke="black" points="371,-176 398,-203 344,-203 371,-176"/>
</g>
<!-- A_result -->
<g id="node12" class="node">
<title>A_result</title>
<polygon fill="none" stroke="black" points="386,-89.5 386,-138.5 440,-138.5 440,-89.5 386,-89.5"/>
<text text-anchor="middle" x="399.38" y="-121.2" font-family="Times,serif" font-size="14.00"> </text>
<polyline fill="none" stroke="black" points="386,-114 412.75,-114"/>
<text text-anchor="middle" x="399.38" y="-96.7" font-family="Times,serif" font-size="14.00">x</text>
<polyline fill="none" stroke="black" points="412.75,-89.5 412.75,-138.5"/>
<text text-anchor="middle" x="426.12" y="-121.2" font-family="Times,serif" font-size="14.00"> </text>
<polyline fill="none" stroke="black" points="412.75,-114 439.5,-114"/>
<text text-anchor="middle" x="426.12" y="-96.7" font-family="Times,serif" font-size="14.00">y</text>
</g>
<!-- A_u2&#45;&gt;A_result -->
<g id="edge7" class="edge">
<title>A_u2:s&#45;&gt;A_result:n</title>
<path fill="none" stroke="black" d="M374.21,-165.8C381.57,-156.06 399,-155.27 399,-139"/>
<polygon fill="black" stroke="black" points="370.67,-164.41 371,-175 377.34,-166.51 370.67,-164.41"/>
</g>
<!-- A_v2 -->
<g id="node11" class="node">
<title>A_v2</title>
<polygon fill="none" stroke="black" points="443,-176 470,-203 416,-203 443,-176"/>
</g>
<!-- A_v2&#45;&gt;A_result -->
<g id="edge8" class="edge">
<title>A_v2:s&#45;&gt;A_result:n</title>
<path fill="none" stroke="black" d="M440.49,-165.4C435.76,-156.5 426,-152.71 426,-139"/>
<polygon fill="black" stroke="black" points="437.29,-166.08 443,-175 444.1,-164.46 437.29,-166.08"/>
</g>
<!-- A_ap -->
<g id="node13" class="node">
<title>A_ap</title>
<text text-anchor="middle" x="413" y="-28.95" font-family="Times,serif" font-size="14.00">a&#39;</text>
</g>
<!-- A_result&#45;&gt;A_ap -->
<g id="edge9" class="edge">
<title>A_result:s&#45;&gt;A_ap:n</title>
<path fill="none" stroke="black" d="M413,-77.08C413,-68.92 413,-63.62 413,-52"/>
<polygon fill="black" stroke="black" points="409.5,-77 413,-87 416.5,-77 409.5,-77"/>
</g>
</g>
</svg>
