<?xml version="1.0" encoding="UTF-8" standalone="no"?>
<!DOCTYPE svg PUBLIC "-//W3C//DTD SVG 1.1//EN"
 "http://www.w3.org/Graphics/SVG/1.1/DTD/svg11.dtd">
<!-- Generated by graphviz version 7.1.0 (20230121.1956)
 -->
<!-- Pages: 1 -->
<svg width="542pt" height="210pt"
 viewBox="0.00 0.00 650.00 252.00" xmlns="http://www.w3.org/2000/svg" xmlns:xlink="http://www.w3.org/1999/xlink">
<g id="graph0" class="graph" transform="scale(0.833333 0.833333) rotate(0) translate(4 248)">
<polygon fill="white" stroke="none" points="-4,4 -4,-248 646,-248 646,4 -4,4"/>
<g id="clust1" class="cluster">
<title>clusterA</title>
<polygon fill="none" stroke="none" points="8,-92 8,-228 150,-228 150,-92 8,-92"/>
</g>
<g id="clust5" class="cluster">
<title>clusterB</title>
<polygon fill="none" stroke="none" points="220,-92 220,-228 362,-228 362,-92 220,-92"/>
</g>
<g id="clust10" class="cluster">
<title>clusterC</title>
<polygon fill="none" stroke="none" points="476,-8 476,-236 634,-236 634,-8 476,-8"/>
</g>
<g id="clust11" class="cluster">
<title>clusterSubC</title>
<polygon fill="none" stroke="none" points="484,-97.5 484,-228 626,-228 626,-97.5 484,-97.5"/>
</g>
<!-- A_u1 -->
<g id="node1" class="node">
<title>A_u1</title>
<polygon fill="none" stroke="black" points="43,-184 70,-211 16,-211 43,-184"/>
<text text-anchor="middle" x="43" y="-198.3" font-family="Times,serif" font-size="14.00">u</text>
</g>
<!-- A_left -->
<g id="node3" class="node">
<title>A_left</title>
<polygon fill="none" stroke="black" points="57,-100.5 57,-146.5 111,-146.5 111,-100.5 57,-100.5"/>
<text text-anchor="middle" x="70.5" y="-131.3" font-family="Times,serif" font-size="14.00"> </text>
<polyline fill="none" stroke="black" points="57,-123.5 84,-123.5"/>
<text text-anchor="middle" x="70.5" y="-108.3" font-family="Times,serif" font-size="14.00">a</text>
<polyline fill="none" stroke="black" points="84,-100.5 84,-146.5"/>
<text text-anchor="middle" x="97.5" y="-131.3" font-family="Times,serif" font-size="14.00"> </text>
<polyline fill="none" stroke="black" points="84,-123.5 111,-123.5"/>
<text text-anchor="middle" x="97.5" y="-108.3" font-family="Times,serif" font-size="14.00">b</text>
</g>
<!-- A_u1&#45;&gt;A_left -->
<g id="edge1" class="edge">
<title>A_u1:s&#45;&gt;A_left:n</title>
<path fill="none" stroke="black" d="M46.53,-173.31C53.85,-164.09 70,-162.75 70,-147"/>
<polygon fill="black" stroke="black" points="43.29,-171.97 43.47,-182.56 49.93,-174.16 43.29,-171.97"/>
</g>
<!-- A_v1 -->
<g id="node2" class="node">
<title>A_v1</title>
<polygon fill="none" stroke="black" points="115,-184 142,-211 88,-211 115,-184"/>
<text text-anchor="middle" x="115" y="-198.3" font-family="Times,serif" font-size="14.00">v</text>
</g>
<!-- A_v1&#45;&gt;A_left -->
<g id="edge2" class="edge">
<title>A_v1:s&#45;&gt;A_left:n</title>
<path fill="none" stroke="black" d="M112.19,-172.86C107.36,-164.34 98,-160.43 98,-147"/>
<polygon fill="black" stroke="black" points="108.79,-173.69 114.63,-182.53 115.58,-171.98 108.79,-173.69"/>
</g>
<!-- temp0 -->
<g id="node4" class="node">
<title>temp0</title>
<ellipse fill="none" stroke="none" cx="185" cy="-202" rx="1.8" ry="1.8"/>
</g>
<!-- temp1 -->
<g id="node5" class="node">
<title>temp1</title>
<text text-anchor="middle" x="185" y="-119.8" font-family="Times,serif" font-size="14.00">+</text>
</g>
<!-- temp0&#45;&gt;temp1 -->
<g id="edge3" class="edge">
<title>temp0&#45;&gt;temp1</title>
</g>
<!-- A_w1 -->
<g id="node6" class="node">
<title>A_w1</title>
<polygon fill="none" stroke="black" points="255,-184 282,-211 228,-211 255,-184"/>
<text text-anchor="middle" x="255" y="-198.3" font-family="Times,serif" font-size="14.00">v</text>
</g>
<!-- A_right -->
<g id="node8" class="node">
<title>A_right</title>
<polygon fill="none" stroke="black" points="269,-100.5 269,-146.5 323,-146.5 323,-100.5 269,-100.5"/>
<text text-anchor="middle" x="282.5" y="-131.3" font-family="Times,serif" font-size="14.00"> </text>
<polyline fill="none" stroke="black" points="269,-123.5 296,-123.5"/>
<text text-anchor="middle" x="282.5" y="-108.3" font-family="Times,serif" font-size="14.00">b</text>
<polyline fill="none" stroke="black" points="296,-100.5 296,-146.5"/>
<text text-anchor="middle" x="309.5" y="-131.3" font-family="Times,serif" font-size="14.00"> </text>
<polyline fill="none" stroke="black" points="296,-123.5 323,-123.5"/>
<text text-anchor="middle" x="309.5" y="-108.3" font-family="Times,serif" font-size="14.00">d</text>
</g>
<!-- A_w1&#45;&gt;A_right -->
<g id="edge4" class="edge">
<title>A_w1:s&#45;&gt;A_right:n</title>
<path fill="none" stroke="black" d="M258.53,-173.31C265.85,-164.09 282,-162.75 282,-147"/>
<polygon fill="black" stroke="black" points="255.29,-171.97 255.47,-182.56 261.93,-174.16 255.29,-171.97"/>
</g>
<!-- A_x1 -->
<g id="node7" class="node">
<title>A_x1</title>
<polygon fill="none" stroke="black" points="327,-184 354,-211 300,-211 327,-184"/>
<text text-anchor="middle" x="327" y="-198.3" font-family="Times,serif" font-size="14.00">u</text>
</g>
<!-- A_x1&#45;&gt;A_right -->
<g id="edge5" class="edge">
<title>A_x1:s&#45;&gt;A_right:n</title>
<path fill="none" stroke="black" d="M324.19,-172.86C319.36,-164.34 310,-160.43 310,-147"/>
<polygon fill="black" stroke="black" points="320.79,-173.69 326.63,-182.53 327.58,-171.98 320.79,-173.69"/>
</g>
<!-- temp2a -->
<g id="node9" class="node">
<title>temp2a</title>
<ellipse fill="none" stroke="none" cx="425" cy="-202" rx="1.8" ry="1.8"/>
</g>
<!-- temp2b -->
<g id="node10" class="node">
<title>temp2b</title>
<ellipse fill="none" stroke="none" cx="376" cy="-123.5" rx="1.8" ry="1.8"/>
</g>
<!-- temp2a&#45;&gt;temp2b -->
<g id="edge6" class="edge">
<title>temp2a&#45;&gt;temp2b</title>
</g>
<!-- temp2c -->
<g id="node11" class="node">
<title>temp2c</title>
<ellipse fill="none" stroke="none" cx="466" cy="-123.5" rx="1.8" ry="1.8"/>
</g>
<!-- temp2a&#45;&gt;temp2c -->
<g id="edge7" class="edge">
<title>temp2a&#45;&gt;temp2c</title>
</g>
<!-- temp2b&#45;&gt;temp2c -->
<g id="edge8" class="edge">
<title>temp2b&#45;&gt;temp2c</title>
<path fill="none" stroke="black" d="M378.22,-123.5C388.34,-123.5 430.46,-123.5 452.47,-123.5"/>
<polygon fill="black" stroke="black" points="452.34,-127 462.34,-123.5 452.34,-120 452.34,-127"/>
<text text-anchor="middle" x="421" y="-130.3" font-family="Times,serif" font-size="14.00" fill="#fffffe" fill-opacity="0.000000">wwwwwww</text>
</g>
<!-- A_u2 -->
<g id="node12" class="node">
<title>A_u2</title>
<polygon fill="none" stroke="black" points="555,-184 582,-211 528,-211 555,-184"/>
<text text-anchor="middle" x="555" y="-198.3" font-family="Times,serif" font-size="14.00">u</text>
</g>
<!-- A_ut1 -->
<g id="node13" class="node">
<title>A_ut1</title>
<ellipse fill="none" stroke="none" cx="492" cy="-123.5" rx="0.01" ry="0.01"/>
</g>
<!-- A_u2&#45;&gt;A_ut1 -->
<g id="edge12" class="edge">
<title>A_u2:sw&#45;&gt;A_ut1:n</title>
<path fill="none" stroke="black" d="M537.76,-184.44C513.66,-164.07 492,-159.02 492,-124.5"/>
<polygon fill="black" stroke="black" points="535.15,-186.79 544.88,-190.98 539.88,-181.64 535.15,-186.79"/>
</g>
<!-- A_v2 -->
<g id="node14" class="node">
<title>A_v2</title>
<polygon fill="none" stroke="black" points="555,-105.5 582,-132.5 528,-132.5 555,-105.5"/>
<text text-anchor="middle" x="555" y="-119.8" font-family="Times,serif" font-size="14.00">v</text>
</g>
<!-- A_u2&#45;&gt;A_v2 -->
<g id="edge11" class="edge">
<title>A_u2&#45;&gt;A_v2</title>
</g>
<!-- A_ut2 -->
<g id="node15" class="node">
<title>A_ut2</title>
<ellipse fill="none" stroke="none" cx="618" cy="-123.5" rx="0.01" ry="0.01"/>
</g>
<!-- A_u2&#45;&gt;A_ut2 -->
<g id="edge14" class="edge">
<title>A_u2:se&#45;&gt;A_ut2:n</title>
<path fill="none" stroke="black" d="M572.24,-184.44C596.34,-164.07 618,-159.02 618,-124.5"/>
<polygon fill="black" stroke="black" points="570.12,-181.64 565.12,-190.98 574.85,-186.79 570.12,-181.64"/>
</g>
<!-- A_ut1&#45;&gt;A_v2 -->
<g id="edge9" class="edge">
<title>A_ut1&#45;&gt;A_v2</title>
</g>
<!-- A_result -->
<g id="node16" class="node">
<title>A_result</title>
<polygon fill="none" stroke="black" points="520.5,-16.5 520.5,-62.5 589.5,-62.5 589.5,-16.5 520.5,-16.5"/>
<text text-anchor="middle" x="532" y="-47.3" font-family="Times,serif" font-size="14.00"> </text>
<polyline fill="none" stroke="black" points="520.5,-39.5 543.5,-39.5"/>
<text text-anchor="middle" x="532" y="-24.3" font-family="Times,serif" font-size="14.00">a</text>
<polyline fill="none" stroke="black" points="543.5,-16.5 543.5,-62.5"/>
<text text-anchor="middle" x="555" y="-47.3" font-family="Times,serif" font-size="14.00"> </text>
<polyline fill="none" stroke="black" points="543.5,-39.5 566.5,-39.5"/>
<text text-anchor="middle" x="555" y="-24.3" font-family="Times,serif" font-size="14.00">b</text>
<polyline fill="none" stroke="black" points="566.5,-16.5 566.5,-62.5"/>
<text text-anchor="middle" x="578" y="-47.3" font-family="Times,serif" font-size="14.00"> </text>
<polyline fill="none" stroke="black" points="566.5,-39.5 589.5,-39.5"/>
<text text-anchor="middle" x="578" y="-24.3" font-family="Times,serif" font-size="14.00">d</text>
</g>
<!-- A_ut1&#45;&gt;A_result -->
<g id="edge16" class="edge">
<title>A_ut1:s&#45;&gt;A_result:n</title>
<path fill="none" stroke="black" d="M492,-122.5C492,-90.64 532,-94.86 532,-63"/>
</g>
<!-- A_v2&#45;&gt;A_ut2 -->
<g id="edge10" class="edge">
<title>A_v2&#45;&gt;A_ut2</title>
</g>
<!-- A_v2&#45;&gt;A_result -->
<g id="edge13" class="edge">
<title>A_v2:s&#45;&gt;A_result:n</title>
<path fill="none" stroke="black" d="M555,-93.14C555,-83.01 555,-76.98 555,-63"/>
<polygon fill="black" stroke="black" points="551.5,-92.99 555,-102.99 558.5,-92.99 551.5,-92.99"/>
</g>
<!-- A_v2&#45;&gt;A_result -->
<g id="edge15" class="edge">
<title>A_v2:s&#45;&gt;A_result:n</title>
</g>
<!-- A_ut2&#45;&gt;A_result -->
<g id="edge17" class="edge">
<title>A_ut2:s&#45;&gt;A_result:n</title>
<path fill="none" stroke="black" d="M618,-122.5C618,-90.64 578,-94.86 578,-63"/>
</g>
</g>
</svg>
