<?xml version="1.0" encoding="UTF-8" standalone="no"?>
<!DOCTYPE svg PUBLIC "-//W3C//DTD SVG 1.1//EN"
 "http://www.w3.org/Graphics/SVG/1.1/DTD/svg11.dtd">
<!-- Generated by graphviz version 2.38.0 (20140413.2041)
 -->
<!-- Pages: 1 -->
<svg width="650pt" height="132pt"
 viewBox="0.00 0.00 780.00 158.00" xmlns="http://www.w3.org/2000/svg" xmlns:xlink="http://www.w3.org/1999/xlink">
<g id="graph0" class="graph" transform="scale(0.833333 0.833333) rotate(0) translate(4 154)">
<polygon fill="white" stroke="none" points="-4,4 -4,-154 776,-154 776,4 -4,4"/>
<g id="clust1" class="cluster"><title>clusterA</title>
<polygon fill="none" stroke="none" points="8,-8 8,-142 150,-142 150,-8 8,-8"/>
</g>
<g id="clust5" class="cluster"><title>clusterB</title>
<polygon fill="none" stroke="none" points="220,-8 220,-142 362,-142 362,-8 220,-8"/>
</g>
<g id="clust10" class="cluster"><title>clusterC</title>
<polygon fill="none" stroke="none" points="478,-8 478,-142 764,-142 764,-8 478,-8"/>
</g>
<!-- A_u1 -->
<g id="node1" class="node"><title>A_u1</title>
<polygon fill="none" stroke="black" points="43,-98 70,-125 16,-125 43,-98"/>
<text text-anchor="middle" x="43" y="-111.8" font-family="Times,serif" font-size="14.00">u</text>
</g>
<!-- A_left -->
<g id="node3" class="node"><title>A_left</title>
<polygon fill="none" stroke="black" points="58,-16.5 58,-60.5 112,-60.5 112,-16.5 58,-16.5"/>
<text text-anchor="middle" x="71.1069" y="-45.3" font-family="Times,serif" font-size="14.00"> </text>
<polyline fill="none" stroke="black" points="58,-38.5 84.2139,-38.5 "/>
<text text-anchor="middle" x="71.1069" y="-23.3" font-family="Times,serif" font-size="14.00">a</text>
<polyline fill="none" stroke="black" points="84.2139,-16.5 84.2139,-60.5 "/>
<text text-anchor="middle" x="97.7139" y="-45.3" font-family="Times,serif" font-size="14.00"> </text>
<polyline fill="none" stroke="black" points="84.2139,-38.5 111.214,-38.5 "/>
<text text-anchor="middle" x="97.7139" y="-23.3" font-family="Times,serif" font-size="14.00">b</text>
</g>
<!-- A_u1&#45;&gt;A_left -->
<g id="edge1" class="edge"><title>A_u1:s&#45;&gt;A_left:a:n</title>
<path fill="none" stroke="black" d="M45.7871,-88.3918C52.8694,-78.0871 71,-77.5946 71,-61"/>
<polygon fill="black" stroke="black" points="42.4246,-87.4208 43,-98 49.1474,-89.371 42.4246,-87.4208"/>
</g>
<!-- A_v1 -->
<g id="node2" class="node"><title>A_v1</title>
<polygon fill="none" stroke="black" points="115,-98 142,-125 88,-125 115,-98"/>
<text text-anchor="middle" x="115" y="-111.8" font-family="Times,serif" font-size="14.00">v</text>
</g>
<!-- A_v1&#45;&gt;A_left -->
<g id="edge2" class="edge"><title>A_v1:s&#45;&gt;A_left:b:n</title>
<path fill="none" stroke="black" d="M112.778,-87.9602C108.169,-78.6502 98,-74.997 98,-61"/>
<polygon fill="black" stroke="black" points="109.421,-88.9928 115,-98 116.256,-87.4799 109.421,-88.9928"/>
</g>
<!-- temp0 -->
<g id="node4" class="node"><title>temp0</title>
<ellipse fill="none" stroke="none" cx="185" cy="-116" rx="1.8" ry="1.8"/>
</g>
<!-- temp1 -->
<g id="node5" class="node"><title>temp1</title>
<text text-anchor="middle" x="185" y="-34.3" font-family="Times,serif" font-size="14.00">+</text>
</g>
<!-- temp0&#45;&gt;temp1 -->
<g id="edge3" class="edge"><title>temp0&#45;&gt;temp1</title>
</g>
<!-- A_w1 -->
<g id="node6" class="node"><title>A_w1</title>
<polygon fill="none" stroke="black" points="255,-98 282,-125 228,-125 255,-98"/>
<text text-anchor="middle" x="255" y="-111.8" font-family="Times,serif" font-size="14.00">w</text>
</g>
<!-- A_right -->
<g id="node8" class="node"><title>A_right</title>
<polygon fill="none" stroke="black" points="270,-16.5 270,-60.5 324,-60.5 324,-16.5 270,-16.5"/>
<text text-anchor="middle" x="283.107" y="-45.3" font-family="Times,serif" font-size="14.00"> </text>
<polyline fill="none" stroke="black" points="270,-38.5 296.214,-38.5 "/>
<text text-anchor="middle" x="283.107" y="-23.3" font-family="Times,serif" font-size="14.00">c</text>
<polyline fill="none" stroke="black" points="296.214,-16.5 296.214,-60.5 "/>
<text text-anchor="middle" x="309.714" y="-45.3" font-family="Times,serif" font-size="14.00"> </text>
<polyline fill="none" stroke="black" points="296.214,-38.5 323.214,-38.5 "/>
<text text-anchor="middle" x="309.714" y="-23.3" font-family="Times,serif" font-size="14.00">d</text>
</g>
<!-- A_w1&#45;&gt;A_right -->
<g id="edge4" class="edge"><title>A_w1:s&#45;&gt;A_right:c:n</title>
<path fill="none" stroke="black" d="M257.787,-88.3918C264.869,-78.0871 283,-77.5946 283,-61"/>
<polygon fill="black" stroke="black" points="254.425,-87.4208 255,-98 261.147,-89.371 254.425,-87.4208"/>
</g>
<!-- A_x1 -->
<g id="node7" class="node"><title>A_x1</title>
<polygon fill="none" stroke="black" points="327,-98 354,-125 300,-125 327,-98"/>
<text text-anchor="middle" x="327" y="-111.8" font-family="Times,serif" font-size="14.00">x</text>
</g>
<!-- A_x1&#45;&gt;A_right -->
<g id="edge5" class="edge"><title>A_x1:s&#45;&gt;A_right:d:n</title>
<path fill="none" stroke="black" d="M324.778,-87.9602C320.169,-78.6502 310,-74.997 310,-61"/>
<polygon fill="black" stroke="black" points="321.421,-88.9928 327,-98 328.256,-87.4799 321.421,-88.9928"/>
</g>
<!-- temp2a -->
<g id="node9" class="node"><title>temp2a</title>
<ellipse fill="none" stroke="none" cx="426" cy="-116" rx="1.8" ry="1.8"/>
</g>
<!-- temp2b -->
<g id="node10" class="node"><title>temp2b</title>
<ellipse fill="none" stroke="none" cx="376" cy="-38.5" rx="1.8" ry="1.8"/>
</g>
<!-- temp2a&#45;&gt;temp2b -->
<g id="edge6" class="edge"><title>temp2a&#45;&gt;temp2b</title>
</g>
<!-- temp2c -->
<g id="node11" class="node"><title>temp2c</title>
<ellipse fill="none" stroke="none" cx="468" cy="-38.5" rx="1.8" ry="1.8"/>
</g>
<!-- temp2a&#45;&gt;temp2c -->
<g id="edge7" class="edge"><title>temp2a&#45;&gt;temp2c</title>
</g>
<!-- temp2b&#45;&gt;temp2c -->
<g id="edge8" class="edge"><title>temp2b&#45;&gt;temp2c</title>
<path fill="none" stroke="black" d="M377.922,-38.5C387.837,-38.5 433.605,-38.5 455.827,-38.5"/>
<polygon fill="black" stroke="black" points="456.089,-42.0001 466.089,-38.5 456.089,-35.0001 456.089,-42.0001"/>
<text text-anchor="middle" x="422" y="-44.3" font-family="Times,serif" font-size="14.00" fill="#fffffe">wwwwwww</text>
</g>
<!-- A_u2 -->
<g id="node12" class="node"><title>A_u2</title>
<polygon fill="none" stroke="black" points="513,-98 540,-125 486,-125 513,-98"/>
<text text-anchor="middle" x="513" y="-111.8" font-family="Times,serif" font-size="14.00">u</text>
</g>
<!-- A_result -->
<g id="node16" class="node"><title>A_result</title>
<polygon fill="none" stroke="black" points="581.786,-16.5 581.786,-60.5 672.214,-60.5 672.214,-16.5 581.786,-16.5"/>
<text text-anchor="middle" x="592.893" y="-45.3" font-family="Times,serif" font-size="14.00"> </text>
<polyline fill="none" stroke="black" points="581.786,-38.5 604,-38.5 "/>
<text text-anchor="middle" x="592.893" y="-23.3" font-family="Times,serif" font-size="14.00">a</text>
<polyline fill="none" stroke="black" points="604,-16.5 604,-60.5 "/>
<text text-anchor="middle" x="615.5" y="-45.3" font-family="Times,serif" font-size="14.00"> </text>
<polyline fill="none" stroke="black" points="604,-38.5 627,-38.5 "/>
<text text-anchor="middle" x="615.5" y="-23.3" font-family="Times,serif" font-size="14.00">b</text>
<polyline fill="none" stroke="black" points="627,-16.5 627,-60.5 "/>
<text text-anchor="middle" x="638.107" y="-45.3" font-family="Times,serif" font-size="14.00"> </text>
<polyline fill="none" stroke="black" points="627,-38.5 649.214,-38.5 "/>
<text text-anchor="middle" x="638.107" y="-23.3" font-family="Times,serif" font-size="14.00">c</text>
<polyline fill="none" stroke="black" points="649.214,-16.5 649.214,-60.5 "/>
<text text-anchor="middle" x="660.714" y="-45.3" font-family="Times,serif" font-size="14.00"> </text>
<polyline fill="none" stroke="black" points="649.214,-38.5 672.214,-38.5 "/>
<text text-anchor="middle" x="660.714" y="-23.3" font-family="Times,serif" font-size="14.00">d</text>
</g>
<!-- A_u2&#45;&gt;A_result -->
<g id="edge9" class="edge"><title>A_u2:s&#45;&gt;A_result:a:n</title>
<path fill="none" stroke="black" d="M515.482,-88.1032C528.985,-66.652 593,-96.0425 593,-61"/>
<polygon fill="black" stroke="black" points="512.038,-87.449 513,-98 518.827,-89.1518 512.038,-87.449"/>
</g>
<!-- A_v2 -->
<g id="node13" class="node"><title>A_v2</title>
<polygon fill="none" stroke="black" points="585,-98 612,-125 558,-125 585,-98"/>
<text text-anchor="middle" x="585" y="-111.8" font-family="Times,serif" font-size="14.00">v</text>
</g>
<!-- A_v2&#45;&gt;A_result -->
<g id="edge10" class="edge"><title>A_v2:s&#45;&gt;A_result:b:n</title>
<path fill="none" stroke="black" d="M587.986,-88.2343C595.574,-77.9044 615,-78.0358 615,-61"/>
<polygon fill="black" stroke="black" points="584.577,-87.4136 585,-98 591.271,-89.4606 584.577,-87.4136"/>
</g>
<!-- A_w2 -->
<g id="node14" class="node"><title>A_w2</title>
<polygon fill="none" stroke="black" points="657,-98 684,-125 630,-125 657,-98"/>
<text text-anchor="middle" x="657" y="-111.8" font-family="Times,serif" font-size="14.00">w</text>
</g>
<!-- A_w2&#45;&gt;A_result -->
<g id="edge11" class="edge"><title>A_w2:s&#45;&gt;A_result:c:n</title>
<path fill="none" stroke="black" d="M654.67,-88.1319C649.597,-78.6185 638,-75.4421 638,-61"/>
<polygon fill="black" stroke="black" points="651.296,-89.0718 657,-98 658.109,-87.4633 651.296,-89.0718"/>
</g>
<!-- A_x2 -->
<g id="node15" class="node"><title>A_x2</title>
<polygon fill="none" stroke="black" points="729,-98 756,-125 702,-125 729,-98"/>
<text text-anchor="middle" x="729" y="-111.8" font-family="Times,serif" font-size="14.00">x</text>
</g>
<!-- A_x2&#45;&gt;A_result -->
<g id="edge12" class="edge"><title>A_x2:s&#45;&gt;A_result:d:n</title>
<path fill="none" stroke="black" d="M726.078,-87.9429C713.062,-70.5121 661,-91.1056 661,-61"/>
<polygon fill="black" stroke="black" points="722.849,-89.3736 729,-98 729.571,-87.4206 722.849,-89.3736"/>
</g>
</g>
</svg>
