<?xml version="1.0" encoding="UTF-8" standalone="no"?>
<!DOCTYPE svg PUBLIC "-//W3C//DTD SVG 1.1//EN"
 "http://www.w3.org/Graphics/SVG/1.1/DTD/svg11.dtd">
<!-- Generated by graphviz version 2.30.0 (20130114.0323)
 -->
<!-- Pages: 1 -->
<svg width="592pt" height="215pt"
 viewBox="0.00 0.00 710.00 258.00" xmlns="http://www.w3.org/2000/svg" xmlns:xlink="http://www.w3.org/1999/xlink">
<g id="graph0" class="graph" transform="scale(0.833333 0.833333) rotate(0) translate(4 254)">
<polygon fill="white" stroke="white" points="-4,5 -4,-254 707,-254 707,5 -4,5"/>
<g id="clust1" class="cluster"><title>clusterA</title>
<polygon fill="none" stroke="none" points="8,-98 8,-242 150,-242 150,-98 8,-98"/>
</g>
<g id="clust5" class="cluster"><title>clusterB</title>
<polygon fill="none" stroke="none" points="220,-98 220,-242 362,-242 362,-98 220,-98"/>
</g>
<g id="clust10" class="cluster"><title>clusterC</title>
<polygon fill="none" stroke="none" points="480,-8 480,-241 694,-241 694,-8 480,-8"/>
</g>
<!-- A_u1 -->
<g id="node1" class="node"><title>A_u1</title>
<polygon fill="none" stroke="black" points="43,-196.398 70,-224.301 16,-224.301 43,-196.398"/>
<text text-anchor="middle" x="43" y="-210.8" font-family="Times New Roman,serif" font-size="14.00">u</text>
</g>
<!-- A_left -->
<g id="node3" class="node"><title>A_left</title>
<polygon fill="none" stroke="black" points="58,-107.2 58,-156.8 112,-156.8 112,-107.2 58,-107.2"/>
<text text-anchor="middle" x="71.1073" y="-140.2" font-family="Times New Roman,serif" font-size="14.00"> </text>
<polyline fill="none" stroke="black" points="58,-132 84.2146,-132 "/>
<text text-anchor="middle" x="71.1073" y="-115.4" font-family="Times New Roman,serif" font-size="14.00">a</text>
<polyline fill="none" stroke="black" points="84.2146,-107.2 84.2146,-156.8 "/>
<text text-anchor="middle" x="97.7146" y="-140.2" font-family="Times New Roman,serif" font-size="14.00"> </text>
<polyline fill="none" stroke="black" points="84.2146,-132 111.215,-132 "/>
<text text-anchor="middle" x="97.7146" y="-115.4" font-family="Times New Roman,serif" font-size="14.00">b</text>
</g>
<!-- A_u1&#45;&gt;A_left -->
<g id="edge1" class="edge"><title>A_u1:s&#45;&gt;A_left:a:n</title>
<path fill="none" stroke="black" d="M45.7871,-186.19C52.8694,-175.616 71,-174.881 71,-158"/>
<polygon fill="black" stroke="black" points="42.3662,-185.424 43,-196 49.0998,-187.337 42.3662,-185.424"/>
</g>
<!-- A_v1 -->
<g id="node2" class="node"><title>A_v1</title>
<polygon fill="none" stroke="black" points="115,-196.398 142,-224.301 88,-224.301 115,-196.398"/>
<text text-anchor="middle" x="115" y="-210.8" font-family="Times New Roman,serif" font-size="14.00">v</text>
</g>
<!-- A_v1&#45;&gt;A_left -->
<g id="edge2" class="edge"><title>A_v1:s&#45;&gt;A_left:b:n</title>
<path fill="none" stroke="black" d="M112.915,-186.005C108.376,-176.225 98,-172.455 98,-158"/>
<polygon fill="black" stroke="black" points="109.532,-186.925 115,-196 116.385,-185.496 109.532,-186.925"/>
</g>
<!-- temp0 -->
<g id="node4" class="node"><title>temp0</title>
<ellipse fill="none" stroke="none" cx="185" cy="-215" rx="1.8" ry="1.8"/>
</g>
<!-- temp1 -->
<g id="node5" class="node"><title>temp1</title>
<text text-anchor="middle" x="185" y="-127.8" font-family="Times New Roman,serif" font-size="14.00">+</text>
</g>
<!-- temp0&#45;&gt;temp1 -->
<g id="edge3" class="edge"><title>temp0&#45;&gt;temp1</title>
</g>
<!-- A_w1 -->
<g id="node6" class="node"><title>A_w1</title>
<polygon fill="none" stroke="black" points="255,-196.398 282,-224.301 228,-224.301 255,-196.398"/>
<text text-anchor="middle" x="255" y="-210.8" font-family="Times New Roman,serif" font-size="14.00">w</text>
</g>
<!-- A_right -->
<g id="node8" class="node"><title>A_right</title>
<polygon fill="none" stroke="black" points="269,-107.2 269,-156.8 323,-156.8 323,-107.2 269,-107.2"/>
<text text-anchor="middle" x="282.5" y="-140.2" font-family="Times New Roman,serif" font-size="14.00"> </text>
<polyline fill="none" stroke="black" points="269,-132 296,-132 "/>
<text text-anchor="middle" x="282.5" y="-115.4" font-family="Times New Roman,serif" font-size="14.00">b</text>
<polyline fill="none" stroke="black" points="296,-107.2 296,-156.8 "/>
<text text-anchor="middle" x="309.5" y="-140.2" font-family="Times New Roman,serif" font-size="14.00"> </text>
<polyline fill="none" stroke="black" points="296,-132 323,-132 "/>
<text text-anchor="middle" x="309.5" y="-115.4" font-family="Times New Roman,serif" font-size="14.00">d</text>
</g>
<!-- A_w1&#45;&gt;A_right -->
<g id="edge4" class="edge"><title>A_w1:s&#45;&gt;A_right:b:n</title>
<path fill="none" stroke="black" d="M257.688,-186.265C264.517,-175.703 282,-174.671 282,-158"/>
<polygon fill="black" stroke="black" points="254.287,-185.429 255,-196 261.035,-187.292 254.287,-185.429"/>
</g>
<!-- A_x1 -->
<g id="node7" class="node"><title>A_x1</title>
<polygon fill="none" stroke="black" points="327,-196.398 354,-224.301 300,-224.301 327,-196.398"/>
<text text-anchor="middle" x="327" y="-210.8" font-family="Times New Roman,serif" font-size="14.00">x</text>
</g>
<!-- A_x1&#45;&gt;A_right -->
<g id="edge5" class="edge"><title>A_x1:s&#45;&gt;A_right:d:n</title>
<path fill="none" stroke="black" d="M324.915,-186.005C320.376,-176.225 310,-172.455 310,-158"/>
<polygon fill="black" stroke="black" points="321.532,-186.925 327,-196 328.385,-185.496 321.532,-186.925"/>
</g>
<!-- temp2a -->
<g id="node9" class="node"><title>temp2a</title>
<ellipse fill="none" stroke="none" cx="427" cy="-215" rx="1.8" ry="1.8"/>
</g>
<!-- temp2b -->
<g id="node10" class="node"><title>temp2b</title>
<ellipse fill="none" stroke="none" cx="376" cy="-132" rx="1.8" ry="1.8"/>
</g>
<!-- temp2a&#45;&gt;temp2b -->
<g id="edge6" class="edge"><title>temp2a&#45;&gt;temp2b</title>
</g>
<!-- temp2c -->
<g id="node11" class="node"><title>temp2c</title>
<ellipse fill="none" stroke="none" cx="468" cy="-132" rx="1.8" ry="1.8"/>
</g>
<!-- temp2a&#45;&gt;temp2c -->
<g id="edge7" class="edge"><title>temp2a&#45;&gt;temp2c</title>
</g>
<!-- temp2b&#45;&gt;temp2c -->
<g id="edge8" class="edge"><title>temp2b&#45;&gt;temp2c</title>
<path fill="none" stroke="black" d="M378.156,-132C403.975,-132 429.794,-132 455.612,-132"/>
<polygon fill="black" stroke="black" points="455.894,-135.5 465.894,-132 455.894,-128.5 455.894,-135.5"/>
</g>
<!-- A_u2 -->
<g id="node12" class="node"><title>A_u2</title>
<polygon fill="none" stroke="black" points="515,-113.398 542,-141.301 488,-141.301 515,-113.398"/>
<text text-anchor="middle" x="515" y="-127.8" font-family="Times New Roman,serif" font-size="14.00">u</text>
</g>
<!-- A_result -->
<g id="node17" class="node"><title>A_result</title>
<polygon fill="none" stroke="black" points="550.562,-17.2 550.562,-66.8 623.438,-66.8 623.438,-17.2 550.562,-17.2"/>
<text text-anchor="middle" x="561.67" y="-50.2" font-family="Times New Roman,serif" font-size="14.00"> </text>
<polyline fill="none" stroke="black" points="550.562,-42 572.777,-42 "/>
<text text-anchor="middle" x="561.67" y="-25.4" font-family="Times New Roman,serif" font-size="14.00">a</text>
<polyline fill="none" stroke="black" points="572.777,-17.2 572.777,-66.8 "/>
<text text-anchor="middle" x="586.607" y="-50.2" font-family="Times New Roman,serif" font-size="14.00"> </text>
<polyline fill="none" stroke="black" points="572.777,-42 600.438,-42 "/>
<text text-anchor="middle" x="586.607" y="-25.4" font-family="Times New Roman,serif" font-size="14.00">b&#39;</text>
<polyline fill="none" stroke="black" points="600.438,-17.2 600.438,-66.8 "/>
<text text-anchor="middle" x="611.938" y="-50.2" font-family="Times New Roman,serif" font-size="14.00"> </text>
<polyline fill="none" stroke="black" points="600.438,-42 623.438,-42 "/>
<text text-anchor="middle" x="611.938" y="-25.4" font-family="Times New Roman,serif" font-size="14.00">d</text>
</g>
<!-- A_u2&#45;&gt;A_result -->
<g id="edge9" class="edge"><title>A_u2:s&#45;&gt;A_result:a:n</title>
<path fill="none" stroke="black" d="M517.527,-102.178C527.289,-86.2789 562,-92.5902 562,-68"/>
<polygon fill="black" stroke="black" points="514.102,-101.443 515,-112 520.881,-103.187 514.102,-101.443"/>
</g>
<!-- A_vw -->
<g id="node13" class="node"><title>A_vw</title>
<polygon fill="none" stroke="black" points="560,-113.2 560,-150.8 614,-150.8 614,-113.2 560,-113.2"/>
<text text-anchor="middle" x="572.5" y="-137.2" font-family="Times New Roman,serif" font-size="14.00"> </text>
<polyline fill="none" stroke="black" points="560,-132 585,-132 "/>
<text text-anchor="middle" x="572.5" y="-118.4" font-family="Times New Roman,serif" font-size="14.00">v</text>
<polyline fill="none" stroke="black" points="585,-113.2 585,-150.8 "/>
<text text-anchor="middle" x="599.053" y="-137.2" font-family="Times New Roman,serif" font-size="14.00"> </text>
<polyline fill="none" stroke="black" points="585,-132 613.107,-132 "/>
<text text-anchor="middle" x="599.053" y="-118.4" font-family="Times New Roman,serif" font-size="14.00">w</text>
</g>
<!-- A_vw&#45;&gt;A_result -->
<g id="edge10" class="edge"><title>A_vw:s&#45;&gt;A_result:b:n</title>
<path fill="none" stroke="black" d="M587,-101.653C587,-89.8532 587,-83.5833 587,-68"/>
<polygon fill="black" stroke="black" points="583.5,-102 587,-112 590.5,-102 583.5,-102"/>
</g>
<!-- A_x2 -->
<g id="node14" class="node"><title>A_x2</title>
<polygon fill="none" stroke="black" points="659,-113.398 686,-141.301 632,-141.301 659,-113.398"/>
<text text-anchor="middle" x="659" y="-127.8" font-family="Times New Roman,serif" font-size="14.00">x</text>
</g>
<!-- A_x2&#45;&gt;A_result -->
<g id="edge11" class="edge"><title>A_x2:s&#45;&gt;A_result:d:n</title>
<path fill="none" stroke="black" d="M656.473,-102.178C646.711,-86.2789 612,-92.5902 612,-68"/>
<polygon fill="black" stroke="black" points="653.119,-103.187 659,-112 659.898,-101.443 653.119,-103.187"/>
</g>
<!-- A_vp -->
<g id="node15" class="node"><title>A_vp</title>
<polygon fill="none" stroke="black" points="544,-197 571,-224 517,-224 544,-197"/>
</g>
<!-- A_vp&#45;&gt;A_vw -->
<g id="edge12" class="edge"><title>A_vp:s&#45;&gt;A_vw:v:n</title>
<path fill="none" stroke="black" d="M546.197,-186.052C552.798,-172.877 572,-171.195 572,-152"/>
<polygon fill="black" stroke="black" points="542.739,-185.48 544,-196 549.574,-186.99 542.739,-185.48"/>
</g>
<!-- A_wp -->
<g id="node16" class="node"><title>A_wp</title>
<polygon fill="none" stroke="black" points="616,-197 643,-224 589,-224 616,-197"/>
</g>
<!-- A_wp&#45;&gt;A_vw -->
<g id="edge13" class="edge"><title>A_wp:s&#45;&gt;A_vw:w:n</title>
<path fill="none" stroke="black" d="M614.431,-185.951C610.223,-173.595 599,-169.034 599,-152"/>
<polygon fill="black" stroke="black" points="610.999,-186.66 616,-196 617.916,-185.58 610.999,-186.66"/>
</g>
</g>
</svg>
