<?xml version="1.0" encoding="UTF-8" standalone="no"?>
<!DOCTYPE svg PUBLIC "-//W3C//DTD SVG 1.1//EN"
 "http://www.w3.org/Graphics/SVG/1.1/DTD/svg11.dtd">
<!-- Generated by graphviz version 8.0.5 (20230430.1635)
 -->
<!-- Pages: 1 -->
<svg width="588pt" height="136pt"
 viewBox="0.00 0.00 705.00 163.00" xmlns="http://www.w3.org/2000/svg" xmlns:xlink="http://www.w3.org/1999/xlink">
<g id="graph0" class="graph" transform="scale(0.833333 0.833333) rotate(0) translate(4 159)">
<polygon fill="white" stroke="none" points="-4,4 -4,-159 701,-159 701,4 -4,4"/>
<g id="clust10" class="cluster">
<title>clusterC</title>
<polygon fill="none" stroke="none" points="475,-8 475,-147 689,-147 689,-8 475,-8"/>
</g>
<g id="clust1" class="cluster">
<title>clusterA</title>
<polygon fill="none" stroke="none" points="8,-8 8,-147 150,-147 150,-8 8,-8"/>
</g>
<g id="clust5" class="cluster">
<title>clusterB</title>
<polygon fill="none" stroke="none" points="220,-8 220,-147 362,-147 362,-8 220,-8"/>
</g>
<!-- A_u1 -->
<g id="node1" class="node">
<title>A_u1</title>
<polygon fill="none" stroke="black" points="43,-103 70,-130 16,-130 43,-103"/>
<text text-anchor="middle" x="43" y="-115.95" font-family="Times,serif" font-size="14.00">u</text>
</g>
<!-- A_left -->
<g id="node3" class="node">
<title>A_left</title>
<polygon fill="none" stroke="black" points="58,-16.5 58,-65.5 112,-65.5 112,-16.5 58,-16.5"/>
<text text-anchor="middle" x="71" y="-48.2" font-family="Times,serif" font-size="14.00"> </text>
<polyline fill="none" stroke="black" points="58,-41 84,-41"/>
<text text-anchor="middle" x="71" y="-23.7" font-family="Times,serif" font-size="14.00">a</text>
<polyline fill="none" stroke="black" points="84,-16.5 84,-65.5"/>
<text text-anchor="middle" x="97.88" y="-48.2" font-family="Times,serif" font-size="14.00"> </text>
<polyline fill="none" stroke="black" points="84,-41 111.75,-41"/>
<text text-anchor="middle" x="97.88" y="-23.7" font-family="Times,serif" font-size="14.00">b</text>
</g>
<!-- A_u1&#45;&gt;A_left -->
<g id="edge1" class="edge">
<title>A_u1:s&#45;&gt;A_left:n</title>
<path fill="none" stroke="black" d="M46.21,-92.8C53.57,-83.06 71,-82.27 71,-66"/>
<polygon fill="black" stroke="black" points="42.67,-91.41 43,-102 49.34,-93.51 42.67,-91.41"/>
</g>
<!-- A_v1 -->
<g id="node2" class="node">
<title>A_v1</title>
<polygon fill="none" stroke="black" points="115,-103 142,-130 88,-130 115,-103"/>
<text text-anchor="middle" x="115" y="-115.95" font-family="Times,serif" font-size="14.00">v</text>
</g>
<!-- A_v1&#45;&gt;A_left -->
<g id="edge2" class="edge">
<title>A_v1:s&#45;&gt;A_left:n</title>
<path fill="none" stroke="black" d="M112.49,-92.4C107.76,-83.5 98,-79.71 98,-66"/>
<polygon fill="black" stroke="black" points="109.29,-93.08 115,-102 116.1,-91.46 109.29,-93.08"/>
</g>
<!-- temp0 -->
<g id="node4" class="node">
<title>temp0</title>
<ellipse fill="none" stroke="none" cx="185" cy="-121" rx="1.8" ry="1.8"/>
</g>
<!-- temp1 -->
<g id="node5" class="node">
<title>temp1</title>
<text text-anchor="middle" x="185" y="-35.95" font-family="Times,serif" font-size="14.00">+</text>
</g>
<!-- temp0&#45;&gt;temp1 -->
<g id="edge3" class="edge">
<title>temp0&#45;&gt;temp1</title>
</g>
<!-- A_w1 -->
<g id="node6" class="node">
<title>A_w1</title>
<polygon fill="none" stroke="black" points="255,-103 282,-130 228,-130 255,-103"/>
<text text-anchor="middle" x="255" y="-115.95" font-family="Times,serif" font-size="14.00">v</text>
</g>
<!-- A_right -->
<g id="node8" class="node">
<title>A_right</title>
<polygon fill="none" stroke="black" points="270,-16.5 270,-65.5 324,-65.5 324,-16.5 270,-16.5"/>
<text text-anchor="middle" x="283.38" y="-48.2" font-family="Times,serif" font-size="14.00"> </text>
<polyline fill="none" stroke="black" points="270,-41 296.75,-41"/>
<text text-anchor="middle" x="283.38" y="-23.7" font-family="Times,serif" font-size="14.00">b</text>
<polyline fill="none" stroke="black" points="296.75,-16.5 296.75,-65.5"/>
<text text-anchor="middle" x="310.12" y="-48.2" font-family="Times,serif" font-size="14.00"> </text>
<polyline fill="none" stroke="black" points="296.75,-41 323.5,-41"/>
<text text-anchor="middle" x="310.12" y="-23.7" font-family="Times,serif" font-size="14.00">d</text>
</g>
<!-- A_w1&#45;&gt;A_right -->
<g id="edge4" class="edge">
<title>A_w1:s&#45;&gt;A_right:n</title>
<path fill="none" stroke="black" d="M258.21,-92.8C265.57,-83.06 283,-82.27 283,-66"/>
<polygon fill="black" stroke="black" points="254.67,-91.41 255,-102 261.34,-93.51 254.67,-91.41"/>
</g>
<!-- A_x1 -->
<g id="node7" class="node">
<title>A_x1</title>
<polygon fill="none" stroke="black" points="327,-103 354,-130 300,-130 327,-103"/>
<text text-anchor="middle" x="327" y="-115.95" font-family="Times,serif" font-size="14.00">x</text>
</g>
<!-- A_x1&#45;&gt;A_right -->
<g id="edge5" class="edge">
<title>A_x1:s&#45;&gt;A_right:n</title>
<path fill="none" stroke="black" d="M324.49,-92.4C319.76,-83.5 310,-79.71 310,-66"/>
<polygon fill="black" stroke="black" points="321.29,-93.08 327,-102 328.1,-91.46 321.29,-93.08"/>
</g>
<!-- temp2a -->
<g id="node9" class="node">
<title>temp2a</title>
<ellipse fill="none" stroke="none" cx="425" cy="-121" rx="1.8" ry="1.8"/>
</g>
<!-- temp2b -->
<g id="node10" class="node">
<title>temp2b</title>
<ellipse fill="none" stroke="none" cx="376" cy="-41" rx="1.8" ry="1.8"/>
</g>
<!-- temp2a&#45;&gt;temp2b -->
<g id="edge6" class="edge">
<title>temp2a&#45;&gt;temp2b</title>
</g>
<!-- temp2c -->
<g id="node11" class="node">
<title>temp2c</title>
<ellipse fill="none" stroke="none" cx="465" cy="-41" rx="1.8" ry="1.8"/>
</g>
<!-- temp2a&#45;&gt;temp2c -->
<g id="edge7" class="edge">
<title>temp2a&#45;&gt;temp2c</title>
</g>
<!-- temp2b&#45;&gt;temp2c -->
<g id="edge8" class="edge">
<title>temp2b&#45;&gt;temp2c</title>
<path fill="none" stroke="black" d="M378.2,-41C388.25,-41 430.26,-41 451.93,-41"/>
<polygon fill="black" stroke="black" points="451.88,-44.5 461.88,-41 451.88,-37.5 451.88,-44.5"/>
<text text-anchor="middle" x="420.5" y="-47.2" font-family="Times,serif" font-size="14.00" fill="#fffffe" fill-opacity="0.000000">wwwwwww</text>
</g>
<!-- A_u2 -->
<g id="node12" class="node">
<title>A_u2</title>
<polygon fill="none" stroke="black" points="510,-103 537,-130 483,-130 510,-103"/>
<text text-anchor="middle" x="510" y="-115.95" font-family="Times,serif" font-size="14.00">u</text>
</g>
<!-- A_result -->
<g id="node15" class="node">
<title>A_result</title>
<polygon fill="none" stroke="black" points="548.25,-16.5 548.25,-65.5 615.75,-65.5 615.75,-16.5 548.25,-16.5"/>
<text text-anchor="middle" x="559.25" y="-48.2" font-family="Times,serif" font-size="14.00"> </text>
<polyline fill="none" stroke="black" points="548.25,-41 570.25,-41"/>
<text text-anchor="middle" x="559.25" y="-23.7" font-family="Times,serif" font-size="14.00">a</text>
<polyline fill="none" stroke="black" points="570.25,-16.5 570.25,-65.5"/>
<text text-anchor="middle" x="581.62" y="-48.2" font-family="Times,serif" font-size="14.00"> </text>
<polyline fill="none" stroke="black" points="570.25,-41 593,-41"/>
<text text-anchor="middle" x="581.62" y="-23.7" font-family="Times,serif" font-size="14.00">b</text>
<polyline fill="none" stroke="black" points="593,-16.5 593,-65.5"/>
<text text-anchor="middle" x="604.38" y="-48.2" font-family="Times,serif" font-size="14.00"> </text>
<polyline fill="none" stroke="black" points="593,-41 615.75,-41"/>
<text text-anchor="middle" x="604.38" y="-23.7" font-family="Times,serif" font-size="14.00">d</text>
</g>
<!-- A_u2&#45;&gt;A_result -->
<g id="edge9" class="edge">
<title>A_u2:s&#45;&gt;A_result:n</title>
<path fill="none" stroke="black" d="M513.52,-92.8C524.76,-80.27 559,-88.81 559,-66"/>
<polygon fill="black" stroke="black" points="509.96,-91.41 510,-102 516.57,-93.69 509.96,-91.41"/>
</g>
<!-- A_v2 -->
<g id="node13" class="node">
<title>A_v2</title>
<polygon fill="none" stroke="black" points="582,-103 609,-130 555,-130 582,-103"/>
<text text-anchor="middle" x="582" y="-115.95" font-family="Times,serif" font-size="14.00">v</text>
</g>
<!-- A_v2&#45;&gt;A_result -->
<g id="edge10" class="edge">
<title>A_v2:s&#45;&gt;A_result:n</title>
<path fill="none" stroke="black" d="M582,-92.04C582,-83.5 582,-78.08 582,-66"/>
<polygon fill="black" stroke="black" points="578.5,-92 582,-102 585.5,-92 578.5,-92"/>
</g>
<!-- A_x2 -->
<g id="node14" class="node">
<title>A_x2</title>
<polygon fill="none" stroke="black" points="654,-103 681,-130 627,-130 654,-103"/>
<text text-anchor="middle" x="654" y="-115.95" font-family="Times,serif" font-size="14.00">x</text>
</g>
<!-- A_x2&#45;&gt;A_result -->
<g id="edge11" class="edge">
<title>A_x2:s&#45;&gt;A_result:n</title>
<path fill="none" stroke="black" d="M650.4,-92.7C638.94,-80.12 604,-89.11 604,-66"/>
<polygon fill="black" stroke="black" points="647.4,-93.71 654,-102 654.01,-91.41 647.4,-93.71"/>
</g>
</g>
</svg>
