<?xml version="1.0" encoding="UTF-8" standalone="no"?>
<!DOCTYPE svg PUBLIC "-//W3C//DTD SVG 1.1//EN"
 "http://www.w3.org/Graphics/SVG/1.1/DTD/svg11.dtd">
<!-- Generated by graphviz version 5.0.0 (20220707.1540)
 -->
<!-- Pages: 1 -->
<svg width="413pt" height="194pt"
 viewBox="0.00 0.00 495.00 233.00" xmlns="http://www.w3.org/2000/svg" xmlns:xlink="http://www.w3.org/1999/xlink">
<g id="graph0" class="graph" transform="scale(0.833333 0.833333) rotate(0) translate(4 229)">
<polygon fill="white" stroke="transparent" points="-4,4 -4,-229 491,-229 491,4 -4,4"/>
<g id="clust1" class="cluster">
<title>clusterA</title>
<polygon fill="none" stroke="transparent" points="8,-81 8,-217 78,-217 78,-81 8,-81"/>
</g>
<g id="clust5" class="cluster">
<title>clusterB</title>
<polygon fill="none" stroke="transparent" points="152,-81 152,-217 222,-217 222,-81 152,-81"/>
</g>
<g id="clust10" class="cluster">
<title>clusterC</title>
<polygon fill="none" stroke="transparent" points="337,-8 337,-217 479,-217 479,-8 337,-8"/>
</g>
<!-- A_u1 -->
<g id="node1" class="node">
<title>A_u1</title>
<polygon fill="none" stroke="black" points="43,-173 70,-200 16,-200 43,-173"/>
<text text-anchor="middle" x="43" y="-187.3" font-family="Times,serif" font-size="14.00">x</text>
</g>
<!-- A_left -->
<g id="node2" class="node">
<title>A_left</title>
<polygon fill="none" stroke="black" points="16,-89.5 16,-135.5 70,-135.5 70,-89.5 16,-89.5"/>
<text text-anchor="middle" x="43" y="-120.3" font-family="Times,serif" font-size="14.00"> </text>
<polyline fill="none" stroke="black" points="16,-112.5 70,-112.5 "/>
<text text-anchor="middle" x="43" y="-97.3" font-family="Times,serif" font-size="14.00">a</text>
</g>
<!-- A_u1&#45;&gt;A_left -->
<g id="edge1" class="edge">
<title>A_u1:s&#45;&gt;A_left:n</title>
<path fill="none" stroke="black" d="M43,-162.87C43,-153.84 43,-148.46 43,-136"/>
<polygon fill="black" stroke="black" points="39.5,-163 43,-173 46.5,-163 39.5,-163"/>
</g>
<!-- temp0 -->
<g id="node3" class="node">
<title>temp0</title>
<ellipse fill="transparent" stroke="transparent" cx="115" cy="-191" rx="1.8" ry="1.8"/>
</g>
<!-- temp1 -->
<g id="node4" class="node">
<title>temp1</title>
<text text-anchor="middle" x="115" y="-108.8" font-family="Times,serif" font-size="14.00">+</text>
</g>
<!-- temp0&#45;&gt;temp1 -->
<g id="edge2" class="edge">
<title>temp0&#45;&gt;temp1</title>
</g>
<!-- A_w1 -->
<g id="node5" class="node">
<title>A_w1</title>
<polygon fill="none" stroke="black" points="187,-173 214,-200 160,-200 187,-173"/>
<text text-anchor="middle" x="187" y="-187.3" font-family="Times,serif" font-size="14.00">y</text>
</g>
<!-- A_right -->
<g id="node6" class="node">
<title>A_right</title>
<polygon fill="none" stroke="black" points="160,-89.5 160,-135.5 214,-135.5 214,-89.5 160,-89.5"/>
<text text-anchor="middle" x="187" y="-120.3" font-family="Times,serif" font-size="14.00"> </text>
<polyline fill="none" stroke="black" points="160,-112.5 214,-112.5 "/>
<text text-anchor="middle" x="187" y="-97.3" font-family="Times,serif" font-size="14.00">a</text>
</g>
<!-- A_w1&#45;&gt;A_right -->
<g id="edge3" class="edge">
<title>A_w1:s&#45;&gt;A_right:n</title>
<path fill="none" stroke="black" d="M187,-162.87C187,-153.84 187,-148.46 187,-136"/>
<polygon fill="black" stroke="black" points="183.5,-163 187,-173 190.5,-163 183.5,-163"/>
</g>
<!-- temp2a -->
<g id="node7" class="node">
<title>temp2a</title>
<ellipse fill="transparent" stroke="transparent" cx="286" cy="-191" rx="1.8" ry="1.8"/>
</g>
<!-- temp2b -->
<g id="node8" class="node">
<title>temp2b</title>
<ellipse fill="transparent" stroke="transparent" cx="237" cy="-112.5" rx="1.8" ry="1.8"/>
</g>
<!-- temp2a&#45;&gt;temp2b -->
<g id="edge4" class="edge">
<title>temp2a&#45;&gt;temp2b</title>
</g>
<!-- temp2c -->
<g id="node9" class="node">
<title>temp2c</title>
<ellipse fill="transparent" stroke="transparent" cx="327" cy="-112.5" rx="1.8" ry="1.8"/>
</g>
<!-- temp2a&#45;&gt;temp2c -->
<g id="edge5" class="edge">
<title>temp2a&#45;&gt;temp2c</title>
</g>
<!-- temp2b&#45;&gt;temp2c -->
<g id="edge6" class="edge">
<title>temp2b&#45;&gt;temp2c</title>
<path fill="none" stroke="black" d="M238.88,-112.5C248.58,-112.5 293.35,-112.5 315.09,-112.5"/>
<polygon fill="black" stroke="black" points="315.13,-116 325.13,-112.5 315.13,-109 315.13,-116"/>
<text text-anchor="middle" x="282" y="-119.3" font-family="Times,serif" font-size="14.00" fill="#fffffe" fill-opacity="0.000000">wwwwwww</text>
</g>
<!-- A_u2 -->
<g id="node10" class="node">
<title>A_u2</title>
<polygon fill="none" stroke="black" points="372,-173 399,-200 345,-200 372,-173"/>
</g>
<!-- A_result -->
<g id="node12" class="node">
<title>A_result</title>
<polygon fill="none" stroke="black" points="386,-89.5 386,-135.5 440,-135.5 440,-89.5 386,-89.5"/>
<text text-anchor="middle" x="399.5" y="-120.3" font-family="Times,serif" font-size="14.00"> </text>
<polyline fill="none" stroke="black" points="386,-112.5 413,-112.5 "/>
<text text-anchor="middle" x="399.5" y="-97.3" font-family="Times,serif" font-size="14.00">x</text>
<polyline fill="none" stroke="black" points="413,-89.5 413,-135.5 "/>
<text text-anchor="middle" x="426.5" y="-120.3" font-family="Times,serif" font-size="14.00"> </text>
<polyline fill="none" stroke="black" points="413,-112.5 440,-112.5 "/>
<text text-anchor="middle" x="426.5" y="-97.3" font-family="Times,serif" font-size="14.00">y</text>
</g>
<!-- A_u2&#45;&gt;A_result -->
<g id="edge7" class="edge">
<title>A_u2:s&#45;&gt;A_result:n</title>
<path fill="none" stroke="black" d="M374.89,-163.17C381.85,-153.16 399,-152.22 399,-136"/>
<polygon fill="black" stroke="black" points="371.46,-162.42 372,-173 378.18,-164.39 371.46,-162.42"/>
</g>
<!-- A_v2 -->
<g id="node11" class="node">
<title>A_v2</title>
<polygon fill="none" stroke="black" points="444,-173 471,-200 417,-200 444,-173"/>
</g>
<!-- A_v2&#45;&gt;A_result -->
<g id="edge8" class="edge">
<title>A_v2:s&#45;&gt;A_result:n</title>
<path fill="none" stroke="black" d="M441.78,-162.96C437.17,-153.65 427,-150 427,-136"/>
<polygon fill="black" stroke="black" points="438.42,-163.99 444,-173 445.26,-162.48 438.42,-163.99"/>
</g>
<!-- A_ap -->
<g id="node13" class="node">
<title>A_ap</title>
<text text-anchor="middle" x="413" y="-30.3" font-family="Times,serif" font-size="14.00">a&#39;</text>
</g>
<!-- A_result&#45;&gt;A_ap -->
<g id="edge9" class="edge">
<title>A_result:s&#45;&gt;A_ap:n</title>
<path fill="none" stroke="black" d="M413,-78.23C413,-69.49 413,-64.17 413,-52"/>
<polygon fill="black" stroke="black" points="409.5,-78.5 413,-88.5 416.5,-78.5 409.5,-78.5"/>
</g>
</g>
</svg>
