<?xml version="1.0" encoding="UTF-8" standalone="no"?>
<!DOCTYPE svg PUBLIC "-//W3C//DTD SVG 1.1//EN"
 "http://www.w3.org/Graphics/SVG/1.1/DTD/svg11.dtd">
<!-- Generated by graphviz version 8.0.5 (20230430.1635)
 -->
<!-- Pages: 1 -->
<svg width="541pt" height="215pt"
 viewBox="0.00 0.00 649.00 258.00" xmlns="http://www.w3.org/2000/svg" xmlns:xlink="http://www.w3.org/1999/xlink">
<g id="graph0" class="graph" transform="scale(0.833333 0.833333) rotate(0) translate(4 254)">
<polygon fill="white" stroke="none" points="-4,4 -4,-254 645,-254 645,4 -4,4"/>
<g id="clust1" class="cluster">
<title>clusterA</title>
<polygon fill="none" stroke="none" points="8,-95 8,-234 150,-234 150,-95 8,-95"/>
</g>
<g id="clust5" class="cluster">
<title>clusterB</title>
<polygon fill="none" stroke="none" points="220,-95 220,-234 362,-234 362,-95 220,-95"/>
</g>
<g id="clust10" class="cluster">
<title>clusterC</title>
<polygon fill="none" stroke="none" points="475,-8 475,-242 633,-242 633,-8 475,-8"/>
</g>
<g id="clust11" class="cluster">
<title>clusterSubC</title>
<polygon fill="none" stroke="none" points="483,-102 483,-234 625,-234 625,-102 483,-102"/>
</g>
<!-- A_u1 -->
<g id="node1" class="node">
<title>A_u1</title>
<polygon fill="none" stroke="black" points="43,-190 70,-217 16,-217 43,-190"/>
<text text-anchor="middle" x="43" y="-202.95" font-family="Times,serif" font-size="14.00">u</text>
</g>
<!-- A_left -->
<g id="node3" class="node">
<title>A_left</title>
<polygon fill="none" stroke="black" points="58,-103.5 58,-152.5 112,-152.5 112,-103.5 58,-103.5"/>
<text text-anchor="middle" x="71" y="-135.2" font-family="Times,serif" font-size="14.00"> </text>
<polyline fill="none" stroke="black" points="58,-128 84,-128"/>
<text text-anchor="middle" x="71" y="-110.7" font-family="Times,serif" font-size="14.00">a</text>
<polyline fill="none" stroke="black" points="84,-103.5 84,-152.5"/>
<text text-anchor="middle" x="97.88" y="-135.2" font-family="Times,serif" font-size="14.00"> </text>
<polyline fill="none" stroke="black" points="84,-128 111.75,-128"/>
<text text-anchor="middle" x="97.88" y="-110.7" font-family="Times,serif" font-size="14.00">b</text>
</g>
<!-- A_u1&#45;&gt;A_left -->
<g id="edge1" class="edge">
<title>A_u1:s&#45;&gt;A_left:n</title>
<path fill="none" stroke="black" d="M46.21,-179.8C53.57,-170.06 71,-169.27 71,-153"/>
<polygon fill="black" stroke="black" points="42.67,-178.41 43,-189 49.34,-180.51 42.67,-178.41"/>
</g>
<!-- A_v1 -->
<g id="node2" class="node">
<title>A_v1</title>
<polygon fill="none" stroke="black" points="115,-190 142,-217 88,-217 115,-190"/>
<text text-anchor="middle" x="115" y="-202.95" font-family="Times,serif" font-size="14.00">v</text>
</g>
<!-- A_v1&#45;&gt;A_left -->
<g id="edge2" class="edge">
<title>A_v1:s&#45;&gt;A_left:n</title>
<path fill="none" stroke="black" d="M112.49,-179.4C107.76,-170.5 98,-166.71 98,-153"/>
<polygon fill="black" stroke="black" points="109.29,-180.08 115,-189 116.1,-178.46 109.29,-180.08"/>
</g>
<!-- temp0 -->
<g id="node4" class="node">
<title>temp0</title>
<ellipse fill="none" stroke="none" cx="185" cy="-208" rx="1.8" ry="1.8"/>
</g>
<!-- temp1 -->
<g id="node5" class="node">
<title>temp1</title>
<text text-anchor="middle" x="185" y="-122.95" font-family="Times,serif" font-size="14.00">+</text>
</g>
<!-- temp0&#45;&gt;temp1 -->
<g id="edge3" class="edge">
<title>temp0&#45;&gt;temp1</title>
</g>
<!-- A_w1 -->
<g id="node6" class="node">
<title>A_w1</title>
<polygon fill="none" stroke="black" points="255,-190 282,-217 228,-217 255,-190"/>
<text text-anchor="middle" x="255" y="-202.95" font-family="Times,serif" font-size="14.00">v</text>
</g>
<!-- A_right -->
<g id="node8" class="node">
<title>A_right</title>
<polygon fill="none" stroke="black" points="270,-103.5 270,-152.5 324,-152.5 324,-103.5 270,-103.5"/>
<text text-anchor="middle" x="283.38" y="-135.2" font-family="Times,serif" font-size="14.00"> </text>
<polyline fill="none" stroke="black" points="270,-128 296.75,-128"/>
<text text-anchor="middle" x="283.38" y="-110.7" font-family="Times,serif" font-size="14.00">b</text>
<polyline fill="none" stroke="black" points="296.75,-103.5 296.75,-152.5"/>
<text text-anchor="middle" x="310.12" y="-135.2" font-family="Times,serif" font-size="14.00"> </text>
<polyline fill="none" stroke="black" points="296.75,-128 323.5,-128"/>
<text text-anchor="middle" x="310.12" y="-110.7" font-family="Times,serif" font-size="14.00">d</text>
</g>
<!-- A_w1&#45;&gt;A_right -->
<g id="edge4" class="edge">
<title>A_w1:s&#45;&gt;A_right:n</title>
<path fill="none" stroke="black" d="M258.21,-179.8C265.57,-170.06 283,-169.27 283,-153"/>
<polygon fill="black" stroke="black" points="254.67,-178.41 255,-189 261.34,-180.51 254.67,-178.41"/>
</g>
<!-- A_x1 -->
<g id="node7" class="node">
<title>A_x1</title>
<polygon fill="none" stroke="black" points="327,-190 354,-217 300,-217 327,-190"/>
<text text-anchor="middle" x="327" y="-202.95" font-family="Times,serif" font-size="14.00">u</text>
</g>
<!-- A_x1&#45;&gt;A_right -->
<g id="edge5" class="edge">
<title>A_x1:s&#45;&gt;A_right:n</title>
<path fill="none" stroke="black" d="M324.49,-179.4C319.76,-170.5 310,-166.71 310,-153"/>
<polygon fill="black" stroke="black" points="321.29,-180.08 327,-189 328.1,-178.46 321.29,-180.08"/>
</g>
<!-- temp2a -->
<g id="node9" class="node">
<title>temp2a</title>
<ellipse fill="none" stroke="none" cx="425" cy="-208" rx="1.8" ry="1.8"/>
</g>
<!-- temp2b -->
<g id="node10" class="node">
<title>temp2b</title>
<ellipse fill="none" stroke="none" cx="376" cy="-128" rx="1.8" ry="1.8"/>
</g>
<!-- temp2a&#45;&gt;temp2b -->
<g id="edge6" class="edge">
<title>temp2a&#45;&gt;temp2b</title>
</g>
<!-- temp2c -->
<g id="node11" class="node">
<title>temp2c</title>
<ellipse fill="none" stroke="none" cx="465" cy="-128" rx="1.8" ry="1.8"/>
</g>
<!-- temp2a&#45;&gt;temp2c -->
<g id="edge7" class="edge">
<title>temp2a&#45;&gt;temp2c</title>
</g>
<!-- temp2b&#45;&gt;temp2c -->
<g id="edge8" class="edge">
<title>temp2b&#45;&gt;temp2c</title>
<path fill="none" stroke="black" d="M378.2,-128C388.25,-128 430.26,-128 451.93,-128"/>
<polygon fill="black" stroke="black" points="451.88,-131.5 461.88,-128 451.88,-124.5 451.88,-131.5"/>
<text text-anchor="middle" x="420.5" y="-134.2" font-family="Times,serif" font-size="14.00" fill="#fffffe" fill-opacity="0.000000">wwwwwww</text>
</g>
<!-- A_u2 -->
<g id="node12" class="node">
<title>A_u2</title>
<polygon fill="none" stroke="black" points="554,-190 581,-217 527,-217 554,-190"/>
<text text-anchor="middle" x="554" y="-202.95" font-family="Times,serif" font-size="14.00">u</text>
</g>
<!-- A_ut1 -->
<g id="node13" class="node">
<title>A_ut1</title>
<ellipse fill="none" stroke="none" cx="491" cy="-128" rx="0.01" ry="0.01"/>
</g>
<!-- A_u2&#45;&gt;A_ut1 -->
<g id="edge12" class="edge">
<title>A_u2:sw&#45;&gt;A_ut1:n</title>
<path fill="none" stroke="black" d="M536.99,-190.59C512.55,-169.62 491,-164.14 491,-129"/>
<polygon fill="black" stroke="black" points="534.28,-192.78 544,-197 539.03,-187.64 534.28,-192.78"/>
</g>
<!-- A_v2 -->
<g id="node14" class="node">
<title>A_v2</title>
<polygon fill="none" stroke="black" points="554,-110 581,-137 527,-137 554,-110"/>
<text text-anchor="middle" x="554" y="-122.95" font-family="Times,serif" font-size="14.00">v</text>
</g>
<!-- A_u2&#45;&gt;A_v2 -->
<g id="edge11" class="edge">
<title>A_u2&#45;&gt;A_v2</title>
</g>
<!-- A_ut2 -->
<g id="node15" class="node">
<title>A_ut2</title>
<ellipse fill="none" stroke="none" cx="617" cy="-128" rx="0.01" ry="0.01"/>
</g>
<!-- A_u2&#45;&gt;A_ut2 -->
<g id="edge14" class="edge">
<title>A_u2:se&#45;&gt;A_ut2:n</title>
<path fill="none" stroke="black" d="M571.01,-190.59C595.45,-169.62 617,-164.14 617,-129"/>
<polygon fill="black" stroke="black" points="568.97,-187.64 564,-197 573.72,-192.78 568.97,-187.64"/>
</g>
<!-- A_ut1&#45;&gt;A_v2 -->
<g id="edge9" class="edge">
<title>A_ut1&#45;&gt;A_v2</title>
</g>
<!-- A_result -->
<g id="node16" class="node">
<title>A_result</title>
<polygon fill="none" stroke="black" points="520.25,-16.5 520.25,-65.5 587.75,-65.5 587.75,-16.5 520.25,-16.5"/>
<text text-anchor="middle" x="531.25" y="-48.2" font-family="Times,serif" font-size="14.00"> </text>
<polyline fill="none" stroke="black" points="520.25,-41 542.25,-41"/>
<text text-anchor="middle" x="531.25" y="-23.7" font-family="Times,serif" font-size="14.00">a</text>
<polyline fill="none" stroke="black" points="542.25,-16.5 542.25,-65.5"/>
<text text-anchor="middle" x="553.62" y="-48.2" font-family="Times,serif" font-size="14.00"> </text>
<polyline fill="none" stroke="black" points="542.25,-41 565,-41"/>
<text text-anchor="middle" x="553.62" y="-23.7" font-family="Times,serif" font-size="14.00">b</text>
<polyline fill="none" stroke="black" points="565,-16.5 565,-65.5"/>
<text text-anchor="middle" x="576.38" y="-48.2" font-family="Times,serif" font-size="14.00"> </text>
<polyline fill="none" stroke="black" points="565,-41 587.75,-41"/>
<text text-anchor="middle" x="576.38" y="-23.7" font-family="Times,serif" font-size="14.00">d</text>
</g>
<!-- A_ut1&#45;&gt;A_result -->
<g id="edge16" class="edge">
<title>A_ut1:s&#45;&gt;A_result:n</title>
<path fill="none" stroke="black" d="M491,-127C491,-94.58 531,-98.42 531,-66"/>
</g>
<!-- A_v2&#45;&gt;A_ut2 -->
<g id="edge10" class="edge">
<title>A_v2&#45;&gt;A_ut2</title>
</g>
<!-- A_v2&#45;&gt;A_result -->
<g id="edge13" class="edge">
<title>A_v2:s&#45;&gt;A_result:n</title>
<path fill="none" stroke="black" d="M554,-98.22C554,-87.11 554,-80.93 554,-66"/>
<polygon fill="black" stroke="black" points="550.5,-98 554,-108 557.5,-98 550.5,-98"/>
</g>
<!-- A_v2&#45;&gt;A_result -->
<g id="edge15" class="edge">
<title>A_v2:s&#45;&gt;A_result:n</title>
</g>
<!-- A_ut2&#45;&gt;A_result -->
<g id="edge17" class="edge">
<title>A_ut2:s&#45;&gt;A_result:n</title>
<path fill="none" stroke="black" d="M617,-127C617,-94.33 576,-98.67 576,-66"/>
</g>
</g>
</svg>
