<?xml version="1.0" encoding="UTF-8" standalone="no"?>
<!DOCTYPE svg PUBLIC "-//W3C//DTD SVG 1.1//EN"
 "http://www.w3.org/Graphics/SVG/1.1/DTD/svg11.dtd">
<!-- Generated by graphviz version 8.0.5 (20230430.1635)
 -->
<!-- Pages: 1 -->
<svg width="657pt" height="212pt"
 viewBox="0.00 0.00 656.69 212.00" xmlns="http://www.w3.org/2000/svg" xmlns:xlink="http://www.w3.org/1999/xlink">
<g id="graph0" class="graph" transform="scale(1 1) rotate(0) translate(18 194)">
<polygon fill="white" stroke="none" points="-18,18 -18,-194 638.69,-194 638.69,18 -18,18"/>
<g id="clust1" class="cluster">
<title>clusterA</title>
<polygon fill="none" stroke="none" points="92.69,-8 92.69,-168 531.19,-168 531.19,-8 92.69,-8"/>
</g>
<!-- BasicBlockStartState -->
<g id="node1" class="node">
<title>BasicBlockStartState</title>
<g id="a_node1"><a xlink:href="../BasicBlockStartState.html" xlink:title="{BasicBlockStartState | {&lt;alt1&gt; alt 1 |&lt;alt2&gt; alt 2 | &amp;#0183;\n&amp;#0183;\n&amp;#0183; |&lt;altn&gt; alt n}}" target="_parent">
<polygon fill="none" stroke="black" points="100.69,-23 100.69,-145 284.19,-145 284.19,-23 100.69,-23"/>
<text text-anchor="middle" x="171.69" y="-78.2" font-family="CourierNew" font-size="14.00">BasicBlockStartState</text>
<polyline fill="none" stroke="black" points="242.69,-23 242.69,-145"/>
<text text-anchor="middle" x="263.44" y="-127.7" font-family="CourierNew" font-size="14.00">alt 1</text>
<polyline fill="none" stroke="black" points="242.69,-122 284.19,-122"/>
<text text-anchor="middle" x="263.44" y="-104.7" font-family="CourierNew" font-size="14.00">alt 2</text>
<polyline fill="none" stroke="black" points="242.69,-99 284.19,-99"/>
<text text-anchor="middle" x="263.44" y="-81.7" font-family="CourierNew" font-size="14.00">·</text>
<text text-anchor="middle" x="263.44" y="-66.7" font-family="CourierNew" font-size="14.00">·</text>
<text text-anchor="middle" x="263.44" y="-51.7" font-family="CourierNew" font-size="14.00">·</text>
<polyline fill="none" stroke="black" points="242.69,-46 284.19,-46"/>
<text text-anchor="middle" x="263.44" y="-28.7" font-family="CourierNew" font-size="14.00">alt n</text>
</a>
</g>
</g>
<!-- content1 -->
<g id="node3" class="node">
<title>content1</title>
<ellipse fill="none" stroke="black" stroke-dasharray="5,2" cx="354.69" cy="-142" rx="27" ry="18"/>
<text text-anchor="middle" x="354.69" y="-136.2" font-family="CourierNew" font-size="14.00">alt 1</text>
</g>
<!-- BasicBlockStartState&#45;&gt;content1 -->
<g id="edge3" class="edge">
<title>BasicBlockStartState:alt1&#45;&gt;content1</title>
<path fill="none" stroke="black" d="M284.19,-134C295.01,-134 306.71,-134.97 317.38,-136.23"/>
<polygon fill="black" stroke="black" points="316.66,-139.8 327.03,-137.63 317.57,-132.86 316.66,-139.8"/>
<text text-anchor="middle" x="305.94" y="-136.7" font-family="CourierNew" font-size="14.00">ε</text>
</g>
<!-- content2 -->
<g id="node4" class="node">
<title>content2</title>
<ellipse fill="none" stroke="black" stroke-dasharray="5,2" cx="354.69" cy="-88" rx="27" ry="18"/>
<text text-anchor="middle" x="354.69" y="-82.2" font-family="CourierNew" font-size="14.00">alt 2</text>
</g>
<!-- BasicBlockStartState&#45;&gt;content2 -->
<g id="edge5" class="edge">
<title>BasicBlockStartState:alt2&#45;&gt;content2</title>
<path fill="none" stroke="black" d="M284.19,-111C293.35,-111 293.69,-104.37 302.19,-101 307.26,-98.99 312.73,-97.22 318.16,-95.68"/>
<polygon fill="black" stroke="black" points="318.61,-98.92 327.4,-93 316.84,-92.14 318.61,-98.92"/>
<text text-anchor="middle" x="305.94" y="-102.7" font-family="CourierNew" font-size="14.00">ε</text>
</g>
<!-- more -->
<g id="node5" class="node">
<title>more</title>
<ellipse fill="none" stroke="black" stroke-dasharray="5,2" cx="354.69" cy="-34" rx="27" ry="18"/>
<text text-anchor="middle" x="354.69" y="-28.2" font-family="CourierNew" font-size="14.00">alt n</text>
</g>
<!-- BasicBlockStartState&#45;&gt;more -->
<g id="edge7" class="edge">
<title>BasicBlockStartState:altn&#45;&gt;more</title>
<path fill="none" stroke="black" d="M284.19,-34C294.65,-34 305.99,-34 316.42,-34"/>
<polygon fill="black" stroke="black" points="316.29,-37.5 326.29,-34 316.29,-30.5 316.29,-37.5"/>
<text text-anchor="middle" x="305.94" y="-35.7" font-family="CourierNew" font-size="14.00">ε</text>
</g>
<!-- BlockEndState -->
<g id="node2" class="node">
<title>BlockEndState</title>
<g id="a_node2"><a xlink:href="../BlockEndState.html" xlink:title="\N" target="_parent">
<polygon fill="none" stroke="black" points="418.69,-70 418.69,-106 523.19,-106 523.19,-70 418.69,-70"/>
<text text-anchor="middle" x="470.94" y="-82.2" font-family="CourierNew" font-size="14.00">BlockEndState</text>
</a>
</g>
</g>
<!-- end -->
<g id="node7" class="node">
<title>end</title>
<ellipse fill="none" stroke="black" stroke-dasharray="5,2" cx="593.69" cy="-88" rx="27" ry="18"/>
<text text-anchor="middle" x="593.69" y="-82.2" font-family="CourierNew" font-size="14.00">end</text>
</g>
<!-- BlockEndState&#45;&gt;end -->
<g id="edge2" class="edge">
<title>BlockEndState&#45;&gt;end</title>
<path fill="none" stroke="black" d="M523.15,-88C534.1,-88 545.47,-88 555.76,-88"/>
<polygon fill="black" stroke="black" points="555.43,-91.5 565.43,-88 555.43,-84.5 555.43,-91.5"/>
<text text-anchor="middle" x="544.94" y="-89.7" font-family="CourierNew" font-size="14.00">ε</text>
</g>
<!-- content1&#45;&gt;BlockEndState -->
<g id="edge4" class="edge">
<title>content1&#45;&gt;BlockEndState</title>
<path fill="none" stroke="black" stroke-dasharray="5,2" d="M377.45,-131.72C390.21,-125.68 406.86,-117.82 422.5,-110.42"/>
<polygon fill="black" stroke="black" points="423.52,-113.34 431.07,-105.9 420.53,-107.01 423.52,-113.34"/>
</g>
<!-- content2&#45;&gt;BlockEndState -->
<g id="edge6" class="edge">
<title>content2&#45;&gt;BlockEndState</title>
<path fill="none" stroke="black" stroke-dasharray="5,2" d="M382.19,-88C390.06,-88 399.02,-88 408.15,-88"/>
<polygon fill="black" stroke="black" points="407.88,-91.5 417.88,-88 407.88,-84.5 407.88,-91.5"/>
</g>
<!-- more&#45;&gt;BlockEndState -->
<g id="edge8" class="edge">
<title>more&#45;&gt;BlockEndState</title>
<path fill="none" stroke="black" stroke-dasharray="5,2" d="M377.45,-44.28C390.21,-50.32 406.86,-58.18 422.5,-65.58"/>
<polygon fill="black" stroke="black" points="420.53,-68.99 431.07,-70.1 423.52,-62.66 420.53,-68.99"/>
</g>
<!-- begin -->
<g id="node6" class="node">
<title>begin</title>
<ellipse fill="none" stroke="black" stroke-dasharray="5,2" cx="31.85" cy="-84" rx="31.85" ry="18"/>
<text text-anchor="middle" x="31.85" y="-78.2" font-family="CourierNew" font-size="14.00">begin</text>
</g>
<!-- begin&#45;&gt;BasicBlockStartState -->
<g id="edge1" class="edge">
<title>begin&#45;&gt;BasicBlockStartState</title>
<path fill="none" stroke="black" stroke-dasharray="5,2" d="M64.18,-84C71.97,-84 80.74,-84 89.95,-84"/>
<polygon fill="black" stroke="black" points="89.93,-87.5 99.93,-84 89.93,-80.5 89.93,-87.5"/>
</g>
</g>
</svg>
