<?xml version="1.0" encoding="UTF-8" standalone="no"?>
<!DOCTYPE svg PUBLIC "-//W3C//DTD SVG 1.1//EN"
 "http://www.w3.org/Graphics/SVG/1.1/DTD/svg11.dtd">
<!-- Generated by graphviz version 3.0.0 (20220226.1711)
 -->
<!-- Pages: 1 -->
<svg width="662pt" height="212pt"
 viewBox="0.00 0.00 661.59 212.00" xmlns="http://www.w3.org/2000/svg" xmlns:xlink="http://www.w3.org/1999/xlink">
<g id="graph0" class="graph" transform="scale(1 1) rotate(0) translate(18 194)">
<polygon fill="white" stroke="transparent" points="-18,18 -18,-194 643.59,-194 643.59,18 -18,18"/>
<g id="clust1" class="cluster">
<title>clusterA</title>
<polygon fill="none" stroke="transparent" points="93.99,-8 93.99,-168 535.59,-168 535.59,-8 93.99,-8"/>
</g>
<!-- BasicBlockStartState -->
<g id="node1" class="node">
<title>BasicBlockStartState</title>
<g id="a_node1"><a xlink:href="../BasicBlockStartState.html" xlink:title="{BasicBlockStartState | {&lt;alt1&gt; alt 1 |&lt;alt2&gt; alt 2 | &amp;#0183;\n&amp;#0183;\n&amp;#0183; |&lt;altn&gt; alt n}}" target="_parent">
<polygon fill="none" stroke="black" points="101.99,-23 101.99,-145 286.99,-145 286.99,-23 101.99,-23"/>
<text text-anchor="middle" x="173.49" y="-80.3" font-family="CourierNew" font-size="14.00">BasicBlockStartState</text>
<polyline fill="none" stroke="black" points="244.99,-23 244.99,-145 "/>
<text text-anchor="middle" x="265.99" y="-129.8" font-family="CourierNew" font-size="14.00">alt 1</text>
<polyline fill="none" stroke="black" points="244.99,-122 286.99,-122 "/>
<text text-anchor="middle" x="265.99" y="-106.8" font-family="CourierNew" font-size="14.00">alt 2</text>
<polyline fill="none" stroke="black" points="244.99,-99 286.99,-99 "/>
<text text-anchor="middle" x="265.99" y="-83.8" font-family="CourierNew" font-size="14.00">·</text>
<text text-anchor="middle" x="265.99" y="-68.8" font-family="CourierNew" font-size="14.00">·</text>
<text text-anchor="middle" x="265.99" y="-53.8" font-family="CourierNew" font-size="14.00">·</text>
<polyline fill="none" stroke="black" points="244.99,-46 286.99,-46 "/>
<text text-anchor="middle" x="265.99" y="-30.8" font-family="CourierNew" font-size="14.00">alt n</text>
</a>
</g>
</g>
<!-- content1 -->
<g id="node3" class="node">
<title>content1</title>
<ellipse fill="none" stroke="black" stroke-dasharray="5,2" cx="358.29" cy="-142" rx="27.1" ry="18"/>
<text text-anchor="middle" x="358.29" y="-138.3" font-family="CourierNew" font-size="14.00">alt 1</text>
</g>
<!-- BasicBlockStartState&#45;&gt;content1 -->
<g id="edge3" class="edge">
<title>BasicBlockStartState:alt1&#45;&gt;content1</title>
<path fill="none" stroke="black" d="M286.99,-134C298.26,-134 310.47,-135.03 321.51,-136.34"/>
<polygon fill="black" stroke="black" points="321.29,-139.85 331.66,-137.67 322.2,-132.9 321.29,-139.85"/>
<text text-anchor="middle" x="308.99" y="-138.8" font-family="CourierNew" font-size="14.00">ε</text>
</g>
<!-- content2 -->
<g id="node4" class="node">
<title>content2</title>
<ellipse fill="none" stroke="black" stroke-dasharray="5,2" cx="358.29" cy="-88" rx="27.1" ry="18"/>
<text text-anchor="middle" x="358.29" y="-84.3" font-family="CourierNew" font-size="14.00">alt 2</text>
</g>
<!-- BasicBlockStartState&#45;&gt;content2 -->
<g id="edge5" class="edge">
<title>BasicBlockStartState:alt2&#45;&gt;content2</title>
<path fill="none" stroke="black" d="M286.99,-111C296.15,-111 296.48,-104.36 304.99,-101 310.33,-98.9 316.1,-97.06 321.8,-95.48"/>
<polygon fill="black" stroke="black" points="323.05,-98.77 331.87,-92.9 321.31,-91.99 323.05,-98.77"/>
<text text-anchor="middle" x="308.99" y="-104.8" font-family="CourierNew" font-size="14.00">ε</text>
</g>
<!-- more -->
<g id="node5" class="node">
<title>more</title>
<ellipse fill="none" stroke="black" stroke-dasharray="5,2" cx="358.29" cy="-34" rx="27.1" ry="18"/>
<text text-anchor="middle" x="358.29" y="-30.3" font-family="CourierNew" font-size="14.00">alt n</text>
</g>
<!-- BasicBlockStartState&#45;&gt;more -->
<g id="edge7" class="edge">
<title>BasicBlockStartState:altn&#45;&gt;more</title>
<path fill="none" stroke="black" d="M286.99,-34C298,-34 309.98,-34 320.87,-34"/>
<polygon fill="black" stroke="black" points="320.92,-37.5 330.92,-34 320.92,-30.5 320.92,-37.5"/>
<text text-anchor="middle" x="308.99" y="-37.8" font-family="CourierNew" font-size="14.00">ε</text>
</g>
<!-- BlockEndState -->
<g id="node2" class="node">
<title>BlockEndState</title>
<g id="a_node2"><a xlink:href="../BlockEndState.html" xlink:title="\N" target="_parent">
<polygon fill="none" stroke="black" points="422.59,-70 422.59,-106 527.59,-106 527.59,-70 422.59,-70"/>
<text text-anchor="middle" x="475.09" y="-84.3" font-family="CourierNew" font-size="14.00">BlockEndState</text>
</a>
</g>
</g>
<!-- end -->
<g id="node7" class="node">
<title>end</title>
<ellipse fill="none" stroke="black" stroke-dasharray="5,2" cx="598.59" cy="-88" rx="27" ry="18"/>
<text text-anchor="middle" x="598.59" y="-84.3" font-family="CourierNew" font-size="14.00">end</text>
</g>
<!-- BlockEndState&#45;&gt;end -->
<g id="edge2" class="edge">
<title>BlockEndState&#45;&gt;end</title>
<path fill="none" stroke="black" d="M527.62,-88C538.97,-88 550.76,-88 561.35,-88"/>
<polygon fill="black" stroke="black" points="561.49,-91.5 571.49,-88 561.49,-84.5 561.49,-91.5"/>
<text text-anchor="middle" x="549.59" y="-91.8" font-family="CourierNew" font-size="14.00">ε</text>
</g>
<!-- content1&#45;&gt;BlockEndState -->
<g id="edge4" class="edge">
<title>content1&#45;&gt;BlockEndState</title>
<path fill="none" stroke="black" stroke-dasharray="5,2" d="M380.88,-131.84C393.7,-125.82 410.47,-117.92 426.26,-110.5"/>
<polygon fill="black" stroke="black" points="427.84,-113.62 435.4,-106.2 424.86,-107.29 427.84,-113.62"/>
</g>
<!-- content2&#45;&gt;BlockEndState -->
<g id="edge6" class="edge">
<title>content2&#45;&gt;BlockEndState</title>
<path fill="none" stroke="black" stroke-dasharray="5,2" d="M385.63,-88C393.7,-88 402.94,-88 412.34,-88"/>
<polygon fill="black" stroke="black" points="412.55,-91.5 422.55,-88 412.55,-84.5 412.55,-91.5"/>
</g>
<!-- more&#45;&gt;BlockEndState -->
<g id="edge8" class="edge">
<title>more&#45;&gt;BlockEndState</title>
<path fill="none" stroke="black" stroke-dasharray="5,2" d="M380.88,-44.16C393.7,-50.18 410.47,-58.08 426.26,-65.5"/>
<polygon fill="black" stroke="black" points="424.86,-68.71 435.4,-69.8 427.84,-62.38 424.86,-68.71"/>
</g>
<!-- begin -->
<g id="node6" class="node">
<title>begin</title>
<ellipse fill="none" stroke="black" stroke-dasharray="5,2" cx="32.5" cy="-84" rx="32.49" ry="18"/>
<text text-anchor="middle" x="32.5" y="-80.3" font-family="CourierNew" font-size="14.00">begin</text>
</g>
<!-- begin&#45;&gt;BasicBlockStartState -->
<g id="edge1" class="edge">
<title>begin&#45;&gt;BasicBlockStartState</title>
<path fill="none" stroke="black" stroke-dasharray="5,2" d="M65.11,-84C73.15,-84 82.24,-84 91.77,-84"/>
<polygon fill="black" stroke="black" points="91.85,-87.5 101.85,-84 91.85,-80.5 91.85,-87.5"/>
</g>
</g>
</svg>
