<?xml version="1.0" encoding="UTF-8" standalone="no"?>
<!DOCTYPE svg PUBLIC "-//W3C//DTD SVG 1.1//EN"
 "http://www.w3.org/Graphics/SVG/1.1/DTD/svg11.dtd">
<!-- Generated by graphviz version 7.1.0 (20230121.1956)
 -->
<!-- Pages: 1 -->
<svg width="662pt" height="212pt"
 viewBox="0.00 0.00 661.59 212.00" xmlns="http://www.w3.org/2000/svg" xmlns:xlink="http://www.w3.org/1999/xlink">
<g id="graph0" class="graph" transform="scale(1 1) rotate(0) translate(18 194)">
<polygon fill="white" stroke="none" points="-18,18 -18,-194 643.59,-194 643.59,18 -18,18"/>
<g id="clust1" class="cluster">
<title>clusterA</title>
<polygon fill="none" stroke="none" points="93.99,-8 93.99,-168 535.59,-168 535.59,-8 93.99,-8"/>
</g>
<!-- BasicBlockStartState -->
<g id="node1" class="node">
<title>BasicBlockStartState</title>
<g id="a_node1"><a xlink:href="../BasicBlockStartState.html" xlink:title="{BasicBlockStartState | {&lt;alt1&gt; alt 1 |&lt;alt2&gt; alt 2 | &amp;#0183;\n&amp;#0183;\n&amp;#0183; |&lt;altn&gt; alt n}}" target="_parent">
<polygon fill="none" stroke="black" points="101.99,-23 101.99,-145 286.99,-145 286.99,-23 101.99,-23"/>
<text text-anchor="middle" x="173.49" y="-80.3" font-family="CourierNew" font-size="14.00">BasicBlockStartState</text>
<polyline fill="none" stroke="black" points="244.99,-23 244.99,-145"/>
<text text-anchor="middle" x="265.99" y="-129.8" font-family="CourierNew" font-size="14.00">alt 1</text>
<polyline fill="none" stroke="black" points="244.99,-122 286.99,-122"/>
<text text-anchor="middle" x="265.99" y="-106.8" font-family="CourierNew" font-size="14.00">alt 2</text>
<polyline fill="none" stroke="black" points="244.99,-99 286.99,-99"/>
<text text-anchor="middle" x="265.99" y="-83.8" font-family="CourierNew" font-size="14.00">·</text>
<text text-anchor="middle" x="265.99" y="-68.8" font-family="CourierNew" font-size="14.00">·</text>
<text text-anchor="middle" x="265.99" y="-53.8" font-family="CourierNew" font-size="14.00">·</text>
<polyline fill="none" stroke="black" points="244.99,-46 286.99,-46"/>
<text text-anchor="middle" x="265.99" y="-30.8" font-family="CourierNew" font-size="14.00">alt n</text>
</a>
</g>
</g>
<!-- content1 -->
<g id="node3" class="node">
<title>content1</title>
<ellipse fill="none" stroke="black" stroke-dasharray="5,2" cx="358.29" cy="-142" rx="27.1" ry="18"/>
<text text-anchor="middle" x="358.29" y="-138.3" font-family="CourierNew" font-size="14.00">alt 1</text>
</g>
<!-- BasicBlockStartState&#45;&gt;content1 -->
<g id="edge3" class="edge">
<title>BasicBlockStartState:alt1&#45;&gt;content1</title>
<path fill="none" stroke="black" d="M286.99,-134C297.91,-134 309.72,-134.96 320.48,-136.22"/>
<polygon fill="black" stroke="black" points="319.79,-139.66 330.16,-137.48 320.69,-132.72 319.79,-139.66"/>
<text text-anchor="middle" x="308.99" y="-138.8" font-family="CourierNew" font-size="14.00">ε</text>
</g>
<!-- content2 -->
<g id="node4" class="node">
<title>content2</title>
<ellipse fill="none" stroke="black" stroke-dasharray="5,2" cx="358.29" cy="-88" rx="27.1" ry="18"/>
<text text-anchor="middle" x="358.29" y="-84.3" font-family="CourierNew" font-size="14.00">alt 2</text>
</g>
<!-- BasicBlockStartState&#45;&gt;content2 -->
<g id="edge5" class="edge">
<title>BasicBlockStartState:alt2&#45;&gt;content2</title>
<path fill="none" stroke="black" d="M286.99,-111C296.15,-111 296.48,-104.36 304.99,-101 310.06,-99 315.52,-97.24 320.94,-95.72"/>
<polygon fill="black" stroke="black" points="321.59,-99.16 330.4,-93.28 319.84,-92.38 321.59,-99.16"/>
<text text-anchor="middle" x="308.99" y="-104.8" font-family="CourierNew" font-size="14.00">ε</text>
</g>
<!-- more -->
<g id="node5" class="node">
<title>more</title>
<ellipse fill="none" stroke="black" stroke-dasharray="5,2" cx="358.29" cy="-34" rx="27.1" ry="18"/>
<text text-anchor="middle" x="358.29" y="-30.3" font-family="CourierNew" font-size="14.00">alt n</text>
</g>
<!-- BasicBlockStartState&#45;&gt;more -->
<g id="edge7" class="edge">
<title>BasicBlockStartState:altn&#45;&gt;more</title>
<path fill="none" stroke="black" d="M286.99,-34C297.55,-34 308.99,-34 319.52,-34"/>
<polygon fill="black" stroke="black" points="319.41,-37.5 329.41,-34 319.41,-30.5 319.41,-37.5"/>
<text text-anchor="middle" x="308.99" y="-37.8" font-family="CourierNew" font-size="14.00">ε</text>
</g>
<!-- BlockEndState -->
<g id="node2" class="node">
<title>BlockEndState</title>
<g id="a_node2"><a xlink:href="../BlockEndState.html" xlink:title="\N" target="_parent">
<polygon fill="none" stroke="black" points="422.59,-70 422.59,-106 527.59,-106 527.59,-70 422.59,-70"/>
<text text-anchor="middle" x="475.09" y="-84.3" font-family="CourierNew" font-size="14.00">BlockEndState</text>
</a>
</g>
</g>
<!-- end -->
<g id="node7" class="node">
<title>end</title>
<ellipse fill="none" stroke="black" stroke-dasharray="5,2" cx="598.59" cy="-88" rx="27" ry="18"/>
<text text-anchor="middle" x="598.59" y="-84.3" font-family="CourierNew" font-size="14.00">end</text>
</g>
<!-- BlockEndState&#45;&gt;end -->
<g id="edge2" class="edge">
<title>BlockEndState&#45;&gt;end</title>
<path fill="none" stroke="black" d="M527.26,-88C538.29,-88 549.75,-88 560.14,-88"/>
<polygon fill="black" stroke="black" points="559.81,-91.5 569.81,-88 559.81,-84.5 559.81,-91.5"/>
<text text-anchor="middle" x="549.59" y="-91.8" font-family="CourierNew" font-size="14.00">ε</text>
</g>
<!-- content1&#45;&gt;BlockEndState -->
<g id="edge4" class="edge">
<title>content1&#45;&gt;BlockEndState</title>
<path fill="none" stroke="black" stroke-dasharray="5,2" d="M381.15,-131.72C393.86,-125.74 410.38,-117.97 425.97,-110.63"/>
<polygon fill="black" stroke="black" points="427.1,-113.97 434.66,-106.55 424.12,-107.64 427.1,-113.97"/>
</g>
<!-- content2&#45;&gt;BlockEndState -->
<g id="edge6" class="edge">
<title>content2&#45;&gt;BlockEndState</title>
<path fill="none" stroke="black" stroke-dasharray="5,2" d="M385.63,-88C393.53,-88 402.57,-88 411.77,-88"/>
<polygon fill="black" stroke="black" points="411.5,-91.5 421.5,-88 411.5,-84.5 411.5,-91.5"/>
</g>
<!-- more&#45;&gt;BlockEndState -->
<g id="edge8" class="edge">
<title>more&#45;&gt;BlockEndState</title>
<path fill="none" stroke="black" stroke-dasharray="5,2" d="M381.15,-44.28C393.86,-50.26 410.38,-58.03 425.97,-65.37"/>
<polygon fill="black" stroke="black" points="424.12,-68.36 434.66,-69.45 427.1,-62.03 424.12,-68.36"/>
</g>
<!-- begin -->
<g id="node6" class="node">
<title>begin</title>
<ellipse fill="none" stroke="black" stroke-dasharray="5,2" cx="32.5" cy="-84" rx="32.49" ry="18"/>
<text text-anchor="middle" x="32.5" y="-80.3" font-family="CourierNew" font-size="14.00">begin</text>
</g>
<!-- begin&#45;&gt;BasicBlockStartState -->
<g id="edge1" class="edge">
<title>begin&#45;&gt;BasicBlockStartState</title>
<path fill="none" stroke="black" stroke-dasharray="5,2" d="M65.49,-84C73.21,-84 81.87,-84 90.95,-84"/>
<polygon fill="black" stroke="black" points="90.69,-87.5 100.69,-84 90.69,-80.5 90.69,-87.5"/>
</g>
</g>
</svg>
