<?xml version="1.0" encoding="UTF-8" standalone="no"?>
<!DOCTYPE svg PUBLIC "-//W3C//DTD SVG 1.1//EN"
 "http://www.w3.org/Graphics/SVG/1.1/DTD/svg11.dtd">
<!-- Generated by graphviz version 2.38.0 (20140413.2041)
 -->
<!-- Pages: 1 -->
<svg width="696pt" height="212pt"
 viewBox="0.00 0.00 695.59 212.00" xmlns="http://www.w3.org/2000/svg" xmlns:xlink="http://www.w3.org/1999/xlink">
<g id="graph0" class="graph" transform="scale(1 1) rotate(0) translate(18 194)">
<polygon fill="white" stroke="none" points="-18,18 -18,-194 677.588,-194 677.588,18 -18,18"/>
<g id="clust1" class="cluster"><title>clusterA</title>
<polygon fill="none" stroke="none" points="102.774,-8 102.774,-168 568.75,-168 568.75,-8 102.774,-8"/>
</g>
<!-- BasicBlockStartState -->
<g id="node1" class="node"><title>BasicBlockStartState</title>
<g id="a_node1"><a xlink:href="../BasicBlockStartState.html" xlink:title="{BasicBlockStartState | {&lt;alt1&gt; alt 1 |&lt;alt2&gt; alt 2 | &#0183;\n&#0183;\n&#0183; |&lt;altn&gt; alt n}}" target="_parent">
<polygon fill="none" stroke="black" points="110.774,-21.5352 110.774,-152.465 307.513,-152.465 307.513,-21.5352 110.774,-21.5352"/>
<text text-anchor="middle" x="185.995" y="-84.0441" font-family="CourierNew" font-size="14.00">BasicBlockStartState</text>
<polyline fill="none" stroke="black" points="261.216,-21.5352 261.216,-152.465 "/>
<text text-anchor="middle" x="284.365" y="-137.265" font-family="CourierNew" font-size="14.00">alt 1</text>
<polyline fill="none" stroke="black" points="261.216,-127.977 307.513,-127.977 "/>
<text text-anchor="middle" x="284.365" y="-112.777" font-family="CourierNew" font-size="14.00">alt 2</text>
<polyline fill="none" stroke="black" points="261.216,-103.488 307.513,-103.488 "/>
<text text-anchor="middle" x="284.365" y="-88.2883" font-family="CourierNew" font-size="14.00">·</text>
<text text-anchor="middle" x="284.365" y="-71.8" font-family="CourierNew" font-size="14.00">·</text>
<text text-anchor="middle" x="284.365" y="-55.3117" font-family="CourierNew" font-size="14.00">·</text>
<polyline fill="none" stroke="black" points="261.216,-46.0234 307.513,-46.0234 "/>
<text text-anchor="middle" x="284.365" y="-30.8234" font-family="CourierNew" font-size="14.00">alt n</text>
</a>
</g>
</g>
<!-- content1 -->
<g id="node3" class="node"><title>content1</title>
<ellipse fill="none" stroke="black" stroke-dasharray="5,2" cx="381.588" cy="-142" rx="31.6611" ry="18"/>
<text text-anchor="middle" x="381.588" y="-139.044" font-family="CourierNew" font-size="14.00">alt 1</text>
</g>
<!-- BasicBlockStartState&#45;&gt;content1 -->
<g id="edge3" class="edge"><title>BasicBlockStartState:alt1&#45;&gt;content1</title>
<path fill="none" stroke="black" d="M307.513,-140C317.983,-140 329.295,-140.208 339.817,-140.489"/>
<polygon fill="black" stroke="black" points="339.917,-143.994 350.016,-140.79 340.124,-136.997 339.917,-143.994"/>
<text text-anchor="middle" x="328.76" y="-145.288" font-family="CourierNew" font-size="14.00">ε</text>
</g>
<!-- content2 -->
<g id="node4" class="node"><title>content2</title>
<ellipse fill="none" stroke="black" stroke-dasharray="5,2" cx="381.588" cy="-88" rx="31.6611" ry="18"/>
<text text-anchor="middle" x="381.588" y="-85.0441" font-family="CourierNew" font-size="14.00">alt 2</text>
</g>
<!-- BasicBlockStartState&#45;&gt;content2 -->
<g id="edge5" class="edge"><title>BasicBlockStartState:alt2&#45;&gt;content2</title>
<path fill="none" stroke="black" d="M307.513,-116C317.51,-116 316.513,-106.863 325.513,-102.512 330.521,-100.091 335.986,-98.0329 341.467,-96.2957"/>
<polygon fill="black" stroke="black" points="342.597,-99.6133 351.254,-93.5057 340.678,-92.8815 342.597,-99.6133"/>
<text text-anchor="middle" x="328.76" y="-108.288" font-family="CourierNew" font-size="14.00">ε</text>
</g>
<!-- more -->
<g id="node5" class="node"><title>more</title>
<ellipse fill="none" stroke="black" stroke-dasharray="5,2" cx="381.588" cy="-34" rx="31.4371" ry="18"/>
<text text-anchor="middle" x="381.588" y="-31.0441" font-family="CourierNew" font-size="14.00">alt n</text>
</g>
<!-- BasicBlockStartState&#45;&gt;more -->
<g id="edge7" class="edge"><title>BasicBlockStartState:altn&#45;&gt;more</title>
<path fill="none" stroke="black" d="M307.513,-34C317.98,-34 329.289,-34 339.812,-34"/>
<polygon fill="black" stroke="black" points="340.011,-37.5001 350.011,-34 340.011,-30.5001 340.011,-37.5001"/>
<text text-anchor="middle" x="328.76" y="-39.2883" font-family="CourierNew" font-size="14.00">ε</text>
</g>
<!-- BlockEndState -->
<g id="node2" class="node"><title>BlockEndState</title>
<g id="a_node2"><a xlink:href="../BlockEndState.html" xlink:title="\N" target="_parent">
<polygon fill="none" stroke="black" points="450.168,-70 450.168,-106 560.75,-106 560.75,-70 450.168,-70"/>
<text text-anchor="middle" x="505.459" y="-85.3" font-family="CourierNew" font-size="14.00">BlockEndState</text>
</a>
</g>
</g>
<!-- end -->
<g id="node7" class="node"><title>end</title>
<ellipse fill="none" stroke="black" stroke-dasharray="5,2" cx="631.416" cy="-88" rx="28.3447" ry="18"/>
<text text-anchor="middle" x="631.416" y="-85.0441" font-family="CourierNew" font-size="14.00">end</text>
</g>
<!-- BlockEndState&#45;&gt;end -->
<g id="edge2" class="edge"><title>BlockEndState&#45;&gt;end</title>
<path fill="none" stroke="black" d="M560.829,-88C571.643,-88 582.772,-88 592.87,-88"/>
<polygon fill="black" stroke="black" points="592.964,-91.5001 602.964,-88 592.964,-84.5001 592.964,-91.5001"/>
<text text-anchor="middle" x="581.997" y="-93.2883" font-family="CourierNew" font-size="14.00">ε</text>
</g>
<!-- content1&#45;&gt;BlockEndState -->
<g id="edge4" class="edge"><title>content1&#45;&gt;BlockEndState</title>
<path fill="none" stroke="black" stroke-dasharray="5,2" d="M406.957,-131.202C420.545,-125.182 437.982,-117.455 454.344,-110.206"/>
<polygon fill="black" stroke="black" points="456.091,-113.26 463.816,-106.009 453.255,-106.86 456.091,-113.26"/>
</g>
<!-- content2&#45;&gt;BlockEndState -->
<g id="edge6" class="edge"><title>content2&#45;&gt;BlockEndState</title>
<path fill="none" stroke="black" stroke-dasharray="5,2" d="M413.341,-88C421.523,-88 430.676,-88 439.94,-88"/>
<polygon fill="black" stroke="black" points="439.995,-91.5001 449.995,-88 439.995,-84.5001 439.995,-91.5001"/>
</g>
<!-- more&#45;&gt;BlockEndState -->
<g id="edge8" class="edge"><title>more&#45;&gt;BlockEndState</title>
<path fill="none" stroke="black" stroke-dasharray="5,2" d="M406.957,-44.7979C420.545,-50.8185 437.982,-58.5446 454.344,-65.7943"/>
<polygon fill="black" stroke="black" points="453.255,-69.1401 463.816,-69.9912 456.091,-62.7402 453.255,-69.1401"/>
</g>
<!-- begin -->
<g id="node6" class="node"><title>begin</title>
<ellipse fill="none" stroke="black" stroke-dasharray="5,2" cx="36.8869" cy="-87" rx="36.7742" ry="18"/>
<text text-anchor="middle" x="36.8869" y="-84.0441" font-family="CourierNew" font-size="14.00">begin</text>
</g>
<!-- begin&#45;&gt;BasicBlockStartState -->
<g id="edge1" class="edge"><title>begin&#45;&gt;BasicBlockStartState</title>
<path fill="none" stroke="black" stroke-dasharray="5,2" d="M73.994,-87C82.0226,-87 90.9336,-87 100.236,-87"/>
<polygon fill="black" stroke="black" points="100.461,-90.5001 110.461,-87 100.461,-83.5001 100.461,-90.5001"/>
</g>
</g>
</svg>
