<?xml version="1.0" encoding="UTF-8" standalone="no"?>
<!DOCTYPE svg PUBLIC "-//W3C//DTD SVG 1.1//EN"
 "http://www.w3.org/Graphics/SVG/1.1/DTD/svg11.dtd">
<!-- Generated by graphviz version 2.30.0 (20130114.0323)
 -->
<!-- Pages: 1 -->
<svg width="806pt" height="212pt"
 viewBox="0.00 0.00 806.00 212.00" xmlns="http://www.w3.org/2000/svg" xmlns:xlink="http://www.w3.org/1999/xlink">
<g id="graph0" class="graph" transform="scale(1 1) rotate(0) translate(18 194)">
<polygon fill="white" stroke="white" points="-18,19 -18,-194 789,-194 789,19 -18,19"/>
<g id="clust1" class="cluster"><title>clusterA</title>
<polygon fill="none" stroke="none" points="110,-8 110,-168 666,-168 666,-8 110,-8"/>
</g>
<!-- BasicBlockStartState -->
<g id="node1" class="node"><title>BasicBlockStartState</title>
<g id="a_node1"><a xlink:href="../BasicBlockStartState.html" xlink:title="{BasicBlockStartState | {&lt;alt1&gt; alt 1 |&lt;alt2&gt; alt 2 | &#0183;\n&#0183;\n&#0183; |&lt;altn&gt; alt n}}" target="_parent">
<polygon fill="none" stroke="black" points="118.018,-21.6 118.018,-154.4 359.982,-154.4 359.982,-21.6 118.018,-21.6"/>
<text text-anchor="middle" x="210.004" y="-83.8" font-family="Courier New" font-size="14.00">BasicBlockStartState</text>
<polyline fill="none" stroke="black" points="301.99,-21.6 301.99,-154.4 "/>
<text text-anchor="middle" x="330.986" y="-137.8" font-family="Courier New" font-size="14.00">alt 1</text>
<polyline fill="none" stroke="black" points="301.99,-129.6 359.982,-129.6 "/>
<text text-anchor="middle" x="330.986" y="-113" font-family="Courier New" font-size="14.00">alt 2</text>
<polyline fill="none" stroke="black" points="301.99,-104.8 359.982,-104.8 "/>
<text text-anchor="middle" x="330.986" y="-88.2" font-family="Courier New" font-size="14.00">·</text>
<text text-anchor="middle" x="330.986" y="-71.4" font-family="Courier New" font-size="14.00">·</text>
<text text-anchor="middle" x="330.986" y="-54.6" font-family="Courier New" font-size="14.00">·</text>
<polyline fill="none" stroke="black" points="301.99,-46.4 359.982,-46.4 "/>
<text text-anchor="middle" x="330.986" y="-29.8" font-family="Courier New" font-size="14.00">alt n</text>
</a>
</g>
</g>
<!-- content1 -->
<g id="node3" class="node"><title>content1</title>
<ellipse fill="none" stroke="black" stroke-dasharray="5,2" cx="454" cy="-142" rx="40.005" ry="18"/>
<text text-anchor="middle" x="454" y="-137.8" font-family="Courier New" font-size="14.00">alt 1</text>
</g>
<!-- BasicBlockStartState&#45;&gt;content1 -->
<g id="edge3" class="edge"><title>BasicBlockStartState:alt1&#45;&gt;content1</title>
<path fill="none" stroke="black" d="M360,-142C374.162,-142 389.536,-142 403.63,-142"/>
<polygon fill="black" stroke="black" points="403.631,-145.5 413.631,-142 403.631,-138.5 403.631,-145.5"/>
<text text-anchor="middle" x="387" y="-146.2" font-family="Courier New" font-size="14.00">ε</text>
</g>
<!-- content2 -->
<g id="node4" class="node"><title>content2</title>
<ellipse fill="none" stroke="black" stroke-dasharray="5,2" cx="454" cy="-88" rx="40.005" ry="18"/>
<text text-anchor="middle" x="454" y="-83.8" font-family="Courier New" font-size="14.00">alt 2</text>
</g>
<!-- BasicBlockStartState&#45;&gt;content2 -->
<g id="edge5" class="edge"><title>BasicBlockStartState:alt2&#45;&gt;content2</title>
<path fill="none" stroke="black" d="M360,-117C370.081,-117 368.825,-107.375 378,-103.2 386.436,-99.3612 395.845,-96.4859 405.069,-94.334"/>
<polygon fill="black" stroke="black" points="405.877,-97.7409 414.951,-92.2715 404.446,-90.8885 405.877,-97.7409"/>
<text text-anchor="middle" x="387" y="-108.2" font-family="Courier New" font-size="14.00">ε</text>
</g>
<!-- more -->
<g id="node5" class="node"><title>more</title>
<ellipse fill="none" stroke="black" stroke-dasharray="5,2" cx="454" cy="-34" rx="40.005" ry="18"/>
<text text-anchor="middle" x="454" y="-29.8" font-family="Courier New" font-size="14.00">alt n</text>
</g>
<!-- BasicBlockStartState&#45;&gt;more -->
<g id="edge7" class="edge"><title>BasicBlockStartState:altn&#45;&gt;more</title>
<path fill="none" stroke="black" d="M360,-34C374.162,-34 389.536,-34 403.63,-34"/>
<polygon fill="black" stroke="black" points="403.631,-37.5001 413.631,-34 403.631,-30.5001 403.631,-37.5001"/>
<text text-anchor="middle" x="387" y="-38.2" font-family="Courier New" font-size="14.00">ε</text>
</g>
<!-- BlockEndState -->
<g id="node2" class="node"><title>BlockEndState</title>
<g id="a_node2"><a xlink:href="../BlockEndState.html" xlink:title="\N" target="_parent">
<polygon fill="none" stroke="black" points="532.409,-70 532.409,-106 657.591,-106 657.591,-70 532.409,-70"/>
<text text-anchor="middle" x="595" y="-83.9" font-family="Courier New" font-size="14.00">BlockEndState</text>
</a>
</g>
</g>
<!-- end -->
<g id="node7" class="node"><title>end</title>
<ellipse fill="none" stroke="black" stroke-dasharray="5,2" cx="741" cy="-88" rx="28.3325" ry="18"/>
<text text-anchor="middle" x="741" y="-83.8" font-family="Courier New" font-size="14.00">end</text>
</g>
<!-- BlockEndState&#45;&gt;end -->
<g id="edge2" class="edge"><title>BlockEndState&#45;&gt;end</title>
<path fill="none" stroke="black" d="M657.905,-88C672.942,-88 688.578,-88 702.12,-88"/>
<polygon fill="black" stroke="black" points="702.48,-91.5001 712.48,-88 702.48,-84.5001 702.48,-91.5001"/>
<text text-anchor="middle" x="685" y="-92.2" font-family="Courier New" font-size="14.00">ε</text>
</g>
<!-- content1&#45;&gt;BlockEndState -->
<g id="edge4" class="edge"><title>content1&#45;&gt;BlockEndState</title>
<path fill="none" stroke="black" stroke-dasharray="5,2" d="M484.819,-130.416C500.375,-124.372 519.92,-116.779 538.158,-109.694"/>
<polygon fill="black" stroke="black" points="539.494,-112.93 547.548,-106.046 536.959,-106.405 539.494,-112.93"/>
</g>
<!-- content2&#45;&gt;BlockEndState -->
<g id="edge6" class="edge"><title>content2&#45;&gt;BlockEndState</title>
<path fill="none" stroke="black" stroke-dasharray="5,2" d="M494.089,-88C502.909,-88 512.544,-88 522.237,-88"/>
<polygon fill="black" stroke="black" points="522.328,-91.5001 532.327,-88 522.327,-84.5001 522.328,-91.5001"/>
</g>
<!-- more&#45;&gt;BlockEndState -->
<g id="edge8" class="edge"><title>more&#45;&gt;BlockEndState</title>
<path fill="none" stroke="black" stroke-dasharray="5,2" d="M484.819,-45.5844C500.375,-51.6277 519.92,-59.2206 538.158,-66.3059"/>
<polygon fill="black" stroke="black" points="536.959,-69.5951 547.548,-69.954 539.494,-63.0702 536.959,-69.5951"/>
</g>
<!-- begin -->
<g id="node6" class="node"><title>begin</title>
<ellipse fill="none" stroke="black" stroke-dasharray="5,2" cx="40" cy="-88" rx="40.005" ry="18"/>
<text text-anchor="middle" x="40" y="-83.8" font-family="Courier New" font-size="14.00">begin</text>
</g>
<!-- begin&#45;&gt;BasicBlockStartState -->
<g id="edge1" class="edge"><title>begin&#45;&gt;BasicBlockStartState</title>
<path fill="none" stroke="black" stroke-dasharray="5,2" d="M80.3924,-88C88.726,-88 97.9554,-88 107.646,-88"/>
<polygon fill="black" stroke="black" points="107.893,-91.5001 117.893,-88 107.893,-84.5001 107.893,-91.5001"/>
</g>
</g>
</svg>
