<?xml version="1.0" encoding="UTF-8" standalone="no"?>
<!DOCTYPE svg PUBLIC "-//W3C//DTD SVG 1.1//EN"
 "http://www.w3.org/Graphics/SVG/1.1/DTD/svg11.dtd">
<!-- Generated by graphviz version 7.1.0 (20230121.1956)
 -->
<!-- Pages: 1 -->
<svg width="1168pt" height="314pt"
 viewBox="0.00 0.00 1167.59 314.00" xmlns="http://www.w3.org/2000/svg" xmlns:xlink="http://www.w3.org/1999/xlink">
<g id="graph0" class="graph" transform="scale(1 1) rotate(0) translate(18 296)">
<polygon fill="white" stroke="none" points="-18,18 -18,-296 1149.59,-296 1149.59,18 -18,18"/>
<g id="clust1" class="cluster">
<title>cluster0</title>
<polygon fill="none" stroke="none" points="93.99,-8 93.99,-270 1041.59,-270 1041.59,-8 93.99,-8"/>
</g>
<!-- StarLoopEntryState -->
<g id="node1" class="node">
<title>StarLoopEntryState</title>
<g id="a_node1"><a xlink:href="../StarLoopEntryState.html" xlink:title="{StarLoopEntryState | {&lt;alt1&gt; alt 1 |&lt;alt2&gt; alt 2}}" target="_parent">
<polygon fill="none" stroke="black" points="101.99,-100 101.99,-146 277.99,-146 277.99,-100 101.99,-100"/>
<text text-anchor="middle" x="168.99" y="-119.3" font-family="CourierNew" font-size="14.00">StarLoopEntryState</text>
<polyline fill="none" stroke="black" points="235.99,-100 235.99,-146"/>
<text text-anchor="middle" x="256.99" y="-130.8" font-family="CourierNew" font-size="14.00">alt 1</text>
<polyline fill="none" stroke="black" points="235.99,-123 277.99,-123"/>
<text text-anchor="middle" x="256.99" y="-107.8" font-family="CourierNew" font-size="14.00">alt 2</text>
</a>
</g>
</g>
<!-- StarBlockStartState -->
<g id="node3" class="node">
<title>StarBlockStartState</title>
<g id="a_node3"><a xlink:href="../StarBlockStartState.html" xlink:title="{StarBlockStartState | {&lt;alt1&gt; alt 1 |&lt;alt2&gt; alt 2 | &amp;#0183;\n&amp;#0183;\n&amp;#0183; |&lt;altn&gt; alt n}}" target="_parent">
<polygon fill="none" stroke="black" points="321.99,-74 321.99,-196 497.99,-196 497.99,-74 321.99,-74"/>
<text text-anchor="middle" x="388.99" y="-131.3" font-family="CourierNew" font-size="14.00">StarBlockStartState</text>
<polyline fill="none" stroke="black" points="455.99,-74 455.99,-196"/>
<text text-anchor="middle" x="476.99" y="-180.8" font-family="CourierNew" font-size="14.00">alt 1</text>
<polyline fill="none" stroke="black" points="455.99,-173 497.99,-173"/>
<text text-anchor="middle" x="476.99" y="-157.8" font-family="CourierNew" font-size="14.00">alt 2</text>
<polyline fill="none" stroke="black" points="455.99,-150 497.99,-150"/>
<text text-anchor="middle" x="476.99" y="-134.8" font-family="CourierNew" font-size="14.00">·</text>
<text text-anchor="middle" x="476.99" y="-119.8" font-family="CourierNew" font-size="14.00">·</text>
<text text-anchor="middle" x="476.99" y="-104.8" font-family="CourierNew" font-size="14.00">·</text>
<polyline fill="none" stroke="black" points="455.99,-97 497.99,-97"/>
<text text-anchor="middle" x="476.99" y="-81.8" font-family="CourierNew" font-size="14.00">alt n</text>
</a>
</g>
</g>
<!-- StarLoopEntryState&#45;&gt;StarBlockStartState -->
<g id="edge10" class="edge">
<title>StarLoopEntryState:alt1&#45;&gt;StarBlockStartState</title>
<path fill="none" stroke="black" d="M277.99,-135C288.63,-135 299.75,-135 310.82,-135"/>
<polygon fill="black" stroke="black" points="310.81,-138.5 320.81,-135 310.81,-131.5 310.81,-138.5"/>
<text text-anchor="middle" x="299.99" y="-138.8" font-family="CourierNew" font-size="14.00">ε</text>
</g>
<!-- LoopEndState -->
<g id="node5" class="node">
<title>LoopEndState</title>
<g id="a_node5"><a xlink:href="../LoopEndState.html" xlink:title="\N" target="_parent">
<polygon fill="none" stroke="black" points="931.59,-17 931.59,-53 1033.59,-53 1033.59,-17 931.59,-17"/>
<text text-anchor="middle" x="982.59" y="-31.3" font-family="CourierNew" font-size="14.00">LoopEndState</text>
</a>
</g>
</g>
<!-- StarLoopEntryState&#45;&gt;LoopEndState -->
<g id="edge11" class="edge">
<title>StarLoopEntryState:alt2&#45;&gt;LoopEndState</title>
<path fill="none" stroke="black" d="M256.99,-99C256.99,-76.16 400.79,-34 408.99,-34 408.99,-34 408.99,-34 761.59,-34 815.23,-34 876.24,-34.3 920.37,-34.57"/>
<polygon fill="black" stroke="black" points="920.25,-38.07 930.27,-34.64 920.29,-31.07 920.25,-38.07"/>
<text text-anchor="middle" x="569.29" y="-37.8" font-family="CourierNew" font-size="14.00">ε</text>
</g>
<!-- StarLoopbackState -->
<g id="node2" class="node">
<title>StarLoopbackState</title>
<g id="a_node2"><a xlink:href="../StarLoopbackState.html" xlink:title="\N" target="_parent">
<polygon fill="none" stroke="black" points="782.59,-166 782.59,-202 913.59,-202 913.59,-166 782.59,-166"/>
<text text-anchor="middle" x="848.09" y="-180.3" font-family="CourierNew" font-size="14.00">StarLoopbackState</text>
</a>
</g>
</g>
<!-- StarLoopbackState&#45;&gt;StarLoopEntryState -->
<g id="edge12" class="edge">
<title>StarLoopbackState:n&#45;&gt;StarLoopEntryState:n</title>
<path fill="none" stroke="black" d="M848.09,-203C848.09,-277.18 761.27,-247 687.09,-247 408.99,-247 408.99,-247 408.99,-247 305.96,-247 198.3,-253.49 190.45,-158.45"/>
<polygon fill="black" stroke="black" points="193.95,-158.36 190.05,-148.51 186.96,-158.64 193.95,-158.36"/>
<text text-anchor="middle" x="569.29" y="-250.8" font-family="CourierNew" font-size="14.00">ε</text>
</g>
<!-- content1 -->
<g id="node6" class="node">
<title>content1</title>
<ellipse fill="none" stroke="black" stroke-dasharray="5,2" cx="569.29" cy="-193" rx="27.1" ry="18"/>
<text text-anchor="middle" x="569.29" y="-189.3" font-family="CourierNew" font-size="14.00">alt 1</text>
</g>
<!-- StarBlockStartState&#45;&gt;content1 -->
<g id="edge3" class="edge">
<title>StarBlockStartState:alt1&#45;&gt;content1</title>
<path fill="none" stroke="black" d="M497.99,-185C508.91,-185 520.72,-185.96 531.48,-187.22"/>
<polygon fill="black" stroke="black" points="530.79,-190.66 541.16,-188.48 531.69,-183.72 530.79,-190.66"/>
<text text-anchor="middle" x="519.99" y="-189.8" font-family="CourierNew" font-size="14.00">ε</text>
</g>
<!-- content2 -->
<g id="node7" class="node">
<title>content2</title>
<ellipse fill="none" stroke="black" stroke-dasharray="5,2" cx="569.29" cy="-139" rx="27.1" ry="18"/>
<text text-anchor="middle" x="569.29" y="-135.3" font-family="CourierNew" font-size="14.00">alt 2</text>
</g>
<!-- StarBlockStartState&#45;&gt;content2 -->
<g id="edge5" class="edge">
<title>StarBlockStartState:alt2&#45;&gt;content2</title>
<path fill="none" stroke="black" d="M497.99,-162C507.15,-162 507.48,-155.36 515.99,-152 521.06,-150 526.52,-148.24 531.94,-146.72"/>
<polygon fill="black" stroke="black" points="532.59,-150.16 541.4,-144.28 530.84,-143.38 532.59,-150.16"/>
<text text-anchor="middle" x="519.99" y="-155.8" font-family="CourierNew" font-size="14.00">ε</text>
</g>
<!-- more -->
<g id="node8" class="node">
<title>more</title>
<ellipse fill="none" stroke="black" stroke-dasharray="5,2" cx="569.29" cy="-85" rx="27.1" ry="18"/>
<text text-anchor="middle" x="569.29" y="-81.3" font-family="CourierNew" font-size="14.00">alt n</text>
</g>
<!-- StarBlockStartState&#45;&gt;more -->
<g id="edge7" class="edge">
<title>StarBlockStartState:altn&#45;&gt;more</title>
<path fill="none" stroke="black" d="M497.99,-85C508.55,-85 519.99,-85 530.52,-85"/>
<polygon fill="black" stroke="black" points="530.41,-88.5 540.41,-85 530.41,-81.5 530.41,-88.5"/>
<text text-anchor="middle" x="519.99" y="-88.8" font-family="CourierNew" font-size="14.00">ε</text>
</g>
<!-- BlockEndState -->
<g id="node4" class="node">
<title>BlockEndState</title>
<g id="a_node4"><a xlink:href="../BlockEndState.html" xlink:title="\N" target="_parent">
<polygon fill="none" stroke="black" points="633.59,-138 633.59,-174 738.59,-174 738.59,-138 633.59,-138"/>
<text text-anchor="middle" x="686.09" y="-152.3" font-family="CourierNew" font-size="14.00">BlockEndState</text>
</a>
</g>
</g>
<!-- BlockEndState&#45;&gt;StarLoopbackState -->
<g id="edge9" class="edge">
<title>BlockEndState:e&#45;&gt;StarLoopbackState:w</title>
<path fill="none" stroke="black" d="M738.59,-156C757.24,-156 759.36,-174.13 771.55,-181.21"/>
<polygon fill="black" stroke="black" points="770.57,-184.58 781.12,-183.63 772.28,-177.79 770.57,-184.58"/>
<text text-anchor="middle" x="760.59" y="-177.8" font-family="CourierNew" font-size="14.00">ε</text>
</g>
<!-- end -->
<g id="node10" class="node">
<title>end</title>
<ellipse fill="none" stroke="black" stroke-dasharray="5,2" cx="1104.59" cy="-35" rx="27" ry="18"/>
<text text-anchor="middle" x="1104.59" y="-31.3" font-family="CourierNew" font-size="14.00">end</text>
</g>
<!-- LoopEndState&#45;&gt;end -->
<g id="edge2" class="edge">
<title>LoopEndState&#45;&gt;end</title>
<path fill="none" stroke="black" d="M1033.44,-35C1044.27,-35 1055.55,-35 1065.82,-35"/>
<polygon fill="black" stroke="black" points="1065.82,-38.5 1075.82,-35 1065.82,-31.5 1065.82,-38.5"/>
<text text-anchor="middle" x="1055.59" y="-38.8" font-family="CourierNew" font-size="14.00">ε</text>
</g>
<!-- content1&#45;&gt;BlockEndState -->
<g id="edge4" class="edge">
<title>content1&#45;&gt;BlockEndState</title>
<path fill="none" stroke="black" stroke-dasharray="5,2" d="M594.08,-185.33C602.66,-182.57 612.78,-179.31 623.11,-175.98"/>
<polygon fill="black" stroke="black" points="624,-179.37 632.44,-172.97 621.85,-172.71 624,-179.37"/>
</g>
<!-- content2&#45;&gt;BlockEndState -->
<g id="edge6" class="edge">
<title>content2&#45;&gt;BlockEndState</title>
<path fill="none" stroke="black" stroke-dasharray="5,2" d="M596.05,-142.82C604.13,-144.01 613.42,-145.39 622.89,-146.79"/>
<polygon fill="black" stroke="black" points="622.12,-150.21 632.53,-148.22 623.15,-143.29 622.12,-150.21"/>
</g>
<!-- more&#45;&gt;BlockEndState -->
<g id="edge8" class="edge">
<title>more&#45;&gt;BlockEndState</title>
<path fill="none" stroke="black" stroke-dasharray="5,2" d="M590.03,-97.21C605.53,-106.79 627.6,-120.44 646.57,-132.18"/>
<polygon fill="black" stroke="black" points="644.52,-135.03 654.87,-137.31 648.2,-129.07 644.52,-135.03"/>
</g>
<!-- begin -->
<g id="node9" class="node">
<title>begin</title>
<ellipse fill="none" stroke="black" stroke-dasharray="5,2" cx="32.5" cy="-123" rx="32.49" ry="18"/>
<text text-anchor="middle" x="32.5" y="-119.3" font-family="CourierNew" font-size="14.00">begin</text>
</g>
<!-- begin&#45;&gt;StarLoopEntryState -->
<g id="edge1" class="edge">
<title>begin&#45;&gt;StarLoopEntryState</title>
<path fill="none" stroke="black" stroke-dasharray="5,2" d="M65.34,-123C73.11,-123 81.83,-123 90.96,-123"/>
<polygon fill="black" stroke="black" points="90.73,-126.5 100.73,-123 90.73,-119.5 90.73,-126.5"/>
</g>
</g>
</svg>
