<?xml version="1.0" encoding="UTF-8" standalone="no"?>
<!DOCTYPE svg PUBLIC "-//W3C//DTD SVG 1.1//EN"
 "http://www.w3.org/Graphics/SVG/1.1/DTD/svg11.dtd">
<!-- Generated by graphviz version 8.0.5 (20230430.1635)
 -->
<!-- Pages: 1 -->
<svg width="1161pt" height="314pt"
 viewBox="0.00 0.00 1160.94 314.00" xmlns="http://www.w3.org/2000/svg" xmlns:xlink="http://www.w3.org/1999/xlink">
<g id="graph0" class="graph" transform="scale(1 1) rotate(0) translate(18 296)">
<polygon fill="white" stroke="none" points="-18,18 -18,-296 1142.94,-296 1142.94,18 -18,18"/>
<g id="clust1" class="cluster">
<title>cluster0</title>
<polygon fill="none" stroke="none" points="92.69,-8 92.69,-270 1035.44,-270 1035.44,-8 92.69,-8"/>
</g>
<!-- StarLoopEntryState -->
<g id="node1" class="node">
<title>StarLoopEntryState</title>
<g id="a_node1"><a xlink:href="../StarLoopEntryState.html" xlink:title="{StarLoopEntryState | {&lt;alt1&gt; alt 1 |&lt;alt2&gt; alt 2}}" target="_parent">
<polygon fill="none" stroke="black" points="100.69,-100 100.69,-146 275.94,-146 275.94,-100 100.69,-100"/>
<text text-anchor="middle" x="167.57" y="-117.2" font-family="CourierNew" font-size="14.00">StarLoopEntryState</text>
<polyline fill="none" stroke="black" points="234.44,-100 234.44,-146"/>
<text text-anchor="middle" x="255.19" y="-128.7" font-family="CourierNew" font-size="14.00">alt 1</text>
<polyline fill="none" stroke="black" points="234.44,-123 275.94,-123"/>
<text text-anchor="middle" x="255.19" y="-105.7" font-family="CourierNew" font-size="14.00">alt 2</text>
</a>
</g>
</g>
<!-- StarBlockStartState -->
<g id="node3" class="node">
<title>StarBlockStartState</title>
<g id="a_node3"><a xlink:href="../StarBlockStartState.html" xlink:title="{StarBlockStartState | {&lt;alt1&gt; alt 1 |&lt;alt2&gt; alt 2 | &amp;#0183;\n&amp;#0183;\n&amp;#0183; |&lt;altn&gt; alt n}}" target="_parent">
<polygon fill="none" stroke="black" points="319.44,-74 319.44,-196 494.69,-196 494.69,-74 319.44,-74"/>
<text text-anchor="middle" x="386.32" y="-129.2" font-family="CourierNew" font-size="14.00">StarBlockStartState</text>
<polyline fill="none" stroke="black" points="453.19,-74 453.19,-196"/>
<text text-anchor="middle" x="473.94" y="-178.7" font-family="CourierNew" font-size="14.00">alt 1</text>
<polyline fill="none" stroke="black" points="453.19,-173 494.69,-173"/>
<text text-anchor="middle" x="473.94" y="-155.7" font-family="CourierNew" font-size="14.00">alt 2</text>
<polyline fill="none" stroke="black" points="453.19,-150 494.69,-150"/>
<text text-anchor="middle" x="473.94" y="-132.7" font-family="CourierNew" font-size="14.00">·</text>
<text text-anchor="middle" x="473.94" y="-117.7" font-family="CourierNew" font-size="14.00">·</text>
<text text-anchor="middle" x="473.94" y="-102.7" font-family="CourierNew" font-size="14.00">·</text>
<polyline fill="none" stroke="black" points="453.19,-97 494.69,-97"/>
<text text-anchor="middle" x="473.94" y="-79.7" font-family="CourierNew" font-size="14.00">alt n</text>
</a>
</g>
</g>
<!-- StarLoopEntryState&#45;&gt;StarBlockStartState -->
<g id="edge10" class="edge">
<title>StarLoopEntryState:alt1&#45;&gt;StarBlockStartState</title>
<path fill="none" stroke="black" d="M275.94,-135C286.53,-135 297.61,-135 308.63,-135"/>
<polygon fill="black" stroke="black" points="308.63,-138.5 318.63,-135 308.63,-131.5 308.63,-138.5"/>
<text text-anchor="middle" x="297.69" y="-136.7" font-family="CourierNew" font-size="14.00">ε</text>
</g>
<!-- LoopEndState -->
<g id="node5" class="node">
<title>LoopEndState</title>
<g id="a_node5"><a xlink:href="../LoopEndState.html" xlink:title="\N" target="_parent">
<polygon fill="none" stroke="black" points="925.94,-17 925.94,-53 1027.44,-53 1027.44,-17 925.94,-17"/>
<text text-anchor="middle" x="976.69" y="-29.2" font-family="CourierNew" font-size="14.00">LoopEndState</text>
</a>
</g>
</g>
<!-- StarLoopEntryState&#45;&gt;LoopEndState -->
<g id="edge11" class="edge">
<title>StarLoopEntryState:alt2&#45;&gt;LoopEndState</title>
<path fill="none" stroke="black" d="M255.32,-99C255.32,-75.69 397.77,-34 406.07,-34 406.07,-34 406.07,-34 756.44,-34 810.13,-34 871.22,-34.3 915.25,-34.58"/>
<polygon fill="black" stroke="black" points="915.04,-38.08 925.06,-34.64 915.08,-31.08 915.04,-38.08"/>
<text text-anchor="middle" x="565.19" y="-35.7" font-family="CourierNew" font-size="14.00">ε</text>
</g>
<!-- StarLoopbackState -->
<g id="node2" class="node">
<title>StarLoopbackState</title>
<g id="a_node2"><a xlink:href="../StarLoopbackState.html" xlink:title="\N" target="_parent">
<polygon fill="none" stroke="black" points="777.19,-166 777.19,-202 907.94,-202 907.94,-166 777.19,-166"/>
<text text-anchor="middle" x="842.57" y="-178.2" font-family="CourierNew" font-size="14.00">StarLoopbackState</text>
</a>
</g>
</g>
<!-- StarLoopbackState&#45;&gt;StarLoopEntryState -->
<g id="edge12" class="edge">
<title>StarLoopbackState:n&#45;&gt;StarLoopEntryState:n</title>
<path fill="none" stroke="black" d="M842.57,-203C842.57,-276.8 756.25,-247 682.44,-247 406.07,-247 406.07,-247 406.07,-247 303.32,-247 196.14,-253.05 188.73,-157.82"/>
<polygon fill="black" stroke="black" points="192.19,-157.86 188.32,-148 185.2,-158.12 192.19,-157.86"/>
<text text-anchor="middle" x="565.19" y="-248.7" font-family="CourierNew" font-size="14.00">ε</text>
</g>
<!-- content1 -->
<g id="node6" class="node">
<title>content1</title>
<ellipse fill="none" stroke="black" stroke-dasharray="5,2" cx="565.19" cy="-193" rx="27" ry="18"/>
<text text-anchor="middle" x="565.19" y="-187.2" font-family="CourierNew" font-size="14.00">alt 1</text>
</g>
<!-- StarBlockStartState&#45;&gt;content1 -->
<g id="edge3" class="edge">
<title>StarBlockStartState:alt1&#45;&gt;content1</title>
<path fill="none" stroke="black" d="M494.69,-185C505.51,-185 517.21,-185.97 527.88,-187.23"/>
<polygon fill="black" stroke="black" points="527.16,-190.8 537.53,-188.63 528.07,-183.86 527.16,-190.8"/>
<text text-anchor="middle" x="516.44" y="-187.7" font-family="CourierNew" font-size="14.00">ε</text>
</g>
<!-- content2 -->
<g id="node7" class="node">
<title>content2</title>
<ellipse fill="none" stroke="black" stroke-dasharray="5,2" cx="565.19" cy="-139" rx="27" ry="18"/>
<text text-anchor="middle" x="565.19" y="-133.2" font-family="CourierNew" font-size="14.00">alt 2</text>
</g>
<!-- StarBlockStartState&#45;&gt;content2 -->
<g id="edge5" class="edge">
<title>StarBlockStartState:alt2&#45;&gt;content2</title>
<path fill="none" stroke="black" d="M494.69,-162C503.85,-162 504.19,-155.37 512.69,-152 517.76,-149.99 523.23,-148.22 528.66,-146.68"/>
<polygon fill="black" stroke="black" points="529.11,-149.92 537.9,-144 527.34,-143.14 529.11,-149.92"/>
<text text-anchor="middle" x="516.44" y="-153.7" font-family="CourierNew" font-size="14.00">ε</text>
</g>
<!-- more -->
<g id="node8" class="node">
<title>more</title>
<ellipse fill="none" stroke="black" stroke-dasharray="5,2" cx="565.19" cy="-85" rx="27" ry="18"/>
<text text-anchor="middle" x="565.19" y="-79.2" font-family="CourierNew" font-size="14.00">alt n</text>
</g>
<!-- StarBlockStartState&#45;&gt;more -->
<g id="edge7" class="edge">
<title>StarBlockStartState:altn&#45;&gt;more</title>
<path fill="none" stroke="black" d="M494.69,-85C505.15,-85 516.49,-85 526.92,-85"/>
<polygon fill="black" stroke="black" points="526.79,-88.5 536.79,-85 526.79,-81.5 526.79,-88.5"/>
<text text-anchor="middle" x="516.44" y="-86.7" font-family="CourierNew" font-size="14.00">ε</text>
</g>
<!-- BlockEndState -->
<g id="node4" class="node">
<title>BlockEndState</title>
<g id="a_node4"><a xlink:href="../BlockEndState.html" xlink:title="\N" target="_parent">
<polygon fill="none" stroke="black" points="629.19,-138 629.19,-174 733.69,-174 733.69,-138 629.19,-138"/>
<text text-anchor="middle" x="681.44" y="-150.2" font-family="CourierNew" font-size="14.00">BlockEndState</text>
</a>
</g>
</g>
<!-- BlockEndState&#45;&gt;StarLoopbackState -->
<g id="edge9" class="edge">
<title>BlockEndState:e&#45;&gt;StarLoopbackState:w</title>
<path fill="none" stroke="black" d="M733.69,-156C752.38,-156 754.24,-174.48 766.61,-181.42"/>
<polygon fill="black" stroke="black" points="765.65,-185.03 776.19,-184 767.31,-178.23 765.65,-185.03"/>
<text text-anchor="middle" x="755.44" y="-175.7" font-family="CourierNew" font-size="14.00">ε</text>
</g>
<!-- end -->
<g id="node10" class="node">
<title>end</title>
<ellipse fill="none" stroke="black" stroke-dasharray="5,2" cx="1097.94" cy="-35" rx="27" ry="18"/>
<text text-anchor="middle" x="1097.94" y="-29.2" font-family="CourierNew" font-size="14.00">end</text>
</g>
<!-- LoopEndState&#45;&gt;end -->
<g id="edge2" class="edge">
<title>LoopEndState&#45;&gt;end</title>
<path fill="none" stroke="black" d="M1027.23,-35C1038.13,-35 1049.5,-35 1059.81,-35"/>
<polygon fill="black" stroke="black" points="1059.52,-38.5 1069.52,-35 1059.52,-31.5 1059.52,-38.5"/>
<text text-anchor="middle" x="1049.19" y="-36.7" font-family="CourierNew" font-size="14.00">ε</text>
</g>
<!-- content1&#45;&gt;BlockEndState -->
<g id="edge4" class="edge">
<title>content1&#45;&gt;BlockEndState</title>
<path fill="none" stroke="black" stroke-dasharray="5,2" d="M590.14,-185.24C598.68,-182.48 608.74,-179.22 618.98,-175.91"/>
<polygon fill="black" stroke="black" points="619.79,-179 628.23,-172.59 617.64,-172.34 619.79,-179"/>
</g>
<!-- content2&#45;&gt;BlockEndState -->
<g id="edge6" class="edge">
<title>content2&#45;&gt;BlockEndState</title>
<path fill="none" stroke="black" stroke-dasharray="5,2" d="M591.83,-142.82C599.96,-144.02 609.32,-145.42 618.85,-146.84"/>
<polygon fill="black" stroke="black" points="618.22,-150.43 628.62,-148.44 619.25,-143.5 618.22,-150.43"/>
</g>
<!-- more&#45;&gt;BlockEndState -->
<g id="edge8" class="edge">
<title>more&#45;&gt;BlockEndState</title>
<path fill="none" stroke="black" stroke-dasharray="5,2" d="M585.83,-97.21C601.34,-106.84 623.43,-120.57 642.37,-132.34"/>
<polygon fill="black" stroke="black" points="640.31,-135.8 650.65,-138.11 644,-129.85 640.31,-135.8"/>
</g>
<!-- begin -->
<g id="node9" class="node">
<title>begin</title>
<ellipse fill="none" stroke="black" stroke-dasharray="5,2" cx="31.85" cy="-123" rx="31.85" ry="18"/>
<text text-anchor="middle" x="31.85" y="-117.2" font-family="CourierNew" font-size="14.00">begin</text>
</g>
<!-- begin&#45;&gt;StarLoopEntryState -->
<g id="edge1" class="edge">
<title>begin&#45;&gt;StarLoopEntryState</title>
<path fill="none" stroke="black" stroke-dasharray="5,2" d="M64.11,-123C71.9,-123 80.68,-123 89.86,-123"/>
<polygon fill="black" stroke="black" points="89.8,-126.5 99.8,-123 89.8,-119.5 89.8,-126.5"/>
</g>
</g>
</svg>
