<?xml version="1.0" encoding="UTF-8" standalone="no"?>
<!DOCTYPE svg PUBLIC "-//W3C//DTD SVG 1.1//EN"
 "http://www.w3.org/Graphics/SVG/1.1/DTD/svg11.dtd">
<!-- Generated by graphviz version 2.30.0 (20130114.0323)
 -->
<!-- Pages: 1 -->
<svg width="1428pt" height="318pt"
 viewBox="0.00 0.00 1428.00 318.00" xmlns="http://www.w3.org/2000/svg" xmlns:xlink="http://www.w3.org/1999/xlink">
<g id="graph0" class="graph" transform="scale(1 1) rotate(0) translate(18 300)">
<polygon fill="white" stroke="white" points="-18,19 -18,-300 1411,-300 1411,19 -18,19"/>
<g id="clust1" class="cluster"><title>cluster0</title>
<polygon fill="none" stroke="none" points="110,-8 110,-274 1288,-274 1288,-8 110,-8"/>
</g>
<!-- StarLoopEntryState -->
<g id="node1" class="node"><title>StarLoopEntryState</title>
<g id="a_node1"><a xlink:href="../StarLoopEntryState.html" xlink:title="{StarLoopEntryState | {&lt;alt1&gt; alt 1 |&lt;alt2&gt; alt 2}}" target="_parent">
<polygon fill="none" stroke="black" points="118.416,-128.2 118.416,-177.8 343.584,-177.8 343.584,-128.2 118.416,-128.2"/>
<text text-anchor="middle" x="202.004" y="-148.8" font-family="Courier New" font-size="14.00">StarLoopEntryState</text>
<polyline fill="none" stroke="black" points="285.591,-128.2 285.591,-177.8 "/>
<text text-anchor="middle" x="314.587" y="-161.2" font-family="Courier New" font-size="14.00">alt 1</text>
<polyline fill="none" stroke="black" points="285.591,-153 343.584,-153 "/>
<text text-anchor="middle" x="314.587" y="-136.4" font-family="Courier New" font-size="14.00">alt 2</text>
</a>
</g>
</g>
<!-- StarBlockStartState -->
<g id="node3" class="node"><title>StarBlockStartState</title>
<g id="a_node3"><a xlink:href="../StarBlockStartState.html" xlink:title="{StarBlockStartState | {&lt;alt1&gt; alt 1 |&lt;alt2&gt; alt 2 | &#0183;\n&#0183;\n&#0183; |&lt;altn&gt; alt n}}" target="_parent">
<polygon fill="none" stroke="black" points="398.217,-74.6 398.217,-207.4 631.783,-207.4 631.783,-74.6 398.217,-74.6"/>
<text text-anchor="middle" x="486.004" y="-136.8" font-family="Courier New" font-size="14.00">StarBlockStartState</text>
<polyline fill="none" stroke="black" points="573.79,-74.6 573.79,-207.4 "/>
<text text-anchor="middle" x="602.787" y="-190.8" font-family="Courier New" font-size="14.00">alt 1</text>
<polyline fill="none" stroke="black" points="573.79,-182.6 631.783,-182.6 "/>
<text text-anchor="middle" x="602.787" y="-166" font-family="Courier New" font-size="14.00">alt 2</text>
<polyline fill="none" stroke="black" points="573.79,-157.8 631.783,-157.8 "/>
<text text-anchor="middle" x="602.787" y="-141.2" font-family="Courier New" font-size="14.00">·</text>
<text text-anchor="middle" x="602.787" y="-124.4" font-family="Courier New" font-size="14.00">·</text>
<text text-anchor="middle" x="602.787" y="-107.6" font-family="Courier New" font-size="14.00">·</text>
<polyline fill="none" stroke="black" points="573.79,-99.4 631.783,-99.4 "/>
<text text-anchor="middle" x="602.787" y="-82.8" font-family="Courier New" font-size="14.00">alt n</text>
</a>
</g>
</g>
<!-- StarLoopEntryState&#45;&gt;StarBlockStartState -->
<g id="edge10" class="edge"><title>StarLoopEntryState:alt2&#45;&gt;StarBlockStartState</title>
<path fill="none" stroke="black" d="M344,-141C358.148,-141 372.959,-141 387.688,-141"/>
<polygon fill="black" stroke="black" points="387.862,-144.5 397.862,-141 387.862,-137.5 387.862,-144.5"/>
<text text-anchor="middle" x="371" y="-146.2" font-family="Courier New" font-size="14.00">ε</text>
</g>
<!-- LoopEndState -->
<g id="node5" class="node"><title>LoopEndState</title>
<g id="a_node5"><a xlink:href="../LoopEndState.html" xlink:title="\N" target="_parent">
<polygon fill="none" stroke="black" points="1162.61,-229 1162.61,-265 1279.39,-265 1279.39,-229 1162.61,-229"/>
<text text-anchor="middle" x="1221" y="-242.9" font-family="Courier New" font-size="14.00">LoopEndState</text>
</a>
</g>
</g>
<!-- StarLoopEntryState&#45;&gt;LoopEndState -->
<g id="edge11" class="edge"><title>StarLoopEntryState:alt1&#45;&gt;LoopEndState</title>
<path fill="none" stroke="black" d="M344,-165C377.012,-165 369.303,-199.683 398,-216 444.596,-242.494 460.399,-249 514,-249 514,-249 514,-249 958,-249 1023.99,-249 1099.33,-248.358 1152.23,-247.801"/>
<polygon fill="black" stroke="black" points="1152.54,-251.298 1162.5,-247.691 1152.46,-244.298 1152.54,-251.298"/>
<text text-anchor="middle" x="726" y="-253.2" font-family="Courier New" font-size="14.00">ε</text>
</g>
<!-- StarLoopbackState -->
<g id="node2" class="node"><title>StarLoopbackState</title>
<g id="a_node2"><a xlink:href="../StarLoopbackState.html" xlink:title="\N" target="_parent">
<polygon fill="none" stroke="black" points="984.612,-47 984.612,-83 1143.39,-83 1143.39,-47 984.612,-47"/>
<text text-anchor="middle" x="1064" y="-60.9" font-family="Courier New" font-size="14.00">StarLoopbackState</text>
</a>
</g>
</g>
<!-- StarLoopbackState&#45;&gt;StarLoopEntryState -->
<g id="edge12" class="edge"><title>StarLoopbackState:s&#45;&gt;StarLoopEntryState:s</title>
<path fill="none" stroke="black" d="M1064,-46C1064,41.2742 955.274,-34 868,-34 514,-34 514,-34 514,-34 385.096,-34 238.929,3.34512 231.311,-116.882"/>
<polygon fill="black" stroke="black" points="227.809,-116.897 231,-127 234.806,-117.112 227.809,-116.897"/>
<text text-anchor="middle" x="726" y="-38.2" font-family="Courier New" font-size="14.00">ε</text>
</g>
<!-- content1 -->
<g id="node6" class="node"><title>content1</title>
<ellipse fill="none" stroke="black" stroke-dasharray="5,2" cx="726" cy="-195" rx="40.005" ry="18"/>
<text text-anchor="middle" x="726" y="-190.8" font-family="Courier New" font-size="14.00">alt 1</text>
</g>
<!-- StarBlockStartState&#45;&gt;content1 -->
<g id="edge3" class="edge"><title>StarBlockStartState:alt1&#45;&gt;content1</title>
<path fill="none" stroke="black" d="M632,-195C646.162,-195 661.536,-195 675.63,-195"/>
<polygon fill="black" stroke="black" points="675.631,-198.5 685.631,-195 675.631,-191.5 675.631,-198.5"/>
<text text-anchor="middle" x="659" y="-199.2" font-family="Courier New" font-size="14.00">ε</text>
</g>
<!-- content2 -->
<g id="node7" class="node"><title>content2</title>
<ellipse fill="none" stroke="black" stroke-dasharray="5,2" cx="726" cy="-141" rx="40.005" ry="18"/>
<text text-anchor="middle" x="726" y="-136.8" font-family="Courier New" font-size="14.00">alt 2</text>
</g>
<!-- StarBlockStartState&#45;&gt;content2 -->
<g id="edge5" class="edge"><title>StarBlockStartState:alt2&#45;&gt;content2</title>
<path fill="none" stroke="black" d="M632,-170C642.081,-170 640.825,-160.375 650,-156.2 658.436,-152.361 667.845,-149.486 677.069,-147.334"/>
<polygon fill="black" stroke="black" points="677.877,-150.741 686.951,-145.271 676.446,-143.889 677.877,-150.741"/>
<text text-anchor="middle" x="659" y="-160.2" font-family="Courier New" font-size="14.00">ε</text>
</g>
<!-- more -->
<g id="node8" class="node"><title>more</title>
<ellipse fill="none" stroke="black" stroke-dasharray="5,2" cx="726" cy="-87" rx="40.005" ry="18"/>
<text text-anchor="middle" x="726" y="-82.8" font-family="Courier New" font-size="14.00">alt n</text>
</g>
<!-- StarBlockStartState&#45;&gt;more -->
<g id="edge7" class="edge"><title>StarBlockStartState:altn&#45;&gt;more</title>
<path fill="none" stroke="black" d="M632,-87C646.162,-87 661.536,-87 675.63,-87"/>
<polygon fill="black" stroke="black" points="675.631,-90.5001 685.631,-87 675.631,-83.5001 675.631,-90.5001"/>
<text text-anchor="middle" x="659" y="-91.2" font-family="Courier New" font-size="14.00">ε</text>
</g>
<!-- BlockEndState -->
<g id="node4" class="node"><title>BlockEndState</title>
<g id="a_node4"><a xlink:href="../BlockEndState.html" xlink:title="\N" target="_parent">
<polygon fill="none" stroke="black" points="804.409,-83 804.409,-119 929.591,-119 929.591,-83 804.409,-83"/>
<text text-anchor="middle" x="867" y="-96.9" font-family="Courier New" font-size="14.00">BlockEndState</text>
</a>
</g>
</g>
<!-- BlockEndState&#45;&gt;StarLoopbackState -->
<g id="edge9" class="edge"><title>BlockEndState:e&#45;&gt;StarLoopbackState:w</title>
<path fill="none" stroke="black" d="M930,-101C955.014,-101 955.562,-73.9275 974.076,-66.7364"/>
<polygon fill="black" stroke="black" points="974.753,-70.1713 984,-65 973.546,-63.276 974.753,-70.1713"/>
<text text-anchor="middle" x="957" y="-99.2" font-family="Courier New" font-size="14.00">ε</text>
</g>
<!-- end -->
<g id="node10" class="node"><title>end</title>
<ellipse fill="none" stroke="black" stroke-dasharray="5,2" cx="1363" cy="-247" rx="28.3325" ry="18"/>
<text text-anchor="middle" x="1363" y="-242.8" font-family="Courier New" font-size="14.00">end</text>
</g>
<!-- LoopEndState&#45;&gt;end -->
<g id="edge2" class="edge"><title>LoopEndState&#45;&gt;end</title>
<path fill="none" stroke="black" d="M1279.75,-247C1294.76,-247 1310.54,-247 1324.22,-247"/>
<polygon fill="black" stroke="black" points="1324.22,-250.5 1334.22,-247 1324.22,-243.5 1324.22,-250.5"/>
<text text-anchor="middle" x="1307" y="-251.2" font-family="Courier New" font-size="14.00">ε</text>
</g>
<!-- content1&#45;&gt;BlockEndState -->
<g id="edge4" class="edge"><title>content1&#45;&gt;BlockEndState</title>
<path fill="none" stroke="black" stroke-dasharray="5,2" d="M749.025,-180.105C771.033,-165.222 805.209,-142.111 830.947,-124.705"/>
<polygon fill="black" stroke="black" points="833,-127.542 839.323,-119.041 829.078,-121.743 833,-127.542"/>
</g>
<!-- content2&#45;&gt;BlockEndState -->
<g id="edge6" class="edge"><title>content2&#45;&gt;BlockEndState</title>
<path fill="none" stroke="black" stroke-dasharray="5,2" d="M760.294,-131.419C770.584,-128.458 782.344,-125.074 794.194,-121.664"/>
<polygon fill="black" stroke="black" points="795.496,-124.931 804.138,-118.802 793.56,-118.204 795.496,-124.931"/>
</g>
<!-- more&#45;&gt;BlockEndState -->
<g id="edge8" class="edge"><title>more&#45;&gt;BlockEndState</title>
<path fill="none" stroke="black" stroke-dasharray="5,2" d="M765.35,-90.8626C774.391,-91.7732 784.317,-92.773 794.305,-93.7789"/>
<polygon fill="black" stroke="black" points="793.981,-97.2639 804.282,-94.7838 794.683,-90.2992 793.981,-97.2639"/>
</g>
<!-- begin -->
<g id="node9" class="node"><title>begin</title>
<ellipse fill="none" stroke="black" stroke-dasharray="5,2" cx="40" cy="-153" rx="40.005" ry="18"/>
<text text-anchor="middle" x="40" y="-148.8" font-family="Courier New" font-size="14.00">begin</text>
</g>
<!-- begin&#45;&gt;StarLoopEntryState -->
<g id="edge1" class="edge"><title>begin&#45;&gt;StarLoopEntryState</title>
<path fill="none" stroke="black" stroke-dasharray="5,2" d="M80.1609,-153C88.7567,-153 98.2958,-153 108.278,-153"/>
<polygon fill="black" stroke="black" points="108.389,-156.5 118.389,-153 108.389,-149.5 108.389,-156.5"/>
</g>
</g>
</svg>
