<?xml version="1.0" encoding="UTF-8" standalone="no"?>
<!DOCTYPE svg PUBLIC "-//W3C//DTD SVG 1.1//EN"
 "http://www.w3.org/Graphics/SVG/1.1/DTD/svg11.dtd">
<!-- Generated by graphviz version 2.38.0 (20140413.2041)
 -->
<!-- Pages: 1 -->
<svg width="1230pt" height="316pt"
 viewBox="0.00 0.00 1230.08 316.00" xmlns="http://www.w3.org/2000/svg" xmlns:xlink="http://www.w3.org/1999/xlink">
<g id="graph0" class="graph" transform="scale(1 1) rotate(0) translate(18 298)">
<polygon fill="white" stroke="none" points="-18,18 -18,-298 1212.08,-298 1212.08,18 -18,18"/>
<g id="clust1" class="cluster"><title>cluster0</title>
<polygon fill="none" stroke="none" points="102.774,-8 102.774,-272 1103.24,-272 1103.24,-8 102.774,-8"/>
</g>
<!-- StarLoopEntryState -->
<g id="node1" class="node"><title>StarLoopEntryState</title>
<g id="a_node1"><a xlink:href="../StarLoopEntryState.html" xlink:title="{StarLoopEntryState | {&lt;alt1&gt; alt 1 |&lt;alt2&gt; alt 2}}" target="_parent">
<polygon fill="none" stroke="black" points="110.774,-102.512 110.774,-151.488 300.629,-151.488 300.629,-102.512 110.774,-102.512"/>
<text text-anchor="middle" x="182.553" y="-124.044" font-family="CourierNew" font-size="14.00">StarLoopEntryState</text>
<polyline fill="none" stroke="black" points="254.332,-102.512 254.332,-151.488 "/>
<text text-anchor="middle" x="277.481" y="-136.288" font-family="CourierNew" font-size="14.00">alt 1</text>
<polyline fill="none" stroke="black" points="254.332,-127 300.629,-127 "/>
<text text-anchor="middle" x="277.481" y="-111.8" font-family="CourierNew" font-size="14.00">alt 2</text>
</a>
</g>
</g>
<!-- StarBlockStartState -->
<g id="node3" class="node"><title>StarBlockStartState</title>
<g id="a_node3"><a xlink:href="../StarBlockStartState.html" xlink:title="{StarBlockStartState | {&lt;alt1&gt; alt 1 |&lt;alt2&gt; alt 2 | &#0183;\n&#0183;\n&#0183; |&lt;altn&gt; alt n}}" target="_parent">
<polygon fill="none" stroke="black" points="343.124,-73.5352 343.124,-204.465 532.624,-204.465 532.624,-73.5352 343.124,-73.5352"/>
<text text-anchor="middle" x="414.725" y="-136.044" font-family="CourierNew" font-size="14.00">StarBlockStartState</text>
<polyline fill="none" stroke="black" points="486.327,-73.5352 486.327,-204.465 "/>
<text text-anchor="middle" x="509.475" y="-189.265" font-family="CourierNew" font-size="14.00">alt 1</text>
<polyline fill="none" stroke="black" points="486.327,-179.977 532.624,-179.977 "/>
<text text-anchor="middle" x="509.475" y="-164.777" font-family="CourierNew" font-size="14.00">alt 2</text>
<polyline fill="none" stroke="black" points="486.327,-155.488 532.624,-155.488 "/>
<text text-anchor="middle" x="509.475" y="-140.288" font-family="CourierNew" font-size="14.00">·</text>
<text text-anchor="middle" x="509.475" y="-123.8" font-family="CourierNew" font-size="14.00">·</text>
<text text-anchor="middle" x="509.475" y="-107.312" font-family="CourierNew" font-size="14.00">·</text>
<polyline fill="none" stroke="black" points="486.327,-98.0234 532.624,-98.0234 "/>
<text text-anchor="middle" x="509.475" y="-82.8234" font-family="CourierNew" font-size="14.00">alt n</text>
</a>
</g>
</g>
<!-- StarLoopEntryState&#45;&gt;StarBlockStartState -->
<g id="edge10" class="edge"><title>StarLoopEntryState:alt1&#45;&gt;StarBlockStartState</title>
<path fill="none" stroke="black" d="M300.629,-139C311.133,-139 322.092,-139 333.033,-139"/>
<polygon fill="black" stroke="black" points="333.061,-142.5 343.061,-139 333.061,-135.5 333.061,-142.5"/>
<text text-anchor="middle" x="321.876" y="-145.288" font-family="CourierNew" font-size="14.00">ε</text>
</g>
<!-- LoopEndState -->
<g id="node5" class="node"><title>LoopEndState</title>
<g id="a_node5"><a xlink:href="../LoopEndState.html" xlink:title="\N" target="_parent">
<polygon fill="none" stroke="black" points="987.268,-17 987.268,-53 1095.24,-53 1095.24,-17 987.268,-17"/>
<text text-anchor="middle" x="1041.25" y="-32.3" font-family="CourierNew" font-size="14.00">LoopEndState</text>
</a>
</g>
</g>
<!-- StarLoopEntryState&#45;&gt;LoopEndState -->
<g id="edge11" class="edge"><title>StarLoopEntryState:alt2&#45;&gt;LoopEndState</title>
<path fill="none" stroke="black" d="M277.702,-102C277.702,-67.9819 431.193,-34 436.874,-34 436.874,-34 436.874,-34 808.108,-34 865.249,-34 930.301,-34.3067 976.975,-34.5804"/>
<polygon fill="black" stroke="black" points="977.218,-38.0818 987.238,-34.6418 977.26,-31.082 977.218,-38.0818"/>
<text text-anchor="middle" x="606.698" y="-39.2883" font-family="CourierNew" font-size="14.00">ε</text>
</g>
<!-- StarLoopbackState -->
<g id="node2" class="node"><title>StarLoopbackState</title>
<g id="a_node2"><a xlink:href="../StarLoopbackState.html" xlink:title="\N" target="_parent">
<polygon fill="none" stroke="black" points="828.355,-193 828.355,-229 969.268,-229 969.268,-193 828.355,-193"/>
<text text-anchor="middle" x="898.811" y="-208.3" font-family="CourierNew" font-size="14.00">StarLoopbackState</text>
</a>
</g>
</g>
<!-- StarLoopbackState&#45;&gt;StarLoopEntryState -->
<g id="edge12" class="edge"><title>StarLoopbackState:n&#45;&gt;StarLoopEntryState:n</title>
<path fill="none" stroke="black" d="M898.811,-230C898.811,-304.759 806.329,-248 731.57,-248 436.874,-248 436.874,-248 436.874,-248 329.1,-248 213.188,-262.312 206.049,-162.063"/>
<polygon fill="black" stroke="black" points="209.545,-161.873 205.702,-152 202.549,-162.115 209.545,-161.873"/>
<text text-anchor="middle" x="606.698" y="-253.288" font-family="CourierNew" font-size="14.00">ε</text>
</g>
<!-- content1 -->
<g id="node6" class="node"><title>content1</title>
<ellipse fill="none" stroke="black" stroke-dasharray="5,2" cx="606.698" cy="-194" rx="31.6611" ry="18"/>
<text text-anchor="middle" x="606.698" y="-191.044" font-family="CourierNew" font-size="14.00">alt 1</text>
</g>
<!-- StarBlockStartState&#45;&gt;content1 -->
<g id="edge3" class="edge"><title>StarBlockStartState:alt1&#45;&gt;content1</title>
<path fill="none" stroke="black" d="M532.624,-192C543.094,-192 554.405,-192.208 564.927,-192.489"/>
<polygon fill="black" stroke="black" points="565.028,-195.994 575.127,-192.79 565.234,-188.997 565.028,-195.994"/>
<text text-anchor="middle" x="553.871" y="-197.288" font-family="CourierNew" font-size="14.00">ε</text>
</g>
<!-- content2 -->
<g id="node7" class="node"><title>content2</title>
<ellipse fill="none" stroke="black" stroke-dasharray="5,2" cx="606.698" cy="-140" rx="31.6611" ry="18"/>
<text text-anchor="middle" x="606.698" y="-137.044" font-family="CourierNew" font-size="14.00">alt 2</text>
</g>
<!-- StarBlockStartState&#45;&gt;content2 -->
<g id="edge5" class="edge"><title>StarBlockStartState:alt2&#45;&gt;content2</title>
<path fill="none" stroke="black" d="M532.624,-168C542.62,-168 541.623,-158.863 550.624,-154.512 555.631,-152.091 561.097,-150.033 566.578,-148.296"/>
<polygon fill="black" stroke="black" points="567.707,-151.613 576.365,-145.506 565.788,-144.881 567.707,-151.613"/>
<text text-anchor="middle" x="553.871" y="-159.288" font-family="CourierNew" font-size="14.00">ε</text>
</g>
<!-- more -->
<g id="node8" class="node"><title>more</title>
<ellipse fill="none" stroke="black" stroke-dasharray="5,2" cx="606.698" cy="-86" rx="31.4371" ry="18"/>
<text text-anchor="middle" x="606.698" y="-83.0441" font-family="CourierNew" font-size="14.00">alt n</text>
</g>
<!-- StarBlockStartState&#45;&gt;more -->
<g id="edge7" class="edge"><title>StarBlockStartState:altn&#45;&gt;more</title>
<path fill="none" stroke="black" d="M532.624,-86C543.09,-86 554.4,-86 564.922,-86"/>
<polygon fill="black" stroke="black" points="565.122,-89.5001 575.122,-86 565.122,-82.5001 565.122,-89.5001"/>
<text text-anchor="middle" x="553.871" y="-91.2883" font-family="CourierNew" font-size="14.00">ε</text>
</g>
<!-- BlockEndState -->
<g id="node4" class="node"><title>BlockEndState</title>
<g id="a_node4"><a xlink:href="../BlockEndState.html" xlink:title="\N" target="_parent">
<polygon fill="none" stroke="black" points="675.279,-136 675.279,-172 785.861,-172 785.861,-136 675.279,-136"/>
<text text-anchor="middle" x="730.57" y="-151.3" font-family="CourierNew" font-size="14.00">BlockEndState</text>
</a>
</g>
</g>
<!-- BlockEndState&#45;&gt;StarLoopbackState -->
<g id="edge9" class="edge"><title>BlockEndState:e&#45;&gt;StarLoopbackState:w</title>
<path fill="none" stroke="black" d="M785.861,-154C813.262,-154 801.333,-196.865 818.287,-208.251"/>
<polygon fill="black" stroke="black" points="817.786,-211.742 828.355,-211 819.63,-204.989 817.786,-211.742"/>
<text text-anchor="middle" x="807.108" y="-202.288" font-family="CourierNew" font-size="14.00">ε</text>
</g>
<!-- end -->
<g id="node10" class="node"><title>end</title>
<ellipse fill="none" stroke="black" stroke-dasharray="5,2" cx="1165.9" cy="-35" rx="28.3447" ry="18"/>
<text text-anchor="middle" x="1165.9" y="-32.0441" font-family="CourierNew" font-size="14.00">end</text>
</g>
<!-- LoopEndState&#45;&gt;end -->
<g id="edge2" class="edge"><title>LoopEndState&#45;&gt;end</title>
<path fill="none" stroke="black" d="M1095.34,-35C1106.2,-35 1117.41,-35 1127.57,-35"/>
<polygon fill="black" stroke="black" points="1127.73,-38.5001 1137.73,-35 1127.73,-31.5001 1127.73,-38.5001"/>
<text text-anchor="middle" x="1116.49" y="-40.2883" font-family="CourierNew" font-size="14.00">ε</text>
</g>
<!-- content1&#45;&gt;BlockEndState -->
<g id="edge4" class="edge"><title>content1&#45;&gt;BlockEndState</title>
<path fill="none" stroke="black" stroke-dasharray="5,2" d="M634.443,-185.222C643.656,-182.198 654.411,-178.668 665.307,-175.092"/>
<polygon fill="black" stroke="black" points="666.475,-178.392 674.885,-171.948 664.292,-171.741 666.475,-178.392"/>
</g>
<!-- content2&#45;&gt;BlockEndState -->
<g id="edge6" class="edge"><title>content2&#45;&gt;BlockEndState</title>
<path fill="none" stroke="black" stroke-dasharray="5,2" d="M637.824,-143.461C646.194,-144.422 655.617,-145.505 665.154,-146.6"/>
<polygon fill="black" stroke="black" points="664.76,-150.078 675.094,-147.742 665.559,-143.124 664.76,-150.078"/>
</g>
<!-- more&#45;&gt;BlockEndState -->
<g id="edge8" class="edge"><title>more&#45;&gt;BlockEndState</title>
<path fill="none" stroke="black" stroke-dasharray="5,2" d="M629.768,-98.3143C646.067,-107.408 668.732,-120.055 688.344,-130.998"/>
<polygon fill="black" stroke="black" points="686.669,-134.071 697.107,-135.887 690.079,-127.958 686.669,-134.071"/>
</g>
<!-- begin -->
<g id="node9" class="node"><title>begin</title>
<ellipse fill="none" stroke="black" stroke-dasharray="5,2" cx="36.8869" cy="-127" rx="36.7742" ry="18"/>
<text text-anchor="middle" x="36.8869" y="-124.044" font-family="CourierNew" font-size="14.00">begin</text>
</g>
<!-- begin&#45;&gt;StarLoopEntryState -->
<g id="edge1" class="edge"><title>begin&#45;&gt;StarLoopEntryState</title>
<path fill="none" stroke="black" stroke-dasharray="5,2" d="M74.0833,-127C82.1758,-127 91.1525,-127 100.502,-127"/>
<polygon fill="black" stroke="black" points="100.768,-130.5 110.768,-127 100.768,-123.5 100.768,-130.5"/>
</g>
</g>
</svg>
