<?xml version="1.0" encoding="UTF-8" standalone="no"?>
<!DOCTYPE svg PUBLIC "-//W3C//DTD SVG 1.1//EN"
 "http://www.w3.org/Graphics/SVG/1.1/DTD/svg11.dtd">
<!-- Generated by graphviz version 7.1.0 (20230121.1956)
 -->
<!-- Pages: 1 -->
<svg width="1168pt" height="314pt"
 viewBox="0.00 0.00 1167.59 314.00" xmlns="http://www.w3.org/2000/svg" xmlns:xlink="http://www.w3.org/1999/xlink">
<g id="graph0" class="graph" transform="scale(1 1) rotate(0) translate(18 296)">
<polygon fill="white" stroke="none" points="-18,18 -18,-296 1149.59,-296 1149.59,18 -18,18"/>
<g id="clust1" class="cluster">
<title>cluster0</title>
<polygon fill="none" stroke="none" points="93.99,-8 93.99,-270 1041.59,-270 1041.59,-8 93.99,-8"/>
</g>
<!-- StarLoopEntryState -->
<g id="node1" class="node">
<title>StarLoopEntryState</title>
<g id="a_node1"><a xlink:href="../StarLoopEntryState.html" xlink:title="{StarLoopEntryState | {&lt;alt1&gt; alt 1 |&lt;alt2&gt; alt 2}}" target="_parent">
<polygon fill="none" stroke="black" points="101.99,-124 101.99,-170 277.99,-170 277.99,-124 101.99,-124"/>
<text text-anchor="middle" x="168.99" y="-143.3" font-family="CourierNew" font-size="14.00">StarLoopEntryState</text>
<polyline fill="none" stroke="black" points="235.99,-124 235.99,-170"/>
<text text-anchor="middle" x="256.99" y="-154.8" font-family="CourierNew" font-size="14.00">alt 1</text>
<polyline fill="none" stroke="black" points="235.99,-147 277.99,-147"/>
<text text-anchor="middle" x="256.99" y="-131.8" font-family="CourierNew" font-size="14.00">alt 2</text>
</a>
</g>
</g>
<!-- StarBlockStartState -->
<g id="node3" class="node">
<title>StarBlockStartState</title>
<g id="a_node3"><a xlink:href="../StarBlockStartState.html" xlink:title="{StarBlockStartState | {&lt;alt1&gt; alt 1 |&lt;alt2&gt; alt 2 | &amp;#0183;\n&amp;#0183;\n&amp;#0183; |&lt;altn&gt; alt n}}" target="_parent">
<polygon fill="none" stroke="black" points="321.99,-74 321.99,-196 497.99,-196 497.99,-74 321.99,-74"/>
<text text-anchor="middle" x="388.99" y="-131.3" font-family="CourierNew" font-size="14.00">StarBlockStartState</text>
<polyline fill="none" stroke="black" points="455.99,-74 455.99,-196"/>
<text text-anchor="middle" x="476.99" y="-180.8" font-family="CourierNew" font-size="14.00">alt 1</text>
<polyline fill="none" stroke="black" points="455.99,-173 497.99,-173"/>
<text text-anchor="middle" x="476.99" y="-157.8" font-family="CourierNew" font-size="14.00">alt 2</text>
<polyline fill="none" stroke="black" points="455.99,-150 497.99,-150"/>
<text text-anchor="middle" x="476.99" y="-134.8" font-family="CourierNew" font-size="14.00">·</text>
<text text-anchor="middle" x="476.99" y="-119.8" font-family="CourierNew" font-size="14.00">·</text>
<text text-anchor="middle" x="476.99" y="-104.8" font-family="CourierNew" font-size="14.00">·</text>
<polyline fill="none" stroke="black" points="455.99,-97 497.99,-97"/>
<text text-anchor="middle" x="476.99" y="-81.8" font-family="CourierNew" font-size="14.00">alt n</text>
</a>
</g>
</g>
<!-- StarLoopEntryState&#45;&gt;StarBlockStartState -->
<g id="edge10" class="edge">
<title>StarLoopEntryState:alt2&#45;&gt;StarBlockStartState</title>
<path fill="none" stroke="black" d="M277.99,-135C288.63,-135 299.75,-135 310.82,-135"/>
<polygon fill="black" stroke="black" points="310.81,-138.5 320.81,-135 310.81,-131.5 310.81,-138.5"/>
<text text-anchor="middle" x="299.99" y="-138.8" font-family="CourierNew" font-size="14.00">ε</text>
</g>
<!-- LoopEndState -->
<g id="node5" class="node">
<title>LoopEndState</title>
<g id="a_node5"><a xlink:href="../LoopEndState.html" xlink:title="\N" target="_parent">
<polygon fill="none" stroke="black" points="931.59,-225 931.59,-261 1033.59,-261 1033.59,-225 931.59,-225"/>
<text text-anchor="middle" x="982.59" y="-239.3" font-family="CourierNew" font-size="14.00">LoopEndState</text>
</a>
</g>
</g>
<!-- StarLoopEntryState&#45;&gt;LoopEndState -->
<g id="edge11" class="edge">
<title>StarLoopEntryState:alt1&#45;&gt;LoopEndState</title>
<path fill="none" stroke="black" d="M256.99,-171C256.99,-185.23 392.73,-247 408.99,-247 408.99,-247 408.99,-247 761.59,-247 815.24,-247 876.24,-245.8 920.38,-244.71"/>
<polygon fill="black" stroke="black" points="920.37,-248.21 930.28,-244.46 920.19,-241.21 920.37,-248.21"/>
<text text-anchor="middle" x="569.29" y="-250.8" font-family="CourierNew" font-size="14.00">ε</text>
</g>
<!-- StarLoopbackState -->
<g id="node2" class="node">
<title>StarLoopbackState</title>
<g id="a_node2"><a xlink:href="../StarLoopbackState.html" xlink:title="\N" target="_parent">
<polygon fill="none" stroke="black" points="782.59,-67 782.59,-103 913.59,-103 913.59,-67 782.59,-67"/>
<text text-anchor="middle" x="848.09" y="-81.3" font-family="CourierNew" font-size="14.00">StarLoopbackState</text>
</a>
</g>
</g>
<!-- StarLoopbackState&#45;&gt;StarLoopEntryState -->
<g id="edge12" class="edge">
<title>StarLoopbackState:s&#45;&gt;StarLoopEntryState:s</title>
<path fill="none" stroke="black" d="M848.09,-66C848.09,6.96 760.04,-34 687.09,-34 408.99,-34 408.99,-34 408.99,-34 307.93,-34 198.66,-19.14 190.48,-111.52"/>
<polygon fill="black" stroke="black" points="186.99,-111.35 190.06,-121.49 193.98,-111.65 186.99,-111.35"/>
<text text-anchor="middle" x="569.29" y="-37.8" font-family="CourierNew" font-size="14.00">ε</text>
</g>
<!-- content1 -->
<g id="node6" class="node">
<title>content1</title>
<ellipse fill="none" stroke="black" stroke-dasharray="5,2" cx="569.29" cy="-193" rx="27.1" ry="18"/>
<text text-anchor="middle" x="569.29" y="-189.3" font-family="CourierNew" font-size="14.00">alt 1</text>
</g>
<!-- StarBlockStartState&#45;&gt;content1 -->
<g id="edge3" class="edge">
<title>StarBlockStartState:alt1&#45;&gt;content1</title>
<path fill="none" stroke="black" d="M497.99,-185C508.91,-185 520.72,-185.96 531.48,-187.22"/>
<polygon fill="black" stroke="black" points="530.79,-190.66 541.16,-188.48 531.69,-183.72 530.79,-190.66"/>
<text text-anchor="middle" x="519.99" y="-189.8" font-family="CourierNew" font-size="14.00">ε</text>
</g>
<!-- content2 -->
<g id="node7" class="node">
<title>content2</title>
<ellipse fill="none" stroke="black" stroke-dasharray="5,2" cx="569.29" cy="-139" rx="27.1" ry="18"/>
<text text-anchor="middle" x="569.29" y="-135.3" font-family="CourierNew" font-size="14.00">alt 2</text>
</g>
<!-- StarBlockStartState&#45;&gt;content2 -->
<g id="edge5" class="edge">
<title>StarBlockStartState:alt2&#45;&gt;content2</title>
<path fill="none" stroke="black" d="M497.99,-162C507.15,-162 507.48,-155.36 515.99,-152 521.06,-150 526.52,-148.24 531.94,-146.72"/>
<polygon fill="black" stroke="black" points="532.59,-150.16 541.4,-144.28 530.84,-143.38 532.59,-150.16"/>
<text text-anchor="middle" x="519.99" y="-155.8" font-family="CourierNew" font-size="14.00">ε</text>
</g>
<!-- more -->
<g id="node8" class="node">
<title>more</title>
<ellipse fill="none" stroke="black" stroke-dasharray="5,2" cx="569.29" cy="-85" rx="27.1" ry="18"/>
<text text-anchor="middle" x="569.29" y="-81.3" font-family="CourierNew" font-size="14.00">alt n</text>
</g>
<!-- StarBlockStartState&#45;&gt;more -->
<g id="edge7" class="edge">
<title>StarBlockStartState:altn&#45;&gt;more</title>
<path fill="none" stroke="black" d="M497.99,-85C508.55,-85 519.99,-85 530.52,-85"/>
<polygon fill="black" stroke="black" points="530.41,-88.5 540.41,-85 530.41,-81.5 530.41,-88.5"/>
<text text-anchor="middle" x="519.99" y="-88.8" font-family="CourierNew" font-size="14.00">ε</text>
</g>
<!-- BlockEndState -->
<g id="node4" class="node">
<title>BlockEndState</title>
<g id="a_node4"><a xlink:href="../BlockEndState.html" xlink:title="\N" target="_parent">
<polygon fill="none" stroke="black" points="633.59,-90 633.59,-126 738.59,-126 738.59,-90 633.59,-90"/>
<text text-anchor="middle" x="686.09" y="-104.3" font-family="CourierNew" font-size="14.00">BlockEndState</text>
</a>
</g>
</g>
<!-- BlockEndState&#45;&gt;StarLoopbackState -->
<g id="edge9" class="edge">
<title>BlockEndState:e&#45;&gt;StarLoopbackState:w</title>
<path fill="none" stroke="black" d="M738.59,-108C756.17,-108 759.66,-93.39 771.52,-87.46"/>
<polygon fill="black" stroke="black" points="772.11,-90.92 781.11,-85.33 770.59,-84.08 772.11,-90.92"/>
<text text-anchor="middle" x="760.59" y="-102.8" font-family="CourierNew" font-size="14.00">ε</text>
</g>
<!-- end -->
<g id="node10" class="node">
<title>end</title>
<ellipse fill="none" stroke="black" stroke-dasharray="5,2" cx="1104.59" cy="-243" rx="27" ry="18"/>
<text text-anchor="middle" x="1104.59" y="-239.3" font-family="CourierNew" font-size="14.00">end</text>
</g>
<!-- LoopEndState&#45;&gt;end -->
<g id="edge2" class="edge">
<title>LoopEndState&#45;&gt;end</title>
<path fill="none" stroke="black" d="M1033.44,-243C1044.27,-243 1055.55,-243 1065.82,-243"/>
<polygon fill="black" stroke="black" points="1065.82,-246.5 1075.82,-243 1065.82,-239.5 1065.82,-246.5"/>
<text text-anchor="middle" x="1055.59" y="-246.8" font-family="CourierNew" font-size="14.00">ε</text>
</g>
<!-- content1&#45;&gt;BlockEndState -->
<g id="edge4" class="edge">
<title>content1&#45;&gt;BlockEndState</title>
<path fill="none" stroke="black" stroke-dasharray="5,2" d="M588.23,-179.72C605.18,-167.17 631.03,-148.02 651.77,-132.67"/>
<polygon fill="black" stroke="black" points="653.71,-135.59 659.67,-126.82 649.55,-129.96 653.71,-135.59"/>
</g>
<!-- content2&#45;&gt;BlockEndState -->
<g id="edge6" class="edge">
<title>content2&#45;&gt;BlockEndState</title>
<path fill="none" stroke="black" stroke-dasharray="5,2" d="M594.92,-132.35C603.15,-130.13 612.74,-127.54 622.53,-124.89"/>
<polygon fill="black" stroke="black" points="623.4,-128.28 632.14,-122.3 621.57,-121.53 623.4,-128.28"/>
</g>
<!-- more&#45;&gt;BlockEndState -->
<g id="edge8" class="edge">
<title>more&#45;&gt;BlockEndState</title>
<path fill="none" stroke="black" stroke-dasharray="5,2" d="M595.77,-90.1C603.84,-91.72 613.15,-93.59 622.64,-95.49"/>
<polygon fill="black" stroke="black" points="621.83,-98.89 632.32,-97.43 623.2,-92.03 621.83,-98.89"/>
</g>
<!-- begin -->
<g id="node9" class="node">
<title>begin</title>
<ellipse fill="none" stroke="black" stroke-dasharray="5,2" cx="32.5" cy="-147" rx="32.49" ry="18"/>
<text text-anchor="middle" x="32.5" y="-143.3" font-family="CourierNew" font-size="14.00">begin</text>
</g>
<!-- begin&#45;&gt;StarLoopEntryState -->
<g id="edge1" class="edge">
<title>begin&#45;&gt;StarLoopEntryState</title>
<path fill="none" stroke="black" stroke-dasharray="5,2" d="M65.34,-147C73.11,-147 81.83,-147 90.96,-147"/>
<polygon fill="black" stroke="black" points="90.73,-150.5 100.73,-147 90.73,-143.5 90.73,-150.5"/>
</g>
</g>
</svg>
