<?xml version="1.0" encoding="UTF-8" standalone="no"?>
<!DOCTYPE svg PUBLIC "-//W3C//DTD SVG 1.1//EN"
 "http://www.w3.org/Graphics/SVG/1.1/DTD/svg11.dtd">
<!-- Generated by graphviz version 2.37.20140119.0545 (20140119.0545)
 -->
<!-- Pages: 1 -->
<svg width="1374pt" height="314pt"
 viewBox="0.00 0.00 1374.00 314.00" xmlns="http://www.w3.org/2000/svg" xmlns:xlink="http://www.w3.org/1999/xlink">
<g id="graph0" class="graph" transform="scale(1 1) rotate(0) translate(18 296)">
<polygon fill="white" stroke="none" points="-18,18 -18,-296 1356,-296 1356,18 -18,18"/>
<g id="clust1" class="cluster"><title>cluster0</title>
<polygon fill="none" stroke="none" points="106,-8 106,-270 1246,-270 1246,-8 106,-8"/>
</g>
<!-- StarLoopEntryState -->
<g id="node1" class="node"><title>StarLoopEntryState</title>
<g id="a_node1"><a xlink:href="../StarLoopEntryState.html" xlink:title="{StarLoopEntryState | {&lt;alt1&gt; alt 1 |&lt;alt2&gt; alt 2}}" target="_parent">
<polygon fill="none" stroke="black" points="114.5,-124 114.5,-170 337.5,-170 337.5,-124 114.5,-124"/>
<text text-anchor="middle" x="197" y="-143.3" font-family="Courier New" font-size="14.00">StarLoopEntryState</text>
<polyline fill="none" stroke="black" points="279.5,-124 279.5,-170 "/>
<text text-anchor="middle" x="308.5" y="-154.8" font-family="Courier New" font-size="14.00">alt 1</text>
<polyline fill="none" stroke="black" points="279.5,-147 337.5,-147 "/>
<text text-anchor="middle" x="308.5" y="-131.8" font-family="Courier New" font-size="14.00">alt 2</text>
</a>
</g>
</g>
<!-- StarBlockStartState -->
<g id="node3" class="node"><title>StarBlockStartState</title>
<g id="a_node3"><a xlink:href="../StarBlockStartState.html" xlink:title="{StarBlockStartState | {&lt;alt1&gt; alt 1 |&lt;alt2&gt; alt 2 | &#0183;\n&#0183;\n&#0183; |&lt;altn&gt; alt n}}" target="_parent">
<polygon fill="none" stroke="black" points="384.5,-74 384.5,-196 615.5,-196 615.5,-74 384.5,-74"/>
<text text-anchor="middle" x="471" y="-131.3" font-family="Courier New" font-size="14.00">StarBlockStartState</text>
<polyline fill="none" stroke="black" points="557.5,-74 557.5,-196 "/>
<text text-anchor="middle" x="586.5" y="-180.8" font-family="Courier New" font-size="14.00">alt 1</text>
<polyline fill="none" stroke="black" points="557.5,-173 615.5,-173 "/>
<text text-anchor="middle" x="586.5" y="-157.8" font-family="Courier New" font-size="14.00">alt 2</text>
<polyline fill="none" stroke="black" points="557.5,-150 615.5,-150 "/>
<text text-anchor="middle" x="586.5" y="-134.8" font-family="Courier New" font-size="14.00">·</text>
<text text-anchor="middle" x="586.5" y="-119.8" font-family="Courier New" font-size="14.00">·</text>
<text text-anchor="middle" x="586.5" y="-104.8" font-family="Courier New" font-size="14.00">·</text>
<polyline fill="none" stroke="black" points="557.5,-97 615.5,-97 "/>
<text text-anchor="middle" x="586.5" y="-81.8" font-family="Courier New" font-size="14.00">alt n</text>
</a>
</g>
</g>
<!-- StarLoopEntryState&#45;&gt;StarBlockStartState -->
<g id="edge10" class="edge"><title>StarLoopEntryState:alt2&#45;&gt;StarBlockStartState</title>
<path fill="none" stroke="black" d="M338,-135C349.683,-135 361.842,-135 374.012,-135"/>
<polygon fill="black" stroke="black" points="374.226,-138.5 384.226,-135 374.226,-131.5 374.226,-138.5"/>
<text text-anchor="middle" x="361" y="-139.8" font-family="Courier New" font-size="14.00">ε</text>
</g>
<!-- LoopEndState -->
<g id="node5" class="node"><title>LoopEndState</title>
<g id="a_node5"><a xlink:href="../LoopEndState.html" xlink:title="\N" target="_parent">
<polygon fill="none" stroke="black" points="1122,-225 1122,-261 1238,-261 1238,-225 1122,-225"/>
<text text-anchor="middle" x="1180" y="-239.3" font-family="Courier New" font-size="14.00">LoopEndState</text>
</a>
</g>
</g>
<!-- StarLoopEntryState&#45;&gt;LoopEndState -->
<g id="edge11" class="edge"><title>StarLoopEntryState:alt1&#45;&gt;LoopEndState</title>
<path fill="none" stroke="black" d="M338,-159C366.913,-159 359.624,-189.452 384,-205 429.875,-234.261 444.587,-247 499,-247 499,-247 499,-247 924,-247 987.584,-247 1060.07,-245.741 1111.47,-244.636"/>
<polygon fill="black" stroke="black" points="1111.86,-248.128 1121.78,-244.41 1111.71,-241.13 1111.86,-248.128"/>
<text text-anchor="middle" x="700" y="-250.8" font-family="Courier New" font-size="14.00">ε</text>
</g>
<!-- StarLoopbackState -->
<g id="node2" class="node"><title>StarLoopbackState</title>
<g id="a_node2"><a xlink:href="../StarLoopbackState.html" xlink:title="\N" target="_parent">
<polygon fill="none" stroke="black" points="946.5,-46 946.5,-82 1103.5,-82 1103.5,-46 946.5,-46"/>
<text text-anchor="middle" x="1025" y="-60.3" font-family="Courier New" font-size="14.00">StarLoopbackState</text>
</a>
</g>
</g>
<!-- StarLoopbackState&#45;&gt;StarLoopEntryState -->
<g id="edge12" class="edge"><title>StarLoopbackState:s&#45;&gt;StarLoopEntryState:s</title>
<path fill="none" stroke="black" d="M1025,-45C1025,37.8111 921.811,-34 839,-34 499,-34 499,-34 499,-34 374.871,-34 233.937,2.5352 226.323,-112.9"/>
<polygon fill="black" stroke="black" points="222.821,-112.893 226,-123 229.818,-113.117 222.821,-112.893"/>
<text text-anchor="middle" x="700" y="-37.8" font-family="Courier New" font-size="14.00">ε</text>
</g>
<!-- content1 -->
<g id="node6" class="node"><title>content1</title>
<ellipse fill="none" stroke="black" stroke-dasharray="5,2" cx="700" cy="-193" rx="37.8943" ry="18"/>
<text text-anchor="middle" x="700" y="-189.3" font-family="Courier New" font-size="14.00">alt 1</text>
</g>
<!-- StarBlockStartState&#45;&gt;content1 -->
<g id="edge3" class="edge"><title>StarBlockStartState:alt1&#45;&gt;content1</title>
<path fill="none" stroke="black" d="M616,-185C628.215,-185 641.394,-185.869 653.575,-187.034"/>
<polygon fill="black" stroke="black" points="653.221,-190.516 663.529,-188.07 653.945,-183.554 653.221,-190.516"/>
<text text-anchor="middle" x="639" y="-189.8" font-family="Courier New" font-size="14.00">ε</text>
</g>
<!-- content2 -->
<g id="node7" class="node"><title>content2</title>
<ellipse fill="none" stroke="black" stroke-dasharray="5,2" cx="700" cy="-139" rx="37.8943" ry="18"/>
<text text-anchor="middle" x="700" y="-135.3" font-family="Courier New" font-size="14.00">alt 2</text>
</g>
<!-- StarBlockStartState&#45;&gt;content2 -->
<g id="edge5" class="edge"><title>StarBlockStartState:alt2&#45;&gt;content2</title>
<path fill="none" stroke="black" d="M616,-162C625.152,-162 625.41,-155.157 634,-152 640.314,-149.679 647.133,-147.74 653.898,-146.13"/>
<polygon fill="black" stroke="black" points="654.676,-149.543 663.705,-144 653.19,-142.702 654.676,-149.543"/>
<text text-anchor="middle" x="639" y="-155.8" font-family="Courier New" font-size="14.00">ε</text>
</g>
<!-- more -->
<g id="node8" class="node"><title>more</title>
<ellipse fill="none" stroke="black" stroke-dasharray="5,2" cx="700" cy="-85" rx="37.8943" ry="18"/>
<text text-anchor="middle" x="700" y="-81.3" font-family="Courier New" font-size="14.00">alt n</text>
</g>
<!-- StarBlockStartState&#45;&gt;more -->
<g id="edge7" class="edge"><title>StarBlockStartState:altn&#45;&gt;more</title>
<path fill="none" stroke="black" d="M616,-85C627.702,-85 640.333,-85 652.125,-85"/>
<polygon fill="black" stroke="black" points="652.227,-88.5001 662.227,-85 652.227,-81.5001 652.227,-88.5001"/>
<text text-anchor="middle" x="639" y="-88.8" font-family="Courier New" font-size="14.00">ε</text>
</g>
<!-- BlockEndState -->
<g id="node4" class="node"><title>BlockEndState</title>
<g id="a_node4"><a xlink:href="../BlockEndState.html" xlink:title="\N" target="_parent">
<polygon fill="none" stroke="black" points="776,-81 776,-117 900,-117 900,-81 776,-81"/>
<text text-anchor="middle" x="838" y="-95.3" font-family="Courier New" font-size="14.00">BlockEndState</text>
</a>
</g>
</g>
<!-- BlockEndState&#45;&gt;StarLoopbackState -->
<g id="edge9" class="edge"><title>BlockEndState:e&#45;&gt;StarLoopbackState:w</title>
<path fill="none" stroke="black" d="M900,-99C921.676,-99 921.233,-74.083 935.997,-66.2964"/>
<polygon fill="black" stroke="black" points="937.037,-69.6488 946,-64 935.47,-62.8263 937.037,-69.6488"/>
<text text-anchor="middle" x="923" y="-92.8" font-family="Courier New" font-size="14.00">ε</text>
</g>
<!-- end -->
<g id="node10" class="node"><title>end</title>
<ellipse fill="none" stroke="black" stroke-dasharray="5,2" cx="1311" cy="-243" rx="27" ry="18"/>
<text text-anchor="middle" x="1311" y="-239.3" font-family="Courier New" font-size="14.00">end</text>
</g>
<!-- LoopEndState&#45;&gt;end -->
<g id="edge2" class="edge"><title>LoopEndState&#45;&gt;end</title>
<path fill="none" stroke="black" d="M1238.33,-243C1250.37,-243 1262.74,-243 1273.74,-243"/>
<polygon fill="black" stroke="black" points="1273.82,-246.5 1283.82,-243 1273.82,-239.5 1273.82,-246.5"/>
<text text-anchor="middle" x="1261" y="-246.8" font-family="Courier New" font-size="14.00">ε</text>
</g>
<!-- content1&#45;&gt;BlockEndState -->
<g id="edge4" class="edge"><title>content1&#45;&gt;BlockEndState</title>
<path fill="none" stroke="black" stroke-dasharray="5,2" d="M722.25,-178.313C743.728,-163.467 777.267,-140.286 802.55,-122.811"/>
<polygon fill="black" stroke="black" points="804.542,-125.689 810.778,-117.124 800.561,-119.931 804.542,-125.689"/>
</g>
<!-- content2&#45;&gt;BlockEndState -->
<g id="edge6" class="edge"><title>content2&#45;&gt;BlockEndState</title>
<path fill="none" stroke="black" stroke-dasharray="5,2" d="M732.543,-129.723C742.658,-126.748 754.301,-123.323 766.062,-119.864"/>
<polygon fill="black" stroke="black" points="767.331,-123.139 775.937,-116.96 765.356,-116.424 767.331,-123.139"/>
</g>
<!-- more&#45;&gt;BlockEndState -->
<g id="edge8" class="edge"><title>more&#45;&gt;BlockEndState</title>
<path fill="none" stroke="black" stroke-dasharray="5,2" d="M737.088,-88.715C746,-89.6324 755.858,-90.6472 765.807,-91.6713"/>
<polygon fill="black" stroke="black" points="765.449,-95.1529 775.755,-92.6954 766.166,-88.1897 765.449,-95.1529"/>
</g>
<!-- begin -->
<g id="node9" class="node"><title>begin</title>
<ellipse fill="none" stroke="black" stroke-dasharray="5,2" cx="38" cy="-147" rx="37.8943" ry="18"/>
<text text-anchor="middle" x="38" y="-143.3" font-family="Courier New" font-size="14.00">begin</text>
</g>
<!-- begin&#45;&gt;StarLoopEntryState -->
<g id="edge1" class="edge"><title>begin&#45;&gt;StarLoopEntryState</title>
<path fill="none" stroke="black" stroke-dasharray="5,2" d="M75.7476,-147C84.3232,-147 93.9209,-147 104.003,-147"/>
<polygon fill="black" stroke="black" points="104.226,-150.5 114.226,-147 104.226,-143.5 104.226,-150.5"/>
</g>
</g>
</svg>
