<?xml version="1.0" encoding="UTF-8" standalone="no"?>
<!DOCTYPE svg PUBLIC "-//W3C//DTD SVG 1.1//EN"
 "http://www.w3.org/Graphics/SVG/1.1/DTD/svg11.dtd">
<!-- Generated by graphviz version 2.37.20140119.0545 (20140119.0545)
 -->
<!-- Pages: 1 -->
<svg width="1374pt" height="314pt"
 viewBox="0.00 0.00 1374.00 314.00" xmlns="http://www.w3.org/2000/svg" xmlns:xlink="http://www.w3.org/1999/xlink">
<g id="graph0" class="graph" transform="scale(1 1) rotate(0) translate(18 296)">
<polygon fill="white" stroke="none" points="-18,18 -18,-296 1356,-296 1356,18 -18,18"/>
<g id="clust1" class="cluster"><title>cluster0</title>
<polygon fill="none" stroke="none" points="106,-8 106,-270 1246,-270 1246,-8 106,-8"/>
</g>
<!-- StarLoopEntryState -->
<g id="node1" class="node"><title>StarLoopEntryState</title>
<g id="a_node1"><a xlink:href="../StarLoopEntryState.html" xlink:title="{StarLoopEntryState | {&lt;alt1&gt; alt 1 |&lt;alt2&gt; alt 2}}" target="_parent">
<polygon fill="none" stroke="black" points="114.5,-100 114.5,-146 337.5,-146 337.5,-100 114.5,-100"/>
<text text-anchor="middle" x="197" y="-119.3" font-family="Courier New" font-size="14.00">StarLoopEntryState</text>
<polyline fill="none" stroke="black" points="279.5,-100 279.5,-146 "/>
<text text-anchor="middle" x="308.5" y="-130.8" font-family="Courier New" font-size="14.00">alt 1</text>
<polyline fill="none" stroke="black" points="279.5,-123 337.5,-123 "/>
<text text-anchor="middle" x="308.5" y="-107.8" font-family="Courier New" font-size="14.00">alt 2</text>
</a>
</g>
</g>
<!-- StarBlockStartState -->
<g id="node3" class="node"><title>StarBlockStartState</title>
<g id="a_node3"><a xlink:href="../StarBlockStartState.html" xlink:title="{StarBlockStartState | {&lt;alt1&gt; alt 1 |&lt;alt2&gt; alt 2 | &#0183;\n&#0183;\n&#0183; |&lt;altn&gt; alt n}}" target="_parent">
<polygon fill="none" stroke="black" points="384.5,-74 384.5,-196 615.5,-196 615.5,-74 384.5,-74"/>
<text text-anchor="middle" x="471" y="-131.3" font-family="Courier New" font-size="14.00">StarBlockStartState</text>
<polyline fill="none" stroke="black" points="557.5,-74 557.5,-196 "/>
<text text-anchor="middle" x="586.5" y="-180.8" font-family="Courier New" font-size="14.00">alt 1</text>
<polyline fill="none" stroke="black" points="557.5,-173 615.5,-173 "/>
<text text-anchor="middle" x="586.5" y="-157.8" font-family="Courier New" font-size="14.00">alt 2</text>
<polyline fill="none" stroke="black" points="557.5,-150 615.5,-150 "/>
<text text-anchor="middle" x="586.5" y="-134.8" font-family="Courier New" font-size="14.00">·</text>
<text text-anchor="middle" x="586.5" y="-119.8" font-family="Courier New" font-size="14.00">·</text>
<text text-anchor="middle" x="586.5" y="-104.8" font-family="Courier New" font-size="14.00">·</text>
<polyline fill="none" stroke="black" points="557.5,-97 615.5,-97 "/>
<text text-anchor="middle" x="586.5" y="-81.8" font-family="Courier New" font-size="14.00">alt n</text>
</a>
</g>
</g>
<!-- StarLoopEntryState&#45;&gt;StarBlockStartState -->
<g id="edge10" class="edge"><title>StarLoopEntryState:alt1&#45;&gt;StarBlockStartState</title>
<path fill="none" stroke="black" d="M338,-135C349.683,-135 361.842,-135 374.012,-135"/>
<polygon fill="black" stroke="black" points="374.226,-138.5 384.226,-135 374.226,-131.5 374.226,-138.5"/>
<text text-anchor="middle" x="361" y="-139.8" font-family="Courier New" font-size="14.00">ε</text>
</g>
<!-- LoopEndState -->
<g id="node5" class="node"><title>LoopEndState</title>
<g id="a_node5"><a xlink:href="../LoopEndState.html" xlink:title="\N" target="_parent">
<polygon fill="none" stroke="black" points="1122,-17 1122,-53 1238,-53 1238,-17 1122,-17"/>
<text text-anchor="middle" x="1180" y="-31.3" font-family="Courier New" font-size="14.00">LoopEndState</text>
</a>
</g>
</g>
<!-- StarLoopEntryState&#45;&gt;LoopEndState -->
<g id="edge11" class="edge"><title>StarLoopEntryState:alt2&#45;&gt;LoopEndState</title>
<path fill="none" stroke="black" d="M338,-111C367.229,-111 358.717,-78.6667 384,-64 429.69,-37.4947 446.178,-34 499,-34 499,-34 499,-34 924,-34 987.576,-34 1060.07,-34.3147 1111.47,-34.591"/>
<polygon fill="black" stroke="black" points="1111.76,-38.0926 1121.78,-34.6474 1111.8,-31.0927 1111.76,-38.0926"/>
<text text-anchor="middle" x="700" y="-37.8" font-family="Courier New" font-size="14.00">ε</text>
</g>
<!-- StarLoopbackState -->
<g id="node2" class="node"><title>StarLoopbackState</title>
<g id="a_node2"><a xlink:href="../StarLoopbackState.html" xlink:title="\N" target="_parent">
<polygon fill="none" stroke="black" points="946.5,-192 946.5,-228 1103.5,-228 1103.5,-192 946.5,-192"/>
<text text-anchor="middle" x="1025" y="-206.3" font-family="Courier New" font-size="14.00">StarLoopbackState</text>
</a>
</g>
</g>
<!-- StarLoopbackState&#45;&gt;StarLoopEntryState -->
<g id="edge12" class="edge"><title>StarLoopbackState:n&#45;&gt;StarLoopEntryState:n</title>
<path fill="none" stroke="black" d="M1025,-229C1025,-312.053 922.053,-247 839,-247 499,-247 499,-247 499,-247 373.316,-247 233.852,-274.641 226.319,-157.248"/>
<polygon fill="black" stroke="black" points="229.81,-156.886 226,-147 222.813,-157.104 229.81,-156.886"/>
<text text-anchor="middle" x="700" y="-250.8" font-family="Courier New" font-size="14.00">ε</text>
</g>
<!-- content1 -->
<g id="node6" class="node"><title>content1</title>
<ellipse fill="none" stroke="black" stroke-dasharray="5,2" cx="700" cy="-193" rx="37.8943" ry="18"/>
<text text-anchor="middle" x="700" y="-189.3" font-family="Courier New" font-size="14.00">alt 1</text>
</g>
<!-- StarBlockStartState&#45;&gt;content1 -->
<g id="edge3" class="edge"><title>StarBlockStartState:alt1&#45;&gt;content1</title>
<path fill="none" stroke="black" d="M616,-185C628.215,-185 641.394,-185.869 653.575,-187.034"/>
<polygon fill="black" stroke="black" points="653.221,-190.516 663.529,-188.07 653.945,-183.554 653.221,-190.516"/>
<text text-anchor="middle" x="639" y="-189.8" font-family="Courier New" font-size="14.00">ε</text>
</g>
<!-- content2 -->
<g id="node7" class="node"><title>content2</title>
<ellipse fill="none" stroke="black" stroke-dasharray="5,2" cx="700" cy="-139" rx="37.8943" ry="18"/>
<text text-anchor="middle" x="700" y="-135.3" font-family="Courier New" font-size="14.00">alt 2</text>
</g>
<!-- StarBlockStartState&#45;&gt;content2 -->
<g id="edge5" class="edge"><title>StarBlockStartState:alt2&#45;&gt;content2</title>
<path fill="none" stroke="black" d="M616,-162C625.152,-162 625.41,-155.157 634,-152 640.314,-149.679 647.133,-147.74 653.898,-146.13"/>
<polygon fill="black" stroke="black" points="654.676,-149.543 663.705,-144 653.19,-142.702 654.676,-149.543"/>
<text text-anchor="middle" x="639" y="-155.8" font-family="Courier New" font-size="14.00">ε</text>
</g>
<!-- more -->
<g id="node8" class="node"><title>more</title>
<ellipse fill="none" stroke="black" stroke-dasharray="5,2" cx="700" cy="-85" rx="37.8943" ry="18"/>
<text text-anchor="middle" x="700" y="-81.3" font-family="Courier New" font-size="14.00">alt n</text>
</g>
<!-- StarBlockStartState&#45;&gt;more -->
<g id="edge7" class="edge"><title>StarBlockStartState:altn&#45;&gt;more</title>
<path fill="none" stroke="black" d="M616,-85C627.702,-85 640.333,-85 652.125,-85"/>
<polygon fill="black" stroke="black" points="652.227,-88.5001 662.227,-85 652.227,-81.5001 652.227,-88.5001"/>
<text text-anchor="middle" x="639" y="-88.8" font-family="Courier New" font-size="14.00">ε</text>
</g>
<!-- BlockEndState -->
<g id="node4" class="node"><title>BlockEndState</title>
<g id="a_node4"><a xlink:href="../BlockEndState.html" xlink:title="\N" target="_parent">
<polygon fill="none" stroke="black" points="776,-135 776,-171 900,-171 900,-135 776,-135"/>
<text text-anchor="middle" x="838" y="-149.3" font-family="Courier New" font-size="14.00">BlockEndState</text>
</a>
</g>
</g>
<!-- BlockEndState&#45;&gt;StarLoopbackState -->
<g id="edge9" class="edge"><title>BlockEndState:e&#45;&gt;StarLoopbackState:w</title>
<path fill="none" stroke="black" d="M900,-153C928.612,-153 917.316,-197.031 936.263,-207.695"/>
<polygon fill="black" stroke="black" points="935.463,-211.102 946,-210 937.075,-204.29 935.463,-211.102"/>
<text text-anchor="middle" x="923" y="-200.8" font-family="Courier New" font-size="14.00">ε</text>
</g>
<!-- end -->
<g id="node10" class="node"><title>end</title>
<ellipse fill="none" stroke="black" stroke-dasharray="5,2" cx="1311" cy="-35" rx="27" ry="18"/>
<text text-anchor="middle" x="1311" y="-31.3" font-family="Courier New" font-size="14.00">end</text>
</g>
<!-- LoopEndState&#45;&gt;end -->
<g id="edge2" class="edge"><title>LoopEndState&#45;&gt;end</title>
<path fill="none" stroke="black" d="M1238.33,-35C1250.37,-35 1262.74,-35 1273.74,-35"/>
<polygon fill="black" stroke="black" points="1273.82,-38.5001 1283.82,-35 1273.82,-31.5001 1273.82,-38.5001"/>
<text text-anchor="middle" x="1261" y="-38.8" font-family="Courier New" font-size="14.00">ε</text>
</g>
<!-- content1&#45;&gt;BlockEndState -->
<g id="edge4" class="edge"><title>content1&#45;&gt;BlockEndState</title>
<path fill="none" stroke="black" stroke-dasharray="5,2" d="M732.543,-183.723C742.658,-180.748 754.301,-177.323 766.062,-173.864"/>
<polygon fill="black" stroke="black" points="767.331,-177.139 775.937,-170.96 765.356,-170.424 767.331,-177.139"/>
</g>
<!-- content2&#45;&gt;BlockEndState -->
<g id="edge6" class="edge"><title>content2&#45;&gt;BlockEndState</title>
<path fill="none" stroke="black" stroke-dasharray="5,2" d="M737.088,-142.715C746,-143.632 755.858,-144.647 765.807,-145.671"/>
<polygon fill="black" stroke="black" points="765.449,-149.153 775.755,-146.695 766.166,-142.19 765.449,-149.153"/>
</g>
<!-- more&#45;&gt;BlockEndState -->
<g id="edge8" class="edge"><title>more&#45;&gt;BlockEndState</title>
<path fill="none" stroke="black" stroke-dasharray="5,2" d="M726.581,-97.7903C744.893,-106.947 770.041,-119.52 791.711,-130.356"/>
<polygon fill="black" stroke="black" points="790.246,-133.536 800.755,-134.878 793.376,-127.275 790.246,-133.536"/>
</g>
<!-- begin -->
<g id="node9" class="node"><title>begin</title>
<ellipse fill="none" stroke="black" stroke-dasharray="5,2" cx="38" cy="-123" rx="37.8943" ry="18"/>
<text text-anchor="middle" x="38" y="-119.3" font-family="Courier New" font-size="14.00">begin</text>
</g>
<!-- begin&#45;&gt;StarLoopEntryState -->
<g id="edge1" class="edge"><title>begin&#45;&gt;StarLoopEntryState</title>
<path fill="none" stroke="black" stroke-dasharray="5,2" d="M75.7476,-123C84.3232,-123 93.9209,-123 104.003,-123"/>
<polygon fill="black" stroke="black" points="104.226,-126.5 114.226,-123 104.226,-119.5 104.226,-126.5"/>
</g>
</g>
</svg>
