<?xml version="1.0" encoding="UTF-8" standalone="no"?>
<!DOCTYPE svg PUBLIC "-//W3C//DTD SVG 1.1//EN"
 "http://www.w3.org/Graphics/SVG/1.1/DTD/svg11.dtd">
<!-- Generated by graphviz version 3.0.0 (20220226.1711)
 -->
<!-- Pages: 1 -->
<svg width="1168pt" height="314pt"
 viewBox="0.00 0.00 1167.59 314.00" xmlns="http://www.w3.org/2000/svg" xmlns:xlink="http://www.w3.org/1999/xlink">
<g id="graph0" class="graph" transform="scale(1 1) rotate(0) translate(18 296)">
<polygon fill="white" stroke="transparent" points="-18,18 -18,-296 1149.59,-296 1149.59,18 -18,18"/>
<g id="clust1" class="cluster">
<title>cluster0</title>
<polygon fill="none" stroke="transparent" points="93.99,-8 93.99,-270 1041.59,-270 1041.59,-8 93.99,-8"/>
</g>
<!-- StarLoopEntryState -->
<g id="node1" class="node">
<title>StarLoopEntryState</title>
<g id="a_node1"><a xlink:href="../StarLoopEntryState.html" xlink:title="{StarLoopEntryState | {&lt;alt1&gt; alt 1 |&lt;alt2&gt; alt 2}}" target="_parent">
<polygon fill="none" stroke="black" points="101.99,-100 101.99,-146 277.99,-146 277.99,-100 101.99,-100"/>
<text text-anchor="middle" x="168.99" y="-119.3" font-family="CourierNew" font-size="14.00">StarLoopEntryState</text>
<polyline fill="none" stroke="black" points="235.99,-100 235.99,-146 "/>
<text text-anchor="middle" x="256.99" y="-130.8" font-family="CourierNew" font-size="14.00">alt 1</text>
<polyline fill="none" stroke="black" points="235.99,-123 277.99,-123 "/>
<text text-anchor="middle" x="256.99" y="-107.8" font-family="CourierNew" font-size="14.00">alt 2</text>
</a>
</g>
</g>
<!-- StarBlockStartState -->
<g id="node3" class="node">
<title>StarBlockStartState</title>
<g id="a_node3"><a xlink:href="../StarBlockStartState.html" xlink:title="{StarBlockStartState | {&lt;alt1&gt; alt 1 |&lt;alt2&gt; alt 2 | &amp;#0183;\n&amp;#0183;\n&amp;#0183; |&lt;altn&gt; alt n}}" target="_parent">
<polygon fill="none" stroke="black" points="321.99,-74 321.99,-196 497.99,-196 497.99,-74 321.99,-74"/>
<text text-anchor="middle" x="388.99" y="-131.3" font-family="CourierNew" font-size="14.00">StarBlockStartState</text>
<polyline fill="none" stroke="black" points="455.99,-74 455.99,-196 "/>
<text text-anchor="middle" x="476.99" y="-180.8" font-family="CourierNew" font-size="14.00">alt 1</text>
<polyline fill="none" stroke="black" points="455.99,-173 497.99,-173 "/>
<text text-anchor="middle" x="476.99" y="-157.8" font-family="CourierNew" font-size="14.00">alt 2</text>
<polyline fill="none" stroke="black" points="455.99,-150 497.99,-150 "/>
<text text-anchor="middle" x="476.99" y="-134.8" font-family="CourierNew" font-size="14.00">·</text>
<text text-anchor="middle" x="476.99" y="-119.8" font-family="CourierNew" font-size="14.00">·</text>
<text text-anchor="middle" x="476.99" y="-104.8" font-family="CourierNew" font-size="14.00">·</text>
<polyline fill="none" stroke="black" points="455.99,-97 497.99,-97 "/>
<text text-anchor="middle" x="476.99" y="-81.8" font-family="CourierNew" font-size="14.00">alt n</text>
</a>
</g>
</g>
<!-- StarLoopEntryState&#45;&gt;StarBlockStartState -->
<g id="edge10" class="edge">
<title>StarLoopEntryState:alt1&#45;&gt;StarBlockStartState</title>
<path fill="none" stroke="black" d="M277.99,-135C288.99,-135 300.5,-135 311.95,-135"/>
<polygon fill="black" stroke="black" points="311.97,-138.5 321.97,-135 311.97,-131.5 311.97,-138.5"/>
<text text-anchor="middle" x="299.99" y="-138.8" font-family="CourierNew" font-size="14.00">ε</text>
</g>
<!-- LoopEndState -->
<g id="node5" class="node">
<title>LoopEndState</title>
<g id="a_node5"><a xlink:href="../LoopEndState.html" xlink:title="\N" target="_parent">
<polygon fill="none" stroke="black" points="931.59,-17 931.59,-53 1033.59,-53 1033.59,-17 931.59,-17"/>
<text text-anchor="middle" x="982.59" y="-31.3" font-family="CourierNew" font-size="14.00">LoopEndState</text>
</a>
</g>
</g>
<!-- StarLoopEntryState&#45;&gt;LoopEndState -->
<g id="edge11" class="edge">
<title>StarLoopEntryState:alt2&#45;&gt;LoopEndState</title>
<path fill="none" stroke="black" d="M256.99,-99C256.99,-76.16 400.79,-34 408.99,-34 408.99,-34 408.99,-34 761.59,-34 815.63,-34 877.13,-34.31 921.34,-34.58"/>
<polygon fill="black" stroke="black" points="921.33,-38.08 931.35,-34.64 921.37,-31.08 921.33,-38.08"/>
<text text-anchor="middle" x="569.29" y="-37.8" font-family="CourierNew" font-size="14.00">ε</text>
</g>
<!-- StarLoopbackState -->
<g id="node2" class="node">
<title>StarLoopbackState</title>
<g id="a_node2"><a xlink:href="../StarLoopbackState.html" xlink:title="\N" target="_parent">
<polygon fill="none" stroke="black" points="782.59,-166 782.59,-202 913.59,-202 913.59,-166 782.59,-166"/>
<text text-anchor="middle" x="848.09" y="-180.3" font-family="CourierNew" font-size="14.00">StarLoopbackState</text>
</a>
</g>
</g>
<!-- StarLoopbackState&#45;&gt;StarLoopEntryState -->
<g id="edge12" class="edge">
<title>StarLoopbackState:n&#45;&gt;StarLoopEntryState:n</title>
<path fill="none" stroke="black" d="M848.09,-203C848.09,-277.18 761.27,-247 687.09,-247 408.99,-247 408.99,-247 408.99,-247 305.55,-247 197.43,-253.54 190.36,-157.29"/>
<polygon fill="black" stroke="black" points="193.85,-156.87 189.99,-147 186.85,-157.12 193.85,-156.87"/>
<text text-anchor="middle" x="569.29" y="-250.8" font-family="CourierNew" font-size="14.00">ε</text>
</g>
<!-- content1 -->
<g id="node6" class="node">
<title>content1</title>
<ellipse fill="none" stroke="black" stroke-dasharray="5,2" cx="569.29" cy="-193" rx="27.1" ry="18"/>
<text text-anchor="middle" x="569.29" y="-189.3" font-family="CourierNew" font-size="14.00">alt 1</text>
</g>
<!-- StarBlockStartState&#45;&gt;content1 -->
<g id="edge3" class="edge">
<title>StarBlockStartState:alt1&#45;&gt;content1</title>
<path fill="none" stroke="black" d="M497.99,-185C509.26,-185 521.47,-186.03 532.51,-187.34"/>
<polygon fill="black" stroke="black" points="532.29,-190.85 542.66,-188.67 533.2,-183.9 532.29,-190.85"/>
<text text-anchor="middle" x="519.99" y="-189.8" font-family="CourierNew" font-size="14.00">ε</text>
</g>
<!-- content2 -->
<g id="node7" class="node">
<title>content2</title>
<ellipse fill="none" stroke="black" stroke-dasharray="5,2" cx="569.29" cy="-139" rx="27.1" ry="18"/>
<text text-anchor="middle" x="569.29" y="-135.3" font-family="CourierNew" font-size="14.00">alt 2</text>
</g>
<!-- StarBlockStartState&#45;&gt;content2 -->
<g id="edge5" class="edge">
<title>StarBlockStartState:alt2&#45;&gt;content2</title>
<path fill="none" stroke="black" d="M497.99,-162C507.15,-162 507.48,-155.36 515.99,-152 521.33,-149.9 527.1,-148.06 532.8,-146.48"/>
<polygon fill="black" stroke="black" points="534.05,-149.77 542.87,-143.9 532.31,-142.99 534.05,-149.77"/>
<text text-anchor="middle" x="519.99" y="-155.8" font-family="CourierNew" font-size="14.00">ε</text>
</g>
<!-- more -->
<g id="node8" class="node">
<title>more</title>
<ellipse fill="none" stroke="black" stroke-dasharray="5,2" cx="569.29" cy="-85" rx="27.1" ry="18"/>
<text text-anchor="middle" x="569.29" y="-81.3" font-family="CourierNew" font-size="14.00">alt n</text>
</g>
<!-- StarBlockStartState&#45;&gt;more -->
<g id="edge7" class="edge">
<title>StarBlockStartState:altn&#45;&gt;more</title>
<path fill="none" stroke="black" d="M497.99,-85C509,-85 520.98,-85 531.87,-85"/>
<polygon fill="black" stroke="black" points="531.92,-88.5 541.92,-85 531.92,-81.5 531.92,-88.5"/>
<text text-anchor="middle" x="519.99" y="-88.8" font-family="CourierNew" font-size="14.00">ε</text>
</g>
<!-- BlockEndState -->
<g id="node4" class="node">
<title>BlockEndState</title>
<g id="a_node4"><a xlink:href="../BlockEndState.html" xlink:title="\N" target="_parent">
<polygon fill="none" stroke="black" points="633.59,-138 633.59,-174 738.59,-174 738.59,-138 633.59,-138"/>
<text text-anchor="middle" x="686.09" y="-152.3" font-family="CourierNew" font-size="14.00">BlockEndState</text>
</a>
</g>
</g>
<!-- BlockEndState&#45;&gt;StarLoopbackState -->
<g id="edge9" class="edge">
<title>BlockEndState:e&#45;&gt;StarLoopbackState:w</title>
<path fill="none" stroke="black" d="M738.59,-156C757.78,-156 759.47,-175.2 772.64,-181.8"/>
<polygon fill="black" stroke="black" points="772.07,-185.26 782.59,-184 773.58,-178.43 772.07,-185.26"/>
<text text-anchor="middle" x="760.59" y="-177.8" font-family="CourierNew" font-size="14.00">ε</text>
</g>
<!-- end -->
<g id="node10" class="node">
<title>end</title>
<ellipse fill="none" stroke="black" stroke-dasharray="5,2" cx="1104.59" cy="-35" rx="27" ry="18"/>
<text text-anchor="middle" x="1104.59" y="-31.3" font-family="CourierNew" font-size="14.00">end</text>
</g>
<!-- LoopEndState&#45;&gt;end -->
<g id="edge2" class="edge">
<title>LoopEndState&#45;&gt;end</title>
<path fill="none" stroke="black" d="M1033.78,-35C1045.06,-35 1056.8,-35 1067.37,-35"/>
<polygon fill="black" stroke="black" points="1067.49,-38.5 1077.49,-35 1067.49,-31.5 1067.49,-38.5"/>
<text text-anchor="middle" x="1055.59" y="-38.8" font-family="CourierNew" font-size="14.00">ε</text>
</g>
<!-- content1&#45;&gt;BlockEndState -->
<g id="edge4" class="edge">
<title>content1&#45;&gt;BlockEndState</title>
<path fill="none" stroke="black" stroke-dasharray="5,2" d="M594.08,-185.33C602.83,-182.51 613.18,-179.18 623.72,-175.78"/>
<polygon fill="black" stroke="black" points="624.96,-179.06 633.41,-172.66 622.82,-172.39 624.96,-179.06"/>
</g>
<!-- content2&#45;&gt;BlockEndState -->
<g id="edge6" class="edge">
<title>content2&#45;&gt;BlockEndState</title>
<path fill="none" stroke="black" stroke-dasharray="5,2" d="M596.05,-142.82C604.3,-144.04 613.81,-145.44 623.47,-146.88"/>
<polygon fill="black" stroke="black" points="623.16,-150.37 633.56,-148.37 624.18,-143.44 623.16,-150.37"/>
</g>
<!-- more&#45;&gt;BlockEndState -->
<g id="edge8" class="edge">
<title>more&#45;&gt;BlockEndState</title>
<path fill="none" stroke="black" stroke-dasharray="5,2" d="M589.77,-97.04C605.41,-106.72 627.86,-120.6 647.04,-132.47"/>
<polygon fill="black" stroke="black" points="645.24,-135.47 655.58,-137.75 648.92,-129.51 645.24,-135.47"/>
</g>
<!-- begin -->
<g id="node9" class="node">
<title>begin</title>
<ellipse fill="none" stroke="black" stroke-dasharray="5,2" cx="32.5" cy="-123" rx="32.49" ry="18"/>
<text text-anchor="middle" x="32.5" y="-119.3" font-family="CourierNew" font-size="14.00">begin</text>
</g>
<!-- begin&#45;&gt;StarLoopEntryState -->
<g id="edge1" class="edge">
<title>begin&#45;&gt;StarLoopEntryState</title>
<path fill="none" stroke="black" stroke-dasharray="5,2" d="M65.34,-123C73.3,-123 82.26,-123 91.63,-123"/>
<polygon fill="black" stroke="black" points="91.92,-126.5 101.92,-123 91.92,-119.5 91.92,-126.5"/>
</g>
</g>
</svg>
