<?xml version="1.0" encoding="UTF-8" standalone="no"?>
<!DOCTYPE svg PUBLIC "-//W3C//DTD SVG 1.1//EN"
 "http://www.w3.org/Graphics/SVG/1.1/DTD/svg11.dtd">
<!-- Generated by graphviz version 2.30.0 (20130114.0323)
 -->
<!-- Pages: 1 -->
<svg width="1428pt" height="318pt"
 viewBox="0.00 0.00 1428.00 318.00" xmlns="http://www.w3.org/2000/svg" xmlns:xlink="http://www.w3.org/1999/xlink">
<g id="graph0" class="graph" transform="scale(1 1) rotate(0) translate(18 300)">
<polygon fill="white" stroke="white" points="-18,19 -18,-300 1411,-300 1411,19 -18,19"/>
<g id="clust1" class="cluster"><title>cluster0</title>
<polygon fill="none" stroke="none" points="110,-8 110,-274 1288,-274 1288,-8 110,-8"/>
</g>
<!-- StarLoopEntryState -->
<g id="node1" class="node"><title>StarLoopEntryState</title>
<g id="a_node1"><a xlink:href="../StarLoopEntryState.html" xlink:title="{StarLoopEntryState | {&lt;alt1&gt; alt 1 |&lt;alt2&gt; alt 2}}" target="_parent">
<polygon fill="none" stroke="black" points="118.416,-104.2 118.416,-153.8 343.584,-153.8 343.584,-104.2 118.416,-104.2"/>
<text text-anchor="middle" x="202.004" y="-124.8" font-family="Courier New" font-size="14.00">StarLoopEntryState</text>
<polyline fill="none" stroke="black" points="285.591,-104.2 285.591,-153.8 "/>
<text text-anchor="middle" x="314.587" y="-137.2" font-family="Courier New" font-size="14.00">alt 1</text>
<polyline fill="none" stroke="black" points="285.591,-129 343.584,-129 "/>
<text text-anchor="middle" x="314.587" y="-112.4" font-family="Courier New" font-size="14.00">alt 2</text>
</a>
</g>
</g>
<!-- StarBlockStartState -->
<g id="node3" class="node"><title>StarBlockStartState</title>
<g id="a_node3"><a xlink:href="../StarBlockStartState.html" xlink:title="{StarBlockStartState | {&lt;alt1&gt; alt 1 |&lt;alt2&gt; alt 2 | &#0183;\n&#0183;\n&#0183; |&lt;altn&gt; alt n}}" target="_parent">
<polygon fill="none" stroke="black" points="398.217,-74.6 398.217,-207.4 631.783,-207.4 631.783,-74.6 398.217,-74.6"/>
<text text-anchor="middle" x="486.004" y="-136.8" font-family="Courier New" font-size="14.00">StarBlockStartState</text>
<polyline fill="none" stroke="black" points="573.79,-74.6 573.79,-207.4 "/>
<text text-anchor="middle" x="602.787" y="-190.8" font-family="Courier New" font-size="14.00">alt 1</text>
<polyline fill="none" stroke="black" points="573.79,-182.6 631.783,-182.6 "/>
<text text-anchor="middle" x="602.787" y="-166" font-family="Courier New" font-size="14.00">alt 2</text>
<polyline fill="none" stroke="black" points="573.79,-157.8 631.783,-157.8 "/>
<text text-anchor="middle" x="602.787" y="-141.2" font-family="Courier New" font-size="14.00">·</text>
<text text-anchor="middle" x="602.787" y="-124.4" font-family="Courier New" font-size="14.00">·</text>
<text text-anchor="middle" x="602.787" y="-107.6" font-family="Courier New" font-size="14.00">·</text>
<polyline fill="none" stroke="black" points="573.79,-99.4 631.783,-99.4 "/>
<text text-anchor="middle" x="602.787" y="-82.8" font-family="Courier New" font-size="14.00">alt n</text>
</a>
</g>
</g>
<!-- StarLoopEntryState&#45;&gt;StarBlockStartState -->
<g id="edge10" class="edge"><title>StarLoopEntryState:alt1&#45;&gt;StarBlockStartState</title>
<path fill="none" stroke="black" d="M344,-141C358.148,-141 372.959,-141 387.688,-141"/>
<polygon fill="black" stroke="black" points="387.862,-144.5 397.862,-141 387.862,-137.5 387.862,-144.5"/>
<text text-anchor="middle" x="371" y="-146.2" font-family="Courier New" font-size="14.00">ε</text>
</g>
<!-- LoopEndState -->
<g id="node5" class="node"><title>LoopEndState</title>
<g id="a_node5"><a xlink:href="../LoopEndState.html" xlink:title="\N" target="_parent">
<polygon fill="none" stroke="black" points="1162.61,-17 1162.61,-53 1279.39,-53 1279.39,-17 1162.61,-17"/>
<text text-anchor="middle" x="1221" y="-30.9" font-family="Courier New" font-size="14.00">LoopEndState</text>
</a>
</g>
</g>
<!-- StarLoopEntryState&#45;&gt;LoopEndState -->
<g id="edge11" class="edge"><title>StarLoopEntryState:alt2&#45;&gt;LoopEndState</title>
<path fill="none" stroke="black" d="M344,-117C377.319,-117 368.984,-81.3768 398,-65 444.474,-38.7701 460.635,-34 514,-34 514,-34 514,-34 958,-34 1023.99,-34 1099.33,-34.3212 1152.23,-34.5995"/>
<polygon fill="black" stroke="black" points="1152.48,-38.1008 1162.5,-34.6545 1152.52,-31.1009 1152.48,-38.1008"/>
<text text-anchor="middle" x="726" y="-38.2" font-family="Courier New" font-size="14.00">ε</text>
</g>
<!-- StarLoopbackState -->
<g id="node2" class="node"><title>StarLoopbackState</title>
<g id="a_node2"><a xlink:href="../StarLoopbackState.html" xlink:title="\N" target="_parent">
<polygon fill="none" stroke="black" points="984.612,-194 984.612,-230 1143.39,-230 1143.39,-194 984.612,-194"/>
<text text-anchor="middle" x="1064" y="-207.9" font-family="Courier New" font-size="14.00">StarLoopbackState</text>
</a>
</g>
</g>
<!-- StarLoopbackState&#45;&gt;StarLoopEntryState -->
<g id="edge12" class="edge"><title>StarLoopbackState:n&#45;&gt;StarLoopEntryState:n</title>
<path fill="none" stroke="black" d="M1064,-231C1064,-318.478 955.478,-249 868,-249 514,-249 514,-249 514,-249 384.96,-249 238.922,-285.529 231.311,-165.131"/>
<polygon fill="black" stroke="black" points="234.805,-164.888 231,-155 227.808,-165.103 234.805,-164.888"/>
<text text-anchor="middle" x="726" y="-253.2" font-family="Courier New" font-size="14.00">ε</text>
</g>
<!-- content1 -->
<g id="node6" class="node"><title>content1</title>
<ellipse fill="none" stroke="black" stroke-dasharray="5,2" cx="726" cy="-195" rx="40.005" ry="18"/>
<text text-anchor="middle" x="726" y="-190.8" font-family="Courier New" font-size="14.00">alt 1</text>
</g>
<!-- StarBlockStartState&#45;&gt;content1 -->
<g id="edge3" class="edge"><title>StarBlockStartState:alt1&#45;&gt;content1</title>
<path fill="none" stroke="black" d="M632,-195C646.162,-195 661.536,-195 675.63,-195"/>
<polygon fill="black" stroke="black" points="675.631,-198.5 685.631,-195 675.631,-191.5 675.631,-198.5"/>
<text text-anchor="middle" x="659" y="-199.2" font-family="Courier New" font-size="14.00">ε</text>
</g>
<!-- content2 -->
<g id="node7" class="node"><title>content2</title>
<ellipse fill="none" stroke="black" stroke-dasharray="5,2" cx="726" cy="-141" rx="40.005" ry="18"/>
<text text-anchor="middle" x="726" y="-136.8" font-family="Courier New" font-size="14.00">alt 2</text>
</g>
<!-- StarBlockStartState&#45;&gt;content2 -->
<g id="edge5" class="edge"><title>StarBlockStartState:alt2&#45;&gt;content2</title>
<path fill="none" stroke="black" d="M632,-170C642.081,-170 640.825,-160.375 650,-156.2 658.436,-152.361 667.845,-149.486 677.069,-147.334"/>
<polygon fill="black" stroke="black" points="677.877,-150.741 686.951,-145.271 676.446,-143.889 677.877,-150.741"/>
<text text-anchor="middle" x="659" y="-160.2" font-family="Courier New" font-size="14.00">ε</text>
</g>
<!-- more -->
<g id="node8" class="node"><title>more</title>
<ellipse fill="none" stroke="black" stroke-dasharray="5,2" cx="726" cy="-87" rx="40.005" ry="18"/>
<text text-anchor="middle" x="726" y="-82.8" font-family="Courier New" font-size="14.00">alt n</text>
</g>
<!-- StarBlockStartState&#45;&gt;more -->
<g id="edge7" class="edge"><title>StarBlockStartState:altn&#45;&gt;more</title>
<path fill="none" stroke="black" d="M632,-87C646.162,-87 661.536,-87 675.63,-87"/>
<polygon fill="black" stroke="black" points="675.631,-90.5001 685.631,-87 675.631,-83.5001 675.631,-90.5001"/>
<text text-anchor="middle" x="659" y="-91.2" font-family="Courier New" font-size="14.00">ε</text>
</g>
<!-- BlockEndState -->
<g id="node4" class="node"><title>BlockEndState</title>
<g id="a_node4"><a xlink:href="../BlockEndState.html" xlink:title="\N" target="_parent">
<polygon fill="none" stroke="black" points="804.409,-137 804.409,-173 929.591,-173 929.591,-137 804.409,-137"/>
<text text-anchor="middle" x="867" y="-150.9" font-family="Courier New" font-size="14.00">BlockEndState</text>
</a>
</g>
</g>
<!-- BlockEndState&#45;&gt;StarLoopbackState -->
<g id="edge9" class="edge"><title>BlockEndState:e&#45;&gt;StarLoopbackState:w</title>
<path fill="none" stroke="black" d="M930,-155C960.944,-155 952.031,-199.817 973.945,-209.971"/>
<polygon fill="black" stroke="black" points="973.505,-213.453 984,-212 974.89,-206.591 973.505,-213.453"/>
<text text-anchor="middle" x="957" y="-206.2" font-family="Courier New" font-size="14.00">ε</text>
</g>
<!-- end -->
<g id="node10" class="node"><title>end</title>
<ellipse fill="none" stroke="black" stroke-dasharray="5,2" cx="1363" cy="-35" rx="28.3325" ry="18"/>
<text text-anchor="middle" x="1363" y="-30.8" font-family="Courier New" font-size="14.00">end</text>
</g>
<!-- LoopEndState&#45;&gt;end -->
<g id="edge2" class="edge"><title>LoopEndState&#45;&gt;end</title>
<path fill="none" stroke="black" d="M1279.75,-35C1294.76,-35 1310.54,-35 1324.22,-35"/>
<polygon fill="black" stroke="black" points="1324.22,-38.5001 1334.22,-35 1324.22,-31.5001 1324.22,-38.5001"/>
<text text-anchor="middle" x="1307" y="-39.2" font-family="Courier New" font-size="14.00">ε</text>
</g>
<!-- content1&#45;&gt;BlockEndState -->
<g id="edge4" class="edge"><title>content1&#45;&gt;BlockEndState</title>
<path fill="none" stroke="black" stroke-dasharray="5,2" d="M760.294,-185.419C770.584,-182.458 782.344,-179.074 794.194,-175.664"/>
<polygon fill="black" stroke="black" points="795.496,-178.931 804.138,-172.802 793.56,-172.204 795.496,-178.931"/>
</g>
<!-- content2&#45;&gt;BlockEndState -->
<g id="edge6" class="edge"><title>content2&#45;&gt;BlockEndState</title>
<path fill="none" stroke="black" stroke-dasharray="5,2" d="M765.35,-144.863C774.391,-145.773 784.317,-146.773 794.305,-147.779"/>
<polygon fill="black" stroke="black" points="793.981,-151.264 804.282,-148.784 794.683,-144.299 793.981,-151.264"/>
</g>
<!-- more&#45;&gt;BlockEndState -->
<g id="edge8" class="edge"><title>more&#45;&gt;BlockEndState</title>
<path fill="none" stroke="black" stroke-dasharray="5,2" d="M753.801,-100.111C772.507,-109.263 797.953,-121.711 819.882,-132.439"/>
<polygon fill="black" stroke="black" points="818.515,-135.666 829.036,-136.917 821.591,-129.378 818.515,-135.666"/>
</g>
<!-- begin -->
<g id="node9" class="node"><title>begin</title>
<ellipse fill="none" stroke="black" stroke-dasharray="5,2" cx="40" cy="-129" rx="40.005" ry="18"/>
<text text-anchor="middle" x="40" y="-124.8" font-family="Courier New" font-size="14.00">begin</text>
</g>
<!-- begin&#45;&gt;StarLoopEntryState -->
<g id="edge1" class="edge"><title>begin&#45;&gt;StarLoopEntryState</title>
<path fill="none" stroke="black" stroke-dasharray="5,2" d="M80.1609,-129C88.7567,-129 98.2958,-129 108.278,-129"/>
<polygon fill="black" stroke="black" points="108.389,-132.5 118.389,-129 108.389,-125.5 108.389,-132.5"/>
</g>
</g>
</svg>
