<?xml version="1.0" encoding="UTF-8" standalone="no"?>
<!DOCTYPE svg PUBLIC "-//W3C//DTD SVG 1.1//EN"
 "http://www.w3.org/Graphics/SVG/1.1/DTD/svg11.dtd">
<!-- Generated by graphviz version 2.37.20140119.0545 (20140119.0545)
 -->
<!-- Pages: 1 -->
<svg width="330pt" height="45pt"
 viewBox="0.00 0.00 330.00 45.00" xmlns="http://www.w3.org/2000/svg" xmlns:xlink="http://www.w3.org/1999/xlink">
<g id="graph0" class="graph" transform="scale(0.833333 0.833333) rotate(0) translate(4 50)">
<polygon fill="white" stroke="none" points="-4,4 -4,-50 392,-50 392,4 -4,4"/>
<!-- left -->
<g id="node1" class="node"><title>left</title>
<text text-anchor="middle" x="27" y="-19.3" font-family="Times New Roman,serif" font-size="14.00">$</text>
</g>
<!-- temp1 -->
<g id="node2" class="node"><title>temp1</title>
<text text-anchor="middle" x="99" y="-19.3" font-family="Times New Roman,serif" font-size="14.00">+</text>
</g>
<!-- right -->
<g id="node3" class="node"><title>right</title>
<polygon fill="none" stroke="black" points="174,-3.55271e-015 203.348,-34.5 144.652,-34.5 174,-3.55271e-015"/>
<text text-anchor="middle" x="174" y="-19.3" font-family="Times New Roman,serif" font-size="14.00">x</text>
</g>
<!-- temp2b -->
<g id="node4" class="node"><title>temp2b</title>
<ellipse fill="none" stroke="none" cx="224" cy="-23" rx="1.8" ry="1.8"/>
</g>
<!-- temp2c -->
<g id="node5" class="node"><title>temp2c</title>
<ellipse fill="none" stroke="none" cx="314" cy="-23" rx="1.8" ry="1.8"/>
</g>
<!-- temp2b&#45;&gt;temp2c -->
<g id="edge1" class="edge"><title>temp2b&#45;&gt;temp2c</title>
<path fill="none" stroke="black" d="M225.88,-23C235.579,-23 280.352,-23 302.091,-23"/>
<polygon fill="black" stroke="black" points="302.131,-26.5001 312.131,-23 302.131,-19.5001 302.131,-26.5001"/>
<text text-anchor="middle" x="268.6" y="-29.8" font-family="Times New Roman,serif" font-size="14.00" fill="#fffffe">wwwwwww</text>
</g>
<!-- result -->
<g id="node6" class="node"><title>result</title>
<text text-anchor="middle" x="361" y="-19.3" font-family="Times New Roman,serif" font-size="14.00">$</text>
</g>
</g>
</svg>
