<?xml version="1.0" encoding="UTF-8" standalone="no"?>
<!DOCTYPE svg PUBLIC "-//W3C//DTD SVG 1.1//EN"
 "http://www.w3.org/Graphics/SVG/1.1/DTD/svg11.dtd">
<!-- Generated by graphviz version 3.0.0 (20220226.1711)
 -->
<!-- Pages: 1 -->
<svg width="330pt" height="106pt"
 viewBox="0.00 0.00 396.00 127.00" xmlns="http://www.w3.org/2000/svg" xmlns:xlink="http://www.w3.org/1999/xlink">
<g id="graph0" class="graph" transform="scale(0.833333 0.833333) rotate(0) translate(4 123)">
<polygon fill="white" stroke="transparent" points="-4,4 -4,-123 392,-123 392,4 -4,4"/>
<!-- left -->
<g id="node1" class="node">
<title>left</title>
<text text-anchor="middle" x="27" y="-92.3" font-family="Times,serif" font-size="14.00">$</text>
</g>
<!-- leftroot -->
<g id="node2" class="node">
<title>leftroot</title>
<text text-anchor="middle" x="27" y="-14.3" font-family="Times,serif" font-size="14.00">a</text>
</g>
<!-- left&#45;&gt;leftroot -->
<g id="edge1" class="edge">
<title>left&#45;&gt;leftroot</title>
<path fill="none" stroke="black" d="M27,-67.43C27,-56.98 27,-45.4 27,-36.18"/>
<polygon fill="black" stroke="black" points="23.5,-67.75 27,-77.75 30.5,-67.75 23.5,-67.75"/>
</g>
<!-- temp1 -->
<g id="node3" class="node">
<title>temp1</title>
<text text-anchor="middle" x="99" y="-92.3" font-family="Times,serif" font-size="14.00">+</text>
</g>
<!-- right -->
<g id="node4" class="node">
<title>right</title>
<polygon fill="none" stroke="black" points="174,-73 203.8,-107.5 144.2,-107.5 174,-73"/>
<text text-anchor="middle" x="174" y="-92.3" font-family="Times,serif" font-size="14.00">x</text>
</g>
<!-- rightroot -->
<g id="node5" class="node">
<title>rightroot</title>
<text text-anchor="middle" x="174" y="-14.3" font-family="Times,serif" font-size="14.00">a</text>
</g>
<!-- right&#45;&gt;rightroot -->
<g id="edge2" class="edge">
<title>right&#45;&gt;rightroot</title>
<path fill="none" stroke="black" d="M174,-62.42C174,-53.48 174,-44.14 174,-36.41"/>
<polygon fill="black" stroke="black" points="170.5,-62.61 174,-72.61 177.5,-62.61 170.5,-62.61"/>
</g>
<!-- temp2b -->
<g id="node6" class="node">
<title>temp2b</title>
<ellipse fill="transparent" stroke="transparent" cx="224" cy="-96" rx="1.8" ry="1.8"/>
</g>
<!-- temp2c -->
<g id="node7" class="node">
<title>temp2c</title>
<ellipse fill="transparent" stroke="transparent" cx="314" cy="-96" rx="1.8" ry="1.8"/>
</g>
<!-- temp2b&#45;&gt;temp2c -->
<g id="edge3" class="edge">
<title>temp2b&#45;&gt;temp2c</title>
<path fill="none" stroke="black" d="M225.88,-96C235.58,-96 280.35,-96 302.09,-96"/>
<polygon fill="black" stroke="black" points="302.13,-99.5 312.13,-96 302.13,-92.5 302.13,-99.5"/>
<text text-anchor="middle" x="269" y="-102.8" font-family="Times,serif" font-size="14.00" fill="#fffffe">wwwwwww</text>
</g>
<!-- result -->
<g id="node8" class="node">
<title>result</title>
<text text-anchor="middle" x="361" y="-92.3" font-family="Times,serif" font-size="14.00">$</text>
</g>
<!-- resultroot -->
<g id="node9" class="node">
<title>resultroot</title>
<text text-anchor="middle" x="361" y="-14.3" font-family="Times,serif" font-size="14.00">a</text>
</g>
<!-- result&#45;&gt;resultroot -->
<g id="edge4" class="edge">
<title>result&#45;&gt;resultroot</title>
<path fill="none" stroke="black" d="M361,-67.43C361,-56.98 361,-45.4 361,-36.18"/>
<polygon fill="black" stroke="black" points="357.5,-67.75 361,-77.75 364.5,-67.75 357.5,-67.75"/>
</g>
</g>
</svg>
