<?xml version="1.0" encoding="UTF-8" standalone="no"?>
<!DOCTYPE svg PUBLIC "-//W3C//DTD SVG 1.1//EN"
 "http://www.w3.org/Graphics/SVG/1.1/DTD/svg11.dtd">
<!-- Generated by graphviz version 8.0.5 (20230430.1635)
 -->
<!-- Pages: 1 -->
<svg width="332pt" height="120pt"
 viewBox="0.00 0.00 398.00 144.00" xmlns="http://www.w3.org/2000/svg" xmlns:xlink="http://www.w3.org/1999/xlink">
<g id="graph0" class="graph" transform="scale(0.833333 0.833333) rotate(0) translate(4 140)">
<polygon fill="white" stroke="none" points="-4,4 -4,-140 394,-140 394,4 -4,4"/>
<!-- left -->
<g id="node1" class="node">
<title>left</title>
<text text-anchor="middle" x="27" y="-106.45" font-family="Times,serif" font-size="14.00">$</text>
</g>
<!-- leftroot -->
<g id="node2" class="node">
<title>leftroot</title>
<text text-anchor="middle" x="27" y="-19.95" font-family="Times,serif" font-size="14.00">a</text>
</g>
<!-- left&#45;&gt;leftroot -->
<g id="edge1" class="edge">
<title>left&#45;&gt;leftroot</title>
<path fill="none" stroke="black" d="M27,-82.93C27,-69.75 27,-54.39 27,-42.95"/>
<polygon fill="black" stroke="black" points="23.5,-82.81 27,-92.81 30.5,-82.81 23.5,-82.81"/>
</g>
<!-- temp1 -->
<g id="node3" class="node">
<title>temp1</title>
<text text-anchor="middle" x="99" y="-106.45" font-family="Times,serif" font-size="14.00">+</text>
</g>
<!-- right -->
<g id="node4" class="node">
<title>right</title>
<polygon fill="none" stroke="black" points="175,-87 206.05,-123.75 143.95,-123.75 175,-87"/>
<text text-anchor="middle" x="175" y="-106.45" font-family="Times,serif" font-size="14.00">x</text>
</g>
<!-- rightroot -->
<g id="node5" class="node">
<title>rightroot</title>
<text text-anchor="middle" x="175" y="-19.95" font-family="Times,serif" font-size="14.00">b</text>
</g>
<!-- right&#45;&gt;rightroot -->
<g id="edge2" class="edge">
<title>right&#45;&gt;rightroot</title>
<path fill="none" stroke="black" d="M175,-75.55C175,-64.23 175,-52.18 175,-42.8"/>
<polygon fill="black" stroke="black" points="171.5,-75.51 175,-85.51 178.5,-75.51 171.5,-75.51"/>
</g>
<!-- temp2b -->
<g id="node6" class="node">
<title>temp2b</title>
<ellipse fill="none" stroke="none" cx="226" cy="-111.5" rx="1.8" ry="1.8"/>
</g>
<!-- temp2c -->
<g id="node7" class="node">
<title>temp2c</title>
<ellipse fill="none" stroke="none" cx="315" cy="-111.5" rx="1.8" ry="1.8"/>
</g>
<!-- temp2b&#45;&gt;temp2c -->
<g id="edge3" class="edge">
<title>temp2b&#45;&gt;temp2c</title>
<path fill="none" stroke="black" d="M228.2,-111.5C238.25,-111.5 280.26,-111.5 301.93,-111.5"/>
<polygon fill="black" stroke="black" points="301.88,-115 311.88,-111.5 301.88,-108 301.88,-115"/>
<text text-anchor="middle" x="270.5" y="-117.7" font-family="Times,serif" font-size="14.00" fill="#fffffe" fill-opacity="0.000000">wwwwwww</text>
</g>
<!-- result -->
<g id="node8" class="node">
<title>result</title>
<text text-anchor="middle" x="362" y="-106.45" font-family="Times,serif" font-size="14.00">$</text>
</g>
<!-- resultroot -->
<g id="node9" class="node">
<title>resultroot</title>
<polygon fill="none" stroke="black" points="336,-0.5 336,-49.5 390,-49.5 390,-0.5 336,-0.5"/>
<text text-anchor="middle" x="349" y="-32.2" font-family="Times,serif" font-size="14.00"> </text>
<polyline fill="none" stroke="black" points="336,-25 362,-25"/>
<text text-anchor="middle" x="349" y="-7.7" font-family="Times,serif" font-size="14.00">a</text>
<polyline fill="none" stroke="black" points="362,-0.5 362,-49.5"/>
<text text-anchor="middle" x="375.88" y="-32.2" font-family="Times,serif" font-size="14.00"> </text>
<polyline fill="none" stroke="black" points="362,-25 389.75,-25"/>
<text text-anchor="middle" x="375.88" y="-7.7" font-family="Times,serif" font-size="14.00">b</text>
</g>
<!-- result&#45;&gt;resultroot -->
<g id="edge4" class="edge">
<title>result&#45;&gt;resultroot:n</title>
<path fill="none" stroke="black" d="M353.61,-83.3C351.1,-72.98 349,-61.05 349,-50"/>
<polygon fill="black" stroke="black" points="350.44,-84 356.41,-92.76 357.2,-82.19 350.44,-84"/>
</g>
<!-- result&#45;&gt;resultroot -->
<g id="edge5" class="edge">
<title>result&#45;&gt;resultroot:n</title>
<path fill="none" stroke="black" d="M371.1,-83.12C373.77,-72.85 376,-61.01 376,-50"/>
<polygon fill="black" stroke="black" points="367.5,-81.95 368.1,-92.53 374.23,-83.89 367.5,-81.95"/>
</g>
</g>
</svg>
