<?xml version="1.0" encoding="UTF-8" standalone="no"?>
<!DOCTYPE svg PUBLIC "-//W3C//DTD SVG 1.1//EN"
 "http://www.w3.org/Graphics/SVG/1.1/DTD/svg11.dtd">
<!-- Generated by graphviz version 2.38.0 (20140413.2041)
 -->
<!-- Pages: 1 -->
<svg width="331pt" height="112pt"
 viewBox="0.00 0.00 397.00 134.00" xmlns="http://www.w3.org/2000/svg" xmlns:xlink="http://www.w3.org/1999/xlink">
<g id="graph0" class="graph" transform="scale(0.833333 0.833333) rotate(0) translate(4 130)">
<polygon fill="white" stroke="none" points="-4,4 -4,-130 393,-130 393,4 -4,4"/>
<!-- left -->
<g id="node1" class="node"><title>left</title>
<text text-anchor="middle" x="27" y="-99.8" font-family="Times,serif" font-size="14.00">$</text>
</g>
<!-- leftroot -->
<g id="node2" class="node"><title>leftroot</title>
<text text-anchor="middle" x="27" y="-18.3" font-family="Times,serif" font-size="14.00">a</text>
</g>
<!-- left&#45;&gt;leftroot -->
<g id="edge1" class="edge"><title>left&#45;&gt;leftroot</title>
<path fill="none" stroke="black" d="M27,-75.6734C27,-64.0802 27,-50.9196 27,-40.7167"/>
<polygon fill="black" stroke="black" points="23.5001,-75.7496 27,-85.7497 30.5001,-75.7497 23.5001,-75.7496"/>
</g>
<!-- temp1 -->
<g id="node3" class="node"><title>temp1</title>
<text text-anchor="middle" x="99" y="-99.8" font-family="Times,serif" font-size="14.00">+</text>
</g>
<!-- right -->
<g id="node4" class="node"><title>right</title>
<polygon fill="none" stroke="black" points="173,-82 202.114,-115 143.886,-115 173,-82"/>
<text text-anchor="middle" x="173" y="-99.8" font-family="Times,serif" font-size="14.00">x</text>
</g>
<!-- rightroot -->
<g id="node5" class="node"><title>rightroot</title>
<text text-anchor="middle" x="173" y="-18.3" font-family="Times,serif" font-size="14.00">b</text>
</g>
<!-- right&#45;&gt;rightroot -->
<g id="edge2" class="edge"><title>right&#45;&gt;rightroot</title>
<path fill="none" stroke="black" d="M173,-71.5313C173,-60.9787 173,-49.6112 173,-40.5853"/>
<polygon fill="black" stroke="black" points="169.5,-71.6954 173,-81.6955 176.5,-71.6955 169.5,-71.6954"/>
</g>
<!-- temp2b -->
<g id="node6" class="node"><title>temp2b</title>
<ellipse fill="none" stroke="none" cx="222" cy="-104" rx="1.8" ry="1.8"/>
</g>
<!-- temp2c -->
<g id="node7" class="node"><title>temp2c</title>
<ellipse fill="none" stroke="none" cx="314" cy="-104" rx="1.8" ry="1.8"/>
</g>
<!-- temp2b&#45;&gt;temp2c -->
<g id="edge3" class="edge"><title>temp2b&#45;&gt;temp2c</title>
<path fill="none" stroke="black" d="M223.922,-104C233.837,-104 279.605,-104 301.827,-104"/>
<polygon fill="black" stroke="black" points="302.089,-107.5 312.089,-104 302.089,-100.5 302.089,-107.5"/>
<text text-anchor="middle" x="268" y="-109.8" font-family="Times,serif" font-size="14.00" fill="#fffffe">wwwwwww</text>
</g>
<!-- result -->
<g id="node8" class="node"><title>result</title>
<text text-anchor="middle" x="361" y="-99.8" font-family="Times,serif" font-size="14.00">$</text>
</g>
<!-- resultroot -->
<g id="node9" class="node"><title>resultroot</title>
<polygon fill="none" stroke="black" points="335,-0.5 335,-44.5 389,-44.5 389,-0.5 335,-0.5"/>
<text text-anchor="middle" x="348.107" y="-29.3" font-family="Times,serif" font-size="14.00"> </text>
<polyline fill="none" stroke="black" points="335,-22.5 361.214,-22.5 "/>
<text text-anchor="middle" x="348.107" y="-7.3" font-family="Times,serif" font-size="14.00">a</text>
<polyline fill="none" stroke="black" points="361.214,-0.5 361.214,-44.5 "/>
<text text-anchor="middle" x="374.714" y="-29.3" font-family="Times,serif" font-size="14.00"> </text>
<polyline fill="none" stroke="black" points="361.214,-22.5 388.214,-22.5 "/>
<text text-anchor="middle" x="374.714" y="-7.3" font-family="Times,serif" font-size="14.00">b</text>
</g>
<!-- result&#45;&gt;resultroot -->
<g id="edge4" class="edge"><title>result&#45;&gt;resultroot:a:n</title>
<path fill="none" stroke="black" d="M352.392,-76.0956C349.979,-66.399 348,-55.3064 348,-45"/>
<polygon fill="black" stroke="black" points="349.081,-77.2534 355.109,-85.9663 355.83,-75.396 349.081,-77.2534"/>
</g>
<!-- result&#45;&gt;resultroot -->
<g id="edge5" class="edge"><title>result&#45;&gt;resultroot:b:n</title>
<path fill="none" stroke="black" d="M370.327,-75.9254C372.9,-66.2837 375,-55.2696 375,-45"/>
<polygon fill="black" stroke="black" points="366.902,-75.167 367.426,-85.7489 373.615,-77.1496 366.902,-75.167"/>
</g>
</g>
</svg>
