<?xml version="1.0" encoding="UTF-8" standalone="no"?>
<!DOCTYPE svg PUBLIC "-//W3C//DTD SVG 1.1//EN"
 "http://www.w3.org/Graphics/SVG/1.1/DTD/svg11.dtd">
<!-- Generated by graphviz version 2.38.0 (20140413.2041)
 -->
<!-- Pages: 1 -->
<svg width="330pt" height="104pt"
 viewBox="0.00 0.00 396.00 125.00" xmlns="http://www.w3.org/2000/svg" xmlns:xlink="http://www.w3.org/1999/xlink">
<g id="graph0" class="graph" transform="scale(0.833333 0.833333) rotate(0) translate(4 121)">
<polygon fill="white" stroke="none" points="-4,4 -4,-121 392,-121 392,4 -4,4"/>
<!-- left -->
<g id="node1" class="node"><title>left</title>
<text text-anchor="middle" x="27" y="-90.8" font-family="Times,serif" font-size="14.00">$</text>
</g>
<!-- leftroot -->
<g id="node2" class="node"><title>leftroot</title>
<text text-anchor="middle" x="27" y="-13.8" font-family="Times,serif" font-size="14.00">a</text>
</g>
<!-- left&#45;&gt;leftroot -->
<g id="edge1" class="edge"><title>left&#45;&gt;leftroot</title>
<path fill="none" stroke="black" d="M27,-66.8666C27,-56.6362 27,-45.2888 27,-36.2109"/>
<polygon fill="black" stroke="black" points="23.5001,-66.9813 27,-76.9813 30.5001,-66.9814 23.5001,-66.9813"/>
</g>
<!-- temp1 -->
<g id="node3" class="node"><title>temp1</title>
<text text-anchor="middle" x="99" y="-90.8" font-family="Times,serif" font-size="14.00">+</text>
</g>
<!-- right -->
<g id="node4" class="node"><title>right</title>
<polygon fill="none" stroke="black" points="173,-73 202.114,-106 143.886,-106 173,-73"/>
<text text-anchor="middle" x="173" y="-90.8" font-family="Times,serif" font-size="14.00">x</text>
</g>
<!-- rightroot -->
<g id="node5" class="node"><title>rightroot</title>
<text text-anchor="middle" x="173" y="-13.8" font-family="Times,serif" font-size="14.00">a</text>
</g>
<!-- right&#45;&gt;rightroot -->
<g id="edge2" class="edge"><title>right&#45;&gt;rightroot</title>
<path fill="none" stroke="black" d="M173,-62.4376C173,-53.3919 173,-43.8734 173,-36.0597"/>
<polygon fill="black" stroke="black" points="169.5,-62.7086 173,-72.7086 176.5,-62.7087 169.5,-62.7086"/>
</g>
<!-- temp2b -->
<g id="node6" class="node"><title>temp2b</title>
<ellipse fill="none" stroke="none" cx="222" cy="-95" rx="1.8" ry="1.8"/>
</g>
<!-- temp2c -->
<g id="node7" class="node"><title>temp2c</title>
<ellipse fill="none" stroke="none" cx="314" cy="-95" rx="1.8" ry="1.8"/>
</g>
<!-- temp2b&#45;&gt;temp2c -->
<g id="edge3" class="edge"><title>temp2b&#45;&gt;temp2c</title>
<path fill="none" stroke="black" d="M223.922,-95C233.837,-95 279.605,-95 301.827,-95"/>
<polygon fill="black" stroke="black" points="302.089,-98.5001 312.089,-95 302.089,-91.5001 302.089,-98.5001"/>
<text text-anchor="middle" x="268" y="-100.8" font-family="Times,serif" font-size="14.00" fill="#fffffe">wwwwwww</text>
</g>
<!-- result -->
<g id="node8" class="node"><title>result</title>
<text text-anchor="middle" x="361" y="-90.8" font-family="Times,serif" font-size="14.00">$</text>
</g>
<!-- resultroot -->
<g id="node9" class="node"><title>resultroot</title>
<text text-anchor="middle" x="361" y="-13.8" font-family="Times,serif" font-size="14.00">a</text>
</g>
<!-- result&#45;&gt;resultroot -->
<g id="edge4" class="edge"><title>result&#45;&gt;resultroot</title>
<path fill="none" stroke="black" d="M361,-66.8666C361,-56.6362 361,-45.2888 361,-36.2109"/>
<polygon fill="black" stroke="black" points="357.5,-66.9813 361,-76.9813 364.5,-66.9814 357.5,-66.9813"/>
</g>
</g>
</svg>
