<?xml version="1.0" encoding="UTF-8" standalone="no"?>
<!DOCTYPE svg PUBLIC "-//W3C//DTD SVG 1.1//EN"
 "http://www.w3.org/Graphics/SVG/1.1/DTD/svg11.dtd">
<!-- Generated by graphviz version 7.1.0 (20230121.1956)
 -->
<!-- Pages: 1 -->
<svg width="330pt" height="106pt"
 viewBox="0.00 0.00 396.00 127.00" xmlns="http://www.w3.org/2000/svg" xmlns:xlink="http://www.w3.org/1999/xlink">
<g id="graph0" class="graph" transform="scale(0.833333 0.833333) rotate(0) translate(4 123)">
<polygon fill="white" stroke="none" points="-4,4 -4,-123 392,-123 392,4 -4,4"/>
<!-- left -->
<g id="node1" class="node">
<title>left</title>
<text text-anchor="middle" x="27" y="-92.3" font-family="Times,serif" font-size="14.00">$</text>
</g>
<!-- leftroot -->
<g id="node2" class="node">
<title>leftroot</title>
<text text-anchor="middle" x="27" y="-14.3" font-family="Times,serif" font-size="14.00">a</text>
</g>
<!-- left&#45;&gt;leftroot -->
<g id="edge1" class="edge">
<title>left&#45;&gt;leftroot</title>
<path fill="none" stroke="black" d="M27,-66.63C27,-56.26 27,-44.86 27,-35.82"/>
<polygon fill="black" stroke="black" points="23.5,-66.62 27,-76.62 30.5,-66.62 23.5,-66.62"/>
</g>
<!-- temp1 -->
<g id="node3" class="node">
<title>temp1</title>
<text text-anchor="middle" x="99" y="-92.3" font-family="Times,serif" font-size="14.00">+</text>
</g>
<!-- right -->
<g id="node4" class="node">
<title>right</title>
<polygon fill="none" stroke="black" points="174,-73 203.8,-107.5 144.2,-107.5 174,-73"/>
<text text-anchor="middle" x="174" y="-92.3" font-family="Times,serif" font-size="14.00">x</text>
</g>
<!-- rightroot -->
<g id="node5" class="node">
<title>rightroot</title>
<text text-anchor="middle" x="174" y="-14.3" font-family="Times,serif" font-size="14.00">a</text>
</g>
<!-- right&#45;&gt;rightroot -->
<g id="edge2" class="edge">
<title>right&#45;&gt;rightroot</title>
<path fill="none" stroke="black" d="M174,-61.38C174,-52.57 174,-43.44 174,-35.93"/>
<polygon fill="black" stroke="black" points="170.5,-61.09 174,-71.1 177.5,-61.1 170.5,-61.09"/>
</g>
<!-- temp2b -->
<g id="node6" class="node">
<title>temp2b</title>
<ellipse fill="none" stroke="none" cx="224" cy="-96" rx="1.8" ry="1.8"/>
</g>
<!-- temp2c -->
<g id="node7" class="node">
<title>temp2c</title>
<ellipse fill="none" stroke="none" cx="314" cy="-96" rx="1.8" ry="1.8"/>
</g>
<!-- temp2b&#45;&gt;temp2c -->
<g id="edge3" class="edge">
<title>temp2b&#45;&gt;temp2c</title>
<path fill="none" stroke="black" d="M226.22,-96C236.34,-96 278.46,-96 300.47,-96"/>
<polygon fill="black" stroke="black" points="300.34,-99.5 310.34,-96 300.34,-92.5 300.34,-99.5"/>
<text text-anchor="middle" x="269" y="-102.8" font-family="Times,serif" font-size="14.00" fill="#fffffe" fill-opacity="0.000000">wwwwwww</text>
</g>
<!-- result -->
<g id="node8" class="node">
<title>result</title>
<text text-anchor="middle" x="361" y="-92.3" font-family="Times,serif" font-size="14.00">$</text>
</g>
<!-- resultroot -->
<g id="node9" class="node">
<title>resultroot</title>
<text text-anchor="middle" x="361" y="-14.3" font-family="Times,serif" font-size="14.00">a</text>
</g>
<!-- result&#45;&gt;resultroot -->
<g id="edge4" class="edge">
<title>result&#45;&gt;resultroot</title>
<path fill="none" stroke="black" d="M361,-66.63C361,-56.26 361,-44.86 361,-35.82"/>
<polygon fill="black" stroke="black" points="357.5,-66.62 361,-76.62 364.5,-66.62 357.5,-66.62"/>
</g>
</g>
</svg>
