<?xml version="1.0" encoding="UTF-8" standalone="no"?>
<!DOCTYPE svg PUBLIC "-//W3C//DTD SVG 1.1//EN"
 "http://www.w3.org/Graphics/SVG/1.1/DTD/svg11.dtd">
<!-- Generated by graphviz version 2.37.20140119.0545 (20140119.0545)
 -->
<!-- Pages: 1 -->
<svg width="330pt" height="107pt"
 viewBox="0.00 0.00 330.00 106.67" xmlns="http://www.w3.org/2000/svg" xmlns:xlink="http://www.w3.org/1999/xlink">
<g id="graph0" class="graph" transform="scale(0.833333 0.833333) rotate(0) translate(4 124)">
<polygon fill="white" stroke="none" points="-4,4 -4,-124 392,-124 392,4 -4,4"/>
<!-- left -->
<g id="node1" class="node"><title>left</title>
<text text-anchor="middle" x="27" y="-93.3" font-family="Times New Roman,serif" font-size="14.00">$</text>
</g>
<!-- leftroot -->
<g id="node2" class="node"><title>leftroot</title>
<text text-anchor="middle" x="27" y="-14.3" font-family="Times New Roman,serif" font-size="14.00">a</text>
</g>
<!-- left&#45;&gt;leftroot -->
<g id="edge1" class="edge"><title>left&#45;&gt;leftroot</title>
<path fill="none" stroke="black" d="M27,-68.6223C27,-57.7586 27,-45.6026 27,-36.041"/>
<polygon fill="black" stroke="black" points="23.5001,-68.9112 27,-78.9112 30.5001,-68.9112 23.5001,-68.9112"/>
</g>
<!-- temp1 -->
<g id="node3" class="node"><title>temp1</title>
<text text-anchor="middle" x="99" y="-93.3" font-family="Times New Roman,serif" font-size="14.00">+</text>
</g>
<!-- right -->
<g id="node4" class="node"><title>right</title>
<polygon fill="none" stroke="black" points="174,-74 203.348,-108.5 144.652,-108.5 174,-74"/>
<text text-anchor="middle" x="174" y="-93.3" font-family="Times New Roman,serif" font-size="14.00">x</text>
</g>
<!-- rightroot -->
<g id="node5" class="node"><title>rightroot</title>
<text text-anchor="middle" x="174" y="-14.3" font-family="Times New Roman,serif" font-size="14.00">a</text>
</g>
<!-- right&#45;&gt;rightroot -->
<g id="edge2" class="edge"><title>right&#45;&gt;rightroot</title>
<path fill="none" stroke="black" d="M174,-63.5165C174,-54.1825 174,-44.3647 174,-36.3313"/>
<polygon fill="black" stroke="black" points="170.5,-63.7284 174,-73.7284 177.5,-63.7284 170.5,-63.7284"/>
</g>
<!-- temp2b -->
<g id="node6" class="node"><title>temp2b</title>
<ellipse fill="none" stroke="none" cx="224" cy="-97" rx="1.8" ry="1.8"/>
</g>
<!-- temp2c -->
<g id="node7" class="node"><title>temp2c</title>
<ellipse fill="none" stroke="none" cx="314" cy="-97" rx="1.8" ry="1.8"/>
</g>
<!-- temp2b&#45;&gt;temp2c -->
<g id="edge3" class="edge"><title>temp2b&#45;&gt;temp2c</title>
<path fill="none" stroke="black" d="M225.88,-97C235.579,-97 280.352,-97 302.091,-97"/>
<polygon fill="black" stroke="black" points="302.131,-100.5 312.131,-97 302.131,-93.5001 302.131,-100.5"/>
<text text-anchor="middle" x="268.6" y="-103.8" font-family="Times New Roman,serif" font-size="14.00" fill="#fffffe">wwwwwww</text>
</g>
<!-- result -->
<g id="node8" class="node"><title>result</title>
<text text-anchor="middle" x="361" y="-93.3" font-family="Times New Roman,serif" font-size="14.00">$</text>
</g>
<!-- resultroot -->
<g id="node9" class="node"><title>resultroot</title>
<text text-anchor="middle" x="361" y="-14.3" font-family="Times New Roman,serif" font-size="14.00">a</text>
</g>
<!-- result&#45;&gt;resultroot -->
<g id="edge4" class="edge"><title>result&#45;&gt;resultroot</title>
<path fill="none" stroke="black" d="M361,-68.6223C361,-57.7586 361,-45.6026 361,-36.041"/>
<polygon fill="black" stroke="black" points="357.5,-68.9112 361,-78.9112 364.5,-68.9112 357.5,-68.9112"/>
</g>
</g>
</svg>
