<?xml version="1.0" encoding="UTF-8" standalone="no"?>
<!DOCTYPE svg PUBLIC "-//W3C//DTD SVG 1.1//EN"
 "http://www.w3.org/Graphics/SVG/1.1/DTD/svg11.dtd">
<!-- Generated by graphviz version 2.30.0 (20130114.0323)
 -->
<!-- Pages: 1 -->
<svg width="335pt" height="110pt"
 viewBox="0.00 0.00 402.00 132.00" xmlns="http://www.w3.org/2000/svg" xmlns:xlink="http://www.w3.org/1999/xlink">
<g id="graph0" class="graph" transform="scale(0.833333 0.833333) rotate(0) translate(4 128)">
<polygon fill="white" stroke="white" points="-4,5 -4,-128 399,-128 399,5 -4,5"/>
<!-- left -->
<g id="node1" class="node"><title>left</title>
<text text-anchor="middle" x="27" y="-94.8" font-family="Times New Roman,serif" font-size="14.00">$</text>
</g>
<!-- leftroot -->
<g id="node2" class="node"><title>leftroot</title>
<text text-anchor="middle" x="27" y="-13.8" font-family="Times New Roman,serif" font-size="14.00">a</text>
</g>
<!-- left&#45;&gt;leftroot -->
<g id="edge1" class="edge"><title>left&#45;&gt;leftroot</title>
<path fill="none" stroke="black" d="M27,-70.8452C27,-59.325 27,-46.2472 27,-36.1084"/>
<polygon fill="black" stroke="black" points="23.5001,-70.8581 27,-80.8582 30.5001,-70.8582 23.5001,-70.8581"/>
</g>
<!-- temp1 -->
<g id="node3" class="node"><title>temp1</title>
<text text-anchor="middle" x="99" y="-94.8" font-family="Times New Roman,serif" font-size="14.00">+</text>
</g>
<!-- right -->
<g id="node4" class="node"><title>right</title>
<polygon fill="none" stroke="black" points="176,-74.3984 207.594,-111.301 144.406,-111.301 176,-74.3984"/>
<text text-anchor="middle" x="176" y="-94.8" font-family="Times New Roman,serif" font-size="14.00">x</text>
</g>
<!-- rightroot -->
<g id="node5" class="node"><title>rightroot</title>
<text text-anchor="middle" x="176" y="-13.8" font-family="Times New Roman,serif" font-size="14.00">a</text>
</g>
<!-- right&#45;&gt;rightroot -->
<g id="edge2" class="edge"><title>right&#45;&gt;rightroot</title>
<path fill="none" stroke="black" d="M176,-64.1153C176,-54.4634 176,-44.3549 176,-36.1586"/>
<polygon fill="black" stroke="black" points="172.5,-64.2974 176,-74.2974 179.5,-64.2974 172.5,-64.2974"/>
</g>
<!-- temp2b -->
<g id="node6" class="node"><title>temp2b</title>
<ellipse fill="none" stroke="none" cx="228" cy="-99" rx="1.8" ry="1.8"/>
</g>
<!-- temp2c -->
<g id="node7" class="node"><title>temp2c</title>
<ellipse fill="none" stroke="none" cx="320" cy="-99" rx="1.8" ry="1.8"/>
</g>
<!-- temp2b&#45;&gt;temp2c -->
<g id="edge3" class="edge"><title>temp2b&#45;&gt;temp2c</title>
<path fill="none" stroke="black" d="M230.156,-99C255.975,-99 281.794,-99 307.612,-99"/>
<polygon fill="black" stroke="black" points="307.894,-102.5 317.894,-99 307.894,-95.5001 307.894,-102.5"/>
</g>
<!-- result -->
<g id="node8" class="node"><title>result</title>
<text text-anchor="middle" x="367" y="-94.8" font-family="Times New Roman,serif" font-size="14.00">$</text>
</g>
<!-- resultroot -->
<g id="node9" class="node"><title>resultroot</title>
<text text-anchor="middle" x="367" y="-13.8" font-family="Times New Roman,serif" font-size="14.00">a</text>
</g>
<!-- result&#45;&gt;resultroot -->
<g id="edge4" class="edge"><title>result&#45;&gt;resultroot</title>
<path fill="none" stroke="black" d="M367,-70.8452C367,-59.325 367,-46.2472 367,-36.1084"/>
<polygon fill="black" stroke="black" points="363.5,-70.8581 367,-80.8582 370.5,-70.8582 363.5,-70.8581"/>
</g>
</g>
</svg>
