<?xml version="1.0" encoding="UTF-8" standalone="no"?>
<!DOCTYPE svg PUBLIC "-//W3C//DTD SVG 1.1//EN"
 "http://www.w3.org/Graphics/SVG/1.1/DTD/svg11.dtd">
<!-- Generated by graphviz version 2.30.0 (20130114.0323)
 -->
<!-- Pages: 1 -->
<svg width="336pt" height="123pt"
 viewBox="0.00 0.00 403.00 148.00" xmlns="http://www.w3.org/2000/svg" xmlns:xlink="http://www.w3.org/1999/xlink">
<g id="graph0" class="graph" transform="scale(0.833333 0.833333) rotate(0) translate(4 144)">
<polygon fill="white" stroke="white" points="-4,5 -4,-144 400,-144 400,5 -4,5"/>
<!-- left -->
<g id="node1" class="node"><title>left</title>
<text text-anchor="middle" x="27" y="-110.8" font-family="Times New Roman,serif" font-size="14.00">$</text>
</g>
<!-- leftroot -->
<g id="node2" class="node"><title>leftroot</title>
<text text-anchor="middle" x="27" y="-21.8" font-family="Times New Roman,serif" font-size="14.00">a</text>
</g>
<!-- left&#45;&gt;leftroot -->
<g id="edge1" class="edge"><title>left&#45;&gt;leftroot</title>
<path fill="none" stroke="black" d="M27,-86.7775C27,-72.8404 27,-56.2983 27,-44.1527"/>
<polygon fill="black" stroke="black" points="23.5001,-86.8116 27,-96.8116 30.5001,-86.8116 23.5001,-86.8116"/>
</g>
<!-- temp1 -->
<g id="node3" class="node"><title>temp1</title>
<text text-anchor="middle" x="99" y="-110.8" font-family="Times New Roman,serif" font-size="14.00">+</text>
</g>
<!-- right -->
<g id="node4" class="node"><title>right</title>
<polygon fill="none" stroke="black" points="176,-90.3984 207.594,-127.301 144.406,-127.301 176,-90.3984"/>
<text text-anchor="middle" x="176" y="-110.8" font-family="Times New Roman,serif" font-size="14.00">x</text>
</g>
<!-- rightroot -->
<g id="node5" class="node"><title>rightroot</title>
<text text-anchor="middle" x="176" y="-21.8" font-family="Times New Roman,serif" font-size="14.00">b</text>
</g>
<!-- right&#45;&gt;rightroot -->
<g id="edge2" class="edge"><title>right&#45;&gt;rightroot</title>
<path fill="none" stroke="black" d="M176,-80.2064C176,-67.858 176,-54.4101 176,-44.1235"/>
<polygon fill="black" stroke="black" points="172.5,-80.2268 176,-90.2269 179.5,-80.2269 172.5,-80.2268"/>
</g>
<!-- temp2b -->
<g id="node6" class="node"><title>temp2b</title>
<ellipse fill="none" stroke="none" cx="228" cy="-115" rx="1.8" ry="1.8"/>
</g>
<!-- temp2c -->
<g id="node7" class="node"><title>temp2c</title>
<ellipse fill="none" stroke="none" cx="320" cy="-115" rx="1.8" ry="1.8"/>
</g>
<!-- temp2b&#45;&gt;temp2c -->
<g id="edge3" class="edge"><title>temp2b&#45;&gt;temp2c</title>
<path fill="none" stroke="black" d="M230.156,-115C255.975,-115 281.794,-115 307.612,-115"/>
<polygon fill="black" stroke="black" points="307.894,-118.5 317.894,-115 307.894,-111.5 307.894,-118.5"/>
</g>
<!-- result -->
<g id="node8" class="node"><title>result</title>
<text text-anchor="middle" x="367" y="-110.8" font-family="Times New Roman,serif" font-size="14.00">$</text>
</g>
<!-- resultroot -->
<g id="node9" class="node"><title>resultroot</title>
<polygon fill="none" stroke="black" points="341,-1.2 341,-50.8 395,-50.8 395,-1.2 341,-1.2"/>
<text text-anchor="middle" x="354.107" y="-34.2" font-family="Times New Roman,serif" font-size="14.00"> </text>
<polyline fill="none" stroke="black" points="341,-26 367.215,-26 "/>
<text text-anchor="middle" x="354.107" y="-9.4" font-family="Times New Roman,serif" font-size="14.00">a</text>
<polyline fill="none" stroke="black" points="367.215,-1.2 367.215,-50.8 "/>
<text text-anchor="middle" x="380.715" y="-34.2" font-family="Times New Roman,serif" font-size="14.00"> </text>
<polyline fill="none" stroke="black" points="367.215,-26 394.215,-26 "/>
<text text-anchor="middle" x="380.715" y="-9.4" font-family="Times New Roman,serif" font-size="14.00">b</text>
</g>
<!-- result&#45;&gt;resultroot -->
<g id="edge4" class="edge"><title>result&#45;&gt;resultroot:a:n</title>
<path fill="none" stroke="black" d="M358.848,-87.1224C356.233,-76.3136 354,-63.6681 354,-52"/>
<polygon fill="black" stroke="black" points="355.474,-88.0558 361.411,-96.8307 362.242,-86.2685 355.474,-88.0558"/>
</g>
<!-- result&#45;&gt;resultroot -->
<g id="edge5" class="edge"><title>result&#45;&gt;resultroot:b:n</title>
<path fill="none" stroke="black" d="M375.779,-87.1627C378.595,-76.3595 381,-63.7073 381,-52"/>
<polygon fill="black" stroke="black" points="372.39,-86.2864 373.019,-96.8626 379.122,-88.2028 372.39,-86.2864"/>
</g>
</g>
</svg>
