<?xml version="1.0" encoding="UTF-8" standalone="no"?>
<!DOCTYPE svg PUBLIC "-//W3C//DTD SVG 1.1//EN"
 "http://www.w3.org/Graphics/SVG/1.1/DTD/svg11.dtd">
<!-- Generated by graphviz version 5.0.0 (20220707.1540)
 -->
<!-- Pages: 1 -->
<svg width="330pt" height="115pt"
 viewBox="0.00 0.00 396.00 138.00" xmlns="http://www.w3.org/2000/svg" xmlns:xlink="http://www.w3.org/1999/xlink">
<g id="graph0" class="graph" transform="scale(0.833333 0.833333) rotate(0) translate(4 134)">
<polygon fill="white" stroke="transparent" points="-4,4 -4,-134 392,-134 392,4 -4,4"/>
<!-- left -->
<g id="node1" class="node">
<title>left</title>
<text text-anchor="middle" x="27" y="-103.3" font-family="Times,serif" font-size="14.00">$</text>
</g>
<!-- leftroot -->
<g id="node2" class="node">
<title>leftroot</title>
<text text-anchor="middle" x="27" y="-19.8" font-family="Times,serif" font-size="14.00">a</text>
</g>
<!-- left&#45;&gt;leftroot -->
<g id="edge1" class="edge">
<title>left&#45;&gt;leftroot</title>
<path fill="none" stroke="black" d="M27,-78.6C27,-66.42 27,-52.45 27,-41.76"/>
<polygon fill="black" stroke="black" points="23.5,-78.72 27,-88.72 30.5,-78.72 23.5,-78.72"/>
</g>
<!-- temp1 -->
<g id="node3" class="node">
<title>temp1</title>
<text text-anchor="middle" x="99" y="-103.3" font-family="Times,serif" font-size="14.00">+</text>
</g>
<!-- right -->
<g id="node4" class="node">
<title>right</title>
<polygon fill="none" stroke="black" points="174,-84 203.8,-118.5 144.2,-118.5 174,-84"/>
<text text-anchor="middle" x="174" y="-103.3" font-family="Times,serif" font-size="14.00">x</text>
</g>
<!-- rightroot -->
<g id="node5" class="node">
<title>rightroot</title>
<text text-anchor="middle" x="174" y="-19.8" font-family="Times,serif" font-size="14.00">b</text>
</g>
<!-- right&#45;&gt;rightroot -->
<g id="edge2" class="edge">
<title>right&#45;&gt;rightroot</title>
<path fill="none" stroke="black" d="M174,-73.6C174,-62.65 174,-50.85 174,-41.57"/>
<polygon fill="black" stroke="black" points="170.5,-73.73 174,-83.73 177.5,-73.73 170.5,-73.73"/>
</g>
<!-- temp2b -->
<g id="node6" class="node">
<title>temp2b</title>
<ellipse fill="transparent" stroke="transparent" cx="224" cy="-107" rx="1.8" ry="1.8"/>
</g>
<!-- temp2c -->
<g id="node7" class="node">
<title>temp2c</title>
<ellipse fill="transparent" stroke="transparent" cx="314" cy="-107" rx="1.8" ry="1.8"/>
</g>
<!-- temp2b&#45;&gt;temp2c -->
<g id="edge3" class="edge">
<title>temp2b&#45;&gt;temp2c</title>
<path fill="none" stroke="black" d="M225.88,-107C235.58,-107 280.35,-107 302.09,-107"/>
<polygon fill="black" stroke="black" points="302.13,-110.5 312.13,-107 302.13,-103.5 302.13,-110.5"/>
<text text-anchor="middle" x="269" y="-113.8" font-family="Times,serif" font-size="14.00" fill="#fffffe" fill-opacity="0.000000">wwwwwww</text>
</g>
<!-- result -->
<g id="node8" class="node">
<title>result</title>
<text text-anchor="middle" x="361" y="-103.3" font-family="Times,serif" font-size="14.00">$</text>
</g>
<!-- resultroot -->
<g id="node9" class="node">
<title>resultroot</title>
<polygon fill="none" stroke="black" points="334,-0.5 334,-46.5 388,-46.5 388,-0.5 334,-0.5"/>
<text text-anchor="middle" x="347.5" y="-31.3" font-family="Times,serif" font-size="14.00"> </text>
<polyline fill="none" stroke="black" points="334,-23.5 361,-23.5 "/>
<text text-anchor="middle" x="347.5" y="-8.3" font-family="Times,serif" font-size="14.00">a</text>
<polyline fill="none" stroke="black" points="361,-0.5 361,-46.5 "/>
<text text-anchor="middle" x="374.5" y="-31.3" font-family="Times,serif" font-size="14.00"> </text>
<polyline fill="none" stroke="black" points="361,-23.5 388,-23.5 "/>
<text text-anchor="middle" x="374.5" y="-8.3" font-family="Times,serif" font-size="14.00">b</text>
</g>
<!-- result&#45;&gt;resultroot -->
<g id="edge4" class="edge">
<title>result&#45;&gt;resultroot:n</title>
<path fill="none" stroke="black" d="M351.87,-79.2C349.21,-69.21 347,-57.7 347,-47"/>
<polygon fill="black" stroke="black" points="348.56,-80.35 354.74,-88.96 355.28,-78.37 348.56,-80.35"/>
</g>
<!-- result&#45;&gt;resultroot -->
<g id="edge5" class="edge">
<title>result&#45;&gt;resultroot:n</title>
<path fill="none" stroke="black" d="M370.13,-79.2C372.79,-69.21 375,-57.7 375,-47"/>
<polygon fill="black" stroke="black" points="366.72,-78.37 367.26,-88.96 373.44,-80.35 366.72,-78.37"/>
</g>
</g>
</svg>
