<?xml version="1.0" encoding="UTF-8" standalone="no"?>
<!DOCTYPE svg PUBLIC "-//W3C//DTD SVG 1.1//EN"
 "http://www.w3.org/Graphics/SVG/1.1/DTD/svg11.dtd">
<!-- Generated by graphviz version 7.1.0 (20230121.1956)
 -->
<!-- Pages: 1 -->
<svg width="330pt" height="115pt"
 viewBox="0.00 0.00 396.00 138.00" xmlns="http://www.w3.org/2000/svg" xmlns:xlink="http://www.w3.org/1999/xlink">
<g id="graph0" class="graph" transform="scale(0.833333 0.833333) rotate(0) translate(4 134)">
<polygon fill="white" stroke="none" points="-4,4 -4,-134 392,-134 392,4 -4,4"/>
<!-- left -->
<g id="node1" class="node">
<title>left</title>
<text text-anchor="middle" x="27" y="-103.3" font-family="Times,serif" font-size="14.00">$</text>
</g>
<!-- leftroot -->
<g id="node2" class="node">
<title>leftroot</title>
<text text-anchor="middle" x="27" y="-19.8" font-family="Times,serif" font-size="14.00">a</text>
</g>
<!-- left&#45;&gt;leftroot -->
<g id="edge1" class="edge">
<title>left&#45;&gt;leftroot</title>
<path fill="none" stroke="black" d="M27,-77.72C27,-65.6 27,-51.85 27,-41.37"/>
<polygon fill="black" stroke="black" points="23.5,-77.6 27,-87.6 30.5,-77.6 23.5,-77.6"/>
</g>
<!-- temp1 -->
<g id="node3" class="node">
<title>temp1</title>
<text text-anchor="middle" x="99" y="-103.3" font-family="Times,serif" font-size="14.00">+</text>
</g>
<!-- right -->
<g id="node4" class="node">
<title>right</title>
<polygon fill="none" stroke="black" points="174,-84 203.8,-118.5 144.2,-118.5 174,-84"/>
<text text-anchor="middle" x="174" y="-103.3" font-family="Times,serif" font-size="14.00">x</text>
</g>
<!-- rightroot -->
<g id="node5" class="node">
<title>rightroot</title>
<text text-anchor="middle" x="174" y="-19.8" font-family="Times,serif" font-size="14.00">b</text>
</g>
<!-- right&#45;&gt;rightroot -->
<g id="edge2" class="edge">
<title>right&#45;&gt;rightroot</title>
<path fill="none" stroke="black" d="M174,-71.84C174,-61.32 174,-50.21 174,-41.39"/>
<polygon fill="black" stroke="black" points="170.5,-71.78 174,-81.78 177.5,-71.78 170.5,-71.78"/>
</g>
<!-- temp2b -->
<g id="node6" class="node">
<title>temp2b</title>
<ellipse fill="none" stroke="none" cx="224" cy="-107" rx="1.8" ry="1.8"/>
</g>
<!-- temp2c -->
<g id="node7" class="node">
<title>temp2c</title>
<ellipse fill="none" stroke="none" cx="314" cy="-107" rx="1.8" ry="1.8"/>
</g>
<!-- temp2b&#45;&gt;temp2c -->
<g id="edge3" class="edge">
<title>temp2b&#45;&gt;temp2c</title>
<path fill="none" stroke="black" d="M226.22,-107C236.34,-107 278.46,-107 300.47,-107"/>
<polygon fill="black" stroke="black" points="300.34,-110.5 310.34,-107 300.34,-103.5 300.34,-110.5"/>
<text text-anchor="middle" x="269" y="-113.8" font-family="Times,serif" font-size="14.00" fill="#fffffe" fill-opacity="0.000000">wwwwwww</text>
</g>
<!-- result -->
<g id="node8" class="node">
<title>result</title>
<text text-anchor="middle" x="361" y="-103.3" font-family="Times,serif" font-size="14.00">$</text>
</g>
<!-- resultroot -->
<g id="node9" class="node">
<title>resultroot</title>
<polygon fill="none" stroke="black" points="334,-0.5 334,-46.5 388,-46.5 388,-0.5 334,-0.5"/>
<text text-anchor="middle" x="347.5" y="-31.3" font-family="Times,serif" font-size="14.00"> </text>
<polyline fill="none" stroke="black" points="334,-23.5 361,-23.5"/>
<text text-anchor="middle" x="347.5" y="-8.3" font-family="Times,serif" font-size="14.00">a</text>
<polyline fill="none" stroke="black" points="361,-0.5 361,-46.5"/>
<text text-anchor="middle" x="374.5" y="-31.3" font-family="Times,serif" font-size="14.00"> </text>
<polyline fill="none" stroke="black" points="361,-23.5 388,-23.5"/>
<text text-anchor="middle" x="374.5" y="-8.3" font-family="Times,serif" font-size="14.00">b</text>
</g>
<!-- result&#45;&gt;resultroot -->
<g id="edge4" class="edge">
<title>result&#45;&gt;resultroot:n</title>
<path fill="none" stroke="black" d="M351.68,-78.46C349.1,-68.65 347,-57.44 347,-47"/>
<polygon fill="black" stroke="black" points="348.23,-79.14 354.39,-87.76 354.95,-77.18 348.23,-79.14"/>
</g>
<!-- result&#45;&gt;resultroot -->
<g id="edge5" class="edge">
<title>result&#45;&gt;resultroot:n</title>
<path fill="none" stroke="black" d="M370.32,-78.46C372.9,-68.65 375,-57.44 375,-47"/>
<polygon fill="black" stroke="black" points="367.05,-77.18 367.61,-87.76 373.77,-79.14 367.05,-77.18"/>
</g>
</g>
</svg>
