<?xml version="1.0" encoding="UTF-8" standalone="no"?>
<!DOCTYPE svg PUBLIC "-//W3C//DTD SVG 1.1//EN"
 "http://www.w3.org/Graphics/SVG/1.1/DTD/svg11.dtd">
<!-- Generated by graphviz version 11.0.0 (20240428.1522)
 -->
<!-- Pages: 1 -->
<svg width="331pt" height="108pt"
 viewBox="0.00 0.00 397.00 129.00" xmlns="http://www.w3.org/2000/svg" xmlns:xlink="http://www.w3.org/1999/xlink">
<g id="graph0" class="graph" transform="scale(0.833333 0.833333) rotate(0) translate(4 125)">
<polygon fill="white" stroke="none" points="-4,4 -4,-125 393,-125 393,4 -4,4"/>
<!-- left -->
<g id="node1" class="node">
<title>left</title>
<text text-anchor="middle" x="27" y="-91.45" font-family="Times,serif" font-size="14.00">$</text>
</g>
<!-- leftroot -->
<g id="node2" class="node">
<title>leftroot</title>
<text text-anchor="middle" x="27" y="-12.95" font-family="Times,serif" font-size="14.00">a</text>
</g>
<!-- left&#45;&gt;leftroot -->
<g id="edge1" class="edge">
<title>left&#45;&gt;leftroot</title>
<path fill="none" stroke="black" d="M27,-67.28C27,-56.75 27,-45.13 27,-35.93"/>
<polygon fill="black" stroke="black" points="23.5,-67.01 27,-77.01 30.5,-67.01 23.5,-67.01"/>
</g>
<!-- temp1 -->
<g id="node3" class="node">
<title>temp1</title>
<text text-anchor="middle" x="99" y="-91.45" font-family="Times,serif" font-size="14.00">+</text>
</g>
<!-- right -->
<g id="node4" class="node">
<title>right</title>
<polygon fill="none" stroke="black" points="175,-72 206.05,-108.75 143.95,-108.75 175,-72"/>
<text text-anchor="middle" x="175" y="-91.45" font-family="Times,serif" font-size="14.00">x</text>
</g>
<!-- rightroot -->
<g id="node5" class="node">
<title>rightroot</title>
<text text-anchor="middle" x="175" y="-12.95" font-family="Times,serif" font-size="14.00">a</text>
</g>
<!-- right&#45;&gt;rightroot -->
<g id="edge2" class="edge">
<title>right&#45;&gt;rightroot</title>
<path fill="none" stroke="black" d="M175,-60.04C175,-51.58 175,-42.94 175,-35.79"/>
<polygon fill="black" stroke="black" points="171.5,-59.78 175,-69.78 178.5,-59.78 171.5,-59.78"/>
</g>
<!-- temp2b -->
<g id="node6" class="node">
<title>temp2b</title>
<ellipse fill="none" stroke="none" cx="226" cy="-96.5" rx="1.8" ry="1.8"/>
</g>
<!-- temp2c -->
<g id="node7" class="node">
<title>temp2c</title>
<ellipse fill="none" stroke="none" cx="315" cy="-96.5" rx="1.8" ry="1.8"/>
</g>
<!-- temp2b&#45;&gt;temp2c -->
<g id="edge3" class="edge">
<title>temp2b&#45;&gt;temp2c</title>
<path fill="none" stroke="black" d="M228.2,-96.5C238.2,-96.5 279.86,-96.5 301.62,-96.5"/>
<polygon fill="black" stroke="black" points="301.36,-100 311.36,-96.5 301.36,-93 301.36,-100"/>
<text text-anchor="middle" x="270.5" y="-102.7" font-family="Times,serif" font-size="14.00" fill="#fffffe" fill-opacity="0.000000">wwwwwww</text>
</g>
<!-- result -->
<g id="node8" class="node">
<title>result</title>
<text text-anchor="middle" x="362" y="-91.45" font-family="Times,serif" font-size="14.00">$</text>
</g>
<!-- resultroot -->
<g id="node9" class="node">
<title>resultroot</title>
<text text-anchor="middle" x="362" y="-12.95" font-family="Times,serif" font-size="14.00">a</text>
</g>
<!-- result&#45;&gt;resultroot -->
<g id="edge4" class="edge">
<title>result&#45;&gt;resultroot</title>
<path fill="none" stroke="black" d="M362,-67.28C362,-56.75 362,-45.13 362,-35.93"/>
<polygon fill="black" stroke="black" points="358.5,-67.01 362,-77.01 365.5,-67.01 358.5,-67.01"/>
</g>
</g>
</svg>
