<?xml version="1.0" encoding="UTF-8" standalone="no"?>
<!DOCTYPE svg PUBLIC "-//W3C//DTD SVG 1.1//EN"
 "http://www.w3.org/Graphics/SVG/1.1/DTD/svg11.dtd">
<!-- Generated by graphviz version 3.0.0 (20220226.1711)
 -->
<!-- Pages: 1 -->
<svg width="661pt" height="155pt"
 viewBox="0.00 0.00 660.99 155.00" xmlns="http://www.w3.org/2000/svg" xmlns:xlink="http://www.w3.org/1999/xlink">
<g id="graph0" class="graph" transform="scale(1 1) rotate(0) translate(18 137)">
<polygon fill="white" stroke="transparent" points="-18,18 -18,-137 642.99,-137 642.99,18 -18,18"/>
<g id="clust1" class="cluster">
<title>cluster0</title>
<polygon fill="none" stroke="transparent" points="93.99,-8 93.99,-111 534.99,-111 534.99,-8 93.99,-8"/>
</g>
<!-- BasicBlockStartState -->
<g id="node1" class="node">
<title>BasicBlockStartState</title>
<g id="a_node1"><a xlink:href="../BasicBlockStartState.html" xlink:title="{BasicBlockStartState | {&lt;alt1&gt; alt 1 |&lt;alt2&gt; alt 2}}" target="_parent">
<polygon fill="none" stroke="black" points="101.99,-30 101.99,-76 286.99,-76 286.99,-30 101.99,-30"/>
<text text-anchor="middle" x="173.49" y="-49.3" font-family="CourierNew" font-size="14.00">BasicBlockStartState</text>
<polyline fill="none" stroke="black" points="244.99,-30 244.99,-76 "/>
<text text-anchor="middle" x="265.99" y="-60.8" font-family="CourierNew" font-size="14.00">alt 1</text>
<polyline fill="none" stroke="black" points="244.99,-53 286.99,-53 "/>
<text text-anchor="middle" x="265.99" y="-37.8" font-family="CourierNew" font-size="14.00">alt 2</text>
</a>
</g>
</g>
<!-- BlockEndState -->
<g id="node2" class="node">
<title>BlockEndState</title>
<g id="a_node2"><a xlink:href="../BlockEndState.html" xlink:title="\N" target="_parent">
<polygon fill="none" stroke="black" points="421.99,-31 421.99,-67 526.99,-67 526.99,-31 421.99,-31"/>
<text text-anchor="middle" x="474.49" y="-45.3" font-family="CourierNew" font-size="14.00">BlockEndState</text>
</a>
</g>
</g>
<!-- BasicBlockStartState&#45;&gt;BlockEndState -->
<g id="edge5" class="edge">
<title>BasicBlockStartState:alt2&#45;&gt;BlockEndState</title>
<path fill="none" stroke="black" d="M286.99,-41C330.56,-41 341.47,-41.08 384.99,-43 393.51,-43.38 402.48,-43.87 411.31,-44.41"/>
<polygon fill="black" stroke="black" points="411.37,-47.92 421.57,-45.07 411.82,-40.94 411.37,-47.92"/>
<text text-anchor="middle" x="357.99" y="-46.8" font-family="CourierNew" font-size="14.00">ε</text>
</g>
<!-- content -->
<g id="node3" class="node">
<title>content</title>
<ellipse fill="none" stroke="black" stroke-dasharray="5,2" cx="357.99" cy="-85" rx="27" ry="18"/>
<text text-anchor="middle" x="357.99" y="-81.3" font-family="CourierNew" font-size="14.00">alt</text>
</g>
<!-- BasicBlockStartState&#45;&gt;content -->
<g id="edge3" class="edge">
<title>BasicBlockStartState:alt1&#45;&gt;content</title>
<path fill="none" stroke="black" d="M286.99,-65C299.93,-65 313.71,-68.2 325.59,-72.03"/>
<polygon fill="black" stroke="black" points="324.47,-75.35 335.07,-75.35 326.79,-68.74 324.47,-75.35"/>
<text text-anchor="middle" x="308.99" y="-71.8" font-family="CourierNew" font-size="14.00">ε</text>
</g>
<!-- end -->
<g id="node5" class="node">
<title>end</title>
<ellipse fill="none" stroke="black" stroke-dasharray="5,2" cx="597.99" cy="-49" rx="27" ry="18"/>
<text text-anchor="middle" x="597.99" y="-45.3" font-family="CourierNew" font-size="14.00">end</text>
</g>
<!-- BlockEndState&#45;&gt;end -->
<g id="edge2" class="edge">
<title>BlockEndState&#45;&gt;end</title>
<path fill="none" stroke="black" d="M527.02,-49C538.37,-49 550.16,-49 560.76,-49"/>
<polygon fill="black" stroke="black" points="560.89,-52.5 570.89,-49 560.89,-45.5 560.89,-52.5"/>
<text text-anchor="middle" x="548.99" y="-52.8" font-family="CourierNew" font-size="14.00">ε</text>
</g>
<!-- content&#45;&gt;BlockEndState -->
<g id="edge4" class="edge">
<title>content&#45;&gt;BlockEndState</title>
<path fill="none" stroke="black" stroke-dasharray="5,2" d="M382.72,-77.54C391.44,-74.8 401.78,-71.55 412.29,-68.24"/>
<polygon fill="black" stroke="black" points="413.46,-71.55 421.95,-65.21 411.36,-64.87 413.46,-71.55"/>
</g>
<!-- begin -->
<g id="node4" class="node">
<title>begin</title>
<ellipse fill="none" stroke="black" stroke-dasharray="5,2" cx="32.5" cy="-53" rx="32.49" ry="18"/>
<text text-anchor="middle" x="32.5" y="-49.3" font-family="CourierNew" font-size="14.00">begin</text>
</g>
<!-- begin&#45;&gt;BasicBlockStartState -->
<g id="edge1" class="edge">
<title>begin&#45;&gt;BasicBlockStartState</title>
<path fill="none" stroke="black" stroke-dasharray="5,2" d="M65.11,-53C73.15,-53 82.24,-53 91.77,-53"/>
<polygon fill="black" stroke="black" points="91.85,-56.5 101.85,-53 91.85,-49.5 91.85,-56.5"/>
</g>
</g>
</svg>
