<?xml version="1.0" encoding="UTF-8" standalone="no"?>
<!DOCTYPE svg PUBLIC "-//W3C//DTD SVG 1.1//EN"
 "http://www.w3.org/Graphics/SVG/1.1/DTD/svg11.dtd">
<!-- Generated by graphviz version 2.38.0 (20140413.2041)
 -->
<!-- Pages: 1 -->
<svg width="686pt" height="156pt"
 viewBox="0.00 0.00 686.43 156.00" xmlns="http://www.w3.org/2000/svg" xmlns:xlink="http://www.w3.org/1999/xlink">
<g id="graph0" class="graph" transform="scale(1 1) rotate(0) translate(18 138)">
<polygon fill="white" stroke="none" points="-18,18 -18,-138 668.427,-138 668.427,18 -18,18"/>
<g id="clust1" class="cluster"><title>cluster0</title>
<polygon fill="none" stroke="none" points="102.774,-8 102.774,-112 559.589,-112 559.589,-8 102.774,-8"/>
</g>
<!-- BasicBlockStartState -->
<g id="node1" class="node"><title>BasicBlockStartState</title>
<g id="a_node1"><a xlink:href="../BasicBlockStartState.html" xlink:title="{BasicBlockStartState | {&lt;alt1&gt; alt 1 |&lt;alt2&gt; alt 2}}" target="_parent">
<polygon fill="none" stroke="black" points="110.774,-43.5117 110.774,-92.4883 307.513,-92.4883 307.513,-43.5117 110.774,-43.5117"/>
<text text-anchor="middle" x="185.995" y="-65.0441" font-family="CourierNew" font-size="14.00">BasicBlockStartState</text>
<polyline fill="none" stroke="black" points="261.216,-43.5117 261.216,-92.4883 "/>
<text text-anchor="middle" x="284.365" y="-77.2883" font-family="CourierNew" font-size="14.00">alt 1</text>
<polyline fill="none" stroke="black" points="261.216,-68 307.513,-68 "/>
<text text-anchor="middle" x="284.365" y="-52.8" font-family="CourierNew" font-size="14.00">alt 2</text>
</a>
</g>
</g>
<!-- BlockEndState -->
<g id="node2" class="node"><title>BlockEndState</title>
<g id="a_node2"><a xlink:href="../BlockEndState.html" xlink:title="\N" target="_parent">
<polygon fill="none" stroke="black" points="441.007,-42 441.007,-78 551.589,-78 551.589,-42 441.007,-42"/>
<text text-anchor="middle" x="496.298" y="-57.3" font-family="CourierNew" font-size="14.00">BlockEndState</text>
</a>
</g>
</g>
<!-- BasicBlockStartState&#45;&gt;BlockEndState -->
<g id="edge5" class="edge"><title>BasicBlockStartState:alt1&#45;&gt;BlockEndState</title>
<path fill="none" stroke="black" d="M307.513,-80C348.72,-80 394.728,-75.1793 430.891,-70.2714"/>
<polygon fill="black" stroke="black" points="431.396,-73.735 440.817,-68.8888 430.43,-66.8019 431.396,-73.735"/>
<text text-anchor="middle" x="377.007" y="-83.2883" font-family="CourierNew" font-size="14.00">ε</text>
</g>
<!-- content -->
<g id="node3" class="node"><title>content</title>
<ellipse fill="none" stroke="black" stroke-dasharray="5,2" cx="377.007" cy="-34" rx="27" ry="18"/>
<text text-anchor="middle" x="377.007" y="-31.0441" font-family="CourierNew" font-size="14.00">alt</text>
</g>
<!-- BasicBlockStartState&#45;&gt;content -->
<g id="edge3" class="edge"><title>BasicBlockStartState:alt2&#45;&gt;content</title>
<path fill="none" stroke="black" d="M307.513,-56C320.264,-56 333.739,-52.501 345.331,-48.2939"/>
<polygon fill="black" stroke="black" points="346.956,-51.4154 354.969,-44.4845 344.383,-44.9055 346.956,-51.4154"/>
<text text-anchor="middle" x="328.76" y="-59.2883" font-family="CourierNew" font-size="14.00">ε</text>
</g>
<!-- end -->
<g id="node5" class="node"><title>end</title>
<ellipse fill="none" stroke="black" stroke-dasharray="5,2" cx="622.255" cy="-60" rx="28.3447" ry="18"/>
<text text-anchor="middle" x="622.255" y="-57.0441" font-family="CourierNew" font-size="14.00">end</text>
</g>
<!-- BlockEndState&#45;&gt;end -->
<g id="edge2" class="edge"><title>BlockEndState&#45;&gt;end</title>
<path fill="none" stroke="black" d="M551.668,-60C562.482,-60 573.611,-60 583.709,-60"/>
<polygon fill="black" stroke="black" points="583.803,-63.5001 593.803,-60 583.803,-56.5001 583.803,-63.5001"/>
<text text-anchor="middle" x="572.836" y="-65.2883" font-family="CourierNew" font-size="14.00">ε</text>
</g>
<!-- content&#45;&gt;BlockEndState -->
<g id="edge4" class="edge"><title>content&#45;&gt;BlockEndState</title>
<path fill="none" stroke="black" stroke-dasharray="5,2" d="M402.882,-39.5139C411.153,-41.3474 420.784,-43.4823 430.643,-45.6679"/>
<polygon fill="black" stroke="black" points="430.017,-49.1139 440.538,-47.8611 431.532,-42.2798 430.017,-49.1139"/>
</g>
<!-- begin -->
<g id="node4" class="node"><title>begin</title>
<ellipse fill="none" stroke="black" stroke-dasharray="5,2" cx="36.8869" cy="-68" rx="36.7742" ry="18"/>
<text text-anchor="middle" x="36.8869" y="-65.0441" font-family="CourierNew" font-size="14.00">begin</text>
</g>
<!-- begin&#45;&gt;BasicBlockStartState -->
<g id="edge1" class="edge"><title>begin&#45;&gt;BasicBlockStartState</title>
<path fill="none" stroke="black" stroke-dasharray="5,2" d="M73.994,-68C82.0226,-68 90.9336,-68 100.236,-68"/>
<polygon fill="black" stroke="black" points="100.461,-71.5001 110.461,-68 100.461,-64.5001 100.461,-71.5001"/>
</g>
</g>
</svg>
