<?xml version="1.0" encoding="UTF-8" standalone="no"?>
<!DOCTYPE svg PUBLIC "-//W3C//DTD SVG 1.1//EN"
 "http://www.w3.org/Graphics/SVG/1.1/DTD/svg11.dtd">
<!-- Generated by graphviz version 7.1.0 (20230121.1956)
 -->
<!-- Pages: 1 -->
<svg width="661pt" height="155pt"
 viewBox="0.00 0.00 660.99 155.00" xmlns="http://www.w3.org/2000/svg" xmlns:xlink="http://www.w3.org/1999/xlink">
<g id="graph0" class="graph" transform="scale(1 1) rotate(0) translate(18 137)">
<polygon fill="white" stroke="none" points="-18,18 -18,-137 642.99,-137 642.99,18 -18,18"/>
<g id="clust1" class="cluster">
<title>cluster0</title>
<polygon fill="none" stroke="none" points="93.99,-8 93.99,-111 534.99,-111 534.99,-8 93.99,-8"/>
</g>
<!-- BasicBlockStartState -->
<g id="node1" class="node">
<title>BasicBlockStartState</title>
<g id="a_node1"><a xlink:href="../BasicBlockStartState.html" xlink:title="{BasicBlockStartState | {&lt;alt1&gt; alt 1 |&lt;alt2&gt; alt 2}}" target="_parent">
<polygon fill="none" stroke="black" points="101.99,-45 101.99,-91 286.99,-91 286.99,-45 101.99,-45"/>
<text text-anchor="middle" x="173.49" y="-64.3" font-family="CourierNew" font-size="14.00">BasicBlockStartState</text>
<polyline fill="none" stroke="black" points="244.99,-45 244.99,-91"/>
<text text-anchor="middle" x="265.99" y="-75.8" font-family="CourierNew" font-size="14.00">alt 1</text>
<polyline fill="none" stroke="black" points="244.99,-68 286.99,-68"/>
<text text-anchor="middle" x="265.99" y="-52.8" font-family="CourierNew" font-size="14.00">alt 2</text>
</a>
</g>
</g>
<!-- BlockEndState -->
<g id="node2" class="node">
<title>BlockEndState</title>
<g id="a_node2"><a xlink:href="../BlockEndState.html" xlink:title="\N" target="_parent">
<polygon fill="none" stroke="black" points="421.99,-42 421.99,-78 526.99,-78 526.99,-42 421.99,-42"/>
<text text-anchor="middle" x="474.49" y="-56.3" font-family="CourierNew" font-size="14.00">BlockEndState</text>
</a>
</g>
</g>
<!-- BasicBlockStartState&#45;&gt;BlockEndState -->
<g id="edge5" class="edge">
<title>BasicBlockStartState:alt1&#45;&gt;BlockEndState</title>
<path fill="none" stroke="black" d="M286.99,-80C328.43,-80 374.74,-75.06 410.85,-70.09"/>
<polygon fill="black" stroke="black" points="411.29,-73.56 420.7,-68.69 410.31,-66.63 411.29,-73.56"/>
<text text-anchor="middle" x="357.99" y="-81.8" font-family="CourierNew" font-size="14.00">ε</text>
</g>
<!-- content -->
<g id="node3" class="node">
<title>content</title>
<ellipse fill="none" stroke="black" stroke-dasharray="5,2" cx="357.99" cy="-34" rx="27" ry="18"/>
<text text-anchor="middle" x="357.99" y="-30.3" font-family="CourierNew" font-size="14.00">alt</text>
</g>
<!-- BasicBlockStartState&#45;&gt;content -->
<g id="edge3" class="edge">
<title>BasicBlockStartState:alt2&#45;&gt;content</title>
<path fill="none" stroke="black" d="M286.99,-56C299.74,-56 313.21,-52.64 324.9,-48.55"/>
<polygon fill="black" stroke="black" points="325.98,-51.88 334.06,-45.03 323.47,-45.35 325.98,-51.88"/>
<text text-anchor="middle" x="308.99" y="-56.8" font-family="CourierNew" font-size="14.00">ε</text>
</g>
<!-- end -->
<g id="node5" class="node">
<title>end</title>
<ellipse fill="none" stroke="black" stroke-dasharray="5,2" cx="597.99" cy="-60" rx="27" ry="18"/>
<text text-anchor="middle" x="597.99" y="-56.3" font-family="CourierNew" font-size="14.00">end</text>
</g>
<!-- BlockEndState&#45;&gt;end -->
<g id="edge2" class="edge">
<title>BlockEndState&#45;&gt;end</title>
<path fill="none" stroke="black" d="M526.67,-60C537.7,-60 549.15,-60 559.54,-60"/>
<polygon fill="black" stroke="black" points="559.22,-63.5 569.22,-60 559.22,-56.5 559.22,-63.5"/>
<text text-anchor="middle" x="548.99" y="-63.8" font-family="CourierNew" font-size="14.00">ε</text>
</g>
<!-- content&#45;&gt;BlockEndState -->
<g id="edge4" class="edge">
<title>content&#45;&gt;BlockEndState</title>
<path fill="none" stroke="black" stroke-dasharray="5,2" d="M384.12,-39.71C392.17,-41.53 401.46,-43.64 410.95,-45.8"/>
<polygon fill="black" stroke="black" points="410.11,-49.2 420.64,-48 411.66,-42.37 410.11,-49.2"/>
</g>
<!-- begin -->
<g id="node4" class="node">
<title>begin</title>
<ellipse fill="none" stroke="black" stroke-dasharray="5,2" cx="32.5" cy="-68" rx="32.49" ry="18"/>
<text text-anchor="middle" x="32.5" y="-64.3" font-family="CourierNew" font-size="14.00">begin</text>
</g>
<!-- begin&#45;&gt;BasicBlockStartState -->
<g id="edge1" class="edge">
<title>begin&#45;&gt;BasicBlockStartState</title>
<path fill="none" stroke="black" stroke-dasharray="5,2" d="M65.49,-68C73.21,-68 81.87,-68 90.95,-68"/>
<polygon fill="black" stroke="black" points="90.69,-71.5 100.69,-68 90.69,-64.5 90.69,-71.5"/>
</g>
</g>
</svg>
