<?xml version="1.0" encoding="UTF-8" standalone="no"?>
<!DOCTYPE svg PUBLIC "-//W3C//DTD SVG 1.1//EN"
 "http://www.w3.org/Graphics/SVG/1.1/DTD/svg11.dtd">
<!-- Generated by graphviz version 8.0.5 (20230430.1635)
 -->
<!-- Pages: 1 -->
<svg width="657pt" height="155pt"
 viewBox="0.00 0.00 656.69 155.00" xmlns="http://www.w3.org/2000/svg" xmlns:xlink="http://www.w3.org/1999/xlink">
<g id="graph0" class="graph" transform="scale(1 1) rotate(0) translate(18 137)">
<polygon fill="white" stroke="none" points="-18,18 -18,-137 638.69,-137 638.69,18 -18,18"/>
<g id="clust1" class="cluster">
<title>cluster0</title>
<polygon fill="none" stroke="none" points="92.69,-8 92.69,-111 531.19,-111 531.19,-8 92.69,-8"/>
</g>
<!-- BasicBlockStartState -->
<g id="node1" class="node">
<title>BasicBlockStartState</title>
<g id="a_node1"><a xlink:href="../BasicBlockStartState.html" xlink:title="{BasicBlockStartState | {&lt;alt1&gt; alt 1 |&lt;alt2&gt; alt 2}}" target="_parent">
<polygon fill="none" stroke="black" points="100.69,-45 100.69,-91 284.19,-91 284.19,-45 100.69,-45"/>
<text text-anchor="middle" x="171.69" y="-62.2" font-family="CourierNew" font-size="14.00">BasicBlockStartState</text>
<polyline fill="none" stroke="black" points="242.69,-45 242.69,-91"/>
<text text-anchor="middle" x="263.44" y="-73.7" font-family="CourierNew" font-size="14.00">alt 1</text>
<polyline fill="none" stroke="black" points="242.69,-68 284.19,-68"/>
<text text-anchor="middle" x="263.44" y="-50.7" font-family="CourierNew" font-size="14.00">alt 2</text>
</a>
</g>
</g>
<!-- BlockEndState -->
<g id="node2" class="node">
<title>BlockEndState</title>
<g id="a_node2"><a xlink:href="../BlockEndState.html" xlink:title="\N" target="_parent">
<polygon fill="none" stroke="black" points="418.69,-42 418.69,-78 523.19,-78 523.19,-42 418.69,-42"/>
<text text-anchor="middle" x="470.94" y="-54.2" font-family="CourierNew" font-size="14.00">BlockEndState</text>
</a>
</g>
</g>
<!-- BasicBlockStartState&#45;&gt;BlockEndState -->
<g id="edge5" class="edge">
<title>BasicBlockStartState:alt1&#45;&gt;BlockEndState</title>
<path fill="none" stroke="black" d="M284.19,-80C325.64,-80 371.99,-75.02 408.02,-70.03"/>
<polygon fill="black" stroke="black" points="408.45,-73.36 417.86,-68.48 407.46,-66.43 408.45,-73.36"/>
<text text-anchor="middle" x="354.69" y="-79.7" font-family="CourierNew" font-size="14.00">ε</text>
</g>
<!-- content -->
<g id="node3" class="node">
<title>content</title>
<ellipse fill="none" stroke="black" stroke-dasharray="5,2" cx="354.69" cy="-34" rx="27" ry="18"/>
<text text-anchor="middle" x="354.69" y="-28.2" font-family="CourierNew" font-size="14.00">alt</text>
</g>
<!-- BasicBlockStartState&#45;&gt;content -->
<g id="edge3" class="edge">
<title>BasicBlockStartState:alt2&#45;&gt;content</title>
<path fill="none" stroke="black" d="M284.19,-56C296.98,-56 310.51,-52.57 322.19,-48.42"/>
<polygon fill="black" stroke="black" points="323.28,-51.37 331.33,-44.48 320.74,-44.84 323.28,-51.37"/>
<text text-anchor="middle" x="305.94" y="-54.7" font-family="CourierNew" font-size="14.00">ε</text>
</g>
<!-- end -->
<g id="node5" class="node">
<title>end</title>
<ellipse fill="none" stroke="black" stroke-dasharray="5,2" cx="593.69" cy="-60" rx="27" ry="18"/>
<text text-anchor="middle" x="593.69" y="-54.2" font-family="CourierNew" font-size="14.00">end</text>
</g>
<!-- BlockEndState&#45;&gt;end -->
<g id="edge2" class="edge">
<title>BlockEndState&#45;&gt;end</title>
<path fill="none" stroke="black" d="M523.15,-60C534.1,-60 545.47,-60 555.76,-60"/>
<polygon fill="black" stroke="black" points="555.43,-63.5 565.43,-60 555.43,-56.5 555.43,-63.5"/>
<text text-anchor="middle" x="544.94" y="-61.7" font-family="CourierNew" font-size="14.00">ε</text>
</g>
<!-- content&#45;&gt;BlockEndState -->
<g id="edge4" class="edge">
<title>content&#45;&gt;BlockEndState</title>
<path fill="none" stroke="black" stroke-dasharray="5,2" d="M380.77,-39.71C389.06,-41.59 398.69,-43.79 408.5,-46.02"/>
<polygon fill="black" stroke="black" points="407.62,-49.63 418.14,-48.44 409.17,-42.81 407.62,-49.63"/>
</g>
<!-- begin -->
<g id="node4" class="node">
<title>begin</title>
<ellipse fill="none" stroke="black" stroke-dasharray="5,2" cx="31.85" cy="-68" rx="31.85" ry="18"/>
<text text-anchor="middle" x="31.85" y="-62.2" font-family="CourierNew" font-size="14.00">begin</text>
</g>
<!-- begin&#45;&gt;BasicBlockStartState -->
<g id="edge1" class="edge">
<title>begin&#45;&gt;BasicBlockStartState</title>
<path fill="none" stroke="black" stroke-dasharray="5,2" d="M64.18,-68C71.97,-68 80.74,-68 89.95,-68"/>
<polygon fill="black" stroke="black" points="89.93,-71.5 99.93,-68 89.93,-64.5 89.93,-71.5"/>
</g>
</g>
</svg>
