<?xml version="1.0" encoding="UTF-8" standalone="no"?>
<!DOCTYPE svg PUBLIC "-//W3C//DTD SVG 1.1//EN"
 "http://www.w3.org/Graphics/SVG/1.1/DTD/svg11.dtd">
<!-- Generated by graphviz version 5.0.0 (20220707.1540)
 -->
<!-- Pages: 1 -->
<svg width="661pt" height="155pt"
 viewBox="0.00 0.00 660.99 155.00" xmlns="http://www.w3.org/2000/svg" xmlns:xlink="http://www.w3.org/1999/xlink">
<g id="graph0" class="graph" transform="scale(1 1) rotate(0) translate(18 137)">
<polygon fill="white" stroke="transparent" points="-18,18 -18,-137 642.99,-137 642.99,18 -18,18"/>
<g id="clust1" class="cluster">
<title>cluster0</title>
<polygon fill="none" stroke="transparent" points="93.99,-8 93.99,-111 534.99,-111 534.99,-8 93.99,-8"/>
</g>
<!-- BasicBlockStartState -->
<g id="node1" class="node">
<title>BasicBlockStartState</title>
<g id="a_node1"><a xlink:href="../BasicBlockStartState.html" xlink:title="{BasicBlockStartState | {&lt;alt1&gt; alt 1 |&lt;alt2&gt; alt 2}}" target="_parent">
<polygon fill="none" stroke="black" points="101.99,-45 101.99,-91 286.99,-91 286.99,-45 101.99,-45"/>
<text text-anchor="middle" x="173.49" y="-64.3" font-family="CourierNew" font-size="14.00">BasicBlockStartState</text>
<polyline fill="none" stroke="black" points="244.99,-45 244.99,-91 "/>
<text text-anchor="middle" x="265.99" y="-75.8" font-family="CourierNew" font-size="14.00">alt 1</text>
<polyline fill="none" stroke="black" points="244.99,-68 286.99,-68 "/>
<text text-anchor="middle" x="265.99" y="-52.8" font-family="CourierNew" font-size="14.00">alt 2</text>
</a>
</g>
</g>
<!-- BlockEndState -->
<g id="node2" class="node">
<title>BlockEndState</title>
<g id="a_node2"><a xlink:href="../BlockEndState.html" xlink:title="\N" target="_parent">
<polygon fill="none" stroke="black" points="421.99,-42 421.99,-78 526.99,-78 526.99,-42 421.99,-42"/>
<text text-anchor="middle" x="474.49" y="-56.3" font-family="CourierNew" font-size="14.00">BlockEndState</text>
</a>
</g>
</g>
<!-- BasicBlockStartState&#45;&gt;BlockEndState -->
<g id="edge5" class="edge">
<title>BasicBlockStartState:alt1&#45;&gt;BlockEndState</title>
<path fill="none" stroke="black" d="M286.99,-80C328.81,-80 375.61,-74.97 411.87,-69.95"/>
<polygon fill="black" stroke="black" points="412.39,-73.41 421.8,-68.54 411.41,-66.48 412.39,-73.41"/>
<text text-anchor="middle" x="357.99" y="-81.8" font-family="CourierNew" font-size="14.00">ε</text>
</g>
<!-- content -->
<g id="node3" class="node">
<title>content</title>
<ellipse fill="none" stroke="black" stroke-dasharray="5,2" cx="357.99" cy="-34" rx="27" ry="18"/>
<text text-anchor="middle" x="357.99" y="-30.3" font-family="CourierNew" font-size="14.00">alt</text>
</g>
<!-- BasicBlockStartState&#45;&gt;content -->
<g id="edge3" class="edge">
<title>BasicBlockStartState:alt2&#45;&gt;content</title>
<path fill="none" stroke="black" d="M286.99,-56C300.23,-56 314.25,-52.38 326.25,-48.07"/>
<polygon fill="black" stroke="black" points="327.73,-51.25 335.78,-44.36 325.19,-44.72 327.73,-51.25"/>
<text text-anchor="middle" x="308.99" y="-56.8" font-family="CourierNew" font-size="14.00">ε</text>
</g>
<!-- end -->
<g id="node5" class="node">
<title>end</title>
<ellipse fill="none" stroke="black" stroke-dasharray="5,2" cx="597.99" cy="-60" rx="27" ry="18"/>
<text text-anchor="middle" x="597.99" y="-56.3" font-family="CourierNew" font-size="14.00">end</text>
</g>
<!-- BlockEndState&#45;&gt;end -->
<g id="edge2" class="edge">
<title>BlockEndState&#45;&gt;end</title>
<path fill="none" stroke="black" d="M527.02,-60C538.37,-60 550.16,-60 560.76,-60"/>
<polygon fill="black" stroke="black" points="560.89,-63.5 570.89,-60 560.89,-56.5 560.89,-63.5"/>
<text text-anchor="middle" x="548.99" y="-63.8" font-family="CourierNew" font-size="14.00">ε</text>
</g>
<!-- content&#45;&gt;BlockEndState -->
<g id="edge4" class="edge">
<title>content&#45;&gt;BlockEndState</title>
<path fill="none" stroke="black" stroke-dasharray="5,2" d="M383.84,-39.64C392.22,-41.55 401.99,-43.76 411.94,-46.02"/>
<polygon fill="black" stroke="black" points="411.37,-49.48 421.89,-48.28 412.92,-42.66 411.37,-49.48"/>
</g>
<!-- begin -->
<g id="node4" class="node">
<title>begin</title>
<ellipse fill="none" stroke="black" stroke-dasharray="5,2" cx="32.5" cy="-68" rx="32.49" ry="18"/>
<text text-anchor="middle" x="32.5" y="-64.3" font-family="CourierNew" font-size="14.00">begin</text>
</g>
<!-- begin&#45;&gt;BasicBlockStartState -->
<g id="edge1" class="edge">
<title>begin&#45;&gt;BasicBlockStartState</title>
<path fill="none" stroke="black" stroke-dasharray="5,2" d="M65.11,-68C73.15,-68 82.24,-68 91.77,-68"/>
<polygon fill="black" stroke="black" points="91.85,-71.5 101.85,-68 91.85,-64.5 91.85,-71.5"/>
</g>
</g>
</svg>
