<?xml version="1.0" encoding="UTF-8" standalone="no"?>
<!DOCTYPE svg PUBLIC "-//W3C//DTD SVG 1.1//EN"
 "http://www.w3.org/Graphics/SVG/1.1/DTD/svg11.dtd">
<!-- Generated by graphviz version 2.38.0 (20140413.2041)
 -->
<!-- Pages: 1 -->
<svg width="686pt" height="156pt"
 viewBox="0.00 0.00 686.43 156.00" xmlns="http://www.w3.org/2000/svg" xmlns:xlink="http://www.w3.org/1999/xlink">
<g id="graph0" class="graph" transform="scale(1 1) rotate(0) translate(18 138)">
<polygon fill="white" stroke="none" points="-18,18 -18,-138 668.427,-138 668.427,18 -18,18"/>
<g id="clust1" class="cluster"><title>cluster0</title>
<polygon fill="none" stroke="none" points="102.774,-8 102.774,-112 559.589,-112 559.589,-8 102.774,-8"/>
</g>
<!-- BasicBlockStartState -->
<g id="node1" class="node"><title>BasicBlockStartState</title>
<g id="a_node1"><a xlink:href="../BasicBlockStartState.html" xlink:title="{BasicBlockStartState | {&lt;alt1&gt; alt 1 |&lt;alt2&gt; alt 2}}" target="_parent">
<polygon fill="none" stroke="black" points="110.774,-28.5117 110.774,-77.4883 307.513,-77.4883 307.513,-28.5117 110.774,-28.5117"/>
<text text-anchor="middle" x="185.995" y="-50.0441" font-family="CourierNew" font-size="14.00">BasicBlockStartState</text>
<polyline fill="none" stroke="black" points="261.216,-28.5117 261.216,-77.4883 "/>
<text text-anchor="middle" x="284.365" y="-62.2883" font-family="CourierNew" font-size="14.00">alt 1</text>
<polyline fill="none" stroke="black" points="261.216,-53 307.513,-53 "/>
<text text-anchor="middle" x="284.365" y="-37.8" font-family="CourierNew" font-size="14.00">alt 2</text>
</a>
</g>
</g>
<!-- BlockEndState -->
<g id="node2" class="node"><title>BlockEndState</title>
<g id="a_node2"><a xlink:href="../BlockEndState.html" xlink:title="\N" target="_parent">
<polygon fill="none" stroke="black" points="441.007,-31 441.007,-67 551.589,-67 551.589,-31 441.007,-31"/>
<text text-anchor="middle" x="496.298" y="-46.3" font-family="CourierNew" font-size="14.00">BlockEndState</text>
</a>
</g>
</g>
<!-- BasicBlockStartState&#45;&gt;BlockEndState -->
<g id="edge5" class="edge"><title>BasicBlockStartState:alt2&#45;&gt;BlockEndState</title>
<path fill="none" stroke="black" d="M307.513,-41C350.405,-41 361.156,-40.6547 404.007,-42.5117 412.658,-42.8866 421.761,-43.3958 430.734,-43.9653"/>
<polygon fill="black" stroke="black" points="430.568,-47.4619 440.778,-44.6298 431.03,-40.4772 430.568,-47.4619"/>
<text text-anchor="middle" x="377.007" y="-47.2883" font-family="CourierNew" font-size="14.00">ε</text>
</g>
<!-- content -->
<g id="node3" class="node"><title>content</title>
<ellipse fill="none" stroke="black" stroke-dasharray="5,2" cx="377.007" cy="-86" rx="27" ry="18"/>
<text text-anchor="middle" x="377.007" y="-83.0441" font-family="CourierNew" font-size="14.00">alt</text>
</g>
<!-- BasicBlockStartState&#45;&gt;content -->
<g id="edge3" class="edge"><title>BasicBlockStartState:alt1&#45;&gt;content</title>
<path fill="none" stroke="black" d="M307.513,-65C320.115,-65 333.471,-68.2895 345.01,-72.2647"/>
<polygon fill="black" stroke="black" points="344.026,-75.6336 354.618,-75.8691 346.484,-69.0796 344.026,-75.6336"/>
<text text-anchor="middle" x="328.76" y="-73.2883" font-family="CourierNew" font-size="14.00">ε</text>
</g>
<!-- end -->
<g id="node5" class="node"><title>end</title>
<ellipse fill="none" stroke="black" stroke-dasharray="5,2" cx="622.255" cy="-49" rx="28.3447" ry="18"/>
<text text-anchor="middle" x="622.255" y="-46.0441" font-family="CourierNew" font-size="14.00">end</text>
</g>
<!-- BlockEndState&#45;&gt;end -->
<g id="edge2" class="edge"><title>BlockEndState&#45;&gt;end</title>
<path fill="none" stroke="black" d="M551.668,-49C562.482,-49 573.611,-49 583.709,-49"/>
<polygon fill="black" stroke="black" points="583.803,-52.5001 593.803,-49 583.803,-45.5001 583.803,-52.5001"/>
<text text-anchor="middle" x="572.836" y="-54.2883" font-family="CourierNew" font-size="14.00">ε</text>
</g>
<!-- content&#45;&gt;BlockEndState -->
<g id="edge4" class="edge"><title>content&#45;&gt;BlockEndState</title>
<path fill="none" stroke="black" stroke-dasharray="5,2" d="M401.743,-78.5125C410.353,-75.7964 420.541,-72.5824 430.972,-69.2921"/>
<polygon fill="black" stroke="black" points="432.097,-72.6074 440.58,-66.261 429.991,-65.9316 432.097,-72.6074"/>
</g>
<!-- begin -->
<g id="node4" class="node"><title>begin</title>
<ellipse fill="none" stroke="black" stroke-dasharray="5,2" cx="36.8869" cy="-53" rx="36.7742" ry="18"/>
<text text-anchor="middle" x="36.8869" y="-50.0441" font-family="CourierNew" font-size="14.00">begin</text>
</g>
<!-- begin&#45;&gt;BasicBlockStartState -->
<g id="edge1" class="edge"><title>begin&#45;&gt;BasicBlockStartState</title>
<path fill="none" stroke="black" stroke-dasharray="5,2" d="M73.994,-53C82.0226,-53 90.9336,-53 100.236,-53"/>
<polygon fill="black" stroke="black" points="100.461,-56.5001 110.461,-53 100.461,-49.5001 100.461,-56.5001"/>
</g>
</g>
</svg>
