<?xml version="1.0" encoding="UTF-8" standalone="no"?>
<!DOCTYPE svg PUBLIC "-//W3C//DTD SVG 1.1//EN"
 "http://www.w3.org/Graphics/SVG/1.1/DTD/svg11.dtd">
<!-- Generated by graphviz version 2.30.0 (20130114.0323)
 -->
<!-- Pages: 1 -->
<svg width="784pt" height="157pt"
 viewBox="0.00 0.00 784.00 157.00" xmlns="http://www.w3.org/2000/svg" xmlns:xlink="http://www.w3.org/1999/xlink">
<g id="graph0" class="graph" transform="scale(1 1) rotate(0) translate(18 139)">
<polygon fill="white" stroke="white" points="-18,19 -18,-139 767,-139 767,19 -18,19"/>
<g id="clust1" class="cluster"><title>cluster0</title>
<polygon fill="none" stroke="none" points="110,-8 110,-113 644,-113 644,-8 110,-8"/>
</g>
<!-- BasicBlockStartState -->
<g id="node1" class="node"><title>BasicBlockStartState</title>
<g id="a_node1"><a xlink:href="../BasicBlockStartState.html" xlink:title="{BasicBlockStartState | {&lt;alt1&gt; alt 1 |&lt;alt2&gt; alt 2}}" target="_parent">
<polygon fill="none" stroke="black" points="118.018,-28.2 118.018,-77.8 359.982,-77.8 359.982,-28.2 118.018,-28.2"/>
<text text-anchor="middle" x="210.004" y="-48.8" font-family="Courier New" font-size="14.00">BasicBlockStartState</text>
<polyline fill="none" stroke="black" points="301.99,-28.2 301.99,-77.8 "/>
<text text-anchor="middle" x="330.986" y="-61.2" font-family="Courier New" font-size="14.00">alt 1</text>
<polyline fill="none" stroke="black" points="301.99,-53 359.982,-53 "/>
<text text-anchor="middle" x="330.986" y="-36.4" font-family="Courier New" font-size="14.00">alt 2</text>
</a>
</g>
</g>
<!-- content -->
<g id="node3" class="node"><title>content</title>
<ellipse fill="none" stroke="black" stroke-dasharray="5,2" cx="443" cy="-87" rx="28.3325" ry="18"/>
<text text-anchor="middle" x="443" y="-82.8" font-family="Courier New" font-size="14.00">alt</text>
</g>
<!-- BasicBlockStartState&#45;&gt;content -->
<g id="edge3" class="edge"><title>BasicBlockStartState:alt1&#45;&gt;content</title>
<path fill="none" stroke="black" d="M360,-65C376.527,-65 394.307,-69.2203 409.072,-73.9641"/>
<polygon fill="black" stroke="black" points="408.165,-77.3532 418.76,-77.2864 410.436,-70.7317 408.165,-77.3532"/>
<text text-anchor="middle" x="387" y="-73.2" font-family="Courier New" font-size="14.00">ε</text>
</g>
<!-- BlockEndState -->
<g id="node2" class="node"><title>BlockEndState</title>
<g id="a_node2"><a xlink:href="../BlockEndState.html" xlink:title="\N" target="_parent">
<polygon fill="none" stroke="black" points="510.409,-31 510.409,-67 635.591,-67 635.591,-31 510.409,-31"/>
<text text-anchor="middle" x="573" y="-44.9" font-family="Courier New" font-size="14.00">BlockEndState</text>
</a>
</g>
</g>
<!-- BasicBlockStartState&#45;&gt;BlockEndState -->
<g id="edge5" class="edge"><title>BasicBlockStartState:alt2&#45;&gt;BlockEndState</title>
<path fill="none" stroke="black" d="M360,-41C409.787,-41 422.25,-41.2693 472,-43.2 481.124,-43.5541 490.713,-44.0069 500.191,-44.5031"/>
<polygon fill="black" stroke="black" points="500.231,-48.0103 510.405,-45.0559 500.609,-41.0205 500.231,-48.0103"/>
<text text-anchor="middle" x="443" y="-47.2" font-family="Courier New" font-size="14.00">ε</text>
</g>
<!-- end -->
<g id="node5" class="node"><title>end</title>
<ellipse fill="none" stroke="black" stroke-dasharray="5,2" cx="719" cy="-49" rx="28.3325" ry="18"/>
<text text-anchor="middle" x="719" y="-44.8" font-family="Courier New" font-size="14.00">end</text>
</g>
<!-- BlockEndState&#45;&gt;end -->
<g id="edge2" class="edge"><title>BlockEndState&#45;&gt;end</title>
<path fill="none" stroke="black" d="M635.905,-49C650.942,-49 666.578,-49 680.12,-49"/>
<polygon fill="black" stroke="black" points="680.48,-52.5001 690.48,-49 680.48,-45.5001 680.48,-52.5001"/>
<text text-anchor="middle" x="663" y="-53.2" font-family="Courier New" font-size="14.00">ε</text>
</g>
<!-- content&#45;&gt;BlockEndState -->
<g id="edge4" class="edge"><title>content&#45;&gt;BlockEndState</title>
<path fill="none" stroke="black" stroke-dasharray="5,2" d="M468.984,-79.583C478.476,-76.765 489.82,-73.3973 501.455,-69.943"/>
<polygon fill="black" stroke="black" points="502.673,-73.2326 511.263,-67.0313 500.681,-66.522 502.673,-73.2326"/>
</g>
<!-- begin -->
<g id="node4" class="node"><title>begin</title>
<ellipse fill="none" stroke="black" stroke-dasharray="5,2" cx="40" cy="-53" rx="40.005" ry="18"/>
<text text-anchor="middle" x="40" y="-48.8" font-family="Courier New" font-size="14.00">begin</text>
</g>
<!-- begin&#45;&gt;BasicBlockStartState -->
<g id="edge1" class="edge"><title>begin&#45;&gt;BasicBlockStartState</title>
<path fill="none" stroke="black" stroke-dasharray="5,2" d="M80.3924,-53C88.726,-53 97.9554,-53 107.646,-53"/>
<polygon fill="black" stroke="black" points="107.893,-56.5001 117.893,-53 107.893,-49.5001 107.893,-56.5001"/>
</g>
</g>
</svg>
