<?xml version="1.0" encoding="UTF-8" standalone="no"?>
<!DOCTYPE svg PUBLIC "-//W3C//DTD SVG 1.1//EN"
 "http://www.w3.org/Graphics/SVG/1.1/DTD/svg11.dtd">
<!-- Generated by graphviz version 8.0.5 (20230430.1635)
 -->
<!-- Pages: 1 -->
<svg width="657pt" height="155pt"
 viewBox="0.00 0.00 656.69 155.00" xmlns="http://www.w3.org/2000/svg" xmlns:xlink="http://www.w3.org/1999/xlink">
<g id="graph0" class="graph" transform="scale(1 1) rotate(0) translate(18 137)">
<polygon fill="white" stroke="none" points="-18,18 -18,-137 638.69,-137 638.69,18 -18,18"/>
<g id="clust1" class="cluster">
<title>cluster0</title>
<polygon fill="none" stroke="none" points="92.69,-8 92.69,-111 531.19,-111 531.19,-8 92.69,-8"/>
</g>
<!-- BasicBlockStartState -->
<g id="node1" class="node">
<title>BasicBlockStartState</title>
<g id="a_node1"><a xlink:href="../BasicBlockStartState.html" xlink:title="{BasicBlockStartState | {&lt;alt1&gt; alt 1 |&lt;alt2&gt; alt 2}}" target="_parent">
<polygon fill="none" stroke="black" points="100.69,-30 100.69,-76 284.19,-76 284.19,-30 100.69,-30"/>
<text text-anchor="middle" x="171.69" y="-47.2" font-family="CourierNew" font-size="14.00">BasicBlockStartState</text>
<polyline fill="none" stroke="black" points="242.69,-30 242.69,-76"/>
<text text-anchor="middle" x="263.44" y="-58.7" font-family="CourierNew" font-size="14.00">alt 1</text>
<polyline fill="none" stroke="black" points="242.69,-53 284.19,-53"/>
<text text-anchor="middle" x="263.44" y="-35.7" font-family="CourierNew" font-size="14.00">alt 2</text>
</a>
</g>
</g>
<!-- BlockEndState -->
<g id="node2" class="node">
<title>BlockEndState</title>
<g id="a_node2"><a xlink:href="../BlockEndState.html" xlink:title="\N" target="_parent">
<polygon fill="none" stroke="black" points="418.69,-31 418.69,-67 523.19,-67 523.19,-31 418.69,-31"/>
<text text-anchor="middle" x="470.94" y="-43.2" font-family="CourierNew" font-size="14.00">BlockEndState</text>
</a>
</g>
</g>
<!-- BasicBlockStartState&#45;&gt;BlockEndState -->
<g id="edge5" class="edge">
<title>BasicBlockStartState:alt2&#45;&gt;BlockEndState</title>
<path fill="none" stroke="black" d="M284.19,-41C327.54,-41 338.39,-41.09 381.69,-43 390.31,-43.38 399.39,-43.88 408.32,-44.44"/>
<polygon fill="black" stroke="black" points="407.9,-47.98 418.1,-45.13 408.35,-40.99 407.9,-47.98"/>
<text text-anchor="middle" x="354.69" y="-44.7" font-family="CourierNew" font-size="14.00">ε</text>
</g>
<!-- content -->
<g id="node3" class="node">
<title>content</title>
<ellipse fill="none" stroke="black" stroke-dasharray="5,2" cx="354.69" cy="-85" rx="27" ry="18"/>
<text text-anchor="middle" x="354.69" y="-79.2" font-family="CourierNew" font-size="14.00">alt</text>
</g>
<!-- BasicBlockStartState&#45;&gt;content -->
<g id="edge3" class="edge">
<title>BasicBlockStartState:alt1&#45;&gt;content</title>
<path fill="none" stroke="black" d="M284.19,-65C296.69,-65 309.98,-68.02 321.55,-71.72"/>
<polygon fill="black" stroke="black" points="320.03,-75.24 330.62,-75.23 322.33,-68.63 320.03,-75.24"/>
<text text-anchor="middle" x="305.94" y="-69.7" font-family="CourierNew" font-size="14.00">ε</text>
</g>
<!-- end -->
<g id="node5" class="node">
<title>end</title>
<ellipse fill="none" stroke="black" stroke-dasharray="5,2" cx="593.69" cy="-49" rx="27" ry="18"/>
<text text-anchor="middle" x="593.69" y="-43.2" font-family="CourierNew" font-size="14.00">end</text>
</g>
<!-- BlockEndState&#45;&gt;end -->
<g id="edge2" class="edge">
<title>BlockEndState&#45;&gt;end</title>
<path fill="none" stroke="black" d="M523.15,-49C534.1,-49 545.47,-49 555.76,-49"/>
<polygon fill="black" stroke="black" points="555.43,-52.5 565.43,-49 555.43,-45.5 555.43,-52.5"/>
<text text-anchor="middle" x="544.94" y="-50.7" font-family="CourierNew" font-size="14.00">ε</text>
</g>
<!-- content&#45;&gt;BlockEndState -->
<g id="edge4" class="edge">
<title>content&#45;&gt;BlockEndState</title>
<path fill="none" stroke="black" stroke-dasharray="5,2" d="M379.64,-77.45C388.18,-74.76 398.24,-71.6 408.48,-68.37"/>
<polygon fill="black" stroke="black" points="409.24,-71.48 417.73,-65.14 407.14,-64.81 409.24,-71.48"/>
</g>
<!-- begin -->
<g id="node4" class="node">
<title>begin</title>
<ellipse fill="none" stroke="black" stroke-dasharray="5,2" cx="31.85" cy="-53" rx="31.85" ry="18"/>
<text text-anchor="middle" x="31.85" y="-47.2" font-family="CourierNew" font-size="14.00">begin</text>
</g>
<!-- begin&#45;&gt;BasicBlockStartState -->
<g id="edge1" class="edge">
<title>begin&#45;&gt;BasicBlockStartState</title>
<path fill="none" stroke="black" stroke-dasharray="5,2" d="M64.18,-53C71.97,-53 80.74,-53 89.95,-53"/>
<polygon fill="black" stroke="black" points="89.93,-56.5 99.93,-53 89.93,-49.5 89.93,-56.5"/>
</g>
</g>
</svg>
