<?xml version="1.0" encoding="UTF-8" standalone="no"?>
<!DOCTYPE svg PUBLIC "-//W3C//DTD SVG 1.1//EN"
 "http://www.w3.org/Graphics/SVG/1.1/DTD/svg11.dtd">
<!-- Generated by graphviz version 2.30.0 (20130114.0323)
 -->
<!-- Pages: 1 -->
<svg width="784pt" height="157pt"
 viewBox="0.00 0.00 784.00 157.00" xmlns="http://www.w3.org/2000/svg" xmlns:xlink="http://www.w3.org/1999/xlink">
<g id="graph0" class="graph" transform="scale(1 1) rotate(0) translate(18 139)">
<polygon fill="white" stroke="white" points="-18,19 -18,-139 767,-139 767,19 -18,19"/>
<g id="clust1" class="cluster"><title>cluster0</title>
<polygon fill="none" stroke="none" points="110,-8 110,-113 644,-113 644,-8 110,-8"/>
</g>
<!-- BasicBlockStartState -->
<g id="node1" class="node"><title>BasicBlockStartState</title>
<g id="a_node1"><a xlink:href="../BasicBlockStartState.html" xlink:title="{BasicBlockStartState | {&lt;alt1&gt; alt 1 |&lt;alt2&gt; alt 2}}" target="_parent">
<polygon fill="none" stroke="black" points="118.018,-43.2 118.018,-92.8 359.982,-92.8 359.982,-43.2 118.018,-43.2"/>
<text text-anchor="middle" x="210.004" y="-63.8" font-family="Courier New" font-size="14.00">BasicBlockStartState</text>
<polyline fill="none" stroke="black" points="301.99,-43.2 301.99,-92.8 "/>
<text text-anchor="middle" x="330.986" y="-76.2" font-family="Courier New" font-size="14.00">alt 1</text>
<polyline fill="none" stroke="black" points="301.99,-68 359.982,-68 "/>
<text text-anchor="middle" x="330.986" y="-51.4" font-family="Courier New" font-size="14.00">alt 2</text>
</a>
</g>
</g>
<!-- content -->
<g id="node3" class="node"><title>content</title>
<ellipse fill="none" stroke="black" stroke-dasharray="5,2" cx="443" cy="-34" rx="28.3325" ry="18"/>
<text text-anchor="middle" x="443" y="-29.8" font-family="Courier New" font-size="14.00">alt</text>
</g>
<!-- BasicBlockStartState&#45;&gt;content -->
<g id="edge3" class="edge"><title>BasicBlockStartState:alt2&#45;&gt;content</title>
<path fill="none" stroke="black" d="M360,-56C376.527,-56 394.307,-51.7797 409.072,-47.0359"/>
<polygon fill="black" stroke="black" points="410.436,-50.2683 418.76,-43.7136 408.165,-43.6468 410.436,-50.2683"/>
<text text-anchor="middle" x="387" y="-59.2" font-family="Courier New" font-size="14.00">ε</text>
</g>
<!-- BlockEndState -->
<g id="node2" class="node"><title>BlockEndState</title>
<g id="a_node2"><a xlink:href="../BlockEndState.html" xlink:title="\N" target="_parent">
<polygon fill="none" stroke="black" points="510.409,-42 510.409,-78 635.591,-78 635.591,-42 510.409,-42"/>
<text text-anchor="middle" x="573" y="-55.9" font-family="Courier New" font-size="14.00">BlockEndState</text>
</a>
</g>
</g>
<!-- BasicBlockStartState&#45;&gt;BlockEndState -->
<g id="edge5" class="edge"><title>BasicBlockStartState:alt1&#45;&gt;BlockEndState</title>
<path fill="none" stroke="black" d="M360,-80C406.691,-80 458.911,-75.1322 499.841,-70.1996"/>
<polygon fill="black" stroke="black" points="500.497,-73.6452 509.993,-68.9471 499.64,-66.6979 500.497,-73.6452"/>
<text text-anchor="middle" x="443" y="-82.2" font-family="Courier New" font-size="14.00">ε</text>
</g>
<!-- end -->
<g id="node5" class="node"><title>end</title>
<ellipse fill="none" stroke="black" stroke-dasharray="5,2" cx="719" cy="-60" rx="28.3325" ry="18"/>
<text text-anchor="middle" x="719" y="-55.8" font-family="Courier New" font-size="14.00">end</text>
</g>
<!-- BlockEndState&#45;&gt;end -->
<g id="edge2" class="edge"><title>BlockEndState&#45;&gt;end</title>
<path fill="none" stroke="black" d="M635.905,-60C650.942,-60 666.578,-60 680.12,-60"/>
<polygon fill="black" stroke="black" points="680.48,-63.5001 690.48,-60 680.48,-56.5001 680.48,-63.5001"/>
<text text-anchor="middle" x="663" y="-64.2" font-family="Courier New" font-size="14.00">ε</text>
</g>
<!-- content&#45;&gt;BlockEndState -->
<g id="edge4" class="edge"><title>content&#45;&gt;BlockEndState</title>
<path fill="none" stroke="black" stroke-dasharray="5,2" d="M470.212,-39.3242C479.115,-41.1328 489.539,-43.2502 500.257,-45.4273"/>
<polygon fill="black" stroke="black" points="499.651,-48.8756 510.148,-47.4363 501.045,-42.0156 499.651,-48.8756"/>
</g>
<!-- begin -->
<g id="node4" class="node"><title>begin</title>
<ellipse fill="none" stroke="black" stroke-dasharray="5,2" cx="40" cy="-68" rx="40.005" ry="18"/>
<text text-anchor="middle" x="40" y="-63.8" font-family="Courier New" font-size="14.00">begin</text>
</g>
<!-- begin&#45;&gt;BasicBlockStartState -->
<g id="edge1" class="edge"><title>begin&#45;&gt;BasicBlockStartState</title>
<path fill="none" stroke="black" stroke-dasharray="5,2" d="M80.3924,-68C88.726,-68 97.9554,-68 107.646,-68"/>
<polygon fill="black" stroke="black" points="107.893,-71.5001 117.893,-68 107.893,-64.5001 107.893,-71.5001"/>
</g>
</g>
</svg>
