<?xml version="1.0" encoding="UTF-8" standalone="no"?>
<!DOCTYPE svg PUBLIC "-//W3C//DTD SVG 1.1//EN"
 "http://www.w3.org/Graphics/SVG/1.1/DTD/svg11.dtd">
<!-- Generated by graphviz version 7.1.0 (20230121.1956)
 -->
<!-- Pages: 1 -->
<svg width="1027pt" height="290pt"
 viewBox="0.00 0.00 1026.59 290.16" xmlns="http://www.w3.org/2000/svg" xmlns:xlink="http://www.w3.org/1999/xlink">
<g id="graph0" class="graph" transform="scale(1 1) rotate(0) translate(18 272.16)">
<polygon fill="white" stroke="none" points="-18,18 -18,-272.16 1008.59,-272.16 1008.59,18 -18,18"/>
<g id="clust1" class="cluster">
<title>cluster0</title>
<polygon fill="none" stroke="none" points="93.99,-66.16 93.99,-246.16 900.59,-246.16 900.59,-66.16 93.99,-66.16"/>
</g>
<!-- PlusBlockStartState -->
<g id="node1" class="node">
<title>PlusBlockStartState</title>
<g id="a_node1"><a xlink:href="../PlusBlockStartState.html" xlink:title="{PlusBlockStartState | {&lt;alt1&gt; alt 1 |&lt;alt2&gt; alt 2 | &amp;#0183;\n&amp;#0183;\n&amp;#0183; |&lt;altn&gt; alt n}}" target="_parent">
<polygon fill="none" stroke="black" points="101.99,-89.16 101.99,-211.16 279.99,-211.16 279.99,-89.16 101.99,-89.16"/>
<text text-anchor="middle" x="169.99" y="-146.46" font-family="CourierNew" font-size="14.00">PlusBlockStartState</text>
<polyline fill="none" stroke="black" points="237.99,-89.16 237.99,-211.16"/>
<text text-anchor="middle" x="258.99" y="-195.96" font-family="CourierNew" font-size="14.00">alt 1</text>
<polyline fill="none" stroke="black" points="237.99,-188.16 279.99,-188.16"/>
<text text-anchor="middle" x="258.99" y="-172.96" font-family="CourierNew" font-size="14.00">alt 2</text>
<polyline fill="none" stroke="black" points="237.99,-165.16 279.99,-165.16"/>
<text text-anchor="middle" x="258.99" y="-149.96" font-family="CourierNew" font-size="14.00">·</text>
<text text-anchor="middle" x="258.99" y="-134.96" font-family="CourierNew" font-size="14.00">·</text>
<text text-anchor="middle" x="258.99" y="-119.96" font-family="CourierNew" font-size="14.00">·</text>
<polyline fill="none" stroke="black" points="237.99,-112.16 279.99,-112.16"/>
<text text-anchor="middle" x="258.99" y="-96.96" font-family="CourierNew" font-size="14.00">alt n</text>
</a>
</g>
</g>
<!-- content1 -->
<g id="node5" class="node">
<title>content1</title>
<ellipse fill="none" stroke="black" stroke-dasharray="5,2" cx="351.29" cy="-220.16" rx="27.1" ry="18"/>
<text text-anchor="middle" x="351.29" y="-216.46" font-family="CourierNew" font-size="14.00">alt 1</text>
</g>
<!-- PlusBlockStartState&#45;&gt;content1 -->
<g id="edge3" class="edge">
<title>PlusBlockStartState:alt1&#45;&gt;content1</title>
<path fill="none" stroke="black" d="M279.99,-200.16C292.49,-200.16 305.78,-203.13 317.41,-206.77"/>
<polygon fill="black" stroke="black" points="315.93,-209.96 326.52,-209.91 318.21,-203.34 315.93,-209.96"/>
<text text-anchor="middle" x="301.99" y="-206.96" font-family="CourierNew" font-size="14.00">ε</text>
</g>
<!-- content2 -->
<g id="node6" class="node">
<title>content2</title>
<ellipse fill="none" stroke="black" stroke-dasharray="5,2" cx="351.29" cy="-166.16" rx="27.1" ry="18"/>
<text text-anchor="middle" x="351.29" y="-162.46" font-family="CourierNew" font-size="14.00">alt 2</text>
</g>
<!-- PlusBlockStartState&#45;&gt;content2 -->
<g id="edge5" class="edge">
<title>PlusBlockStartState:alt2&#45;&gt;content2</title>
<path fill="none" stroke="black" d="M279.99,-177.16C288.3,-177.16 289.84,-173.75 297.99,-172.16 302.74,-171.24 307.75,-170.44 312.72,-169.75"/>
<polygon fill="black" stroke="black" points="313.1,-173.23 322.6,-168.54 312.24,-166.29 313.1,-173.23"/>
<text text-anchor="middle" x="301.99" y="-175.96" font-family="CourierNew" font-size="14.00">ε</text>
</g>
<!-- more -->
<g id="node7" class="node">
<title>more</title>
<ellipse fill="none" stroke="black" stroke-dasharray="5,2" cx="351.29" cy="-112.16" rx="27.1" ry="18"/>
<text text-anchor="middle" x="351.29" y="-108.46" font-family="CourierNew" font-size="14.00">alt n</text>
</g>
<!-- PlusBlockStartState&#45;&gt;more -->
<g id="edge7" class="edge">
<title>PlusBlockStartState:altn&#45;&gt;more</title>
<path fill="none" stroke="black" d="M279.99,-100.16C291.18,-100.16 303.22,-101.66 314.13,-103.59"/>
<polygon fill="black" stroke="black" points="313.44,-107.02 323.93,-105.52 314.79,-100.16 313.44,-107.02"/>
<text text-anchor="middle" x="301.99" y="-106.96" font-family="CourierNew" font-size="14.00">ε</text>
</g>
<!-- PlusLoopbackState -->
<g id="node2" class="node">
<title>PlusLoopbackState</title>
<g id="a_node2"><a xlink:href="../PlusLoopbackState.html" xlink:title="{PlusLoopbackState | {&lt;alt1&gt; alt 1 |&lt;alt2&gt; alt 2}}" target="_parent">
<polygon fill="none" stroke="black" points="571.59,-92.16 571.59,-138.16 746.59,-138.16 746.59,-92.16 571.59,-92.16"/>
<text text-anchor="middle" x="638.09" y="-111.46" font-family="CourierNew" font-size="14.00">PlusLoopbackState</text>
<polyline fill="none" stroke="black" points="704.59,-92.16 704.59,-138.16"/>
<text text-anchor="middle" x="725.59" y="-122.96" font-family="CourierNew" font-size="14.00">alt 1</text>
<polyline fill="none" stroke="black" points="704.59,-115.16 746.59,-115.16"/>
<text text-anchor="middle" x="725.59" y="-99.96" font-family="CourierNew" font-size="14.00">alt 2</text>
</a>
</g>
</g>
<!-- PlusLoopbackState&#45;&gt;PlusBlockStartState -->
<g id="edge10" class="edge">
<title>PlusLoopbackState:s&#45;&gt;PlusBlockStartState:s</title>
<path fill="none" stroke="black" d="M726.09,-91.16C726.09,23.92 224.93,30.43 192.63,-77.05"/>
<polygon fill="black" stroke="black" points="189.2,-76.26 191.21,-86.67 196.13,-77.28 189.2,-76.26"/>
<text text-anchor="middle" x="400.59" y="-6.96" font-family="CourierNew" font-size="14.00">ε</text>
</g>
<!-- LoopEndState -->
<g id="node4" class="node">
<title>LoopEndState</title>
<g id="a_node4"><a xlink:href="../LoopEndState.html" xlink:title="\N" target="_parent">
<polygon fill="none" stroke="black" points="790.59,-109.16 790.59,-145.16 892.59,-145.16 892.59,-109.16 790.59,-109.16"/>
<text text-anchor="middle" x="841.59" y="-123.46" font-family="CourierNew" font-size="14.00">LoopEndState</text>
</a>
</g>
</g>
<!-- PlusLoopbackState&#45;&gt;LoopEndState -->
<g id="edge11" class="edge">
<title>PlusLoopbackState:alt1&#45;&gt;LoopEndState</title>
<path fill="none" stroke="black" d="M746.59,-127.16C757.25,-127.16 768.59,-127.16 779.56,-127.16"/>
<polygon fill="black" stroke="black" points="779.32,-130.66 789.32,-127.16 779.32,-123.66 779.32,-130.66"/>
<text text-anchor="middle" x="768.59" y="-131.96" font-family="CourierNew" font-size="14.00">ε</text>
</g>
<!-- BlockEndState -->
<g id="node3" class="node">
<title>BlockEndState</title>
<g id="a_node3"><a xlink:href="../BlockEndState.html" xlink:title="\N" target="_parent">
<polygon fill="none" stroke="black" points="422.59,-130.16 422.59,-166.16 527.59,-166.16 527.59,-130.16 422.59,-130.16"/>
<text text-anchor="middle" x="475.09" y="-144.46" font-family="CourierNew" font-size="14.00">BlockEndState</text>
</a>
</g>
</g>
<!-- BlockEndState&#45;&gt;PlusLoopbackState -->
<g id="edge9" class="edge">
<title>BlockEndState&#45;&gt;PlusLoopbackState</title>
<path fill="none" stroke="black" d="M527.27,-138.88C537.79,-136.98 549.19,-134.91 560.73,-132.82"/>
<polygon fill="black" stroke="black" points="561.1,-136.31 570.32,-131.08 559.85,-129.42 561.1,-136.31"/>
<text text-anchor="middle" x="549.59" y="-138.96" font-family="CourierNew" font-size="14.00">ε</text>
</g>
<!-- end -->
<g id="node9" class="node">
<title>end</title>
<ellipse fill="none" stroke="black" stroke-dasharray="5,2" cx="963.59" cy="-127.16" rx="27" ry="18"/>
<text text-anchor="middle" x="963.59" y="-123.46" font-family="CourierNew" font-size="14.00">end</text>
</g>
<!-- LoopEndState&#45;&gt;end -->
<g id="edge2" class="edge">
<title>LoopEndState&#45;&gt;end</title>
<path fill="none" stroke="black" d="M892.44,-127.16C903.27,-127.16 914.55,-127.16 924.82,-127.16"/>
<polygon fill="black" stroke="black" points="924.82,-130.66 934.82,-127.16 924.82,-123.66 924.82,-130.66"/>
<text text-anchor="middle" x="914.59" y="-130.96" font-family="CourierNew" font-size="14.00">ε</text>
</g>
<!-- content1&#45;&gt;BlockEndState -->
<g id="edge4" class="edge">
<title>content1&#45;&gt;BlockEndState</title>
<path fill="none" stroke="black" stroke-dasharray="5,2" d="M372.4,-208.27C389.13,-198.39 413.44,-184.01 434.1,-171.8"/>
<polygon fill="black" stroke="black" points="435.77,-174.88 442.6,-166.78 432.21,-168.85 435.77,-174.88"/>
</g>
<!-- content2&#45;&gt;BlockEndState -->
<g id="edge6" class="edge">
<title>content2&#45;&gt;BlockEndState</title>
<path fill="none" stroke="black" stroke-dasharray="5,2" d="M378.12,-162.35C387.96,-160.89 399.66,-159.16 411.45,-157.42"/>
<polygon fill="black" stroke="black" points="411.83,-160.9 421.21,-155.98 410.81,-153.98 411.83,-160.9"/>
</g>
<!-- more&#45;&gt;BlockEndState -->
<g id="edge8" class="edge">
<title>more&#45;&gt;BlockEndState</title>
<path fill="none" stroke="black" stroke-dasharray="5,2" d="M376.65,-119.36C386.85,-122.38 399.22,-126.03 411.68,-129.72"/>
<polygon fill="black" stroke="black" points="410.56,-133.04 421.14,-132.51 412.55,-126.32 410.56,-133.04"/>
</g>
<!-- begin -->
<g id="node8" class="node">
<title>begin</title>
<ellipse fill="none" stroke="black" stroke-dasharray="5,2" cx="32.5" cy="-150.16" rx="32.49" ry="18"/>
<text text-anchor="middle" x="32.5" y="-146.46" font-family="CourierNew" font-size="14.00">begin</text>
</g>
<!-- begin&#45;&gt;PlusBlockStartState -->
<g id="edge1" class="edge">
<title>begin&#45;&gt;PlusBlockStartState</title>
<path fill="none" stroke="black" stroke-dasharray="5,2" d="M65.17,-150.16C72.91,-150.16 81.62,-150.16 90.73,-150.16"/>
<polygon fill="black" stroke="black" points="90.5,-153.66 100.5,-150.16 90.5,-146.66 90.5,-153.66"/>
</g>
</g>
</svg>
