<?xml version="1.0" encoding="UTF-8" standalone="no"?>
<!DOCTYPE svg PUBLIC "-//W3C//DTD SVG 1.1//EN"
 "http://www.w3.org/Graphics/SVG/1.1/DTD/svg11.dtd">
<!-- Generated by graphviz version 8.0.5 (20230430.1635)
 -->
<!-- Pages: 1 -->
<svg width="1019pt" height="371pt"
 viewBox="0.00 0.00 1018.69 371.00" xmlns="http://www.w3.org/2000/svg" xmlns:xlink="http://www.w3.org/1999/xlink">
<g id="graph0" class="graph" transform="scale(1 1) rotate(0) translate(18 353)">
<polygon fill="white" stroke="none" points="-18,18 -18,-353 1000.69,-353 1000.69,18 -18,18"/>
<g id="clust1" class="cluster">
<title>cluster0</title>
<polygon fill="none" stroke="none" points="92.69,-8 92.69,-188 893.19,-188 893.19,-8 92.69,-8"/>
</g>
<!-- PlusBlockStartState -->
<g id="node1" class="node">
<title>PlusBlockStartState</title>
<g id="a_node1"><a xlink:href="../PlusBlockStartState.html" xlink:title="{PlusBlockStartState | {&lt;alt1&gt; alt 1 |&lt;alt2&gt; alt 2 | &amp;#0183;\n&amp;#0183;\n&amp;#0183; |&lt;altn&gt; alt n}}" target="_parent">
<polygon fill="none" stroke="black" points="100.69,-29 100.69,-151 277.44,-151 277.44,-29 100.69,-29"/>
<text text-anchor="middle" x="168.32" y="-84.2" font-family="CourierNew" font-size="14.00">PlusBlockStartState</text>
<polyline fill="none" stroke="black" points="235.94,-29 235.94,-151"/>
<text text-anchor="middle" x="256.69" y="-133.7" font-family="CourierNew" font-size="14.00">alt 1</text>
<polyline fill="none" stroke="black" points="235.94,-128 277.44,-128"/>
<text text-anchor="middle" x="256.69" y="-110.7" font-family="CourierNew" font-size="14.00">alt 2</text>
<polyline fill="none" stroke="black" points="235.94,-105 277.44,-105"/>
<text text-anchor="middle" x="256.69" y="-87.7" font-family="CourierNew" font-size="14.00">·</text>
<text text-anchor="middle" x="256.69" y="-72.7" font-family="CourierNew" font-size="14.00">·</text>
<text text-anchor="middle" x="256.69" y="-57.7" font-family="CourierNew" font-size="14.00">·</text>
<polyline fill="none" stroke="black" points="235.94,-52 277.44,-52"/>
<text text-anchor="middle" x="256.69" y="-34.7" font-family="CourierNew" font-size="14.00">alt n</text>
</a>
</g>
</g>
<!-- content1 -->
<g id="node5" class="node">
<title>content1</title>
<ellipse fill="none" stroke="black" stroke-dasharray="5,2" cx="347.94" cy="-142" rx="27" ry="18"/>
<text text-anchor="middle" x="347.94" y="-136.2" font-family="CourierNew" font-size="14.00">alt 1</text>
</g>
<!-- PlusBlockStartState&#45;&gt;content1 -->
<g id="edge3" class="edge">
<title>PlusBlockStartState:alt1&#45;&gt;content1</title>
<path fill="none" stroke="black" d="M277.44,-140C287.9,-140 299.25,-140.23 309.68,-140.53"/>
<polygon fill="black" stroke="black" points="309.44,-144.06 319.55,-140.88 309.67,-137.06 309.44,-144.06"/>
<text text-anchor="middle" x="299.19" y="-141.7" font-family="CourierNew" font-size="14.00">ε</text>
</g>
<!-- content2 -->
<g id="node6" class="node">
<title>content2</title>
<ellipse fill="none" stroke="black" stroke-dasharray="5,2" cx="347.94" cy="-88" rx="27" ry="18"/>
<text text-anchor="middle" x="347.94" y="-82.2" font-family="CourierNew" font-size="14.00">alt 2</text>
</g>
<!-- PlusBlockStartState&#45;&gt;content2 -->
<g id="edge5" class="edge">
<title>PlusBlockStartState:alt2&#45;&gt;content2</title>
<path fill="none" stroke="black" d="M277.44,-117C287.31,-117 286.62,-108.41 295.44,-104 300.5,-101.48 306.03,-99.25 311.53,-97.33"/>
<polygon fill="black" stroke="black" points="312.49,-100.38 320.95,-94 310.36,-93.71 312.49,-100.38"/>
<text text-anchor="middle" x="299.19" y="-105.7" font-family="CourierNew" font-size="14.00">ε</text>
</g>
<!-- more -->
<g id="node7" class="node">
<title>more</title>
<ellipse fill="none" stroke="black" stroke-dasharray="5,2" cx="347.94" cy="-34" rx="27" ry="18"/>
<text text-anchor="middle" x="347.94" y="-28.2" font-family="CourierNew" font-size="14.00">alt n</text>
</g>
<!-- PlusBlockStartState&#45;&gt;more -->
<g id="edge7" class="edge">
<title>PlusBlockStartState:altn&#45;&gt;more</title>
<path fill="none" stroke="black" d="M277.44,-40C288.03,-40 299.48,-39.3 309.99,-38.38"/>
<polygon fill="black" stroke="black" points="310.3,-41.77 319.92,-37.32 309.63,-34.8 310.3,-41.77"/>
<text text-anchor="middle" x="299.19" y="-41.7" font-family="CourierNew" font-size="14.00">ε</text>
</g>
<!-- PlusLoopbackState -->
<g id="node2" class="node">
<title>PlusLoopbackState</title>
<g id="a_node2"><a xlink:href="../PlusLoopbackState.html" xlink:title="{PlusLoopbackState | {&lt;alt1&gt; alt 1 |&lt;alt2&gt; alt 2}}" target="_parent">
<polygon fill="none" stroke="black" points="566.44,-92 566.44,-138 740.19,-138 740.19,-92 566.44,-92"/>
<text text-anchor="middle" x="632.57" y="-109.2" font-family="CourierNew" font-size="14.00">PlusLoopbackState</text>
<polyline fill="none" stroke="black" points="698.69,-92 698.69,-138"/>
<text text-anchor="middle" x="719.44" y="-120.7" font-family="CourierNew" font-size="14.00">alt 1</text>
<polyline fill="none" stroke="black" points="698.69,-115 740.19,-115"/>
<text text-anchor="middle" x="719.44" y="-97.7" font-family="CourierNew" font-size="14.00">alt 2</text>
</a>
</g>
</g>
<!-- PlusLoopbackState&#45;&gt;PlusBlockStartState -->
<g id="edge10" class="edge">
<title>PlusLoopbackState:n&#45;&gt;PlusBlockStartState:n</title>
<path fill="none" stroke="black" d="M719.32,-139C719.32,-371.05 205.51,-387.28 189.45,-162.87"/>
<polygon fill="black" stroke="black" points="192.92,-162.87 189.07,-153 185.93,-163.12 192.92,-162.87"/>
<text text-anchor="middle" x="396.69" y="-321.7" font-family="CourierNew" font-size="14.00">ε</text>
</g>
<!-- LoopEndState -->
<g id="node4" class="node">
<title>LoopEndState</title>
<g id="a_node4"><a xlink:href="../LoopEndState.html" xlink:title="\N" target="_parent">
<polygon fill="none" stroke="black" points="783.69,-85 783.69,-121 885.19,-121 885.19,-85 783.69,-85"/>
<text text-anchor="middle" x="834.44" y="-97.2" font-family="CourierNew" font-size="14.00">LoopEndState</text>
</a>
</g>
</g>
<!-- PlusLoopbackState&#45;&gt;LoopEndState -->
<g id="edge11" class="edge">
<title>PlusLoopbackState:alt2&#45;&gt;LoopEndState</title>
<path fill="none" stroke="black" d="M740.19,-103C750.88,-103 762.25,-103 773.25,-103"/>
<polygon fill="black" stroke="black" points="773.08,-106.5 783.08,-103 773.08,-99.5 773.08,-106.5"/>
<text text-anchor="middle" x="761.94" y="-104.7" font-family="CourierNew" font-size="14.00">ε</text>
</g>
<!-- BlockEndState -->
<g id="node3" class="node">
<title>BlockEndState</title>
<g id="a_node3"><a xlink:href="../BlockEndState.html" xlink:title="\N" target="_parent">
<polygon fill="none" stroke="black" points="418.44,-80 418.44,-116 522.94,-116 522.94,-80 418.44,-80"/>
<text text-anchor="middle" x="470.69" y="-92.2" font-family="CourierNew" font-size="14.00">BlockEndState</text>
</a>
</g>
</g>
<!-- BlockEndState&#45;&gt;PlusLoopbackState -->
<g id="edge9" class="edge">
<title>BlockEndState&#45;&gt;PlusLoopbackState</title>
<path fill="none" stroke="black" d="M522.49,-102.78C533.03,-103.77 544.48,-104.85 556.05,-105.94"/>
<polygon fill="black" stroke="black" points="555.41,-109.49 565.69,-106.94 556.06,-102.52 555.41,-109.49"/>
<text text-anchor="middle" x="544.69" y="-105.7" font-family="CourierNew" font-size="14.00">ε</text>
</g>
<!-- end -->
<g id="node9" class="node">
<title>end</title>
<ellipse fill="none" stroke="black" stroke-dasharray="5,2" cx="955.69" cy="-103" rx="27" ry="18"/>
<text text-anchor="middle" x="955.69" y="-97.2" font-family="CourierNew" font-size="14.00">end</text>
</g>
<!-- LoopEndState&#45;&gt;end -->
<g id="edge2" class="edge">
<title>LoopEndState&#45;&gt;end</title>
<path fill="none" stroke="black" d="M884.98,-103C895.88,-103 907.25,-103 917.56,-103"/>
<polygon fill="black" stroke="black" points="917.27,-106.5 927.27,-103 917.27,-99.5 917.27,-106.5"/>
<text text-anchor="middle" x="906.94" y="-104.7" font-family="CourierNew" font-size="14.00">ε</text>
</g>
<!-- content1&#45;&gt;BlockEndState -->
<g id="edge4" class="edge">
<title>content1&#45;&gt;BlockEndState</title>
<path fill="none" stroke="black" stroke-dasharray="5,2" d="M372.23,-133.52C383.15,-129.54 396.72,-124.59 410.22,-119.67"/>
<polygon fill="black" stroke="black" points="411.3,-122.64 419.49,-115.93 408.9,-116.06 411.3,-122.64"/>
</g>
<!-- content2&#45;&gt;BlockEndState -->
<g id="edge6" class="edge">
<title>content2&#45;&gt;BlockEndState</title>
<path fill="none" stroke="black" stroke-dasharray="5,2" d="M375.15,-90.17C384.92,-90.98 396.47,-91.94 408.08,-92.9"/>
<polygon fill="black" stroke="black" points="407.46,-96.44 417.72,-93.78 408.04,-89.46 407.46,-96.44"/>
</g>
<!-- more&#45;&gt;BlockEndState -->
<g id="edge8" class="edge">
<title>more&#45;&gt;BlockEndState</title>
<path fill="none" stroke="black" stroke-dasharray="5,2" d="M369.7,-45C385.28,-53.26 407.15,-64.85 426.47,-75.09"/>
<polygon fill="black" stroke="black" points="424.52,-78.55 435,-80.14 427.8,-72.36 424.52,-78.55"/>
</g>
<!-- begin -->
<g id="node8" class="node">
<title>begin</title>
<ellipse fill="none" stroke="black" stroke-dasharray="5,2" cx="31.85" cy="-90" rx="31.85" ry="18"/>
<text text-anchor="middle" x="31.85" y="-84.2" font-family="CourierNew" font-size="14.00">begin</text>
</g>
<!-- begin&#45;&gt;PlusBlockStartState -->
<g id="edge1" class="edge">
<title>begin&#45;&gt;PlusBlockStartState</title>
<path fill="none" stroke="black" stroke-dasharray="5,2" d="M63.89,-90C71.79,-90 80.72,-90 90.08,-90"/>
<polygon fill="black" stroke="black" points="89.79,-93.5 99.79,-90 89.79,-86.5 89.79,-93.5"/>
</g>
</g>
</svg>
