<?xml version="1.0" encoding="UTF-8" standalone="no"?>
<!DOCTYPE svg PUBLIC "-//W3C//DTD SVG 1.1//EN"
 "http://www.w3.org/Graphics/SVG/1.1/DTD/svg11.dtd">
<!-- Generated by graphviz version 5.0.0 (20220707.1540)
 -->
<!-- Pages: 1 -->
<svg width="1027pt" height="290pt"
 viewBox="0.00 0.00 1026.59 290.15" xmlns="http://www.w3.org/2000/svg" xmlns:xlink="http://www.w3.org/1999/xlink">
<g id="graph0" class="graph" transform="scale(1 1) rotate(0) translate(18 272.15)">
<polygon fill="white" stroke="transparent" points="-18,18 -18,-272.15 1008.59,-272.15 1008.59,18 -18,18"/>
<g id="clust1" class="cluster">
<title>cluster0</title>
<polygon fill="none" stroke="transparent" points="93.99,-66.15 93.99,-246.15 900.59,-246.15 900.59,-66.15 93.99,-66.15"/>
</g>
<!-- PlusBlockStartState -->
<g id="node1" class="node">
<title>PlusBlockStartState</title>
<g id="a_node1"><a xlink:href="../PlusBlockStartState.html" xlink:title="{PlusBlockStartState | {&lt;alt1&gt; alt 1 |&lt;alt2&gt; alt 2 | &amp;#0183;\n&amp;#0183;\n&amp;#0183; |&lt;altn&gt; alt n}}" target="_parent">
<polygon fill="none" stroke="black" points="101.99,-89.15 101.99,-211.15 279.99,-211.15 279.99,-89.15 101.99,-89.15"/>
<text text-anchor="middle" x="169.99" y="-146.45" font-family="CourierNew" font-size="14.00">PlusBlockStartState</text>
<polyline fill="none" stroke="black" points="237.99,-89.15 237.99,-211.15 "/>
<text text-anchor="middle" x="258.99" y="-195.95" font-family="CourierNew" font-size="14.00">alt 1</text>
<polyline fill="none" stroke="black" points="237.99,-188.15 279.99,-188.15 "/>
<text text-anchor="middle" x="258.99" y="-172.95" font-family="CourierNew" font-size="14.00">alt 2</text>
<polyline fill="none" stroke="black" points="237.99,-165.15 279.99,-165.15 "/>
<text text-anchor="middle" x="258.99" y="-149.95" font-family="CourierNew" font-size="14.00">·</text>
<text text-anchor="middle" x="258.99" y="-134.95" font-family="CourierNew" font-size="14.00">·</text>
<text text-anchor="middle" x="258.99" y="-119.95" font-family="CourierNew" font-size="14.00">·</text>
<polyline fill="none" stroke="black" points="237.99,-112.15 279.99,-112.15 "/>
<text text-anchor="middle" x="258.99" y="-96.95" font-family="CourierNew" font-size="14.00">alt n</text>
</a>
</g>
</g>
<!-- content1 -->
<g id="node5" class="node">
<title>content1</title>
<ellipse fill="none" stroke="black" stroke-dasharray="5,2" cx="351.29" cy="-220.15" rx="27.1" ry="18"/>
<text text-anchor="middle" x="351.29" y="-216.45" font-family="CourierNew" font-size="14.00">alt 1</text>
</g>
<!-- PlusBlockStartState&#45;&gt;content1 -->
<g id="edge3" class="edge">
<title>PlusBlockStartState:alt1&#45;&gt;content1</title>
<path fill="none" stroke="black" d="M279.99,-200.15C292.88,-200.15 306.61,-203.29 318.48,-207.09"/>
<polygon fill="black" stroke="black" points="317.36,-210.41 327.95,-210.38 319.65,-203.8 317.36,-210.41"/>
<text text-anchor="middle" x="301.99" y="-206.95" font-family="CourierNew" font-size="14.00">ε</text>
</g>
<!-- content2 -->
<g id="node6" class="node">
<title>content2</title>
<ellipse fill="none" stroke="black" stroke-dasharray="5,2" cx="351.29" cy="-166.15" rx="27.1" ry="18"/>
<text text-anchor="middle" x="351.29" y="-162.45" font-family="CourierNew" font-size="14.00">alt 2</text>
</g>
<!-- PlusBlockStartState&#45;&gt;content2 -->
<g id="edge5" class="edge">
<title>PlusBlockStartState:alt2&#45;&gt;content2</title>
<path fill="none" stroke="black" d="M279.99,-177.15C288.3,-177.15 289.84,-173.74 297.99,-172.15 303.13,-171.14 308.59,-170.29 313.97,-169.57"/>
<polygon fill="black" stroke="black" points="314.59,-173.02 324.1,-168.34 313.75,-166.07 314.59,-173.02"/>
<text text-anchor="middle" x="301.99" y="-175.95" font-family="CourierNew" font-size="14.00">ε</text>
</g>
<!-- more -->
<g id="node7" class="node">
<title>more</title>
<ellipse fill="none" stroke="black" stroke-dasharray="5,2" cx="351.29" cy="-112.15" rx="27.1" ry="18"/>
<text text-anchor="middle" x="351.29" y="-108.45" font-family="CourierNew" font-size="14.00">alt n</text>
</g>
<!-- PlusBlockStartState&#45;&gt;more -->
<g id="edge7" class="edge">
<title>PlusBlockStartState:altn&#45;&gt;more</title>
<path fill="none" stroke="black" d="M279.99,-100.15C291.65,-100.15 304.25,-101.77 315.51,-103.82"/>
<polygon fill="black" stroke="black" points="314.92,-107.27 325.42,-105.79 316.29,-100.41 314.92,-107.27"/>
<text text-anchor="middle" x="301.99" y="-106.95" font-family="CourierNew" font-size="14.00">ε</text>
</g>
<!-- PlusLoopbackState -->
<g id="node2" class="node">
<title>PlusLoopbackState</title>
<g id="a_node2"><a xlink:href="../PlusLoopbackState.html" xlink:title="{PlusLoopbackState | {&lt;alt1&gt; alt 1 |&lt;alt2&gt; alt 2}}" target="_parent">
<polygon fill="none" stroke="black" points="571.59,-92.15 571.59,-138.15 746.59,-138.15 746.59,-92.15 571.59,-92.15"/>
<text text-anchor="middle" x="638.09" y="-111.45" font-family="CourierNew" font-size="14.00">PlusLoopbackState</text>
<polyline fill="none" stroke="black" points="704.59,-92.15 704.59,-138.15 "/>
<text text-anchor="middle" x="725.59" y="-122.95" font-family="CourierNew" font-size="14.00">alt 1</text>
<polyline fill="none" stroke="black" points="704.59,-115.15 746.59,-115.15 "/>
<text text-anchor="middle" x="725.59" y="-99.95" font-family="CourierNew" font-size="14.00">alt 2</text>
</a>
</g>
</g>
<!-- PlusLoopbackState&#45;&gt;PlusBlockStartState -->
<g id="edge10" class="edge">
<title>PlusLoopbackState:s&#45;&gt;PlusBlockStartState:s</title>
<path fill="none" stroke="black" d="M726.09,-91.15C726.09,24.28 221.89,30.49 192.35,-78.01"/>
<polygon fill="black" stroke="black" points="188.85,-77.77 190.99,-88.15 195.78,-78.7 188.85,-77.77"/>
<text text-anchor="middle" x="400.59" y="-6.95" font-family="CourierNew" font-size="14.00">ε</text>
</g>
<!-- LoopEndState -->
<g id="node4" class="node">
<title>LoopEndState</title>
<g id="a_node4"><a xlink:href="../LoopEndState.html" xlink:title="\N" target="_parent">
<polygon fill="none" stroke="black" points="790.59,-109.15 790.59,-145.15 892.59,-145.15 892.59,-109.15 790.59,-109.15"/>
<text text-anchor="middle" x="841.59" y="-123.45" font-family="CourierNew" font-size="14.00">LoopEndState</text>
</a>
</g>
</g>
<!-- PlusLoopbackState&#45;&gt;LoopEndState -->
<g id="edge11" class="edge">
<title>PlusLoopbackState:alt1&#45;&gt;LoopEndState</title>
<path fill="none" stroke="black" d="M746.59,-127.15C757.46,-127.15 769.04,-127.15 780.22,-127.15"/>
<polygon fill="black" stroke="black" points="780.34,-130.65 790.34,-127.15 780.34,-123.65 780.34,-130.65"/>
<text text-anchor="middle" x="768.59" y="-131.95" font-family="CourierNew" font-size="14.00">ε</text>
</g>
<!-- BlockEndState -->
<g id="node3" class="node">
<title>BlockEndState</title>
<g id="a_node3"><a xlink:href="../BlockEndState.html" xlink:title="\N" target="_parent">
<polygon fill="none" stroke="black" points="422.59,-130.15 422.59,-166.15 527.59,-166.15 527.59,-130.15 422.59,-130.15"/>
<text text-anchor="middle" x="475.09" y="-144.45" font-family="CourierNew" font-size="14.00">BlockEndState</text>
</a>
</g>
</g>
<!-- BlockEndState&#45;&gt;PlusLoopbackState -->
<g id="edge9" class="edge">
<title>BlockEndState&#45;&gt;PlusLoopbackState</title>
<path fill="none" stroke="black" d="M527.76,-138.78C538.32,-136.86 549.77,-134.79 561.33,-132.69"/>
<polygon fill="black" stroke="black" points="562.3,-136.07 571.51,-130.84 561.05,-129.18 562.3,-136.07"/>
<text text-anchor="middle" x="549.59" y="-138.95" font-family="CourierNew" font-size="14.00">ε</text>
</g>
<!-- end -->
<g id="node9" class="node">
<title>end</title>
<ellipse fill="none" stroke="black" stroke-dasharray="5,2" cx="963.59" cy="-127.15" rx="27" ry="18"/>
<text text-anchor="middle" x="963.59" y="-123.45" font-family="CourierNew" font-size="14.00">end</text>
</g>
<!-- LoopEndState&#45;&gt;end -->
<g id="edge2" class="edge">
<title>LoopEndState&#45;&gt;end</title>
<path fill="none" stroke="black" d="M892.78,-127.15C904.06,-127.15 915.8,-127.15 926.37,-127.15"/>
<polygon fill="black" stroke="black" points="926.49,-130.65 936.49,-127.15 926.49,-123.65 926.49,-130.65"/>
<text text-anchor="middle" x="914.59" y="-130.95" font-family="CourierNew" font-size="14.00">ε</text>
</g>
<!-- content1&#45;&gt;BlockEndState -->
<g id="edge4" class="edge">
<title>content1&#45;&gt;BlockEndState</title>
<path fill="none" stroke="black" stroke-dasharray="5,2" d="M372.13,-208.42C389,-198.45 413.74,-183.82 434.62,-171.48"/>
<polygon fill="black" stroke="black" points="436.47,-174.45 443.3,-166.35 432.91,-168.42 436.47,-174.45"/>
</g>
<!-- content2&#45;&gt;BlockEndState -->
<g id="edge6" class="edge">
<title>content2&#45;&gt;BlockEndState</title>
<path fill="none" stroke="black" stroke-dasharray="5,2" d="M378.12,-162.33C388.16,-160.85 400.13,-159.08 412.15,-157.3"/>
<polygon fill="black" stroke="black" points="412.83,-160.74 422.22,-155.81 411.81,-153.81 412.83,-160.74"/>
</g>
<!-- more&#45;&gt;BlockEndState -->
<g id="edge8" class="edge">
<title>more&#45;&gt;BlockEndState</title>
<path fill="none" stroke="black" stroke-dasharray="5,2" d="M376.65,-119.34C387.1,-122.44 399.84,-126.2 412.61,-129.97"/>
<polygon fill="black" stroke="black" points="411.76,-133.37 422.34,-132.85 413.75,-126.66 411.76,-133.37"/>
</g>
<!-- begin -->
<g id="node8" class="node">
<title>begin</title>
<ellipse fill="none" stroke="black" stroke-dasharray="5,2" cx="32.5" cy="-150.15" rx="32.49" ry="18"/>
<text text-anchor="middle" x="32.5" y="-146.45" font-family="CourierNew" font-size="14.00">begin</text>
</g>
<!-- begin&#45;&gt;PlusBlockStartState -->
<g id="edge1" class="edge">
<title>begin&#45;&gt;PlusBlockStartState</title>
<path fill="none" stroke="black" stroke-dasharray="5,2" d="M65.17,-150.15C73.1,-150.15 82.04,-150.15 91.4,-150.15"/>
<polygon fill="black" stroke="black" points="91.69,-153.65 101.69,-150.15 91.69,-146.65 91.69,-153.65"/>
</g>
</g>
</svg>
