<?xml version="1.0" encoding="UTF-8" standalone="no"?>
<!DOCTYPE svg PUBLIC "-//W3C//DTD SVG 1.1//EN"
 "http://www.w3.org/Graphics/SVG/1.1/DTD/svg11.dtd">
<!-- Generated by graphviz version 2.30.0 (20130114.0323)
 -->
<!-- Pages: 1 -->
<svg width="1258pt" height="232pt"
 viewBox="0.00 0.00 1258.00 232.00" xmlns="http://www.w3.org/2000/svg" xmlns:xlink="http://www.w3.org/1999/xlink">
<g id="graph0" class="graph" transform="scale(1 1) rotate(0) translate(18 214)">
<polygon fill="white" stroke="white" points="-18,19 -18,-214 1241,-214 1241,19 -18,19"/>
<g id="clust1" class="cluster"><title>cluster0</title>
<polygon fill="none" stroke="none" points="110,-8 110,-188 1118,-188 1118,-8 110,-8"/>
</g>
<!-- PlusBlockStartState -->
<g id="node1" class="node"><title>PlusBlockStartState</title>
<g id="a_node1"><a xlink:href="../PlusBlockStartState.html" xlink:title="{PlusBlockStartState | {&lt;alt1&gt; alt 1 |&lt;alt2&gt; alt 2 | &#0183;\n&#0183;\n&#0183; |&lt;altn&gt; alt n}}" target="_parent">
<polygon fill="none" stroke="black" points="118.217,-21.6 118.217,-154.4 351.783,-154.4 351.783,-21.6 118.217,-21.6"/>
<text text-anchor="middle" x="206.004" y="-83.8" font-family="Courier New" font-size="14.00">PlusBlockStartState</text>
<polyline fill="none" stroke="black" points="293.79,-21.6 293.79,-154.4 "/>
<text text-anchor="middle" x="322.787" y="-137.8" font-family="Courier New" font-size="14.00">alt 1</text>
<polyline fill="none" stroke="black" points="293.79,-129.6 351.783,-129.6 "/>
<text text-anchor="middle" x="322.787" y="-113" font-family="Courier New" font-size="14.00">alt 2</text>
<polyline fill="none" stroke="black" points="293.79,-104.8 351.783,-104.8 "/>
<text text-anchor="middle" x="322.787" y="-88.2" font-family="Courier New" font-size="14.00">·</text>
<text text-anchor="middle" x="322.787" y="-71.4" font-family="Courier New" font-size="14.00">·</text>
<text text-anchor="middle" x="322.787" y="-54.6" font-family="Courier New" font-size="14.00">·</text>
<polyline fill="none" stroke="black" points="293.79,-46.4 351.783,-46.4 "/>
<text text-anchor="middle" x="322.787" y="-29.8" font-family="Courier New" font-size="14.00">alt n</text>
</a>
</g>
</g>
<!-- content1 -->
<g id="node5" class="node"><title>content1</title>
<ellipse fill="none" stroke="black" stroke-dasharray="5,2" cx="446" cy="-142" rx="40.005" ry="18"/>
<text text-anchor="middle" x="446" y="-137.8" font-family="Courier New" font-size="14.00">alt 1</text>
</g>
<!-- PlusBlockStartState&#45;&gt;content1 -->
<g id="edge3" class="edge"><title>PlusBlockStartState:alt1&#45;&gt;content1</title>
<path fill="none" stroke="black" d="M352,-142C366.162,-142 381.536,-142 395.63,-142"/>
<polygon fill="black" stroke="black" points="395.631,-145.5 405.631,-142 395.631,-138.5 395.631,-145.5"/>
<text text-anchor="middle" x="379" y="-146.2" font-family="Courier New" font-size="14.00">ε</text>
</g>
<!-- content2 -->
<g id="node6" class="node"><title>content2</title>
<ellipse fill="none" stroke="black" stroke-dasharray="5,2" cx="446" cy="-88" rx="40.005" ry="18"/>
<text text-anchor="middle" x="446" y="-83.8" font-family="Courier New" font-size="14.00">alt 2</text>
</g>
<!-- PlusBlockStartState&#45;&gt;content2 -->
<g id="edge5" class="edge"><title>PlusBlockStartState:alt2&#45;&gt;content2</title>
<path fill="none" stroke="black" d="M352,-117C362.081,-117 360.825,-107.375 370,-103.2 378.436,-99.3612 387.845,-96.4859 397.069,-94.334"/>
<polygon fill="black" stroke="black" points="397.877,-97.7409 406.951,-92.2715 396.446,-90.8885 397.877,-97.7409"/>
<text text-anchor="middle" x="379" y="-108.2" font-family="Courier New" font-size="14.00">ε</text>
</g>
<!-- more -->
<g id="node7" class="node"><title>more</title>
<ellipse fill="none" stroke="black" stroke-dasharray="5,2" cx="446" cy="-34" rx="40.005" ry="18"/>
<text text-anchor="middle" x="446" y="-29.8" font-family="Courier New" font-size="14.00">alt n</text>
</g>
<!-- PlusBlockStartState&#45;&gt;more -->
<g id="edge7" class="edge"><title>PlusBlockStartState:altn&#45;&gt;more</title>
<path fill="none" stroke="black" d="M352,-34C366.162,-34 381.536,-34 395.63,-34"/>
<polygon fill="black" stroke="black" points="395.631,-37.5001 405.631,-34 395.631,-30.5001 395.631,-37.5001"/>
<text text-anchor="middle" x="379" y="-38.2" font-family="Courier New" font-size="14.00">ε</text>
</g>
<!-- PlusLoopbackState -->
<g id="node2" class="node"><title>PlusLoopbackState</title>
<g id="a_node2"><a xlink:href="../PlusLoopbackState.html" xlink:title="{PlusLoopbackState | {&lt;alt1&gt; alt 1 |&lt;alt2&gt; alt 2}}" target="_parent">
<polygon fill="none" stroke="black" points="720.615,-102.2 720.615,-151.8 937.385,-151.8 937.385,-102.2 720.615,-102.2"/>
<text text-anchor="middle" x="800.004" y="-122.8" font-family="Courier New" font-size="14.00">PlusLoopbackState</text>
<polyline fill="none" stroke="black" points="879.392,-102.2 879.392,-151.8 "/>
<text text-anchor="middle" x="908.388" y="-135.2" font-family="Courier New" font-size="14.00">alt 1</text>
<polyline fill="none" stroke="black" points="879.392,-127 937.385,-127 "/>
<text text-anchor="middle" x="908.388" y="-110.4" font-family="Courier New" font-size="14.00">alt 2</text>
</a>
</g>
</g>
<!-- PlusLoopbackState&#45;&gt;PlusBlockStartState -->
<g id="edge10" class="edge"><title>PlusLoopbackState:alt1:n&#45;&gt;PlusBlockStartState:n</title>
<path fill="none" stroke="black" d="M908,-153C908,-155.424 314.029,-195.552 242.103,-162.361"/>
<polygon fill="black" stroke="black" points="244.462,-159.766 235,-155 239.425,-164.626 244.462,-159.766"/>
<text text-anchor="middle" x="513" y="-178.2" font-family="Courier New" font-size="14.00">ε</text>
</g>
<!-- LoopEndState -->
<g id="node4" class="node"><title>LoopEndState</title>
<g id="a_node4"><a xlink:href="../LoopEndState.html" xlink:title="\N" target="_parent">
<polygon fill="none" stroke="black" points="992.608,-97 992.608,-133 1109.39,-133 1109.39,-97 992.608,-97"/>
<text text-anchor="middle" x="1051" y="-110.9" font-family="Courier New" font-size="14.00">LoopEndState</text>
</a>
</g>
</g>
<!-- PlusLoopbackState&#45;&gt;LoopEndState -->
<g id="edge11" class="edge"><title>PlusLoopbackState:alt2&#45;&gt;LoopEndState</title>
<path fill="none" stroke="black" d="M938,-115C952.377,-115 967.792,-115 982.446,-115"/>
<polygon fill="black" stroke="black" points="982.447,-118.5 992.447,-115 982.447,-111.5 982.447,-118.5"/>
<text text-anchor="middle" x="965" y="-119.2" font-family="Courier New" font-size="14.00">ε</text>
</g>
<!-- BlockEndState -->
<g id="node3" class="node"><title>BlockEndState</title>
<g id="a_node3"><a xlink:href="../BlockEndState.html" xlink:title="\N" target="_parent">
<polygon fill="none" stroke="black" points="540.409,-98 540.409,-134 665.591,-134 665.591,-98 540.409,-98"/>
<text text-anchor="middle" x="603" y="-111.9" font-family="Courier New" font-size="14.00">BlockEndState</text>
</a>
</g>
</g>
<!-- BlockEndState&#45;&gt;PlusLoopbackState -->
<g id="edge9" class="edge"><title>BlockEndState&#45;&gt;PlusLoopbackState</title>
<path fill="none" stroke="black" d="M665.802,-119.035C679.718,-119.718 694.937,-120.466 710.3,-121.22"/>
<polygon fill="black" stroke="black" points="710.245,-124.721 720.404,-121.716 710.588,-117.73 710.245,-124.721"/>
<text text-anchor="middle" x="693" y="-125.2" font-family="Courier New" font-size="14.00">ε</text>
</g>
<!-- end -->
<g id="node9" class="node"><title>end</title>
<ellipse fill="none" stroke="black" stroke-dasharray="5,2" cx="1193" cy="-115" rx="28.3325" ry="18"/>
<text text-anchor="middle" x="1193" y="-110.8" font-family="Courier New" font-size="14.00">end</text>
</g>
<!-- LoopEndState&#45;&gt;end -->
<g id="edge2" class="edge"><title>LoopEndState&#45;&gt;end</title>
<path fill="none" stroke="black" d="M1109.75,-115C1124.76,-115 1140.54,-115 1154.22,-115"/>
<polygon fill="black" stroke="black" points="1154.22,-118.5 1164.22,-115 1154.22,-111.5 1154.22,-118.5"/>
<text text-anchor="middle" x="1137" y="-119.2" font-family="Courier New" font-size="14.00">ε</text>
</g>
<!-- content1&#45;&gt;BlockEndState -->
<g id="edge4" class="edge"><title>content1&#45;&gt;BlockEndState</title>
<path fill="none" stroke="black" stroke-dasharray="5,2" d="M483.733,-135.838C497.745,-133.488 514.242,-130.721 530.395,-128.011"/>
<polygon fill="black" stroke="black" points="531.1,-131.442 540.383,-126.336 529.942,-124.538 531.1,-131.442"/>
</g>
<!-- content2&#45;&gt;BlockEndState -->
<g id="edge6" class="edge"><title>content2&#45;&gt;BlockEndState</title>
<path fill="none" stroke="black" stroke-dasharray="5,2" d="M483.341,-94.5648C497.42,-97.1081 514.052,-100.113 530.338,-103.055"/>
<polygon fill="black" stroke="black" points="529.945,-106.54 540.408,-104.874 531.189,-99.6516 529.945,-106.54"/>
</g>
<!-- more&#45;&gt;BlockEndState -->
<g id="edge8" class="edge"><title>more&#45;&gt;BlockEndState</title>
<path fill="none" stroke="black" stroke-dasharray="5,2" d="M472.595,-47.5406C496.003,-59.9239 531.101,-78.4922 558.842,-93.1678"/>
<polygon fill="black" stroke="black" points="557.464,-96.3984 567.94,-97.981 560.737,-90.2109 557.464,-96.3984"/>
</g>
<!-- begin -->
<g id="node8" class="node"><title>begin</title>
<ellipse fill="none" stroke="black" stroke-dasharray="5,2" cx="40" cy="-88" rx="40.005" ry="18"/>
<text text-anchor="middle" x="40" y="-83.8" font-family="Courier New" font-size="14.00">begin</text>
</g>
<!-- begin&#45;&gt;PlusBlockStartState -->
<g id="edge1" class="edge"><title>begin&#45;&gt;PlusBlockStartState</title>
<path fill="none" stroke="black" stroke-dasharray="5,2" d="M80.0564,-88C88.5653,-88 98.0109,-88 107.917,-88"/>
<polygon fill="black" stroke="black" points="107.959,-91.5001 117.959,-88 107.959,-84.5001 107.959,-91.5001"/>
</g>
</g>
</svg>
