<?xml version="1.0" encoding="UTF-8" standalone="no"?>
<!DOCTYPE svg PUBLIC "-//W3C//DTD SVG 1.1//EN"
 "http://www.w3.org/Graphics/SVG/1.1/DTD/svg11.dtd">
<!-- Generated by graphviz version 3.0.0 (20220226.1711)
 -->
<!-- Pages: 1 -->
<svg width="1027pt" height="372pt"
 viewBox="0.00 0.00 1026.59 372.00" xmlns="http://www.w3.org/2000/svg" xmlns:xlink="http://www.w3.org/1999/xlink">
<g id="graph0" class="graph" transform="scale(1 1) rotate(0) translate(18 354)">
<polygon fill="white" stroke="transparent" points="-18,18 -18,-354 1008.59,-354 1008.59,18 -18,18"/>
<g id="clust1" class="cluster">
<title>cluster0</title>
<polygon fill="none" stroke="transparent" points="93.99,-8 93.99,-188 900.59,-188 900.59,-8 93.99,-8"/>
</g>
<!-- PlusBlockStartState -->
<g id="node1" class="node">
<title>PlusBlockStartState</title>
<g id="a_node1"><a xlink:href="../PlusBlockStartState.html" xlink:title="{PlusBlockStartState | {&lt;alt1&gt; alt 1 |&lt;alt2&gt; alt 2 | &amp;#0183;\n&amp;#0183;\n&amp;#0183; |&lt;altn&gt; alt n}}" target="_parent">
<polygon fill="none" stroke="black" points="101.99,-29 101.99,-151 279.99,-151 279.99,-29 101.99,-29"/>
<text text-anchor="middle" x="169.99" y="-86.3" font-family="CourierNew" font-size="14.00">PlusBlockStartState</text>
<polyline fill="none" stroke="black" points="237.99,-29 237.99,-151 "/>
<text text-anchor="middle" x="258.99" y="-135.8" font-family="CourierNew" font-size="14.00">alt 1</text>
<polyline fill="none" stroke="black" points="237.99,-128 279.99,-128 "/>
<text text-anchor="middle" x="258.99" y="-112.8" font-family="CourierNew" font-size="14.00">alt 2</text>
<polyline fill="none" stroke="black" points="237.99,-105 279.99,-105 "/>
<text text-anchor="middle" x="258.99" y="-89.8" font-family="CourierNew" font-size="14.00">·</text>
<text text-anchor="middle" x="258.99" y="-74.8" font-family="CourierNew" font-size="14.00">·</text>
<text text-anchor="middle" x="258.99" y="-59.8" font-family="CourierNew" font-size="14.00">·</text>
<polyline fill="none" stroke="black" points="237.99,-52 279.99,-52 "/>
<text text-anchor="middle" x="258.99" y="-36.8" font-family="CourierNew" font-size="14.00">alt n</text>
</a>
</g>
</g>
<!-- content1 -->
<g id="node5" class="node">
<title>content1</title>
<ellipse fill="none" stroke="black" stroke-dasharray="5,2" cx="351.29" cy="-142" rx="27.1" ry="18"/>
<text text-anchor="middle" x="351.29" y="-138.3" font-family="CourierNew" font-size="14.00">alt 1</text>
</g>
<!-- PlusBlockStartState&#45;&gt;content1 -->
<g id="edge3" class="edge">
<title>PlusBlockStartState:alt1&#45;&gt;content1</title>
<path fill="none" stroke="black" d="M279.99,-140C291,-140 302.98,-140.25 313.88,-140.57"/>
<polygon fill="black" stroke="black" points="313.82,-144.07 323.93,-140.89 314.04,-137.07 313.82,-144.07"/>
<text text-anchor="middle" x="301.99" y="-143.8" font-family="CourierNew" font-size="14.00">ε</text>
</g>
<!-- content2 -->
<g id="node6" class="node">
<title>content2</title>
<ellipse fill="none" stroke="black" stroke-dasharray="5,2" cx="351.29" cy="-88" rx="27.1" ry="18"/>
<text text-anchor="middle" x="351.29" y="-84.3" font-family="CourierNew" font-size="14.00">alt 2</text>
</g>
<!-- PlusBlockStartState&#45;&gt;content2 -->
<g id="edge5" class="edge">
<title>PlusBlockStartState:alt2&#45;&gt;content2</title>
<path fill="none" stroke="black" d="M279.99,-117C289.86,-117 289.16,-108.39 297.99,-104 303.5,-101.27 309.56,-98.89 315.54,-96.87"/>
<polygon fill="black" stroke="black" points="316.92,-100.11 325.44,-93.8 314.85,-93.42 316.92,-100.11"/>
<text text-anchor="middle" x="301.99" y="-107.8" font-family="CourierNew" font-size="14.00">ε</text>
</g>
<!-- more -->
<g id="node7" class="node">
<title>more</title>
<ellipse fill="none" stroke="black" stroke-dasharray="5,2" cx="351.29" cy="-34" rx="27.1" ry="18"/>
<text text-anchor="middle" x="351.29" y="-30.3" font-family="CourierNew" font-size="14.00">alt n</text>
</g>
<!-- PlusBlockStartState&#45;&gt;more -->
<g id="edge7" class="edge">
<title>PlusBlockStartState:altn&#45;&gt;more</title>
<path fill="none" stroke="black" d="M279.99,-40C291.13,-40 303.23,-39.24 314.2,-38.27"/>
<polygon fill="black" stroke="black" points="314.68,-41.74 324.3,-37.28 314,-34.77 314.68,-41.74"/>
<text text-anchor="middle" x="301.99" y="-43.8" font-family="CourierNew" font-size="14.00">ε</text>
</g>
<!-- PlusLoopbackState -->
<g id="node2" class="node">
<title>PlusLoopbackState</title>
<g id="a_node2"><a xlink:href="../PlusLoopbackState.html" xlink:title="{PlusLoopbackState | {&lt;alt1&gt; alt 1 |&lt;alt2&gt; alt 2}}" target="_parent">
<polygon fill="none" stroke="black" points="571.59,-92 571.59,-138 746.59,-138 746.59,-92 571.59,-92"/>
<text text-anchor="middle" x="638.09" y="-111.3" font-family="CourierNew" font-size="14.00">PlusLoopbackState</text>
<polyline fill="none" stroke="black" points="704.59,-92 704.59,-138 "/>
<text text-anchor="middle" x="725.59" y="-122.8" font-family="CourierNew" font-size="14.00">alt 1</text>
<polyline fill="none" stroke="black" points="704.59,-115 746.59,-115 "/>
<text text-anchor="middle" x="725.59" y="-99.8" font-family="CourierNew" font-size="14.00">alt 2</text>
</a>
</g>
</g>
<!-- PlusLoopbackState&#45;&gt;PlusBlockStartState -->
<g id="edge10" class="edge">
<title>PlusLoopbackState:n&#45;&gt;PlusBlockStartState:n</title>
<path fill="none" stroke="black" d="M726.09,-139C726.09,-373.41 206.56,-389.46 191.34,-162.29"/>
<polygon fill="black" stroke="black" points="194.82,-161.88 190.99,-152 187.83,-162.11 194.82,-161.88"/>
<text text-anchor="middle" x="400.59" y="-324.8" font-family="CourierNew" font-size="14.00">ε</text>
</g>
<!-- LoopEndState -->
<g id="node4" class="node">
<title>LoopEndState</title>
<g id="a_node4"><a xlink:href="../LoopEndState.html" xlink:title="\N" target="_parent">
<polygon fill="none" stroke="black" points="790.59,-85 790.59,-121 892.59,-121 892.59,-85 790.59,-85"/>
<text text-anchor="middle" x="841.59" y="-99.3" font-family="CourierNew" font-size="14.00">LoopEndState</text>
</a>
</g>
</g>
<!-- PlusLoopbackState&#45;&gt;LoopEndState -->
<g id="edge11" class="edge">
<title>PlusLoopbackState:alt2&#45;&gt;LoopEndState</title>
<path fill="none" stroke="black" d="M746.59,-103C757.46,-103 769.04,-103 780.22,-103"/>
<polygon fill="black" stroke="black" points="780.34,-106.5 790.34,-103 780.34,-99.5 780.34,-106.5"/>
<text text-anchor="middle" x="768.59" y="-106.8" font-family="CourierNew" font-size="14.00">ε</text>
</g>
<!-- BlockEndState -->
<g id="node3" class="node">
<title>BlockEndState</title>
<g id="a_node3"><a xlink:href="../BlockEndState.html" xlink:title="\N" target="_parent">
<polygon fill="none" stroke="black" points="422.59,-80 422.59,-116 527.59,-116 527.59,-80 422.59,-80"/>
<text text-anchor="middle" x="475.09" y="-94.3" font-family="CourierNew" font-size="14.00">BlockEndState</text>
</a>
</g>
</g>
<!-- BlockEndState&#45;&gt;PlusLoopbackState -->
<g id="edge9" class="edge">
<title>BlockEndState&#45;&gt;PlusLoopbackState</title>
<path fill="none" stroke="black" d="M527.76,-102.83C538.32,-103.81 549.77,-104.88 561.33,-105.96"/>
<polygon fill="black" stroke="black" points="561.23,-109.47 571.51,-106.91 561.88,-102.5 561.23,-109.47"/>
<text text-anchor="middle" x="549.59" y="-107.8" font-family="CourierNew" font-size="14.00">ε</text>
</g>
<!-- end -->
<g id="node9" class="node">
<title>end</title>
<ellipse fill="none" stroke="black" stroke-dasharray="5,2" cx="963.59" cy="-103" rx="27" ry="18"/>
<text text-anchor="middle" x="963.59" y="-99.3" font-family="CourierNew" font-size="14.00">end</text>
</g>
<!-- LoopEndState&#45;&gt;end -->
<g id="edge2" class="edge">
<title>LoopEndState&#45;&gt;end</title>
<path fill="none" stroke="black" d="M892.78,-103C904.06,-103 915.8,-103 926.37,-103"/>
<polygon fill="black" stroke="black" points="926.49,-106.5 936.49,-103 926.49,-99.5 926.49,-106.5"/>
<text text-anchor="middle" x="914.59" y="-106.8" font-family="CourierNew" font-size="14.00">ε</text>
</g>
<!-- content1&#45;&gt;BlockEndState -->
<g id="edge4" class="edge">
<title>content1&#45;&gt;BlockEndState</title>
<path fill="none" stroke="black" stroke-dasharray="5,2" d="M375.49,-133.62C386.7,-129.57 400.73,-124.5 414.66,-119.47"/>
<polygon fill="black" stroke="black" points="416.03,-122.7 424.25,-116.01 413.65,-116.11 416.03,-122.7"/>
</g>
<!-- content2&#45;&gt;BlockEndState -->
<g id="edge6" class="edge">
<title>content2&#45;&gt;BlockEndState</title>
<path fill="none" stroke="black" stroke-dasharray="5,2" d="M378.42,-90.15C388.47,-90.97 400.42,-91.95 412.4,-92.94"/>
<polygon fill="black" stroke="black" points="412.19,-96.43 422.44,-93.76 412.76,-89.45 412.19,-96.43"/>
</g>
<!-- more&#45;&gt;BlockEndState -->
<g id="edge8" class="edge">
<title>more&#45;&gt;BlockEndState</title>
<path fill="none" stroke="black" stroke-dasharray="5,2" d="M373.23,-45C388.97,-53.27 411.07,-64.89 430.58,-75.14"/>
<polygon fill="black" stroke="black" points="429.14,-78.34 439.62,-79.89 432.4,-72.14 429.14,-78.34"/>
</g>
<!-- begin -->
<g id="node8" class="node">
<title>begin</title>
<ellipse fill="none" stroke="black" stroke-dasharray="5,2" cx="32.5" cy="-90" rx="32.49" ry="18"/>
<text text-anchor="middle" x="32.5" y="-86.3" font-family="CourierNew" font-size="14.00">begin</text>
</g>
<!-- begin&#45;&gt;PlusBlockStartState -->
<g id="edge1" class="edge">
<title>begin&#45;&gt;PlusBlockStartState</title>
<path fill="none" stroke="black" stroke-dasharray="5,2" d="M65.17,-90C73.1,-90 82.04,-90 91.4,-90"/>
<polygon fill="black" stroke="black" points="91.69,-93.5 101.69,-90 91.69,-86.5 91.69,-93.5"/>
</g>
</g>
</svg>
