<?xml version="1.0" encoding="UTF-8" standalone="no"?>
<!DOCTYPE svg PUBLIC "-//W3C//DTD SVG 1.1//EN"
 "http://www.w3.org/Graphics/SVG/1.1/DTD/svg11.dtd">
<!-- Generated by graphviz version 2.30.0 (20130114.0323)
 -->
<!-- Pages: 1 -->
<svg width="1258pt" height="313pt"
 viewBox="0.00 0.00 1258.00 313.06" xmlns="http://www.w3.org/2000/svg" xmlns:xlink="http://www.w3.org/1999/xlink">
<g id="graph0" class="graph" transform="scale(1 1) rotate(0) translate(18 295.062)">
<polygon fill="white" stroke="white" points="-18,19 -18,-295.062 1241,-295.062 1241,19 -18,19"/>
<g id="clust1" class="cluster"><title>cluster0</title>
<polygon fill="none" stroke="none" points="110,-89.0624 110,-269.062 1118,-269.062 1118,-89.0624 110,-89.0624"/>
</g>
<!-- PlusBlockStartState -->
<g id="node1" class="node"><title>PlusBlockStartState</title>
<g id="a_node1"><a xlink:href="../PlusBlockStartState.html" xlink:title="{PlusBlockStartState | {&lt;alt1&gt; alt 1 |&lt;alt2&gt; alt 2 | &#0183;\n&#0183;\n&#0183; |&lt;altn&gt; alt n}}" target="_parent">
<polygon fill="none" stroke="black" points="118.217,-106.662 118.217,-239.462 351.783,-239.462 351.783,-106.662 118.217,-106.662"/>
<text text-anchor="middle" x="206.004" y="-168.862" font-family="Courier New" font-size="14.00">PlusBlockStartState</text>
<polyline fill="none" stroke="black" points="293.79,-106.662 293.79,-239.462 "/>
<text text-anchor="middle" x="322.787" y="-222.862" font-family="Courier New" font-size="14.00">alt 1</text>
<polyline fill="none" stroke="black" points="293.79,-214.662 351.783,-214.662 "/>
<text text-anchor="middle" x="322.787" y="-198.062" font-family="Courier New" font-size="14.00">alt 2</text>
<polyline fill="none" stroke="black" points="293.79,-189.862 351.783,-189.862 "/>
<text text-anchor="middle" x="322.787" y="-173.262" font-family="Courier New" font-size="14.00">·</text>
<text text-anchor="middle" x="322.787" y="-156.462" font-family="Courier New" font-size="14.00">·</text>
<text text-anchor="middle" x="322.787" y="-139.662" font-family="Courier New" font-size="14.00">·</text>
<polyline fill="none" stroke="black" points="293.79,-131.462 351.783,-131.462 "/>
<text text-anchor="middle" x="322.787" y="-114.862" font-family="Courier New" font-size="14.00">alt n</text>
</a>
</g>
</g>
<!-- content1 -->
<g id="node5" class="node"><title>content1</title>
<ellipse fill="none" stroke="black" stroke-dasharray="5,2" cx="446" cy="-243.062" rx="40.005" ry="18"/>
<text text-anchor="middle" x="446" y="-238.862" font-family="Courier New" font-size="14.00">alt 1</text>
</g>
<!-- PlusBlockStartState&#45;&gt;content1 -->
<g id="edge3" class="edge"><title>PlusBlockStartState:alt1&#45;&gt;content1</title>
<path fill="none" stroke="black" d="M352,-227.062C367.973,-227.062 385.27,-229.383 400.564,-232.257"/>
<polygon fill="black" stroke="black" points="400.298,-235.774 410.792,-234.313 401.678,-228.911 400.298,-235.774"/>
<text text-anchor="middle" x="379" y="-233.262" font-family="Courier New" font-size="14.00">ε</text>
</g>
<!-- content2 -->
<g id="node6" class="node"><title>content2</title>
<ellipse fill="none" stroke="black" stroke-dasharray="5,2" cx="446" cy="-189.062" rx="40.005" ry="18"/>
<text text-anchor="middle" x="446" y="-184.862" font-family="Courier New" font-size="14.00">alt 2</text>
</g>
<!-- PlusBlockStartState&#45;&gt;content2 -->
<g id="edge5" class="edge"><title>PlusBlockStartState:alt2&#45;&gt;content2</title>
<path fill="none" stroke="black" d="M352,-202.062C360.096,-202.062 361.988,-200.43 370,-199.262 378.786,-197.982 388.16,-196.666 397.198,-195.424"/>
<polygon fill="black" stroke="black" points="397.775,-198.878 407.21,-194.058 396.829,-191.942 397.775,-198.878"/>
<text text-anchor="middle" x="379" y="-204.262" font-family="Courier New" font-size="14.00">ε</text>
</g>
<!-- more -->
<g id="node7" class="node"><title>more</title>
<ellipse fill="none" stroke="black" stroke-dasharray="5,2" cx="446" cy="-135.062" rx="40.005" ry="18"/>
<text text-anchor="middle" x="446" y="-130.862" font-family="Courier New" font-size="14.00">alt n</text>
</g>
<!-- PlusBlockStartState&#45;&gt;more -->
<g id="edge7" class="edge"><title>PlusBlockStartState:altn&#45;&gt;more</title>
<path fill="none" stroke="black" d="M352,-119.062C367.973,-119.062 385.27,-121.383 400.564,-124.257"/>
<polygon fill="black" stroke="black" points="400.298,-127.774 410.792,-126.313 401.678,-120.911 400.298,-127.774"/>
<text text-anchor="middle" x="379" y="-126.262" font-family="Courier New" font-size="14.00">ε</text>
</g>
<!-- PlusLoopbackState -->
<g id="node2" class="node"><title>PlusLoopbackState</title>
<g id="a_node2"><a xlink:href="../PlusLoopbackState.html" xlink:title="{PlusLoopbackState | {&lt;alt1&gt; alt 1 |&lt;alt2&gt; alt 2}}" target="_parent">
<polygon fill="none" stroke="black" points="720.615,-120.262 720.615,-169.862 937.385,-169.862 937.385,-120.262 720.615,-120.262"/>
<text text-anchor="middle" x="800.004" y="-140.862" font-family="Courier New" font-size="14.00">PlusLoopbackState</text>
<polyline fill="none" stroke="black" points="879.392,-120.262 879.392,-169.862 "/>
<text text-anchor="middle" x="908.388" y="-153.262" font-family="Courier New" font-size="14.00">alt 1</text>
<polyline fill="none" stroke="black" points="879.392,-145.062 937.385,-145.062 "/>
<text text-anchor="middle" x="908.388" y="-128.462" font-family="Courier New" font-size="14.00">alt 2</text>
</a>
</g>
</g>
<!-- PlusLoopbackState&#45;&gt;PlusBlockStartState -->
<g id="edge10" class="edge"><title>PlusLoopbackState:alt2:s&#45;&gt;PlusBlockStartState:s</title>
<path fill="none" stroke="black" d="M908,-119.062C908,27.0152 266.177,42.8367 236.092,-95.8124"/>
<polygon fill="black" stroke="black" points="232.579,-95.7479 235,-106.062 239.54,-96.4893 232.579,-95.7479"/>
<text text-anchor="middle" x="513" y="-5.26237" font-family="Courier New" font-size="14.00">ε</text>
</g>
<!-- LoopEndState -->
<g id="node4" class="node"><title>LoopEndState</title>
<g id="a_node4"><a xlink:href="../LoopEndState.html" xlink:title="\N" target="_parent">
<polygon fill="none" stroke="black" points="992.608,-139.062 992.608,-175.062 1109.39,-175.062 1109.39,-139.062 992.608,-139.062"/>
<text text-anchor="middle" x="1051" y="-152.962" font-family="Courier New" font-size="14.00">LoopEndState</text>
</a>
</g>
</g>
<!-- PlusLoopbackState&#45;&gt;LoopEndState -->
<g id="edge11" class="edge"><title>PlusLoopbackState:alt1&#45;&gt;LoopEndState</title>
<path fill="none" stroke="black" d="M938,-157.062C952.377,-157.062 967.792,-157.062 982.446,-157.062"/>
<polygon fill="black" stroke="black" points="982.447,-160.562 992.447,-157.062 982.447,-153.562 982.447,-160.562"/>
<text text-anchor="middle" x="965" y="-161.262" font-family="Courier New" font-size="14.00">ε</text>
</g>
<!-- BlockEndState -->
<g id="node3" class="node"><title>BlockEndState</title>
<g id="a_node3"><a xlink:href="../BlockEndState.html" xlink:title="\N" target="_parent">
<polygon fill="none" stroke="black" points="540.409,-142.062 540.409,-178.062 665.591,-178.062 665.591,-142.062 540.409,-142.062"/>
<text text-anchor="middle" x="603" y="-155.962" font-family="Courier New" font-size="14.00">BlockEndState</text>
</a>
</g>
</g>
<!-- BlockEndState&#45;&gt;PlusLoopbackState -->
<g id="edge9" class="edge"><title>BlockEndState&#45;&gt;PlusLoopbackState</title>
<path fill="none" stroke="black" d="M665.802,-155.924C679.718,-154.992 694.937,-153.973 710.3,-152.944"/>
<polygon fill="black" stroke="black" points="710.661,-156.428 720.404,-152.267 710.193,-149.443 710.661,-156.428"/>
<text text-anchor="middle" x="693" y="-159.262" font-family="Courier New" font-size="14.00">ε</text>
</g>
<!-- end -->
<g id="node9" class="node"><title>end</title>
<ellipse fill="none" stroke="black" stroke-dasharray="5,2" cx="1193" cy="-157.062" rx="28.3325" ry="18"/>
<text text-anchor="middle" x="1193" y="-152.862" font-family="Courier New" font-size="14.00">end</text>
</g>
<!-- LoopEndState&#45;&gt;end -->
<g id="edge2" class="edge"><title>LoopEndState&#45;&gt;end</title>
<path fill="none" stroke="black" d="M1109.75,-157.062C1124.76,-157.062 1140.54,-157.062 1154.22,-157.062"/>
<polygon fill="black" stroke="black" points="1154.22,-160.562 1164.22,-157.062 1154.22,-153.562 1154.22,-160.562"/>
<text text-anchor="middle" x="1137" y="-161.262" font-family="Courier New" font-size="14.00">ε</text>
</g>
<!-- content1&#45;&gt;BlockEndState -->
<g id="edge4" class="edge"><title>content1&#45;&gt;BlockEndState</title>
<path fill="none" stroke="black" stroke-dasharray="5,2" d="M472.595,-229.357C496.08,-216.781 531.333,-197.903 559.116,-183.026"/>
<polygon fill="black" stroke="black" points="561.061,-185.955 568.224,-178.149 557.756,-179.784 561.061,-185.955"/>
</g>
<!-- content2&#45;&gt;BlockEndState -->
<g id="edge6" class="edge"><title>content2&#45;&gt;BlockEndState</title>
<path fill="none" stroke="black" stroke-dasharray="5,2" d="M483.341,-182.263C497.42,-179.629 514.052,-176.517 530.338,-173.47"/>
<polygon fill="black" stroke="black" points="531.222,-176.866 540.408,-171.586 529.935,-169.985 531.222,-176.866"/>
</g>
<!-- more&#45;&gt;BlockEndState -->
<g id="edge8" class="edge"><title>more&#45;&gt;BlockEndState</title>
<path fill="none" stroke="black" stroke-dasharray="5,2" d="M484.126,-141.05C498.07,-143.299 514.433,-145.939 530.454,-148.523"/>
<polygon fill="black" stroke="black" points="529.931,-151.983 540.361,-150.121 531.046,-145.073 529.931,-151.983"/>
</g>
<!-- begin -->
<g id="node8" class="node"><title>begin</title>
<ellipse fill="none" stroke="black" stroke-dasharray="5,2" cx="40" cy="-173.062" rx="40.005" ry="18"/>
<text text-anchor="middle" x="40" y="-168.862" font-family="Courier New" font-size="14.00">begin</text>
</g>
<!-- begin&#45;&gt;PlusBlockStartState -->
<g id="edge1" class="edge"><title>begin&#45;&gt;PlusBlockStartState</title>
<path fill="none" stroke="black" stroke-dasharray="5,2" d="M80.0564,-173.062C88.5653,-173.062 98.0109,-173.062 107.917,-173.062"/>
<polygon fill="black" stroke="black" points="107.959,-176.562 117.959,-173.062 107.959,-169.562 107.959,-176.562"/>
</g>
</g>
</svg>
