<?xml version="1.0" encoding="UTF-8" standalone="no"?>
<!DOCTYPE svg PUBLIC "-//W3C//DTD SVG 1.1//EN"
 "http://www.w3.org/Graphics/SVG/1.1/DTD/svg11.dtd">
<!-- Generated by graphviz version 8.0.5 (20230430.1635)
 -->
<!-- Pages: 1 -->
<svg width="1019pt" height="289pt"
 viewBox="0.00 0.00 1018.69 289.35" xmlns="http://www.w3.org/2000/svg" xmlns:xlink="http://www.w3.org/1999/xlink">
<g id="graph0" class="graph" transform="scale(1 1) rotate(0) translate(18 271.35)">
<polygon fill="white" stroke="none" points="-18,18 -18,-271.35 1000.69,-271.35 1000.69,18 -18,18"/>
<g id="clust1" class="cluster">
<title>cluster0</title>
<polygon fill="none" stroke="none" points="92.69,-65.35 92.69,-245.35 893.19,-245.35 893.19,-65.35 92.69,-65.35"/>
</g>
<!-- PlusBlockStartState -->
<g id="node1" class="node">
<title>PlusBlockStartState</title>
<g id="a_node1"><a xlink:href="../PlusBlockStartState.html" xlink:title="{PlusBlockStartState | {&lt;alt1&gt; alt 1 |&lt;alt2&gt; alt 2 | &amp;#0183;\n&amp;#0183;\n&amp;#0183; |&lt;altn&gt; alt n}}" target="_parent">
<polygon fill="none" stroke="black" points="100.69,-88.35 100.69,-210.35 277.44,-210.35 277.44,-88.35 100.69,-88.35"/>
<text text-anchor="middle" x="168.32" y="-143.55" font-family="CourierNew" font-size="14.00">PlusBlockStartState</text>
<polyline fill="none" stroke="black" points="235.94,-88.35 235.94,-210.35"/>
<text text-anchor="middle" x="256.69" y="-193.05" font-family="CourierNew" font-size="14.00">alt 1</text>
<polyline fill="none" stroke="black" points="235.94,-187.35 277.44,-187.35"/>
<text text-anchor="middle" x="256.69" y="-170.05" font-family="CourierNew" font-size="14.00">alt 2</text>
<polyline fill="none" stroke="black" points="235.94,-164.35 277.44,-164.35"/>
<text text-anchor="middle" x="256.69" y="-147.05" font-family="CourierNew" font-size="14.00">·</text>
<text text-anchor="middle" x="256.69" y="-132.05" font-family="CourierNew" font-size="14.00">·</text>
<text text-anchor="middle" x="256.69" y="-117.05" font-family="CourierNew" font-size="14.00">·</text>
<polyline fill="none" stroke="black" points="235.94,-111.35 277.44,-111.35"/>
<text text-anchor="middle" x="256.69" y="-94.05" font-family="CourierNew" font-size="14.00">alt n</text>
</a>
</g>
</g>
<!-- content1 -->
<g id="node5" class="node">
<title>content1</title>
<ellipse fill="none" stroke="black" stroke-dasharray="5,2" cx="347.94" cy="-219.35" rx="27" ry="18"/>
<text text-anchor="middle" x="347.94" y="-213.55" font-family="CourierNew" font-size="14.00">alt 1</text>
</g>
<!-- PlusBlockStartState&#45;&gt;content1 -->
<g id="edge3" class="edge">
<title>PlusBlockStartState:alt1&#45;&gt;content1</title>
<path fill="none" stroke="black" d="M277.44,-199.35C289.94,-199.35 303.23,-202.37 314.8,-206.07"/>
<polygon fill="black" stroke="black" points="313.28,-209.59 323.87,-209.58 315.58,-202.98 313.28,-209.59"/>
<text text-anchor="middle" x="299.19" y="-204.05" font-family="CourierNew" font-size="14.00">ε</text>
</g>
<!-- content2 -->
<g id="node6" class="node">
<title>content2</title>
<ellipse fill="none" stroke="black" stroke-dasharray="5,2" cx="347.94" cy="-165.35" rx="27" ry="18"/>
<text text-anchor="middle" x="347.94" y="-159.55" font-family="CourierNew" font-size="14.00">alt 2</text>
</g>
<!-- PlusBlockStartState&#45;&gt;content2 -->
<g id="edge5" class="edge">
<title>PlusBlockStartState:alt2&#45;&gt;content2</title>
<path fill="none" stroke="black" d="M277.44,-176.35C285.75,-176.35 287.3,-172.94 295.44,-171.35 300.19,-170.42 305.22,-169.61 310.2,-168.92"/>
<polygon fill="black" stroke="black" points="310.4,-172.3 319.89,-167.59 309.53,-165.35 310.4,-172.3"/>
<text text-anchor="middle" x="299.19" y="-173.05" font-family="CourierNew" font-size="14.00">ε</text>
</g>
<!-- more -->
<g id="node7" class="node">
<title>more</title>
<ellipse fill="none" stroke="black" stroke-dasharray="5,2" cx="347.94" cy="-111.35" rx="27" ry="18"/>
<text text-anchor="middle" x="347.94" y="-105.55" font-family="CourierNew" font-size="14.00">alt n</text>
</g>
<!-- PlusBlockStartState&#45;&gt;more -->
<g id="edge7" class="edge">
<title>PlusBlockStartState:altn&#45;&gt;more</title>
<path fill="none" stroke="black" d="M277.44,-99.35C288.74,-99.35 300.92,-100.91 311.88,-102.9"/>
<polygon fill="black" stroke="black" points="310.86,-106.46 321.35,-105 312.24,-99.6 310.86,-106.46"/>
<text text-anchor="middle" x="299.19" y="-104.05" font-family="CourierNew" font-size="14.00">ε</text>
</g>
<!-- PlusLoopbackState -->
<g id="node2" class="node">
<title>PlusLoopbackState</title>
<g id="a_node2"><a xlink:href="../PlusLoopbackState.html" xlink:title="{PlusLoopbackState | {&lt;alt1&gt; alt 1 |&lt;alt2&gt; alt 2}}" target="_parent">
<polygon fill="none" stroke="black" points="566.44,-91.35 566.44,-137.35 740.19,-137.35 740.19,-91.35 566.44,-91.35"/>
<text text-anchor="middle" x="632.57" y="-108.55" font-family="CourierNew" font-size="14.00">PlusLoopbackState</text>
<polyline fill="none" stroke="black" points="698.69,-91.35 698.69,-137.35"/>
<text text-anchor="middle" x="719.44" y="-120.05" font-family="CourierNew" font-size="14.00">alt 1</text>
<polyline fill="none" stroke="black" points="698.69,-114.35 740.19,-114.35"/>
<text text-anchor="middle" x="719.44" y="-97.05" font-family="CourierNew" font-size="14.00">alt 2</text>
</a>
</g>
</g>
<!-- PlusLoopbackState&#45;&gt;PlusBlockStartState -->
<g id="edge10" class="edge">
<title>PlusLoopbackState:s&#45;&gt;PlusBlockStartState:s</title>
<path fill="none" stroke="black" d="M719.32,-90.35C719.32,23.81 221.69,30.19 190.59,-76.65"/>
<polygon fill="black" stroke="black" points="187.01,-75.95 189.07,-86.35 193.94,-76.94 187.01,-75.95"/>
<text text-anchor="middle" x="396.69" y="-4.05" font-family="CourierNew" font-size="14.00">ε</text>
</g>
<!-- LoopEndState -->
<g id="node4" class="node">
<title>LoopEndState</title>
<g id="a_node4"><a xlink:href="../LoopEndState.html" xlink:title="\N" target="_parent">
<polygon fill="none" stroke="black" points="783.69,-108.35 783.69,-144.35 885.19,-144.35 885.19,-108.35 783.69,-108.35"/>
<text text-anchor="middle" x="834.44" y="-120.55" font-family="CourierNew" font-size="14.00">LoopEndState</text>
</a>
</g>
</g>
<!-- PlusLoopbackState&#45;&gt;LoopEndState -->
<g id="edge11" class="edge">
<title>PlusLoopbackState:alt1&#45;&gt;LoopEndState</title>
<path fill="none" stroke="black" d="M740.19,-126.35C750.88,-126.35 762.25,-126.35 773.25,-126.35"/>
<polygon fill="black" stroke="black" points="773.08,-129.85 783.08,-126.35 773.08,-122.85 773.08,-129.85"/>
<text text-anchor="middle" x="761.94" y="-129.05" font-family="CourierNew" font-size="14.00">ε</text>
</g>
<!-- BlockEndState -->
<g id="node3" class="node">
<title>BlockEndState</title>
<g id="a_node3"><a xlink:href="../BlockEndState.html" xlink:title="\N" target="_parent">
<polygon fill="none" stroke="black" points="418.44,-129.35 418.44,-165.35 522.94,-165.35 522.94,-129.35 418.44,-129.35"/>
<text text-anchor="middle" x="470.69" y="-141.55" font-family="CourierNew" font-size="14.00">BlockEndState</text>
</a>
</g>
</g>
<!-- BlockEndState&#45;&gt;PlusLoopbackState -->
<g id="edge9" class="edge">
<title>BlockEndState&#45;&gt;PlusLoopbackState</title>
<path fill="none" stroke="black" d="M522.49,-138.07C533.03,-136.14 544.48,-134.05 556.05,-131.94"/>
<polygon fill="black" stroke="black" points="556.48,-135.23 565.69,-129.99 555.22,-128.35 556.48,-135.23"/>
<text text-anchor="middle" x="544.69" y="-136.05" font-family="CourierNew" font-size="14.00">ε</text>
</g>
<!-- end -->
<g id="node9" class="node">
<title>end</title>
<ellipse fill="none" stroke="black" stroke-dasharray="5,2" cx="955.69" cy="-126.35" rx="27" ry="18"/>
<text text-anchor="middle" x="955.69" y="-120.55" font-family="CourierNew" font-size="14.00">end</text>
</g>
<!-- LoopEndState&#45;&gt;end -->
<g id="edge2" class="edge">
<title>LoopEndState&#45;&gt;end</title>
<path fill="none" stroke="black" d="M884.98,-126.35C895.88,-126.35 907.25,-126.35 917.56,-126.35"/>
<polygon fill="black" stroke="black" points="917.27,-129.85 927.27,-126.35 917.27,-122.85 917.27,-129.85"/>
<text text-anchor="middle" x="906.94" y="-128.05" font-family="CourierNew" font-size="14.00">ε</text>
</g>
<!-- content1&#45;&gt;BlockEndState -->
<g id="edge4" class="edge">
<title>content1&#45;&gt;BlockEndState</title>
<path fill="none" stroke="black" stroke-dasharray="5,2" d="M368.88,-207.46C385.54,-197.53 409.79,-183.07 430.33,-170.82"/>
<polygon fill="black" stroke="black" points="431.97,-173.32 438.77,-165.19 428.39,-167.31 431.97,-173.32"/>
</g>
<!-- content2&#45;&gt;BlockEndState -->
<g id="edge6" class="edge">
<title>content2&#45;&gt;BlockEndState</title>
<path fill="none" stroke="black" stroke-dasharray="5,2" d="M374.55,-161.53C384.41,-160.06 396.15,-158.31 407.95,-156.55"/>
<polygon fill="black" stroke="black" points="408.38,-159.88 417.76,-154.94 407.35,-152.95 408.38,-159.88"/>
</g>
<!-- more&#45;&gt;BlockEndState -->
<g id="edge8" class="edge">
<title>more&#45;&gt;BlockEndState</title>
<path fill="none" stroke="black" stroke-dasharray="5,2" d="M373.09,-118.55C383.31,-121.59 395.72,-125.29 408.19,-129.01"/>
<polygon fill="black" stroke="black" points="407.06,-132.62 417.64,-132.13 409.06,-125.92 407.06,-132.62"/>
</g>
<!-- begin -->
<g id="node8" class="node">
<title>begin</title>
<ellipse fill="none" stroke="black" stroke-dasharray="5,2" cx="31.85" cy="-149.35" rx="31.85" ry="18"/>
<text text-anchor="middle" x="31.85" y="-143.55" font-family="CourierNew" font-size="14.00">begin</text>
</g>
<!-- begin&#45;&gt;PlusBlockStartState -->
<g id="edge1" class="edge">
<title>begin&#45;&gt;PlusBlockStartState</title>
<path fill="none" stroke="black" stroke-dasharray="5,2" d="M63.89,-149.35C71.79,-149.35 80.72,-149.35 90.08,-149.35"/>
<polygon fill="black" stroke="black" points="89.79,-152.85 99.79,-149.35 89.79,-145.85 89.79,-152.85"/>
</g>
</g>
</svg>
