<?xml version="1.0" encoding="UTF-8" standalone="no"?>
<!DOCTYPE svg PUBLIC "-//W3C//DTD SVG 1.1//EN"
 "http://www.w3.org/Graphics/SVG/1.1/DTD/svg11.dtd">
<!-- Generated by graphviz version 2.38.0 (20140413.2041)
 -->
<!-- Pages: 1 -->
<svg width="1075pt" height="295pt"
 viewBox="0.00 0.00 1075.43 294.94" xmlns="http://www.w3.org/2000/svg" xmlns:xlink="http://www.w3.org/1999/xlink">
<g id="graph0" class="graph" transform="scale(1 1) rotate(0) translate(18 276.942)">
<polygon fill="white" stroke="none" points="-18,18 -18,-276.942 1057.43,-276.942 1057.43,18 -18,18"/>
<g id="clust1" class="cluster"><title>cluster0</title>
<polygon fill="none" stroke="none" points="102.774,-70.9416 102.774,-250.942 948.596,-250.942 948.596,-70.9416 102.774,-70.9416"/>
</g>
<!-- PlusBlockStartState -->
<g id="node1" class="node"><title>PlusBlockStartState</title>
<g id="a_node1"><a xlink:href="../PlusBlockStartState.html" xlink:title="{PlusBlockStartState | {&lt;alt1&gt; alt 1 |&lt;alt2&gt; alt 2 | &#0183;\n&#0183;\n&#0183; |&lt;altn&gt; alt n}}" target="_parent">
<polygon fill="none" stroke="black" points="110.774,-88.4768 110.774,-219.406 300.985,-219.406 300.985,-88.4768 110.774,-88.4768"/>
<text text-anchor="middle" x="182.731" y="-150.986" font-family="CourierNew" font-size="14.00">PlusBlockStartState</text>
<polyline fill="none" stroke="black" points="254.688,-88.4768 254.688,-219.406 "/>
<text text-anchor="middle" x="277.836" y="-204.206" font-family="CourierNew" font-size="14.00">alt 1</text>
<polyline fill="none" stroke="black" points="254.688,-194.918 300.985,-194.918 "/>
<text text-anchor="middle" x="277.836" y="-179.718" font-family="CourierNew" font-size="14.00">alt 2</text>
<polyline fill="none" stroke="black" points="254.688,-170.43 300.985,-170.43 "/>
<text text-anchor="middle" x="277.836" y="-155.23" font-family="CourierNew" font-size="14.00">·</text>
<text text-anchor="middle" x="277.836" y="-138.742" font-family="CourierNew" font-size="14.00">·</text>
<text text-anchor="middle" x="277.836" y="-122.253" font-family="CourierNew" font-size="14.00">·</text>
<polyline fill="none" stroke="black" points="254.688,-112.965 300.985,-112.965 "/>
<text text-anchor="middle" x="277.836" y="-97.7651" font-family="CourierNew" font-size="14.00">alt n</text>
</a>
</g>
</g>
<!-- content1 -->
<g id="node5" class="node"><title>content1</title>
<ellipse fill="none" stroke="black" stroke-dasharray="5,2" cx="375.059" cy="-224.942" rx="31.6611" ry="18"/>
<text text-anchor="middle" x="375.059" y="-221.986" font-family="CourierNew" font-size="14.00">alt 1</text>
</g>
<!-- PlusBlockStartState&#45;&gt;content1 -->
<g id="edge3" class="edge"><title>PlusBlockStartState:alt1&#45;&gt;content1</title>
<path fill="none" stroke="black" d="M300.985,-206.942C313.314,-206.942 326.482,-209.387 338.195,-212.475"/>
<polygon fill="black" stroke="black" points="337.48,-215.911 348.057,-215.309 339.413,-209.183 337.48,-215.911"/>
<text text-anchor="middle" x="322.232" y="-214.23" font-family="CourierNew" font-size="14.00">ε</text>
</g>
<!-- content2 -->
<g id="node6" class="node"><title>content2</title>
<ellipse fill="none" stroke="black" stroke-dasharray="5,2" cx="375.059" cy="-170.942" rx="31.6611" ry="18"/>
<text text-anchor="middle" x="375.059" y="-167.986" font-family="CourierNew" font-size="14.00">alt 2</text>
</g>
<!-- PlusBlockStartState&#45;&gt;content2 -->
<g id="edge5" class="edge"><title>PlusBlockStartState:alt2&#45;&gt;content2</title>
<path fill="none" stroke="black" d="M300.985,-182.942C309.134,-182.942 310.957,-180.851 318.985,-179.453 323.852,-178.606 328.969,-177.758 334.042,-176.943"/>
<polygon fill="black" stroke="black" points="334.965,-180.341 344.299,-175.329 333.877,-173.426 334.965,-180.341"/>
<text text-anchor="middle" x="322.232" y="-185.23" font-family="CourierNew" font-size="14.00">ε</text>
</g>
<!-- more -->
<g id="node7" class="node"><title>more</title>
<ellipse fill="none" stroke="black" stroke-dasharray="5,2" cx="375.059" cy="-116.942" rx="31.4371" ry="18"/>
<text text-anchor="middle" x="375.059" y="-113.986" font-family="CourierNew" font-size="14.00">alt n</text>
</g>
<!-- PlusBlockStartState&#45;&gt;more -->
<g id="edge7" class="edge"><title>PlusBlockStartState:altn&#45;&gt;more</title>
<path fill="none" stroke="black" d="M300.985,-100.942C313.038,-100.942 325.957,-103.045 337.529,-105.726"/>
<polygon fill="black" stroke="black" points="336.744,-109.137 347.296,-108.193 338.458,-102.35 336.744,-109.137"/>
<text text-anchor="middle" x="322.232" y="-109.23" font-family="CourierNew" font-size="14.00">ε</text>
</g>
<!-- PlusLoopbackState -->
<g id="node2" class="node"><title>PlusLoopbackState</title>
<g id="a_node2"><a xlink:href="../PlusLoopbackState.html" xlink:title="{PlusLoopbackState | {&lt;alt1&gt; alt 1 |&lt;alt2&gt; alt 2}}" target="_parent">
<polygon fill="none" stroke="black" points="602.21,-101.453 602.21,-150.43 790.131,-150.43 790.131,-101.453 602.21,-101.453"/>
<text text-anchor="middle" x="673.022" y="-122.986" font-family="CourierNew" font-size="14.00">PlusLoopbackState</text>
<polyline fill="none" stroke="black" points="743.834,-101.453 743.834,-150.43 "/>
<text text-anchor="middle" x="766.983" y="-135.23" font-family="CourierNew" font-size="14.00">alt 1</text>
<polyline fill="none" stroke="black" points="743.834,-125.942 790.131,-125.942 "/>
<text text-anchor="middle" x="766.983" y="-110.742" font-family="CourierNew" font-size="14.00">alt 2</text>
</a>
</g>
</g>
<!-- PlusLoopbackState&#45;&gt;PlusBlockStartState -->
<g id="edge10" class="edge"><title>PlusLoopbackState:alt2:s&#45;&gt;PlusBlockStartState:s</title>
<path fill="none" stroke="black" d="M767.171,-100.942C767.171,20.4117 236.155,36.0287 207.115,-78.0155"/>
<polygon fill="black" stroke="black" points="203.642,-77.5857 205.879,-87.9416 210.588,-78.4508 203.642,-77.5857"/>
<text text-anchor="middle" x="427.887" y="-7.22989" font-family="CourierNew" font-size="14.00">ε</text>
</g>
<!-- LoopEndState -->
<g id="node4" class="node"><title>LoopEndState</title>
<g id="a_node4"><a xlink:href="../LoopEndState.html" xlink:title="\N" target="_parent">
<polygon fill="none" stroke="black" points="832.625,-119.942 832.625,-155.942 940.596,-155.942 940.596,-119.942 832.625,-119.942"/>
<text text-anchor="middle" x="886.611" y="-135.242" font-family="CourierNew" font-size="14.00">LoopEndState</text>
</a>
</g>
</g>
<!-- PlusLoopbackState&#45;&gt;LoopEndState -->
<g id="edge11" class="edge"><title>PlusLoopbackState:alt1&#45;&gt;LoopEndState</title>
<path fill="none" stroke="black" d="M790.131,-137.942C800.557,-137.942 811.624,-137.942 822.387,-137.942"/>
<polygon fill="black" stroke="black" points="822.582,-141.442 832.582,-137.942 822.582,-134.442 822.582,-141.442"/>
<text text-anchor="middle" x="811.378" y="-143.23" font-family="CourierNew" font-size="14.00">ε</text>
</g>
<!-- BlockEndState -->
<g id="node3" class="node"><title>BlockEndState</title>
<g id="a_node3"><a xlink:href="../BlockEndState.html" xlink:title="\N" target="_parent">
<polygon fill="none" stroke="black" points="449.134,-123.942 449.134,-159.942 559.716,-159.942 559.716,-123.942 449.134,-123.942"/>
<text text-anchor="middle" x="504.425" y="-139.242" font-family="CourierNew" font-size="14.00">BlockEndState</text>
</a>
</g>
</g>
<!-- BlockEndState&#45;&gt;PlusLoopbackState -->
<g id="edge9" class="edge"><title>BlockEndState&#45;&gt;PlusLoopbackState</title>
<path fill="none" stroke="black" d="M559.799,-137.357C569.944,-136.501 580.849,-135.582 591.908,-134.649"/>
<polygon fill="black" stroke="black" points="592.42,-138.118 602.09,-133.79 591.832,-131.143 592.42,-138.118"/>
<text text-anchor="middle" x="580.963" y="-141.23" font-family="CourierNew" font-size="14.00">ε</text>
</g>
<!-- end -->
<g id="node9" class="node"><title>end</title>
<ellipse fill="none" stroke="black" stroke-dasharray="5,2" cx="1011.26" cy="-137.942" rx="28.3447" ry="18"/>
<text text-anchor="middle" x="1011.26" y="-134.986" font-family="CourierNew" font-size="14.00">end</text>
</g>
<!-- LoopEndState&#45;&gt;end -->
<g id="edge2" class="edge"><title>LoopEndState&#45;&gt;end</title>
<path fill="none" stroke="black" d="M940.694,-137.942C951.553,-137.942 962.764,-137.942 972.93,-137.942"/>
<polygon fill="black" stroke="black" points="973.088,-141.442 983.088,-137.942 973.088,-134.442 973.088,-141.442"/>
<text text-anchor="middle" x="961.843" y="-143.23" font-family="CourierNew" font-size="14.00">ε</text>
</g>
<!-- content1&#45;&gt;BlockEndState -->
<g id="edge4" class="edge"><title>content1&#45;&gt;BlockEndState</title>
<path fill="none" stroke="black" stroke-dasharray="5,2" d="M396.523,-211.606C415.478,-199.254 444.106,-180.598 466.968,-165.7"/>
<polygon fill="black" stroke="black" points="468.948,-168.587 475.415,-160.195 465.126,-162.722 468.948,-168.587"/>
</g>
<!-- content2&#45;&gt;BlockEndState -->
<g id="edge6" class="edge"><title>content2&#45;&gt;BlockEndState</title>
<path fill="none" stroke="black" stroke-dasharray="5,2" d="M404.643,-164.433C414.899,-162.098 426.922,-159.361 438.982,-156.615"/>
<polygon fill="black" stroke="black" points="440.109,-159.948 449.082,-154.315 438.555,-153.122 440.109,-159.948"/>
</g>
<!-- more&#45;&gt;BlockEndState -->
<g id="edge8" class="edge"><title>more&#45;&gt;BlockEndState</title>
<path fill="none" stroke="black" stroke-dasharray="5,2" d="M404.961,-122.614C415.167,-124.618 427.093,-126.959 439.051,-129.306"/>
<polygon fill="black" stroke="black" points="438.58,-132.78 449.067,-131.272 439.929,-125.911 438.58,-132.78"/>
</g>
<!-- begin -->
<g id="node8" class="node"><title>begin</title>
<ellipse fill="none" stroke="black" stroke-dasharray="5,2" cx="36.8869" cy="-153.942" rx="36.7742" ry="18"/>
<text text-anchor="middle" x="36.8869" y="-150.986" font-family="CourierNew" font-size="14.00">begin</text>
</g>
<!-- begin&#45;&gt;PlusBlockStartState -->
<g id="edge1" class="edge"><title>begin&#45;&gt;PlusBlockStartState</title>
<path fill="none" stroke="black" stroke-dasharray="5,2" d="M74.1218,-153.942C82.1526,-153.942 91.0531,-153.942 100.324,-153.942"/>
<polygon fill="black" stroke="black" points="100.506,-157.442 110.506,-153.942 100.506,-150.442 100.506,-157.442"/>
</g>
</g>
</svg>
