<?xml version="1.0" encoding="UTF-8" standalone="no"?>
<!DOCTYPE svg PUBLIC "-//W3C//DTD SVG 1.1//EN"
 "http://www.w3.org/Graphics/SVG/1.1/DTD/svg11.dtd">
<!-- Generated by graphviz version 2.37.20140119.0545 (20140119.0545)
 -->
<!-- Pages: 1 -->
<svg width="1198pt" height="235pt"
 viewBox="0.00 0.00 1198.00 235.00" xmlns="http://www.w3.org/2000/svg" xmlns:xlink="http://www.w3.org/1999/xlink">
<g id="graph0" class="graph" transform="scale(1 1) rotate(0) translate(18 217)">
<polygon fill="white" stroke="none" points="-18,18 -18,-217 1180,-217 1180,18 -18,18"/>
<g id="clust1" class="cluster"><title>cluster0</title>
<polygon fill="none" stroke="none" points="106,-8 106,-188 1070,-188 1070,-8 106,-8"/>
</g>
<!-- PlusBlockStartState -->
<g id="node1" class="node"><title>PlusBlockStartState</title>
<g id="a_node1"><a xlink:href="../PlusBlockStartState.html" xlink:title="{PlusBlockStartState | {&lt;alt1&gt; alt 1 |&lt;alt2&gt; alt 2 | &#0183;\n&#0183;\n&#0183; |&lt;altn&gt; alt n}}" target="_parent">
<polygon fill="none" stroke="black" points="114.5,-26 114.5,-148 345.5,-148 345.5,-26 114.5,-26"/>
<text text-anchor="middle" x="201" y="-83.3" font-family="Courier New" font-size="14.00">PlusBlockStartState</text>
<polyline fill="none" stroke="black" points="287.5,-26 287.5,-148 "/>
<text text-anchor="middle" x="316.5" y="-132.8" font-family="Courier New" font-size="14.00">alt 1</text>
<polyline fill="none" stroke="black" points="287.5,-125 345.5,-125 "/>
<text text-anchor="middle" x="316.5" y="-109.8" font-family="Courier New" font-size="14.00">alt 2</text>
<polyline fill="none" stroke="black" points="287.5,-102 345.5,-102 "/>
<text text-anchor="middle" x="316.5" y="-86.8" font-family="Courier New" font-size="14.00">·</text>
<text text-anchor="middle" x="316.5" y="-71.8" font-family="Courier New" font-size="14.00">·</text>
<text text-anchor="middle" x="316.5" y="-56.8" font-family="Courier New" font-size="14.00">·</text>
<polyline fill="none" stroke="black" points="287.5,-49 345.5,-49 "/>
<text text-anchor="middle" x="316.5" y="-33.8" font-family="Courier New" font-size="14.00">alt n</text>
</a>
</g>
</g>
<!-- content1 -->
<g id="node5" class="node"><title>content1</title>
<ellipse fill="none" stroke="black" stroke-dasharray="5,2" cx="430" cy="-142" rx="37.8943" ry="18"/>
<text text-anchor="middle" x="430" y="-138.3" font-family="Courier New" font-size="14.00">alt 1</text>
</g>
<!-- PlusBlockStartState&#45;&gt;content1 -->
<g id="edge3" class="edge"><title>PlusBlockStartState:alt1&#45;&gt;content1</title>
<path fill="none" stroke="black" d="M346,-137C357.835,-137 370.602,-137.513 382.491,-138.21"/>
<polygon fill="black" stroke="black" points="382.463,-141.715 392.667,-138.862 382.911,-134.73 382.463,-141.715"/>
<text text-anchor="middle" x="369" y="-140.8" font-family="Courier New" font-size="14.00">ε</text>
</g>
<!-- content2 -->
<g id="node6" class="node"><title>content2</title>
<ellipse fill="none" stroke="black" stroke-dasharray="5,2" cx="430" cy="-88" rx="37.8943" ry="18"/>
<text text-anchor="middle" x="430" y="-84.3" font-family="Courier New" font-size="14.00">alt 2</text>
</g>
<!-- PlusBlockStartState&#45;&gt;content2 -->
<g id="edge5" class="edge"><title>PlusBlockStartState:alt2&#45;&gt;content2</title>
<path fill="none" stroke="black" d="M346,-114C355.152,-114 355.482,-107.345 364,-104 370.541,-101.431 377.619,-99.1831 384.614,-97.2477"/>
<polygon fill="black" stroke="black" points="385.926,-100.524 394.733,-94.6349 384.176,-93.7462 385.926,-100.524"/>
<text text-anchor="middle" x="369" y="-107.8" font-family="Courier New" font-size="14.00">ε</text>
</g>
<!-- more -->
<g id="node7" class="node"><title>more</title>
<ellipse fill="none" stroke="black" stroke-dasharray="5,2" cx="430" cy="-34" rx="37.8943" ry="18"/>
<text text-anchor="middle" x="430" y="-30.3" font-family="Courier New" font-size="14.00">alt n</text>
</g>
<!-- PlusBlockStartState&#45;&gt;more -->
<g id="edge7" class="edge"><title>PlusBlockStartState:altn&#45;&gt;more</title>
<path fill="none" stroke="black" d="M346,-37C357.71,-37 370.343,-36.6981 382.135,-36.2858"/>
<polygon fill="black" stroke="black" points="382.378,-39.7792 392.237,-35.8999 382.111,-32.7843 382.378,-39.7792"/>
<text text-anchor="middle" x="369" y="-40.8" font-family="Courier New" font-size="14.00">ε</text>
</g>
<!-- PlusLoopbackState -->
<g id="node2" class="node"><title>PlusLoopbackState</title>
<g id="a_node2"><a xlink:href="../PlusLoopbackState.html" xlink:title="{PlusLoopbackState | {&lt;alt1&gt; alt 1 |&lt;alt2&gt; alt 2}}" target="_parent">
<polygon fill="none" stroke="black" points="684.5,-107 684.5,-153 899.5,-153 899.5,-107 684.5,-107"/>
<text text-anchor="middle" x="763" y="-126.3" font-family="Courier New" font-size="14.00">PlusLoopbackState</text>
<polyline fill="none" stroke="black" points="841.5,-107 841.5,-153 "/>
<text text-anchor="middle" x="870.5" y="-137.8" font-family="Courier New" font-size="14.00">alt 1</text>
<polyline fill="none" stroke="black" points="841.5,-130 899.5,-130 "/>
<text text-anchor="middle" x="870.5" y="-114.8" font-family="Courier New" font-size="14.00">alt 2</text>
</a>
</g>
</g>
<!-- PlusLoopbackState&#45;&gt;PlusBlockStartState -->
<g id="edge10" class="edge"><title>PlusLoopbackState:alt1:n&#45;&gt;PlusBlockStartState:n</title>
<path fill="none" stroke="black" d="M871,-154C871,-170.87 293.449,-211.039 234.791,-158.283"/>
<polygon fill="black" stroke="black" points="237.697,-156.281 230,-149 231.476,-159.491 237.697,-156.281"/>
<text text-anchor="middle" x="491" y="-187.8" font-family="Courier New" font-size="14.00">ε</text>
</g>
<!-- LoopEndState -->
<g id="node4" class="node"><title>LoopEndState</title>
<g id="a_node4"><a xlink:href="../LoopEndState.html" xlink:title="\N" target="_parent">
<polygon fill="none" stroke="black" points="946,-100 946,-136 1062,-136 1062,-100 946,-100"/>
<text text-anchor="middle" x="1004" y="-114.3" font-family="Courier New" font-size="14.00">LoopEndState</text>
</a>
</g>
</g>
<!-- PlusLoopbackState&#45;&gt;LoopEndState -->
<g id="edge11" class="edge"><title>PlusLoopbackState:alt2&#45;&gt;LoopEndState</title>
<path fill="none" stroke="black" d="M900,-118C911.479,-118 923.678,-118 935.514,-118"/>
<polygon fill="black" stroke="black" points="935.795,-121.5 945.795,-118 935.795,-114.5 935.795,-121.5"/>
<text text-anchor="middle" x="923" y="-121.8" font-family="Courier New" font-size="14.00">ε</text>
</g>
<!-- BlockEndState -->
<g id="node3" class="node"><title>BlockEndState</title>
<g id="a_node3"><a xlink:href="../BlockEndState.html" xlink:title="\N" target="_parent">
<polygon fill="none" stroke="black" points="514,-99 514,-135 638,-135 638,-99 514,-99"/>
<text text-anchor="middle" x="576" y="-113.3" font-family="Courier New" font-size="14.00">BlockEndState</text>
</a>
</g>
</g>
<!-- BlockEndState&#45;&gt;PlusLoopbackState -->
<g id="edge9" class="edge"><title>BlockEndState&#45;&gt;PlusLoopbackState</title>
<path fill="none" stroke="black" d="M638.037,-120.708C649.443,-121.401 661.708,-122.146 674.153,-122.902"/>
<polygon fill="black" stroke="black" points="673.965,-126.397 684.159,-123.51 674.389,-119.41 673.965,-126.397"/>
<text text-anchor="middle" x="661" y="-126.8" font-family="Courier New" font-size="14.00">ε</text>
</g>
<!-- end -->
<g id="node9" class="node"><title>end</title>
<ellipse fill="none" stroke="black" stroke-dasharray="5,2" cx="1135" cy="-118" rx="27" ry="18"/>
<text text-anchor="middle" x="1135" y="-114.3" font-family="Courier New" font-size="14.00">end</text>
</g>
<!-- LoopEndState&#45;&gt;end -->
<g id="edge2" class="edge"><title>LoopEndState&#45;&gt;end</title>
<path fill="none" stroke="black" d="M1062.33,-118C1074.37,-118 1086.74,-118 1097.74,-118"/>
<polygon fill="black" stroke="black" points="1097.82,-121.5 1107.82,-118 1097.82,-114.5 1097.82,-121.5"/>
<text text-anchor="middle" x="1085" y="-121.8" font-family="Courier New" font-size="14.00">ε</text>
</g>
<!-- content1&#45;&gt;BlockEndState -->
<g id="edge4" class="edge"><title>content1&#45;&gt;BlockEndState</title>
<path fill="none" stroke="black" stroke-dasharray="5,2" d="M465.858,-135.948C477.333,-133.956 490.542,-131.663 503.718,-129.375"/>
<polygon fill="black" stroke="black" points="504.504,-132.791 513.758,-127.632 503.307,-125.894 504.504,-132.791"/>
</g>
<!-- content2&#45;&gt;BlockEndState -->
<g id="edge6" class="edge"><title>content2&#45;&gt;BlockEndState</title>
<path fill="none" stroke="black" stroke-dasharray="5,2" d="M465.126,-94.8726C476.838,-97.2313 490.419,-99.9663 503.955,-102.692"/>
<polygon fill="black" stroke="black" points="503.282,-106.127 513.776,-104.67 504.664,-99.2647 503.282,-106.127"/>
</g>
<!-- more&#45;&gt;BlockEndState -->
<g id="edge8" class="edge"><title>more&#45;&gt;BlockEndState</title>
<path fill="none" stroke="black" stroke-dasharray="5,2" d="M454.779,-47.7058C476.502,-60.2267 509.063,-78.9949 534.822,-93.8421"/>
<polygon fill="black" stroke="black" points="533.209,-96.952 543.621,-98.9135 536.705,-90.8873 533.209,-96.952"/>
</g>
<!-- begin -->
<g id="node8" class="node"><title>begin</title>
<ellipse fill="none" stroke="black" stroke-dasharray="5,2" cx="38" cy="-87" rx="37.8943" ry="18"/>
<text text-anchor="middle" x="38" y="-83.3" font-family="Courier New" font-size="14.00">begin</text>
</g>
<!-- begin&#45;&gt;PlusBlockStartState -->
<g id="edge1" class="edge"><title>begin&#45;&gt;PlusBlockStartState</title>
<path fill="none" stroke="black" stroke-dasharray="5,2" d="M76.085,-87C84.5896,-87 94.0955,-87 104.094,-87"/>
<polygon fill="black" stroke="black" points="104.237,-90.5001 114.237,-87 104.237,-83.5001 104.237,-90.5001"/>
</g>
</g>
</svg>
