<?xml version="1.0" encoding="UTF-8" standalone="no"?>
<!DOCTYPE svg PUBLIC "-//W3C//DTD SVG 1.1//EN"
 "http://www.w3.org/Graphics/SVG/1.1/DTD/svg11.dtd">
<!-- Generated by graphviz version 2.38.0 (20140413.2041)
 -->
<!-- Pages: 1 -->
<svg width="1075pt" height="232pt"
 viewBox="0.00 0.00 1075.43 232.49" xmlns="http://www.w3.org/2000/svg" xmlns:xlink="http://www.w3.org/1999/xlink">
<g id="graph0" class="graph" transform="scale(1 1) rotate(0) translate(18 214.488)">
<polygon fill="white" stroke="none" points="-18,18 -18,-214.488 1057.43,-214.488 1057.43,18 -18,18"/>
<g id="clust1" class="cluster"><title>cluster0</title>
<polygon fill="none" stroke="none" points="102.774,-8 102.774,-188 948.596,-188 948.596,-8 102.774,-8"/>
</g>
<!-- PlusBlockStartState -->
<g id="node1" class="node"><title>PlusBlockStartState</title>
<g id="a_node1"><a xlink:href="../PlusBlockStartState.html" xlink:title="{PlusBlockStartState | {&lt;alt1&gt; alt 1 |&lt;alt2&gt; alt 2 | &#0183;\n&#0183;\n&#0183; |&lt;altn&gt; alt n}}" target="_parent">
<polygon fill="none" stroke="black" points="110.774,-21.5352 110.774,-152.465 300.985,-152.465 300.985,-21.5352 110.774,-21.5352"/>
<text text-anchor="middle" x="182.731" y="-84.0441" font-family="CourierNew" font-size="14.00">PlusBlockStartState</text>
<polyline fill="none" stroke="black" points="254.688,-21.5352 254.688,-152.465 "/>
<text text-anchor="middle" x="277.836" y="-137.265" font-family="CourierNew" font-size="14.00">alt 1</text>
<polyline fill="none" stroke="black" points="254.688,-127.977 300.985,-127.977 "/>
<text text-anchor="middle" x="277.836" y="-112.777" font-family="CourierNew" font-size="14.00">alt 2</text>
<polyline fill="none" stroke="black" points="254.688,-103.488 300.985,-103.488 "/>
<text text-anchor="middle" x="277.836" y="-88.2883" font-family="CourierNew" font-size="14.00">·</text>
<text text-anchor="middle" x="277.836" y="-71.8" font-family="CourierNew" font-size="14.00">·</text>
<text text-anchor="middle" x="277.836" y="-55.3117" font-family="CourierNew" font-size="14.00">·</text>
<polyline fill="none" stroke="black" points="254.688,-46.0234 300.985,-46.0234 "/>
<text text-anchor="middle" x="277.836" y="-30.8234" font-family="CourierNew" font-size="14.00">alt n</text>
</a>
</g>
</g>
<!-- content1 -->
<g id="node5" class="node"><title>content1</title>
<ellipse fill="none" stroke="black" stroke-dasharray="5,2" cx="375.059" cy="-142" rx="31.6611" ry="18"/>
<text text-anchor="middle" x="375.059" y="-139.044" font-family="CourierNew" font-size="14.00">alt 1</text>
</g>
<!-- PlusBlockStartState&#45;&gt;content1 -->
<g id="edge3" class="edge"><title>PlusBlockStartState:alt1&#45;&gt;content1</title>
<path fill="none" stroke="black" d="M300.985,-140C311.455,-140 322.766,-140.208 333.289,-140.489"/>
<polygon fill="black" stroke="black" points="333.389,-143.994 343.488,-140.79 333.596,-136.997 333.389,-143.994"/>
<text text-anchor="middle" x="322.232" y="-145.288" font-family="CourierNew" font-size="14.00">ε</text>
</g>
<!-- content2 -->
<g id="node6" class="node"><title>content2</title>
<ellipse fill="none" stroke="black" stroke-dasharray="5,2" cx="375.059" cy="-88" rx="31.6611" ry="18"/>
<text text-anchor="middle" x="375.059" y="-85.0441" font-family="CourierNew" font-size="14.00">alt 2</text>
</g>
<!-- PlusBlockStartState&#45;&gt;content2 -->
<g id="edge5" class="edge"><title>PlusBlockStartState:alt2&#45;&gt;content2</title>
<path fill="none" stroke="black" d="M300.985,-116C310.982,-116 309.985,-106.863 318.985,-102.512 323.992,-100.091 329.458,-98.0329 334.939,-96.2957"/>
<polygon fill="black" stroke="black" points="336.069,-99.6133 344.726,-93.5057 334.149,-92.8815 336.069,-99.6133"/>
<text text-anchor="middle" x="322.232" y="-108.288" font-family="CourierNew" font-size="14.00">ε</text>
</g>
<!-- more -->
<g id="node7" class="node"><title>more</title>
<ellipse fill="none" stroke="black" stroke-dasharray="5,2" cx="375.059" cy="-34" rx="31.4371" ry="18"/>
<text text-anchor="middle" x="375.059" y="-31.0441" font-family="CourierNew" font-size="14.00">alt n</text>
</g>
<!-- PlusBlockStartState&#45;&gt;more -->
<g id="edge7" class="edge"><title>PlusBlockStartState:altn&#45;&gt;more</title>
<path fill="none" stroke="black" d="M300.985,-34C311.451,-34 322.761,-34 333.283,-34"/>
<polygon fill="black" stroke="black" points="333.483,-37.5001 343.483,-34 333.483,-30.5001 333.483,-37.5001"/>
<text text-anchor="middle" x="322.232" y="-39.2883" font-family="CourierNew" font-size="14.00">ε</text>
</g>
<!-- PlusLoopbackState -->
<g id="node2" class="node"><title>PlusLoopbackState</title>
<g id="a_node2"><a xlink:href="../PlusLoopbackState.html" xlink:title="{PlusLoopbackState | {&lt;alt1&gt; alt 1 |&lt;alt2&gt; alt 2}}" target="_parent">
<polygon fill="none" stroke="black" points="602.21,-104.512 602.21,-153.488 790.131,-153.488 790.131,-104.512 602.21,-104.512"/>
<text text-anchor="middle" x="673.022" y="-126.044" font-family="CourierNew" font-size="14.00">PlusLoopbackState</text>
<polyline fill="none" stroke="black" points="743.834,-104.512 743.834,-153.488 "/>
<text text-anchor="middle" x="766.983" y="-138.288" font-family="CourierNew" font-size="14.00">alt 1</text>
<polyline fill="none" stroke="black" points="743.834,-129 790.131,-129 "/>
<text text-anchor="middle" x="766.983" y="-113.8" font-family="CourierNew" font-size="14.00">alt 2</text>
</a>
</g>
</g>
<!-- PlusLoopbackState&#45;&gt;PlusBlockStartState -->
<g id="edge10" class="edge"><title>PlusLoopbackState:alt1:n&#45;&gt;PlusBlockStartState:n</title>
<path fill="none" stroke="black" d="M767.171,-154C767.171,-166.273 269.729,-202.945 211.435,-161.643"/>
<polygon fill="black" stroke="black" points="214.231,-159.52 205.879,-153 208.342,-163.305 214.231,-159.52"/>
<text text-anchor="middle" x="427.887" y="-185.288" font-family="CourierNew" font-size="14.00">ε</text>
</g>
<!-- LoopEndState -->
<g id="node4" class="node"><title>LoopEndState</title>
<g id="a_node4"><a xlink:href="../LoopEndState.html" xlink:title="\N" target="_parent">
<polygon fill="none" stroke="black" points="832.625,-99 832.625,-135 940.596,-135 940.596,-99 832.625,-99"/>
<text text-anchor="middle" x="886.611" y="-114.3" font-family="CourierNew" font-size="14.00">LoopEndState</text>
</a>
</g>
</g>
<!-- PlusLoopbackState&#45;&gt;LoopEndState -->
<g id="edge11" class="edge"><title>PlusLoopbackState:alt2&#45;&gt;LoopEndState</title>
<path fill="none" stroke="black" d="M790.131,-117C800.557,-117 811.624,-117 822.387,-117"/>
<polygon fill="black" stroke="black" points="822.582,-120.5 832.582,-117 822.582,-113.5 822.582,-120.5"/>
<text text-anchor="middle" x="811.378" y="-122.288" font-family="CourierNew" font-size="14.00">ε</text>
</g>
<!-- BlockEndState -->
<g id="node3" class="node"><title>BlockEndState</title>
<g id="a_node3"><a xlink:href="../BlockEndState.html" xlink:title="\N" target="_parent">
<polygon fill="none" stroke="black" points="449.134,-99 449.134,-135 559.716,-135 559.716,-99 449.134,-99"/>
<text text-anchor="middle" x="504.425" y="-114.3" font-family="CourierNew" font-size="14.00">BlockEndState</text>
</a>
</g>
</g>
<!-- BlockEndState&#45;&gt;PlusLoopbackState -->
<g id="edge9" class="edge"><title>BlockEndState&#45;&gt;PlusLoopbackState</title>
<path fill="none" stroke="black" d="M559.799,-120.439C569.944,-121.08 580.849,-121.77 591.908,-122.469"/>
<polygon fill="black" stroke="black" points="591.889,-125.975 602.09,-123.113 592.331,-118.989 591.889,-125.975"/>
<text text-anchor="middle" x="580.963" y="-127.288" font-family="CourierNew" font-size="14.00">ε</text>
</g>
<!-- end -->
<g id="node9" class="node"><title>end</title>
<ellipse fill="none" stroke="black" stroke-dasharray="5,2" cx="1011.26" cy="-117" rx="28.3447" ry="18"/>
<text text-anchor="middle" x="1011.26" y="-114.044" font-family="CourierNew" font-size="14.00">end</text>
</g>
<!-- LoopEndState&#45;&gt;end -->
<g id="edge2" class="edge"><title>LoopEndState&#45;&gt;end</title>
<path fill="none" stroke="black" d="M940.694,-117C951.553,-117 962.764,-117 972.93,-117"/>
<polygon fill="black" stroke="black" points="973.088,-120.5 983.088,-117 973.088,-113.5 973.088,-120.5"/>
<text text-anchor="middle" x="961.843" y="-122.288" font-family="CourierNew" font-size="14.00">ε</text>
</g>
<!-- content1&#45;&gt;BlockEndState -->
<g id="edge4" class="edge"><title>content1&#45;&gt;BlockEndState</title>
<path fill="none" stroke="black" stroke-dasharray="5,2" d="M405.28,-136.264C415.435,-134.271 427.265,-131.949 439.122,-129.622"/>
<polygon fill="black" stroke="black" points="439.915,-133.033 449.053,-127.672 438.566,-126.164 439.915,-133.033"/>
</g>
<!-- content2&#45;&gt;BlockEndState -->
<g id="edge6" class="edge"><title>content2&#45;&gt;BlockEndState</title>
<path fill="none" stroke="black" stroke-dasharray="5,2" d="M404.643,-94.5082C414.899,-96.8435 426.922,-99.581 438.982,-102.327"/>
<polygon fill="black" stroke="black" points="438.555,-105.819 449.082,-104.627 440.109,-98.9938 438.555,-105.819"/>
</g>
<!-- more&#45;&gt;BlockEndState -->
<g id="edge8" class="edge"><title>more&#45;&gt;BlockEndState</title>
<path fill="none" stroke="black" stroke-dasharray="5,2" d="M396.523,-47.3354C415.478,-59.688 444.106,-78.3439 466.968,-93.242"/>
<polygon fill="black" stroke="black" points="465.126,-96.2194 475.415,-98.7468 468.948,-90.3547 465.126,-96.2194"/>
</g>
<!-- begin -->
<g id="node8" class="node"><title>begin</title>
<ellipse fill="none" stroke="black" stroke-dasharray="5,2" cx="36.8869" cy="-87" rx="36.7742" ry="18"/>
<text text-anchor="middle" x="36.8869" y="-84.0441" font-family="CourierNew" font-size="14.00">begin</text>
</g>
<!-- begin&#45;&gt;PlusBlockStartState -->
<g id="edge1" class="edge"><title>begin&#45;&gt;PlusBlockStartState</title>
<path fill="none" stroke="black" stroke-dasharray="5,2" d="M74.1218,-87C82.1526,-87 91.0531,-87 100.324,-87"/>
<polygon fill="black" stroke="black" points="100.506,-90.5001 110.506,-87 100.506,-83.5001 100.506,-90.5001"/>
</g>
</g>
</svg>
