<?xml version="1.0" encoding="UTF-8" standalone="no"?>
<!DOCTYPE svg PUBLIC "-//W3C//DTD SVG 1.1//EN"
 "http://www.w3.org/Graphics/SVG/1.1/DTD/svg11.dtd">
<!-- Generated by graphviz version 2.30.0 (20130114.0323)
 -->
<!-- Pages: 1 -->
<svg width="492pt" height="72pt"
 viewBox="0.00 0.00 492.00 72.00" xmlns="http://www.w3.org/2000/svg" xmlns:xlink="http://www.w3.org/1999/xlink">
<g id="graph0" class="graph" transform="scale(1 1) rotate(0) translate(18 54)">
<polygon fill="white" stroke="white" points="-18,19 -18,-54 475,-54 475,19 -18,19"/>
<!-- RuleStartState -->
<g id="node1" class="node"><title>RuleStartState</title>
<g id="a_node1"><a xlink:href="../RuleStartState.html" xlink:title="RuleStartState" target="_parent">
<polygon fill="none" stroke="black" points="133.581,-36 0.418943,-36 0.418943,-0 133.581,-0 133.581,-36"/>
<text text-anchor="middle" x="67" y="-13.8" font-family="Courier New" font-size="14.00">RuleStartState</text>
</a>
</g>
</g>
<!-- content -->
<g id="node3" class="node"><title>content</title>
<ellipse fill="none" stroke="black" stroke-dasharray="5,2" cx="240" cy="-18" rx="51.678" ry="18"/>
<text text-anchor="middle" x="240" y="-13.8" font-family="Courier New" font-size="14.00">content</text>
</g>
<!-- RuleStartState&#45;&gt;content -->
<g id="edge1" class="edge"><title>RuleStartState&#45;&gt;content</title>
<path fill="none" stroke="black" d="M133.624,-18C148.176,-18 163.54,-18 177.903,-18"/>
<polygon fill="black" stroke="black" points="178.157,-21.5001 188.157,-18 178.157,-14.5001 178.157,-21.5001"/>
<text text-anchor="middle" x="161" y="-22.2" font-family="Courier New" font-size="14.00">ε</text>
</g>
<!-- RuleStopState -->
<g id="node2" class="node"><title>RuleStopState</title>
<g id="a_node2"><a xlink:href="../RuleStopState.html" xlink:title="RuleStopState" target="_parent">
<polygon fill="none" stroke="black" points="455.682,-36 330.318,-36 330.318,-0 455.682,-0 455.682,-36"/>
<text text-anchor="middle" x="393" y="-13.8" font-family="Courier New" font-size="14.00">RuleStopState</text>
</a>
</g>
</g>
<!-- content&#45;&gt;RuleStopState -->
<g id="edge2" class="edge"><title>content&#45;&gt;RuleStopState</title>
<path fill="none" stroke="black" stroke-dasharray="5,2" d="M291.701,-18C300.761,-18 310.358,-18 319.882,-18"/>
<polygon fill="black" stroke="black" points="320.16,-21.5001 330.16,-18 320.16,-14.5001 320.16,-21.5001"/>
</g>
</g>
</svg>
