<?xml version="1.0" encoding="UTF-8" standalone="no"?>
<!DOCTYPE svg PUBLIC "-//W3C//DTD SVG 1.1//EN"
 "http://www.w3.org/Graphics/SVG/1.1/DTD/svg11.dtd">
<!-- Generated by graphviz version 3.0.0 (20220226.1711)
 -->
<!-- Pages: 1 -->
<svg width="404pt" height="72pt"
 viewBox="0.00 0.00 404.29 72.00" xmlns="http://www.w3.org/2000/svg" xmlns:xlink="http://www.w3.org/1999/xlink">
<g id="graph0" class="graph" transform="scale(1 1) rotate(0) translate(18 54)">
<polygon fill="white" stroke="transparent" points="-18,18 -18,-54 386.29,-54 386.29,18 -18,18"/>
<!-- RuleStartState -->
<g id="node1" class="node">
<title>RuleStartState</title>
<g id="a_node1"><a xlink:href="../RuleStartState.html" xlink:title="RuleStartState" target="_parent">
<polygon fill="none" stroke="black" points="104,-36 0,-36 0,0 104,0 104,-36"/>
<text text-anchor="middle" x="52" y="-14.3" font-family="CourierNew" font-size="14.00">RuleStartState</text>
</a>
</g>
</g>
<!-- content -->
<g id="node3" class="node">
<title>content</title>
<ellipse fill="none" stroke="black" stroke-dasharray="5,2" cx="187.65" cy="-18" rx="39.79" ry="18"/>
<text text-anchor="middle" x="187.65" y="-14.3" font-family="CourierNew" font-size="14.00">content</text>
</g>
<!-- RuleStartState&#45;&gt;content -->
<g id="edge1" class="edge">
<title>RuleStartState&#45;&gt;content</title>
<path fill="none" stroke="black" d="M104.29,-18C115.22,-18 126.74,-18 137.59,-18"/>
<polygon fill="black" stroke="black" points="137.74,-21.5 147.74,-18 137.74,-14.5 137.74,-21.5"/>
<text text-anchor="middle" x="126" y="-21.8" font-family="CourierNew" font-size="14.00">ε</text>
</g>
<!-- RuleStopState -->
<g id="node2" class="node">
<title>RuleStopState</title>
<g id="a_node2"><a xlink:href="../RuleStopState.html" xlink:title="RuleStopState" target="_parent">
<polygon fill="none" stroke="black" points="368.29,-36 264.29,-36 264.29,0 368.29,0 368.29,-36"/>
<text text-anchor="middle" x="316.29" y="-14.3" font-family="CourierNew" font-size="14.00">RuleStopState</text>
</a>
</g>
</g>
<!-- content&#45;&gt;RuleStopState -->
<g id="edge2" class="edge">
<title>content&#45;&gt;RuleStopState</title>
<path fill="none" stroke="black" stroke-dasharray="5,2" d="M227.33,-18C235.79,-18 244.94,-18 254.03,-18"/>
<polygon fill="black" stroke="black" points="254.24,-21.5 264.24,-18 254.24,-14.5 254.24,-21.5"/>
</g>
</g>
</svg>
