<?xml version="1.0" encoding="UTF-8" standalone="no"?>
<!DOCTYPE svg PUBLIC "-//W3C//DTD SVG 1.1//EN"
 "http://www.w3.org/Graphics/SVG/1.1/DTD/svg11.dtd">
<!-- Generated by graphviz version 2.37.20140119.0545 (20140119.0545)
 -->
<!-- Pages: 1 -->
<svg width="472pt" height="72pt"
 viewBox="0.00 0.00 472.00 72.00" xmlns="http://www.w3.org/2000/svg" xmlns:xlink="http://www.w3.org/1999/xlink">
<g id="graph0" class="graph" transform="scale(1 1) rotate(0) translate(18 54)">
<polygon fill="white" stroke="none" points="-18,18 -18,-54 454,-54 454,18 -18,18"/>
<!-- RuleStartState -->
<g id="node1" class="node"><title>RuleStartState</title>
<g id="a_node1"><a xlink:href="../RuleStartState.html" xlink:title="RuleStartState" target="_parent">
<polygon fill="none" stroke="black" points="132,-36 0,-36 0,-0 132,-0 132,-36"/>
<text text-anchor="middle" x="66" y="-14.3" font-family="Courier New" font-size="14.00">RuleStartState</text>
</a>
</g>
</g>
<!-- content -->
<g id="node3" class="node"><title>content</title>
<ellipse fill="none" stroke="black" stroke-dasharray="5,2" cx="226" cy="-18" rx="48.1917" ry="18"/>
<text text-anchor="middle" x="226" y="-14.3" font-family="Courier New" font-size="14.00">content</text>
</g>
<!-- RuleStartState&#45;&gt;content -->
<g id="edge1" class="edge"><title>RuleStartState&#45;&gt;content</title>
<path fill="none" stroke="black" d="M132.177,-18C143.892,-18 156.025,-18 167.503,-18"/>
<polygon fill="black" stroke="black" points="167.829,-21.5001 177.829,-18 167.829,-14.5001 167.829,-21.5001"/>
<text text-anchor="middle" x="155" y="-21.8" font-family="Courier New" font-size="14.00">ε</text>
</g>
<!-- RuleStopState -->
<g id="node2" class="node"><title>RuleStopState</title>
<g id="a_node2"><a xlink:href="../RuleStopState.html" xlink:title="RuleStopState" target="_parent">
<polygon fill="none" stroke="black" points="436,-36 312,-36 312,-0 436,-0 436,-36"/>
<text text-anchor="middle" x="374" y="-14.3" font-family="Courier New" font-size="14.00">RuleStopState</text>
</a>
</g>
</g>
<!-- content&#45;&gt;RuleStopState -->
<g id="edge2" class="edge"><title>content&#45;&gt;RuleStopState</title>
<path fill="none" stroke="black" stroke-dasharray="5,2" d="M274.402,-18C283.207,-18 292.581,-18 301.914,-18"/>
<polygon fill="black" stroke="black" points="301.995,-21.5001 311.995,-18 301.995,-14.5001 301.995,-21.5001"/>
</g>
</g>
</svg>
