<?xml version="1.0" encoding="UTF-8" standalone="no"?>
<!DOCTYPE svg PUBLIC "-//W3C//DTD SVG 1.1//EN"
 "http://www.w3.org/Graphics/SVG/1.1/DTD/svg11.dtd">
<!-- Generated by graphviz version 2.38.0 (20140413.2041)
 -->
<!-- Pages: 1 -->
<svg width="427pt" height="72pt"
 viewBox="0.00 0.00 427.00 72.00" xmlns="http://www.w3.org/2000/svg" xmlns:xlink="http://www.w3.org/1999/xlink">
<g id="graph0" class="graph" transform="scale(1 1) rotate(0) translate(18 54)">
<polygon fill="white" stroke="none" points="-18,18 -18,-54 408.996,-54 408.996,18 -18,18"/>
<!-- RuleStartState -->
<g id="node1" class="node"><title>RuleStartState</title>
<g id="a_node1"><a xlink:href="../RuleStartState.html" xlink:title="RuleStartState" target="_parent">
<polygon fill="none" stroke="black" points="110.607,-36 -0.202891,-36 -0.202891,-0 110.607,-0 110.607,-36"/>
<text text-anchor="middle" x="55.2021" y="-15.0441" font-family="CourierNew" font-size="14.00">RuleStartState</text>
</a>
</g>
</g>
<!-- content -->
<g id="node3" class="node"><title>content</title>
<ellipse fill="none" stroke="black" stroke-dasharray="5,2" cx="198.888" cy="-18" rx="45.9782" ry="18"/>
<text text-anchor="middle" x="198.888" y="-15.0441" font-family="CourierNew" font-size="14.00">content</text>
</g>
<!-- RuleStartState&#45;&gt;content -->
<g id="edge1" class="edge"><title>RuleStartState&#45;&gt;content</title>
<path fill="none" stroke="black" d="M110.576,-18C120.994,-18 131.916,-18 142.369,-18"/>
<polygon fill="black" stroke="black" points="142.631,-21.5001 152.631,-18 142.631,-14.5001 142.631,-21.5001"/>
<text text-anchor="middle" x="131.651" y="-23.2883" font-family="CourierNew" font-size="14.00">ε</text>
</g>
<!-- RuleStopState -->
<g id="node2" class="node"><title>RuleStopState</title>
<g id="a_node2"><a xlink:href="../RuleStopState.html" xlink:title="RuleStopState" target="_parent">
<polygon fill="none" stroke="black" points="391.055,-36 281.817,-36 281.817,-0 391.055,-0 391.055,-36"/>
<text text-anchor="middle" x="336.436" y="-15.0441" font-family="CourierNew" font-size="14.00">RuleStopState</text>
</a>
</g>
</g>
<!-- content&#45;&gt;RuleStopState -->
<g id="edge2" class="edge"><title>content&#45;&gt;RuleStopState</title>
<path fill="none" stroke="black" stroke-dasharray="5,2" d="M245.023,-18C253.529,-18 262.571,-18 271.524,-18"/>
<polygon fill="black" stroke="black" points="271.56,-21.5001 281.56,-18 271.56,-14.5001 271.56,-21.5001"/>
</g>
</g>
</svg>
