<?xml version="1.0" encoding="UTF-8" standalone="no"?>
<!DOCTYPE svg PUBLIC "-//W3C//DTD SVG 1.1//EN"
 "http://www.w3.org/Graphics/SVG/1.1/DTD/svg11.dtd">
<!-- Generated by graphviz version 8.0.5 (20230430.1635)
 -->
<!-- Pages: 1 -->
<svg width="402pt" height="72pt"
 viewBox="0.00 0.00 401.57 72.00" xmlns="http://www.w3.org/2000/svg" xmlns:xlink="http://www.w3.org/1999/xlink">
<g id="graph0" class="graph" transform="scale(1 1) rotate(0) translate(18 54)">
<polygon fill="white" stroke="none" points="-18,18 -18,-54 383.57,-54 383.57,18 -18,18"/>
<!-- RuleStartState -->
<g id="node1" class="node">
<title>RuleStartState</title>
<g id="a_node1"><a xlink:href="../RuleStartState.html" xlink:title="RuleStartState" target="_parent">
<polygon fill="none" stroke="black" points="103.75,-36 0,-36 0,0 103.75,0 103.75,-36"/>
<text text-anchor="middle" x="51.88" y="-12.2" font-family="CourierNew" font-size="14.00">RuleStartState</text>
</a>
</g>
</g>
<!-- content -->
<g id="node3" class="node">
<title>content</title>
<ellipse fill="none" stroke="black" stroke-dasharray="5,2" cx="186.41" cy="-18" rx="39.16" ry="18"/>
<text text-anchor="middle" x="186.41" y="-12.2" font-family="CourierNew" font-size="14.00">content</text>
</g>
<!-- RuleStartState&#45;&gt;content -->
<g id="edge1" class="edge">
<title>RuleStartState&#45;&gt;content</title>
<path fill="none" stroke="black" d="M104.12,-18C114.71,-18 125.85,-18 136.37,-18"/>
<polygon fill="black" stroke="black" points="136.05,-21.5 146.05,-18 136.05,-14.5 136.05,-21.5"/>
<text text-anchor="middle" x="125.5" y="-19.7" font-family="CourierNew" font-size="14.00">ε</text>
</g>
<!-- RuleStopState -->
<g id="node2" class="node">
<title>RuleStopState</title>
<g id="a_node2"><a xlink:href="../RuleStopState.html" xlink:title="RuleStopState" target="_parent">
<polygon fill="none" stroke="black" points="365.57,-36 262.57,-36 262.57,0 365.57,0 365.57,-36"/>
<text text-anchor="middle" x="314.07" y="-12.2" font-family="CourierNew" font-size="14.00">RuleStopState</text>
</a>
</g>
</g>
<!-- content&#45;&gt;RuleStopState -->
<g id="edge2" class="edge">
<title>content&#45;&gt;RuleStopState</title>
<path fill="none" stroke="black" stroke-dasharray="5,2" d="M225.79,-18C233.91,-18 242.68,-18 251.41,-18"/>
<polygon fill="black" stroke="black" points="251.41,-21.5 261.41,-18 251.41,-14.5 251.41,-21.5"/>
</g>
</g>
</svg>
