<?xml version="1.0" encoding="UTF-8" standalone="no"?>
<!DOCTYPE svg PUBLIC "-//W3C//DTD SVG 1.1//EN"
 "http://www.w3.org/Graphics/SVG/1.1/DTD/svg11.dtd">
<!-- Generated by graphviz version 2.38.0 (20140413.2041)
 -->
<!-- Pages: 1 -->
<svg width="405pt" height="193pt"
 viewBox="0.00 0.00 486.06 231.00" xmlns="http://www.w3.org/2000/svg" xmlns:xlink="http://www.w3.org/1999/xlink">
<g id="graph0" class="graph" transform="scale(0.833333 0.833333) rotate(0) translate(4 227)">
<polygon fill="white" stroke="none" points="-4,4 -4,-227 482.057,-227 482.057,4 -4,4"/>
<g id="clust6" class="cluster"><title>clusterRes</title>
<polygon fill="none" stroke="none" points="328.057,-8 328.057,-215 470.057,-215 470.057,-8 328.057,-8"/>
</g>
<!-- lefttree -->
<g id="node1" class="node"><title>lefttree</title>
</g>
<!-- left -->
<g id="node2" class="node"><title>left</title>
<polygon fill="none" stroke="black" points="29.0571,-89.5 58.1714,-122.5 -0.0572161,-122.5 29.0571,-89.5"/>
<text text-anchor="middle" x="29.0571" y="-107.3" font-family="Times,serif" font-size="14.00">x</text>
</g>
<!-- lefttree&#45;&gt;left -->
<g id="edge1" class="edge"><title>lefttree&#45;&gt;left</title>
</g>
<!-- leftroot -->
<g id="node3" class="node"><title>leftroot</title>
<text text-anchor="middle" x="29.0571" y="-29.8" font-family="Times,serif" font-size="14.00">a</text>
</g>
<!-- left&#45;&gt;leftroot -->
<g id="edge2" class="edge"><title>left&#45;&gt;leftroot</title>
<path fill="none" stroke="black" d="M29.0571,-79.398C29.0571,-70.1628 29.0571,-60.3795 29.0571,-52.3538"/>
<polygon fill="black" stroke="black" points="25.5572,-79.469 29.0571,-89.469 32.5572,-79.4691 25.5572,-79.469"/>
</g>
<!-- optree -->
<g id="node4" class="node"><title>optree</title>
</g>
<!-- temp1 -->
<g id="node5" class="node"><title>temp1</title>
<text text-anchor="middle" x="103.057" y="-107.3" font-family="Times,serif" font-size="14.00">+</text>
</g>
<!-- optree&#45;&gt;temp1 -->
<g id="edge3" class="edge"><title>optree&#45;&gt;temp1</title>
</g>
<!-- righttree -->
<g id="node6" class="node"><title>righttree</title>
</g>
<!-- right -->
<g id="node7" class="node"><title>right</title>
<polygon fill="none" stroke="black" points="177.057,-89.5 206.171,-122.5 147.943,-122.5 177.057,-89.5"/>
<text text-anchor="middle" x="177.057" y="-107.3" font-family="Times,serif" font-size="14.00">y</text>
</g>
<!-- righttree&#45;&gt;right -->
<g id="edge4" class="edge"><title>righttree&#45;&gt;right</title>
</g>
<!-- rightroot -->
<g id="node8" class="node"><title>rightroot</title>
<text text-anchor="middle" x="177.057" y="-29.8" font-family="Times,serif" font-size="14.00">a</text>
</g>
<!-- right&#45;&gt;rightroot -->
<g id="edge5" class="edge"><title>right&#45;&gt;rightroot</title>
<path fill="none" stroke="black" d="M177.057,-79.398C177.057,-70.1628 177.057,-60.3795 177.057,-52.3538"/>
<polygon fill="black" stroke="black" points="173.557,-79.469 177.057,-89.469 180.557,-79.4691 173.557,-79.469"/>
</g>
<!-- temp2a -->
<g id="node9" class="node"><title>temp2a</title>
<ellipse fill="none" stroke="none" cx="253.057" cy="-189" rx="1.8" ry="1.8"/>
</g>
<!-- temp2b -->
<g id="node10" class="node"><title>temp2b</title>
<ellipse fill="none" stroke="none" cx="226.057" cy="-111.5" rx="1.8" ry="1.8"/>
</g>
<!-- temp2a&#45;&gt;temp2b -->
<g id="edge6" class="edge"><title>temp2a&#45;&gt;temp2b</title>
</g>
<!-- temp2c -->
<g id="node11" class="node"><title>temp2c</title>
<ellipse fill="none" stroke="none" cx="318.057" cy="-111.5" rx="1.8" ry="1.8"/>
</g>
<!-- temp2a&#45;&gt;temp2c -->
<g id="edge7" class="edge"><title>temp2a&#45;&gt;temp2c</title>
</g>
<!-- temp2b&#45;&gt;temp2c -->
<g id="edge8" class="edge"><title>temp2b&#45;&gt;temp2c</title>
<path fill="none" stroke="black" d="M227.979,-111.5C237.894,-111.5 283.662,-111.5 305.884,-111.5"/>
<polygon fill="black" stroke="black" points="306.146,-115 316.146,-111.5 306.146,-108 306.146,-115"/>
<text text-anchor="middle" x="272.057" y="-117.3" font-family="Times,serif" font-size="14.00" fill="#fffffe">wwwwwww</text>
</g>
<!-- resulttree1 -->
<g id="node12" class="node"><title>resulttree1</title>
<polygon fill="none" stroke="black" points="363.057,-171 390.057,-198 336.057,-198 363.057,-171"/>
</g>
<!-- result -->
<g id="node14" class="node"><title>result</title>
<polygon fill="none" stroke="black" points="377.057,-89.5 377.057,-133.5 431.057,-133.5 431.057,-89.5 377.057,-89.5"/>
<text text-anchor="middle" x="390.557" y="-118.3" font-family="Times,serif" font-size="14.00"> </text>
<polyline fill="none" stroke="black" points="377.057,-111.5 404.057,-111.5 "/>
<text text-anchor="middle" x="390.557" y="-96.3" font-family="Times,serif" font-size="14.00">x</text>
<polyline fill="none" stroke="black" points="404.057,-89.5 404.057,-133.5 "/>
<text text-anchor="middle" x="417.557" y="-118.3" font-family="Times,serif" font-size="14.00"> </text>
<polyline fill="none" stroke="black" points="404.057,-111.5 431.057,-111.5 "/>
<text text-anchor="middle" x="417.557" y="-96.3" font-family="Times,serif" font-size="14.00">y</text>
</g>
<!-- resulttree1&#45;&gt;result -->
<g id="edge9" class="edge"><title>resulttree1:s&#45;&gt;result:x:n</title>
<path fill="none" stroke="black" d="M365.947,-161.171C372.912,-151.159 390.057,-150.222 390.057,-134"/>
<polygon fill="black" stroke="black" points="362.52,-160.419 363.057,-171 369.235,-162.393 362.52,-160.419"/>
</g>
<!-- resulttree2 -->
<g id="node13" class="node"><title>resulttree2</title>
<polygon fill="none" stroke="black" points="435.057,-171 462.057,-198 408.057,-198 435.057,-171"/>
</g>
<!-- resulttree2&#45;&gt;result -->
<g id="edge10" class="edge"><title>resulttree2:s&#45;&gt;result:y:n</title>
<path fill="none" stroke="black" d="M432.835,-160.96C428.227,-151.65 418.057,-147.997 418.057,-134"/>
<polygon fill="black" stroke="black" points="429.478,-161.993 435.057,-171 436.313,-160.48 429.478,-161.993"/>
</g>
<!-- resultroot -->
<g id="node15" class="node"><title>resultroot</title>
<text text-anchor="middle" x="404.057" y="-29.8" font-family="Times,serif" font-size="14.00">a&#39;</text>
</g>
<!-- result&#45;&gt;resultroot -->
<g id="edge11" class="edge"><title>result&#45;&gt;resultroot</title>
<path fill="none" stroke="black" d="M404.057,-79.398C404.057,-70.1628 404.057,-60.3795 404.057,-52.3538"/>
<polygon fill="black" stroke="black" points="400.557,-79.469 404.057,-89.469 407.557,-79.4691 400.557,-79.469"/>
</g>
</g>
</svg>
