<?xml version="1.0" encoding="UTF-8" standalone="no"?>
<!DOCTYPE svg PUBLIC "-//W3C//DTD SVG 1.1//EN"
 "http://www.w3.org/Graphics/SVG/1.1/DTD/svg11.dtd">
<!-- Generated by graphviz version 8.0.5 (20230430.1635)
 -->
<!-- Pages: 1 -->
<svg width="424pt" height="147pt"
 viewBox="0.00 0.00 509.05 176.00" xmlns="http://www.w3.org/2000/svg" xmlns:xlink="http://www.w3.org/1999/xlink">
<g id="graph0" class="graph" transform="scale(0.833333 0.833333) rotate(0) translate(4 172)">
<polygon fill="white" stroke="none" points="-4,4 -4,-172 505.05,-172 505.05,4 -4,4"/>
<g id="clust5" class="cluster">
<title>clusterRes</title>
<polygon fill="none" stroke="none" points="335.05,-8 335.05,-160 493.05,-160 493.05,-8 335.05,-8"/>
</g>
<!-- left -->
<g id="node1" class="node">
<title>left</title>
<polygon fill="none" stroke="black" points="31.05,-103 62.1,-139.75 0,-139.75 31.05,-103"/>
<text text-anchor="middle" x="31.05" y="-122.45" font-family="Times,serif" font-size="14.00">x</text>
</g>
<!-- leftroot -->
<g id="node2" class="node">
<title>leftroot</title>
<text text-anchor="middle" x="31.05" y="-35.95" font-family="Times,serif" font-size="14.00">a</text>
</g>
<!-- left&#45;&gt;leftroot -->
<g id="edge1" class="edge">
<title>left&#45;&gt;leftroot</title>
<path fill="none" stroke="black" d="M31.05,-91.55C31.05,-80.23 31.05,-68.18 31.05,-58.8"/>
<polygon fill="black" stroke="black" points="27.55,-91.51 31.05,-101.51 34.55,-91.51 27.55,-91.51"/>
</g>
<!-- temp1 -->
<g id="node3" class="node">
<title>temp1</title>
<text text-anchor="middle" x="107.05" y="-122.45" font-family="Times,serif" font-size="14.00">+</text>
</g>
<!-- right -->
<g id="node4" class="node">
<title>right</title>
<polygon fill="none" stroke="black" points="183.05,-103 214.1,-139.75 152,-139.75 183.05,-103"/>
<text text-anchor="middle" x="183.05" y="-122.45" font-family="Times,serif" font-size="14.00">y</text>
</g>
<!-- rightroot -->
<g id="node5" class="node">
<title>rightroot</title>
<text text-anchor="middle" x="183.05" y="-35.95" font-family="Times,serif" font-size="14.00">b</text>
</g>
<!-- right&#45;&gt;rightroot -->
<g id="edge2" class="edge">
<title>right&#45;&gt;rightroot</title>
<path fill="none" stroke="black" d="M183.05,-91.55C183.05,-80.23 183.05,-68.18 183.05,-58.8"/>
<polygon fill="black" stroke="black" points="179.55,-91.51 183.05,-101.51 186.55,-91.51 179.55,-91.51"/>
</g>
<!-- temp2b -->
<g id="node6" class="node">
<title>temp2b</title>
<ellipse fill="none" stroke="none" cx="234.05" cy="-127.5" rx="1.8" ry="1.8"/>
</g>
<!-- temp2c -->
<g id="node7" class="node">
<title>temp2c</title>
<ellipse fill="none" stroke="none" cx="323.05" cy="-127.5" rx="1.8" ry="1.8"/>
</g>
<!-- temp2b&#45;&gt;temp2c -->
<g id="edge3" class="edge">
<title>temp2b&#45;&gt;temp2c</title>
<path fill="none" stroke="black" d="M236.25,-127.5C246.3,-127.5 288.31,-127.5 309.98,-127.5"/>
<polygon fill="black" stroke="black" points="309.93,-131 319.93,-127.5 309.93,-124 309.93,-131"/>
<text text-anchor="middle" x="278.55" y="-133.7" font-family="Times,serif" font-size="14.00" fill="#fffffe" fill-opacity="0.000000">wwwwwww</text>
</g>
<!-- resulttree1 -->
<g id="node8" class="node">
<title>resulttree1</title>
<polygon fill="none" stroke="black" points="374.05,-103 405.1,-139.75 343,-139.75 374.05,-103"/>
<text text-anchor="middle" x="374.05" y="-122.45" font-family="Times,serif" font-size="14.00">x</text>
</g>
<!-- result -->
<g id="node10" class="node">
<title>result</title>
<polygon fill="none" stroke="black" points="394.05,-16.5 394.05,-65.5 448.05,-65.5 448.05,-16.5 394.05,-16.5"/>
<text text-anchor="middle" x="407.05" y="-48.2" font-family="Times,serif" font-size="14.00"> </text>
<polyline fill="none" stroke="black" points="394.05,-41 420.05,-41"/>
<text text-anchor="middle" x="407.05" y="-23.7" font-family="Times,serif" font-size="14.00">a</text>
<polyline fill="none" stroke="black" points="420.05,-16.5 420.05,-65.5"/>
<text text-anchor="middle" x="433.92" y="-48.2" font-family="Times,serif" font-size="14.00"> </text>
<polyline fill="none" stroke="black" points="420.05,-41 447.8,-41"/>
<text text-anchor="middle" x="433.92" y="-23.7" font-family="Times,serif" font-size="14.00">b</text>
</g>
<!-- resulttree1&#45;&gt;result -->
<g id="edge4" class="edge">
<title>resulttree1:s&#45;&gt;result:n</title>
<path fill="none" stroke="black" d="M377.58,-92.69C386.09,-82.64 407.05,-83.56 407.05,-66"/>
<polygon fill="black" stroke="black" points="373.98,-91.41 374.05,-102 380.6,-93.67 373.98,-91.41"/>
</g>
<!-- resulttree2 -->
<g id="node9" class="node">
<title>resulttree2</title>
<polygon fill="none" stroke="black" points="454.05,-103 485.1,-139.75 423,-139.75 454.05,-103"/>
<text text-anchor="middle" x="454.05" y="-122.45" font-family="Times,serif" font-size="14.00">y</text>
</g>
<!-- resulttree2&#45;&gt;result -->
<g id="edge5" class="edge">
<title>resulttree2:s&#45;&gt;result:n</title>
<path fill="none" stroke="black" d="M451.27,-92.51C445.77,-83.44 434.05,-80.31 434.05,-66"/>
<polygon fill="black" stroke="black" points="448.1,-93.23 454.05,-102 454.87,-91.44 448.1,-93.23"/>
</g>
</g>
</svg>
