<?xml version="1.0" encoding="UTF-8" standalone="no"?>
<!DOCTYPE svg PUBLIC "-//W3C//DTD SVG 1.1//EN"
 "http://www.w3.org/Graphics/SVG/1.1/DTD/svg11.dtd">
<!-- Generated by graphviz version 7.1.0 (20230121.1956)
 -->
<!-- Pages: 1 -->
<svg width="407pt" height="194pt"
 viewBox="0.00 0.00 487.90 233.00" xmlns="http://www.w3.org/2000/svg" xmlns:xlink="http://www.w3.org/1999/xlink">
<g id="graph0" class="graph" transform="scale(0.833333 0.833333) rotate(0) translate(4 229)">
<polygon fill="white" stroke="none" points="-4,4 -4,-229 483.9,-229 483.9,4 -4,4"/>
<g id="clust6" class="cluster">
<title>clusterRes</title>
<polygon fill="none" stroke="none" points="329.9,-8 329.9,-217 471.9,-217 471.9,-8 329.9,-8"/>
</g>
<!-- lefttree -->
<g id="node1" class="node">
<title>lefttree</title>
</g>
<!-- left -->
<g id="node2" class="node">
<title>left</title>
<polygon fill="none" stroke="black" points="29.9,-89.5 59.69,-124 0.1,-124 29.9,-89.5"/>
<text text-anchor="middle" x="29.9" y="-108.8" font-family="Times,serif" font-size="14.00">x</text>
</g>
<!-- lefttree&#45;&gt;left -->
<g id="edge1" class="edge">
<title>lefttree&#45;&gt;left</title>
</g>
<!-- leftroot -->
<g id="node3" class="node">
<title>leftroot</title>
<text text-anchor="middle" x="29.9" y="-30.3" font-family="Times,serif" font-size="14.00">a</text>
</g>
<!-- left&#45;&gt;leftroot -->
<g id="edge2" class="edge">
<title>left&#45;&gt;leftroot</title>
<path fill="none" stroke="black" d="M29.9,-77.48C29.9,-68.48 29.9,-59.16 29.9,-51.55"/>
<polygon fill="black" stroke="black" points="26.4,-77.45 29.9,-87.45 33.4,-77.45 26.4,-77.45"/>
</g>
<!-- optree -->
<g id="node4" class="node">
<title>optree</title>
</g>
<!-- temp1 -->
<g id="node5" class="node">
<title>temp1</title>
<text text-anchor="middle" x="104.9" y="-108.8" font-family="Times,serif" font-size="14.00">+</text>
</g>
<!-- optree&#45;&gt;temp1 -->
<g id="edge3" class="edge">
<title>optree&#45;&gt;temp1</title>
</g>
<!-- righttree -->
<g id="node6" class="node">
<title>righttree</title>
</g>
<!-- right -->
<g id="node7" class="node">
<title>right</title>
<polygon fill="none" stroke="black" points="179.9,-89.5 209.69,-124 150.1,-124 179.9,-89.5"/>
<text text-anchor="middle" x="179.9" y="-108.8" font-family="Times,serif" font-size="14.00">y</text>
</g>
<!-- righttree&#45;&gt;right -->
<g id="edge4" class="edge">
<title>righttree&#45;&gt;right</title>
</g>
<!-- rightroot -->
<g id="node8" class="node">
<title>rightroot</title>
<text text-anchor="middle" x="179.9" y="-30.3" font-family="Times,serif" font-size="14.00">a</text>
</g>
<!-- right&#45;&gt;rightroot -->
<g id="edge5" class="edge">
<title>right&#45;&gt;rightroot</title>
<path fill="none" stroke="black" d="M179.9,-77.48C179.9,-68.48 179.9,-59.16 179.9,-51.55"/>
<polygon fill="black" stroke="black" points="176.4,-77.45 179.9,-87.45 183.4,-77.45 176.4,-77.45"/>
</g>
<!-- temp2a -->
<g id="node9" class="node">
<title>temp2a</title>
<ellipse fill="none" stroke="none" cx="270.9" cy="-191" rx="1.8" ry="1.8"/>
</g>
<!-- temp2b -->
<g id="node10" class="node">
<title>temp2b</title>
<ellipse fill="none" stroke="none" cx="229.9" cy="-112.5" rx="1.8" ry="1.8"/>
</g>
<!-- temp2a&#45;&gt;temp2b -->
<g id="edge6" class="edge">
<title>temp2a&#45;&gt;temp2b</title>
</g>
<!-- temp2c -->
<g id="node11" class="node">
<title>temp2c</title>
<ellipse fill="none" stroke="none" cx="319.9" cy="-112.5" rx="1.8" ry="1.8"/>
</g>
<!-- temp2a&#45;&gt;temp2c -->
<g id="edge7" class="edge">
<title>temp2a&#45;&gt;temp2c</title>
</g>
<!-- temp2b&#45;&gt;temp2c -->
<g id="edge8" class="edge">
<title>temp2b&#45;&gt;temp2c</title>
<path fill="none" stroke="black" d="M232.12,-112.5C242.24,-112.5 284.36,-112.5 306.37,-112.5"/>
<polygon fill="black" stroke="black" points="306.24,-116 316.24,-112.5 306.24,-109 306.24,-116"/>
<text text-anchor="middle" x="274.9" y="-119.3" font-family="Times,serif" font-size="14.00" fill="#fffffe" fill-opacity="0.000000">wwwwwww</text>
</g>
<!-- resulttree1 -->
<g id="node12" class="node">
<title>resulttree1</title>
<polygon fill="none" stroke="black" points="364.9,-173 391.9,-200 337.9,-200 364.9,-173"/>
</g>
<!-- result -->
<g id="node14" class="node">
<title>result</title>
<polygon fill="none" stroke="black" points="378.9,-89.5 378.9,-135.5 432.9,-135.5 432.9,-89.5 378.9,-89.5"/>
<text text-anchor="middle" x="392.4" y="-120.3" font-family="Times,serif" font-size="14.00"> </text>
<polyline fill="none" stroke="black" points="378.9,-112.5 405.9,-112.5"/>
<text text-anchor="middle" x="392.4" y="-97.3" font-family="Times,serif" font-size="14.00">x</text>
<polyline fill="none" stroke="black" points="405.9,-89.5 405.9,-135.5"/>
<text text-anchor="middle" x="419.4" y="-120.3" font-family="Times,serif" font-size="14.00"> </text>
<polyline fill="none" stroke="black" points="405.9,-112.5 432.9,-112.5"/>
<text text-anchor="middle" x="419.4" y="-97.3" font-family="Times,serif" font-size="14.00">y</text>
</g>
<!-- resulttree1&#45;&gt;result -->
<g id="edge9" class="edge">
<title>resulttree1:s&#45;&gt;result:n</title>
<path fill="none" stroke="black" d="M368.43,-162.31C375.75,-153.09 391.9,-151.75 391.9,-136"/>
<polygon fill="black" stroke="black" points="365.18,-160.97 365.37,-171.56 371.83,-163.16 365.18,-160.97"/>
</g>
<!-- resulttree2 -->
<g id="node13" class="node">
<title>resulttree2</title>
<polygon fill="none" stroke="black" points="436.9,-173 463.9,-200 409.9,-200 436.9,-173"/>
</g>
<!-- resulttree2&#45;&gt;result -->
<g id="edge10" class="edge">
<title>resulttree2:s&#45;&gt;result:n</title>
<path fill="none" stroke="black" d="M434.09,-161.86C429.26,-153.34 419.9,-149.43 419.9,-136"/>
<polygon fill="black" stroke="black" points="430.69,-162.69 436.53,-171.53 437.48,-160.98 430.69,-162.69"/>
</g>
<!-- resultroot -->
<g id="node15" class="node">
<title>resultroot</title>
<text text-anchor="middle" x="405.9" y="-30.3" font-family="Times,serif" font-size="14.00">a&#39;</text>
</g>
<!-- result&#45;&gt;resultroot -->
<g id="edge11" class="edge">
<title>result&#45;&gt;resultroot</title>
<path fill="none" stroke="black" d="M405.9,-78.53C405.9,-69.35 405.9,-59.75 405.9,-51.91"/>
<polygon fill="black" stroke="black" points="402.4,-78.27 405.9,-88.27 409.4,-78.27 402.4,-78.27"/>
</g>
</g>
</svg>
