<?xml version="1.0" encoding="UTF-8" standalone="no"?>
<!DOCTYPE svg PUBLIC "-//W3C//DTD SVG 1.1//EN"
 "http://www.w3.org/Graphics/SVG/1.1/DTD/svg11.dtd">
<!-- Generated by graphviz version 2.30.0 (20130114.0323)
 -->
<!-- Pages: 1 -->
<svg width="432pt" height="150pt"
 viewBox="0.00 0.00 518.00 180.00" xmlns="http://www.w3.org/2000/svg" xmlns:xlink="http://www.w3.org/1999/xlink">
<g id="graph0" class="graph" transform="scale(0.833333 0.833333) rotate(0) translate(4 176)">
<polygon fill="white" stroke="white" points="-4,5 -4,-176 515,-176 515,5 -4,5"/>
<g id="clust5" class="cluster"><title>clusterRes</title>
<polygon fill="none" stroke="none" points="341,-8 341,-164 502,-164 502,-8 341,-8"/>
</g>
<!-- left -->
<g id="node1" class="node"><title>left</title>
<polygon fill="none" stroke="black" points="31,-106.398 62.594,-143.301 -0.593956,-143.301 31,-106.398"/>
<text text-anchor="middle" x="31" y="-126.8" font-family="Times New Roman,serif" font-size="14.00">x</text>
</g>
<!-- leftroot -->
<g id="node2" class="node"><title>leftroot</title>
<text text-anchor="middle" x="31" y="-37.8" font-family="Times New Roman,serif" font-size="14.00">a</text>
</g>
<!-- left&#45;&gt;leftroot -->
<g id="edge1" class="edge"><title>left&#45;&gt;leftroot</title>
<path fill="none" stroke="black" d="M31,-96.2064C31,-83.858 31,-70.4101 31,-60.1235"/>
<polygon fill="black" stroke="black" points="27.5001,-96.2268 31,-106.227 34.5001,-96.2269 27.5001,-96.2268"/>
</g>
<!-- temp1 -->
<g id="node3" class="node"><title>temp1</title>
<text text-anchor="middle" x="108" y="-126.8" font-family="Times New Roman,serif" font-size="14.00">+</text>
</g>
<!-- right -->
<g id="node4" class="node"><title>right</title>
<polygon fill="none" stroke="black" points="185,-106.398 216.594,-143.301 153.406,-143.301 185,-106.398"/>
<text text-anchor="middle" x="185" y="-126.8" font-family="Times New Roman,serif" font-size="14.00">y</text>
</g>
<!-- rightroot -->
<g id="node5" class="node"><title>rightroot</title>
<text text-anchor="middle" x="185" y="-37.8" font-family="Times New Roman,serif" font-size="14.00">b</text>
</g>
<!-- right&#45;&gt;rightroot -->
<g id="edge2" class="edge"><title>right&#45;&gt;rightroot</title>
<path fill="none" stroke="black" d="M185,-96.2064C185,-83.858 185,-70.4101 185,-60.1235"/>
<polygon fill="black" stroke="black" points="181.5,-96.2268 185,-106.227 188.5,-96.2269 181.5,-96.2268"/>
</g>
<!-- temp2b -->
<g id="node6" class="node"><title>temp2b</title>
<ellipse fill="none" stroke="none" cx="237" cy="-131" rx="1.8" ry="1.8"/>
</g>
<!-- temp2c -->
<g id="node7" class="node"><title>temp2c</title>
<ellipse fill="none" stroke="none" cx="329" cy="-131" rx="1.8" ry="1.8"/>
</g>
<!-- temp2b&#45;&gt;temp2c -->
<g id="edge3" class="edge"><title>temp2b&#45;&gt;temp2c</title>
<path fill="none" stroke="black" d="M239.156,-131C264.975,-131 290.794,-131 316.612,-131"/>
<polygon fill="black" stroke="black" points="316.894,-134.5 326.894,-131 316.894,-127.5 316.894,-134.5"/>
</g>
<!-- resulttree1 -->
<g id="node8" class="node"><title>resulttree1</title>
<polygon fill="none" stroke="black" points="381,-106.398 412.594,-143.301 349.406,-143.301 381,-106.398"/>
<text text-anchor="middle" x="381" y="-126.8" font-family="Times New Roman,serif" font-size="14.00">x</text>
</g>
<!-- result -->
<g id="node10" class="node"><title>result</title>
<polygon fill="none" stroke="black" points="402,-17.2 402,-66.8 456,-66.8 456,-17.2 402,-17.2"/>
<text text-anchor="middle" x="415.107" y="-50.2" font-family="Times New Roman,serif" font-size="14.00"> </text>
<polyline fill="none" stroke="black" points="402,-42 428.215,-42 "/>
<text text-anchor="middle" x="415.107" y="-25.4" font-family="Times New Roman,serif" font-size="14.00">a</text>
<polyline fill="none" stroke="black" points="428.215,-17.2 428.215,-66.8 "/>
<text text-anchor="middle" x="441.715" y="-50.2" font-family="Times New Roman,serif" font-size="14.00"> </text>
<polyline fill="none" stroke="black" points="428.215,-42 455.215,-42 "/>
<text text-anchor="middle" x="441.715" y="-25.4" font-family="Times New Roman,serif" font-size="14.00">b</text>
</g>
<!-- resulttree1&#45;&gt;result -->
<g id="edge4" class="edge"><title>resulttree1:s&#45;&gt;result:a:n</title>
<path fill="none" stroke="black" d="M383.899,-96.3403C392.121,-85.0018 415,-86.5902 415,-68"/>
<polygon fill="black" stroke="black" points="380.522,-95.4159 381,-106 387.227,-97.428 380.522,-95.4159"/>
</g>
<!-- resulttree2 -->
<g id="node9" class="node"><title>resulttree2</title>
<polygon fill="none" stroke="black" points="462,-106.398 493.594,-143.301 430.406,-143.301 462,-106.398"/>
<text text-anchor="middle" x="462" y="-126.8" font-family="Times New Roman,serif" font-size="14.00">y</text>
</g>
<!-- resulttree2&#45;&gt;result -->
<g id="edge5" class="edge"><title>resulttree2:s&#45;&gt;result:b:n</title>
<path fill="none" stroke="black" d="M459.706,-96.1315C454.452,-86.1299 442,-83.0595 442,-68"/>
<polygon fill="black" stroke="black" points="456.326,-97.0523 462,-106 463.145,-95.4672 456.326,-97.0523"/>
</g>
</g>
</svg>
