<?xml version="1.0" encoding="UTF-8" standalone="no"?>
<!DOCTYPE svg PUBLIC "-//W3C//DTD SVG 1.1//EN"
 "http://www.w3.org/Graphics/SVG/1.1/DTD/svg11.dtd">
<!-- Generated by graphviz version 2.30.0 (20130114.0323)
 -->
<!-- Pages: 1 -->
<svg width="364pt" height="137pt"
 viewBox="0.00 0.00 437.00 164.00" xmlns="http://www.w3.org/2000/svg" xmlns:xlink="http://www.w3.org/1999/xlink">
<g id="graph0" class="graph" transform="scale(0.833333 0.833333) rotate(0) translate(4 160)">
<polygon fill="white" stroke="white" points="-4,5 -4,-160 434,-160 434,5 -4,5"/>
<g id="clust5" class="cluster"><title>clusterRes</title>
<polygon fill="none" stroke="none" points="341,-8 341,-148 421,-148 421,-8 341,-8"/>
</g>
<!-- left -->
<g id="node1" class="node"><title>left</title>
<polygon fill="none" stroke="black" points="31,-90.3984 62.594,-127.301 -0.593956,-127.301 31,-90.3984"/>
<text text-anchor="middle" x="31" y="-110.8" font-family="Times New Roman,serif" font-size="14.00">x</text>
</g>
<!-- leftroot -->
<g id="node2" class="node"><title>leftroot</title>
<text text-anchor="middle" x="31" y="-29.8" font-family="Times New Roman,serif" font-size="14.00">a</text>
</g>
<!-- left&#45;&gt;leftroot -->
<g id="edge1" class="edge"><title>left&#45;&gt;leftroot</title>
<path fill="none" stroke="black" d="M31,-80.1153C31,-70.4634 31,-60.3549 31,-52.1586"/>
<polygon fill="black" stroke="black" points="27.5001,-80.2974 31,-90.2974 34.5001,-80.2974 27.5001,-80.2974"/>
</g>
<!-- temp1 -->
<g id="node3" class="node"><title>temp1</title>
<text text-anchor="middle" x="108" y="-110.8" font-family="Times New Roman,serif" font-size="14.00">+</text>
</g>
<!-- right -->
<g id="node4" class="node"><title>right</title>
<polygon fill="none" stroke="black" points="185,-90.3984 216.594,-127.301 153.406,-127.301 185,-90.3984"/>
<text text-anchor="middle" x="185" y="-110.8" font-family="Times New Roman,serif" font-size="14.00">x</text>
</g>
<!-- rightroot -->
<g id="node5" class="node"><title>rightroot</title>
<text text-anchor="middle" x="185" y="-29.8" font-family="Times New Roman,serif" font-size="14.00">a</text>
</g>
<!-- right&#45;&gt;rightroot -->
<g id="edge2" class="edge"><title>right&#45;&gt;rightroot</title>
<path fill="none" stroke="black" d="M185,-80.1153C185,-70.4634 185,-60.3549 185,-52.1586"/>
<polygon fill="black" stroke="black" points="181.5,-80.2974 185,-90.2974 188.5,-80.2974 181.5,-80.2974"/>
</g>
<!-- temp2b -->
<g id="node6" class="node"><title>temp2b</title>
<ellipse fill="none" stroke="none" cx="237" cy="-115" rx="1.8" ry="1.8"/>
</g>
<!-- temp2c -->
<g id="node7" class="node"><title>temp2c</title>
<ellipse fill="none" stroke="none" cx="329" cy="-115" rx="1.8" ry="1.8"/>
</g>
<!-- temp2b&#45;&gt;temp2c -->
<g id="edge3" class="edge"><title>temp2b&#45;&gt;temp2c</title>
<path fill="none" stroke="black" d="M239.156,-115C264.975,-115 290.794,-115 316.612,-115"/>
<polygon fill="black" stroke="black" points="316.894,-118.5 326.894,-115 316.894,-111.5 316.894,-118.5"/>
</g>
<!-- result -->
<g id="node8" class="node"><title>result</title>
<polygon fill="none" stroke="black" points="381,-90.3984 412.594,-127.301 349.406,-127.301 381,-90.3984"/>
<text text-anchor="middle" x="381" y="-110.8" font-family="Times New Roman,serif" font-size="14.00">x</text>
</g>
<!-- resultroot -->
<g id="node9" class="node"><title>resultroot</title>
<text text-anchor="middle" x="381" y="-29.8" font-family="Times New Roman,serif" font-size="14.00">a</text>
</g>
<!-- result&#45;&gt;resultroot -->
<g id="edge4" class="edge"><title>result&#45;&gt;resultroot</title>
<path fill="none" stroke="black" d="M381,-80.1153C381,-70.4634 381,-60.3549 381,-52.1586"/>
<polygon fill="black" stroke="black" points="377.5,-80.2974 381,-90.2974 384.5,-80.2974 377.5,-80.2974"/>
</g>
</g>
</svg>
