<?xml version="1.0" encoding="UTF-8" standalone="no"?>
<!DOCTYPE svg PUBLIC "-//W3C//DTD SVG 1.1//EN"
 "http://www.w3.org/Graphics/SVG/1.1/DTD/svg11.dtd">
<!-- Generated by graphviz version 5.0.0 (20220707.1540)
 -->
<!-- Pages: 1 -->
<svg width="353pt" height="133pt"
 viewBox="0.00 0.00 423.90 159.00" xmlns="http://www.w3.org/2000/svg" xmlns:xlink="http://www.w3.org/1999/xlink">
<g id="graph0" class="graph" transform="scale(0.833333 0.833333) rotate(0) translate(4 155)">
<polygon fill="white" stroke="transparent" points="-4,4 -4,-155 419.9,-155 419.9,4 -4,4"/>
<g id="clust5" class="cluster">
<title>clusterRes</title>
<polygon fill="none" stroke="transparent" points="331.9,-8 331.9,-143 407.9,-143 407.9,-8 331.9,-8"/>
</g>
<!-- left -->
<g id="node1" class="node">
<title>left</title>
<polygon fill="none" stroke="black" points="29.9,-89 59.69,-123.5 0.1,-123.5 29.9,-89"/>
<text text-anchor="middle" x="29.9" y="-108.3" font-family="Times,serif" font-size="14.00">x</text>
</g>
<!-- leftroot -->
<g id="node2" class="node">
<title>leftroot</title>
<text text-anchor="middle" x="29.9" y="-30.3" font-family="Times,serif" font-size="14.00">a</text>
</g>
<!-- left&#45;&gt;leftroot -->
<g id="edge1" class="edge">
<title>left&#45;&gt;leftroot</title>
<path fill="none" stroke="black" d="M29.9,-78.42C29.9,-69.48 29.9,-60.14 29.9,-52.41"/>
<polygon fill="black" stroke="black" points="26.4,-78.61 29.9,-88.61 33.4,-78.61 26.4,-78.61"/>
</g>
<!-- temp1 -->
<g id="node3" class="node">
<title>temp1</title>
<text text-anchor="middle" x="104.9" y="-108.3" font-family="Times,serif" font-size="14.00">+</text>
</g>
<!-- right -->
<g id="node4" class="node">
<title>right</title>
<polygon fill="none" stroke="black" points="179.9,-89 209.69,-123.5 150.1,-123.5 179.9,-89"/>
<text text-anchor="middle" x="179.9" y="-108.3" font-family="Times,serif" font-size="14.00">x</text>
</g>
<!-- rightroot -->
<g id="node5" class="node">
<title>rightroot</title>
<text text-anchor="middle" x="179.9" y="-30.3" font-family="Times,serif" font-size="14.00">a</text>
</g>
<!-- right&#45;&gt;rightroot -->
<g id="edge2" class="edge">
<title>right&#45;&gt;rightroot</title>
<path fill="none" stroke="black" d="M179.9,-78.42C179.9,-69.48 179.9,-60.14 179.9,-52.41"/>
<polygon fill="black" stroke="black" points="176.4,-78.61 179.9,-88.61 183.4,-78.61 176.4,-78.61"/>
</g>
<!-- temp2b -->
<g id="node6" class="node">
<title>temp2b</title>
<ellipse fill="transparent" stroke="transparent" cx="229.9" cy="-112" rx="1.8" ry="1.8"/>
</g>
<!-- temp2c -->
<g id="node7" class="node">
<title>temp2c</title>
<ellipse fill="transparent" stroke="transparent" cx="319.9" cy="-112" rx="1.8" ry="1.8"/>
</g>
<!-- temp2b&#45;&gt;temp2c -->
<g id="edge3" class="edge">
<title>temp2b&#45;&gt;temp2c</title>
<path fill="none" stroke="black" d="M231.78,-112C241.48,-112 286.25,-112 307.99,-112"/>
<polygon fill="black" stroke="black" points="308.03,-115.5 318.03,-112 308.03,-108.5 308.03,-115.5"/>
<text text-anchor="middle" x="274.9" y="-118.8" font-family="Times,serif" font-size="14.00" fill="#fffffe" fill-opacity="0.000000">wwwwwww</text>
</g>
<!-- result -->
<g id="node8" class="node">
<title>result</title>
<polygon fill="none" stroke="black" points="369.9,-89 399.69,-123.5 340.1,-123.5 369.9,-89"/>
<text text-anchor="middle" x="369.9" y="-108.3" font-family="Times,serif" font-size="14.00">x</text>
</g>
<!-- resultroot -->
<g id="node9" class="node">
<title>resultroot</title>
<text text-anchor="middle" x="369.9" y="-30.3" font-family="Times,serif" font-size="14.00">a</text>
</g>
<!-- result&#45;&gt;resultroot -->
<g id="edge4" class="edge">
<title>result&#45;&gt;resultroot</title>
<path fill="none" stroke="black" d="M369.9,-78.42C369.9,-69.48 369.9,-60.14 369.9,-52.41"/>
<polygon fill="black" stroke="black" points="366.4,-78.61 369.9,-88.61 373.4,-78.61 366.4,-78.61"/>
</g>
</g>
</svg>
