<?xml version="1.0" encoding="UTF-8" standalone="no"?>
<!DOCTYPE svg PUBLIC "-//W3C//DTD SVG 1.1//EN"
 "http://www.w3.org/Graphics/SVG/1.1/DTD/svg11.dtd">
<!-- Generated by graphviz version 5.0.0 (20220707.1540)
 -->
<!-- Pages: 1 -->
<svg width="407pt" height="194pt"
 viewBox="0.00 0.00 487.90 233.00" xmlns="http://www.w3.org/2000/svg" xmlns:xlink="http://www.w3.org/1999/xlink">
<g id="graph0" class="graph" transform="scale(0.833333 0.833333) rotate(0) translate(4 229)">
<polygon fill="white" stroke="transparent" points="-4,4 -4,-229 483.9,-229 483.9,4 -4,4"/>
<g id="clust6" class="cluster">
<title>clusterRes</title>
<polygon fill="none" stroke="transparent" points="329.9,-8 329.9,-217 471.9,-217 471.9,-8 329.9,-8"/>
</g>
<!-- lefttree -->
<g id="node1" class="node">
<title>lefttree</title>
</g>
<!-- left -->
<g id="node2" class="node">
<title>left</title>
<polygon fill="none" stroke="black" points="29.9,-89.5 59.69,-124 0.1,-124 29.9,-89.5"/>
<text text-anchor="middle" x="29.9" y="-108.8" font-family="Times,serif" font-size="14.00">x</text>
</g>
<!-- lefttree&#45;&gt;left -->
<g id="edge1" class="edge">
<title>lefttree&#45;&gt;left</title>
</g>
<!-- leftroot -->
<g id="node3" class="node">
<title>leftroot</title>
<text text-anchor="middle" x="29.9" y="-30.3" font-family="Times,serif" font-size="14.00">a</text>
</g>
<!-- left&#45;&gt;leftroot -->
<g id="edge2" class="edge">
<title>left&#45;&gt;leftroot</title>
<path fill="none" stroke="black" d="M29.9,-79.23C29.9,-69.95 29.9,-60.2 29.9,-52.22"/>
<polygon fill="black" stroke="black" points="26.4,-79.37 29.9,-89.37 33.4,-79.37 26.4,-79.37"/>
</g>
<!-- optree -->
<g id="node4" class="node">
<title>optree</title>
</g>
<!-- temp1 -->
<g id="node5" class="node">
<title>temp1</title>
<text text-anchor="middle" x="104.9" y="-108.8" font-family="Times,serif" font-size="14.00">+</text>
</g>
<!-- optree&#45;&gt;temp1 -->
<g id="edge3" class="edge">
<title>optree&#45;&gt;temp1</title>
</g>
<!-- righttree -->
<g id="node6" class="node">
<title>righttree</title>
</g>
<!-- right -->
<g id="node7" class="node">
<title>right</title>
<polygon fill="none" stroke="black" points="179.9,-89.5 209.69,-124 150.1,-124 179.9,-89.5"/>
<text text-anchor="middle" x="179.9" y="-108.8" font-family="Times,serif" font-size="14.00">y</text>
</g>
<!-- righttree&#45;&gt;right -->
<g id="edge4" class="edge">
<title>righttree&#45;&gt;right</title>
</g>
<!-- rightroot -->
<g id="node8" class="node">
<title>rightroot</title>
<text text-anchor="middle" x="179.9" y="-30.3" font-family="Times,serif" font-size="14.00">a</text>
</g>
<!-- right&#45;&gt;rightroot -->
<g id="edge5" class="edge">
<title>right&#45;&gt;rightroot</title>
<path fill="none" stroke="black" d="M179.9,-79.23C179.9,-69.95 179.9,-60.2 179.9,-52.22"/>
<polygon fill="black" stroke="black" points="176.4,-79.37 179.9,-89.37 183.4,-79.37 176.4,-79.37"/>
</g>
<!-- temp2a -->
<g id="node9" class="node">
<title>temp2a</title>
<ellipse fill="transparent" stroke="transparent" cx="270.9" cy="-191" rx="1.8" ry="1.8"/>
</g>
<!-- temp2b -->
<g id="node10" class="node">
<title>temp2b</title>
<ellipse fill="transparent" stroke="transparent" cx="229.9" cy="-112.5" rx="1.8" ry="1.8"/>
</g>
<!-- temp2a&#45;&gt;temp2b -->
<g id="edge6" class="edge">
<title>temp2a&#45;&gt;temp2b</title>
</g>
<!-- temp2c -->
<g id="node11" class="node">
<title>temp2c</title>
<ellipse fill="transparent" stroke="transparent" cx="319.9" cy="-112.5" rx="1.8" ry="1.8"/>
</g>
<!-- temp2a&#45;&gt;temp2c -->
<g id="edge7" class="edge">
<title>temp2a&#45;&gt;temp2c</title>
</g>
<!-- temp2b&#45;&gt;temp2c -->
<g id="edge8" class="edge">
<title>temp2b&#45;&gt;temp2c</title>
<path fill="none" stroke="black" d="M231.78,-112.5C241.48,-112.5 286.25,-112.5 307.99,-112.5"/>
<polygon fill="black" stroke="black" points="308.03,-116 318.03,-112.5 308.03,-109 308.03,-116"/>
<text text-anchor="middle" x="274.9" y="-119.3" font-family="Times,serif" font-size="14.00" fill="#fffffe" fill-opacity="0.000000">wwwwwww</text>
</g>
<!-- resulttree1 -->
<g id="node12" class="node">
<title>resulttree1</title>
<polygon fill="none" stroke="black" points="364.9,-173 391.9,-200 337.9,-200 364.9,-173"/>
</g>
<!-- result -->
<g id="node14" class="node">
<title>result</title>
<polygon fill="none" stroke="black" points="378.9,-89.5 378.9,-135.5 432.9,-135.5 432.9,-89.5 378.9,-89.5"/>
<text text-anchor="middle" x="392.4" y="-120.3" font-family="Times,serif" font-size="14.00"> </text>
<polyline fill="none" stroke="black" points="378.9,-112.5 405.9,-112.5 "/>
<text text-anchor="middle" x="392.4" y="-97.3" font-family="Times,serif" font-size="14.00">x</text>
<polyline fill="none" stroke="black" points="405.9,-89.5 405.9,-135.5 "/>
<text text-anchor="middle" x="419.4" y="-120.3" font-family="Times,serif" font-size="14.00"> </text>
<polyline fill="none" stroke="black" points="405.9,-112.5 432.9,-112.5 "/>
<text text-anchor="middle" x="419.4" y="-97.3" font-family="Times,serif" font-size="14.00">y</text>
</g>
<!-- resulttree1&#45;&gt;result -->
<g id="edge9" class="edge">
<title>resulttree1:s&#45;&gt;result:n</title>
<path fill="none" stroke="black" d="M367.79,-163.17C374.75,-153.16 391.9,-152.22 391.9,-136"/>
<polygon fill="black" stroke="black" points="364.36,-162.42 364.9,-173 371.08,-164.39 364.36,-162.42"/>
</g>
<!-- resulttree2 -->
<g id="node13" class="node">
<title>resulttree2</title>
<polygon fill="none" stroke="black" points="436.9,-173 463.9,-200 409.9,-200 436.9,-173"/>
</g>
<!-- resulttree2&#45;&gt;result -->
<g id="edge10" class="edge">
<title>resulttree2:s&#45;&gt;result:n</title>
<path fill="none" stroke="black" d="M434.67,-162.96C430.07,-153.65 419.9,-150 419.9,-136"/>
<polygon fill="black" stroke="black" points="431.32,-163.99 436.9,-173 438.15,-162.48 431.32,-163.99"/>
</g>
<!-- resultroot -->
<g id="node15" class="node">
<title>resultroot</title>
<text text-anchor="middle" x="405.9" y="-30.3" font-family="Times,serif" font-size="14.00">a&#39;</text>
</g>
<!-- result&#45;&gt;resultroot -->
<g id="edge11" class="edge">
<title>result&#45;&gt;resultroot</title>
<path fill="none" stroke="black" d="M405.9,-79.23C405.9,-69.95 405.9,-60.2 405.9,-52.22"/>
<polygon fill="black" stroke="black" points="402.4,-79.37 405.9,-89.37 409.4,-79.37 402.4,-79.37"/>
</g>
</g>
</svg>
