<?xml version="1.0" encoding="UTF-8" standalone="no"?>
<!DOCTYPE svg PUBLIC "-//W3C//DTD SVG 1.1//EN"
 "http://www.w3.org/Graphics/SVG/1.1/DTD/svg11.dtd">
<!-- Generated by graphviz version 2.38.0 (20140413.2041)
 -->
<!-- Pages: 1 -->
<svg width="350pt" height="131pt"
 viewBox="0.00 0.00 420.06 157.00" xmlns="http://www.w3.org/2000/svg" xmlns:xlink="http://www.w3.org/1999/xlink">
<g id="graph0" class="graph" transform="scale(0.833333 0.833333) rotate(0) translate(4 153)">
<polygon fill="white" stroke="none" points="-4,4 -4,-153 416.057,-153 416.057,4 -4,4"/>
<g id="clust5" class="cluster"><title>clusterRes</title>
<polygon fill="none" stroke="none" points="330.057,-8 330.057,-141 404.057,-141 404.057,-8 330.057,-8"/>
</g>
<!-- left -->
<g id="node1" class="node"><title>left</title>
<polygon fill="none" stroke="black" points="29.0571,-89 58.1714,-122 -0.0572161,-122 29.0571,-89"/>
<text text-anchor="middle" x="29.0571" y="-106.8" font-family="Times,serif" font-size="14.00">x</text>
</g>
<!-- leftroot -->
<g id="node2" class="node"><title>leftroot</title>
<text text-anchor="middle" x="29.0571" y="-29.8" font-family="Times,serif" font-size="14.00">a</text>
</g>
<!-- left&#45;&gt;leftroot -->
<g id="edge1" class="edge"><title>left&#45;&gt;leftroot</title>
<path fill="none" stroke="black" d="M29.0571,-78.4376C29.0571,-69.3919 29.0571,-59.8734 29.0571,-52.0597"/>
<polygon fill="black" stroke="black" points="25.5572,-78.7086 29.0571,-88.7086 32.5572,-78.7087 25.5572,-78.7086"/>
</g>
<!-- temp1 -->
<g id="node3" class="node"><title>temp1</title>
<text text-anchor="middle" x="103.057" y="-106.8" font-family="Times,serif" font-size="14.00">+</text>
</g>
<!-- right -->
<g id="node4" class="node"><title>right</title>
<polygon fill="none" stroke="black" points="177.057,-89 206.171,-122 147.943,-122 177.057,-89"/>
<text text-anchor="middle" x="177.057" y="-106.8" font-family="Times,serif" font-size="14.00">x</text>
</g>
<!-- rightroot -->
<g id="node5" class="node"><title>rightroot</title>
<text text-anchor="middle" x="177.057" y="-29.8" font-family="Times,serif" font-size="14.00">a</text>
</g>
<!-- right&#45;&gt;rightroot -->
<g id="edge2" class="edge"><title>right&#45;&gt;rightroot</title>
<path fill="none" stroke="black" d="M177.057,-78.4376C177.057,-69.3919 177.057,-59.8734 177.057,-52.0597"/>
<polygon fill="black" stroke="black" points="173.557,-78.7086 177.057,-88.7086 180.557,-78.7087 173.557,-78.7086"/>
</g>
<!-- temp2b -->
<g id="node6" class="node"><title>temp2b</title>
<ellipse fill="none" stroke="none" cx="226.057" cy="-111" rx="1.8" ry="1.8"/>
</g>
<!-- temp2c -->
<g id="node7" class="node"><title>temp2c</title>
<ellipse fill="none" stroke="none" cx="318.057" cy="-111" rx="1.8" ry="1.8"/>
</g>
<!-- temp2b&#45;&gt;temp2c -->
<g id="edge3" class="edge"><title>temp2b&#45;&gt;temp2c</title>
<path fill="none" stroke="black" d="M227.979,-111C237.894,-111 283.662,-111 305.884,-111"/>
<polygon fill="black" stroke="black" points="306.146,-114.5 316.146,-111 306.146,-107.5 306.146,-114.5"/>
<text text-anchor="middle" x="272.057" y="-116.8" font-family="Times,serif" font-size="14.00" fill="#fffffe">wwwwwww</text>
</g>
<!-- result -->
<g id="node8" class="node"><title>result</title>
<polygon fill="none" stroke="black" points="367.057,-89 396.171,-122 337.943,-122 367.057,-89"/>
<text text-anchor="middle" x="367.057" y="-106.8" font-family="Times,serif" font-size="14.00">x</text>
</g>
<!-- resultroot -->
<g id="node9" class="node"><title>resultroot</title>
<text text-anchor="middle" x="367.057" y="-29.8" font-family="Times,serif" font-size="14.00">a</text>
</g>
<!-- result&#45;&gt;resultroot -->
<g id="edge4" class="edge"><title>result&#45;&gt;resultroot</title>
<path fill="none" stroke="black" d="M367.057,-78.4376C367.057,-69.3919 367.057,-59.8734 367.057,-52.0597"/>
<polygon fill="black" stroke="black" points="363.557,-78.7086 367.057,-88.7086 370.557,-78.7087 363.557,-78.7086"/>
</g>
</g>
</svg>
