<?xml version="1.0" encoding="UTF-8" standalone="no"?>
<!DOCTYPE svg PUBLIC "-//W3C//DTD SVG 1.1//EN"
 "http://www.w3.org/Graphics/SVG/1.1/DTD/svg11.dtd">
<!-- Generated by graphviz version 2.30.0 (20130114.0323)
 -->
<!-- Pages: 1 -->
<svg width="414pt" height="200pt"
 viewBox="0.00 0.00 497.00 240.00" xmlns="http://www.w3.org/2000/svg" xmlns:xlink="http://www.w3.org/1999/xlink">
<g id="graph0" class="graph" transform="scale(0.833333 0.833333) rotate(0) translate(4 236)">
<polygon fill="white" stroke="white" points="-4,5 -4,-236 494,-236 494,5 -4,5"/>
<g id="clust6" class="cluster"><title>clusterRes</title>
<polygon fill="none" stroke="none" points="339,-8 339,-224 481,-224 481,-8 339,-8"/>
</g>
<!-- lefttree -->
<g id="node1" class="node"><title>lefttree</title>
</g>
<!-- left -->
<g id="node2" class="node"><title>left</title>
<polygon fill="none" stroke="black" points="31,-91.3984 62.594,-128.301 -0.593956,-128.301 31,-91.3984"/>
<text text-anchor="middle" x="31" y="-111.8" font-family="Times New Roman,serif" font-size="14.00">x</text>
</g>
<!-- lefttree&#45;&gt;left -->
<g id="edge1" class="edge"><title>lefttree&#45;&gt;left</title>
</g>
<!-- leftroot -->
<g id="node3" class="node"><title>leftroot</title>
<text text-anchor="middle" x="31" y="-29.8" font-family="Times New Roman,serif" font-size="14.00">a</text>
</g>
<!-- left&#45;&gt;leftroot -->
<g id="edge2" class="edge"><title>left&#45;&gt;leftroot</title>
<path fill="none" stroke="black" d="M31,-80.922C31,-70.9785 31,-60.5357 31,-52.1252"/>
<polygon fill="black" stroke="black" points="27.5001,-80.9973 31,-90.9974 34.5001,-80.9974 27.5001,-80.9973"/>
</g>
<!-- optree -->
<g id="node4" class="node"><title>optree</title>
</g>
<!-- temp1 -->
<g id="node5" class="node"><title>temp1</title>
<text text-anchor="middle" x="108" y="-111.8" font-family="Times New Roman,serif" font-size="14.00">+</text>
</g>
<!-- optree&#45;&gt;temp1 -->
<g id="edge3" class="edge"><title>optree&#45;&gt;temp1</title>
</g>
<!-- righttree -->
<g id="node6" class="node"><title>righttree</title>
</g>
<!-- right -->
<g id="node7" class="node"><title>right</title>
<polygon fill="none" stroke="black" points="185,-91.3984 216.594,-128.301 153.406,-128.301 185,-91.3984"/>
<text text-anchor="middle" x="185" y="-111.8" font-family="Times New Roman,serif" font-size="14.00">y</text>
</g>
<!-- righttree&#45;&gt;right -->
<g id="edge4" class="edge"><title>righttree&#45;&gt;right</title>
</g>
<!-- rightroot -->
<g id="node8" class="node"><title>rightroot</title>
<text text-anchor="middle" x="185" y="-29.8" font-family="Times New Roman,serif" font-size="14.00">a</text>
</g>
<!-- right&#45;&gt;rightroot -->
<g id="edge5" class="edge"><title>right&#45;&gt;rightroot</title>
<path fill="none" stroke="black" d="M185,-80.922C185,-70.9785 185,-60.5357 185,-52.1252"/>
<polygon fill="black" stroke="black" points="181.5,-80.9973 185,-90.9974 188.5,-80.9974 181.5,-80.9973"/>
</g>
<!-- temp2a -->
<g id="node9" class="node"><title>temp2a</title>
<ellipse fill="none" stroke="none" cx="264" cy="-198" rx="1.8" ry="1.8"/>
</g>
<!-- temp2b -->
<g id="node10" class="node"><title>temp2b</title>
<ellipse fill="none" stroke="none" cx="237" cy="-116" rx="1.8" ry="1.8"/>
</g>
<!-- temp2a&#45;&gt;temp2b -->
<g id="edge6" class="edge"><title>temp2a&#45;&gt;temp2b</title>
</g>
<!-- temp2c -->
<g id="node11" class="node"><title>temp2c</title>
<ellipse fill="none" stroke="none" cx="329" cy="-116" rx="1.8" ry="1.8"/>
</g>
<!-- temp2a&#45;&gt;temp2c -->
<g id="edge7" class="edge"><title>temp2a&#45;&gt;temp2c</title>
</g>
<!-- temp2b&#45;&gt;temp2c -->
<g id="edge8" class="edge"><title>temp2b&#45;&gt;temp2c</title>
<path fill="none" stroke="black" d="M239.156,-116C264.975,-116 290.794,-116 316.612,-116"/>
<polygon fill="black" stroke="black" points="316.894,-119.5 326.894,-116 316.894,-112.5 316.894,-119.5"/>
</g>
<!-- resulttree1 -->
<g id="node12" class="node"><title>resulttree1</title>
<polygon fill="none" stroke="black" points="374,-180 401,-207 347,-207 374,-180"/>
</g>
<!-- result -->
<g id="node14" class="node"><title>result</title>
<polygon fill="none" stroke="black" points="388,-91.2 388,-140.8 442,-140.8 442,-91.2 388,-91.2"/>
<text text-anchor="middle" x="401.5" y="-124.2" font-family="Times New Roman,serif" font-size="14.00"> </text>
<polyline fill="none" stroke="black" points="388,-116 415,-116 "/>
<text text-anchor="middle" x="401.5" y="-99.4" font-family="Times New Roman,serif" font-size="14.00">x</text>
<polyline fill="none" stroke="black" points="415,-91.2 415,-140.8 "/>
<text text-anchor="middle" x="428.5" y="-124.2" font-family="Times New Roman,serif" font-size="14.00"> </text>
<polyline fill="none" stroke="black" points="415,-116 442,-116 "/>
<text text-anchor="middle" x="428.5" y="-99.4" font-family="Times New Roman,serif" font-size="14.00">y</text>
</g>
<!-- resulttree1&#45;&gt;result -->
<g id="edge9" class="edge"><title>resulttree1:s&#45;&gt;result:x:n</title>
<path fill="none" stroke="black" d="M376.688,-170.265C383.517,-159.703 401,-158.671 401,-142"/>
<polygon fill="black" stroke="black" points="373.287,-169.429 374,-180 380.035,-171.292 373.287,-169.429"/>
</g>
<!-- resulttree2 -->
<g id="node13" class="node"><title>resulttree2</title>
<polygon fill="none" stroke="black" points="446,-180 473,-207 419,-207 446,-180"/>
</g>
<!-- resulttree2&#45;&gt;result -->
<g id="edge10" class="edge"><title>resulttree2:s&#45;&gt;result:y:n</title>
<path fill="none" stroke="black" d="M443.915,-170.005C439.376,-160.225 429,-156.455 429,-142"/>
<polygon fill="black" stroke="black" points="440.532,-170.925 446,-180 447.385,-169.496 440.532,-170.925"/>
</g>
<!-- resultroot -->
<g id="node15" class="node"><title>resultroot</title>
<text text-anchor="middle" x="415" y="-29.8" font-family="Times New Roman,serif" font-size="14.00">a&#39;</text>
</g>
<!-- result&#45;&gt;resultroot -->
<g id="edge11" class="edge"><title>result&#45;&gt;resultroot</title>
<path fill="none" stroke="black" d="M415,-80.922C415,-70.9785 415,-60.5357 415,-52.1252"/>
<polygon fill="black" stroke="black" points="411.5,-80.9973 415,-90.9974 418.5,-80.9974 411.5,-80.9973"/>
</g>
</g>
</svg>
