<?xml version="1.0" encoding="UTF-8" standalone="no"?>
<!DOCTYPE svg PUBLIC "-//W3C//DTD SVG 1.1//EN"
 "http://www.w3.org/Graphics/SVG/1.1/DTD/svg11.dtd">
<!-- Generated by graphviz version 8.0.5 (20230430.1635)
 -->
<!-- Pages: 1 -->
<svg width="409pt" height="197pt"
 viewBox="0.00 0.00 491.05 236.00" xmlns="http://www.w3.org/2000/svg" xmlns:xlink="http://www.w3.org/1999/xlink">
<g id="graph0" class="graph" transform="scale(0.833333 0.833333) rotate(0) translate(4 232)">
<polygon fill="white" stroke="none" points="-4,4 -4,-232 487.05,-232 487.05,4 -4,4"/>
<g id="clust6" class="cluster">
<title>clusterRes</title>
<polygon fill="none" stroke="none" points="333.05,-8 333.05,-220 475.05,-220 475.05,-8 333.05,-8"/>
</g>
<!-- lefttree -->
<g id="node1" class="node">
<title>lefttree</title>
</g>
<!-- left -->
<g id="node2" class="node">
<title>left</title>
<polygon fill="none" stroke="black" points="31.05,-89.5 62.1,-126.25 0,-126.25 31.05,-89.5"/>
<text text-anchor="middle" x="31.05" y="-108.95" font-family="Times,serif" font-size="14.00">x</text>
</g>
<!-- lefttree&#45;&gt;left -->
<g id="edge1" class="edge">
<title>lefttree&#45;&gt;left</title>
</g>
<!-- leftroot -->
<g id="node3" class="node">
<title>leftroot</title>
<text text-anchor="middle" x="31.05" y="-28.95" font-family="Times,serif" font-size="14.00">a</text>
</g>
<!-- left&#45;&gt;leftroot -->
<g id="edge2" class="edge">
<title>left&#45;&gt;leftroot</title>
<path fill="none" stroke="black" d="M31.05,-77.94C31.05,-68.86 31.05,-59.48 31.05,-51.82"/>
<polygon fill="black" stroke="black" points="27.55,-77.75 31.05,-87.75 34.55,-77.75 27.55,-77.75"/>
</g>
<!-- optree -->
<g id="node4" class="node">
<title>optree</title>
</g>
<!-- temp1 -->
<g id="node5" class="node">
<title>temp1</title>
<text text-anchor="middle" x="107.05" y="-108.95" font-family="Times,serif" font-size="14.00">+</text>
</g>
<!-- optree&#45;&gt;temp1 -->
<g id="edge3" class="edge">
<title>optree&#45;&gt;temp1</title>
</g>
<!-- righttree -->
<g id="node6" class="node">
<title>righttree</title>
</g>
<!-- right -->
<g id="node7" class="node">
<title>right</title>
<polygon fill="none" stroke="black" points="183.05,-89.5 214.1,-126.25 152,-126.25 183.05,-89.5"/>
<text text-anchor="middle" x="183.05" y="-108.95" font-family="Times,serif" font-size="14.00">y</text>
</g>
<!-- righttree&#45;&gt;right -->
<g id="edge4" class="edge">
<title>righttree&#45;&gt;right</title>
</g>
<!-- rightroot -->
<g id="node8" class="node">
<title>rightroot</title>
<text text-anchor="middle" x="183.05" y="-28.95" font-family="Times,serif" font-size="14.00">a</text>
</g>
<!-- right&#45;&gt;rightroot -->
<g id="edge5" class="edge">
<title>right&#45;&gt;rightroot</title>
<path fill="none" stroke="black" d="M183.05,-77.94C183.05,-68.86 183.05,-59.48 183.05,-51.82"/>
<polygon fill="black" stroke="black" points="179.55,-77.75 183.05,-87.75 186.55,-77.75 179.55,-77.75"/>
</g>
<!-- temp2a -->
<g id="node9" class="node">
<title>temp2a</title>
<ellipse fill="none" stroke="none" cx="275.05" cy="-194" rx="1.8" ry="1.8"/>
</g>
<!-- temp2b -->
<g id="node10" class="node">
<title>temp2b</title>
<ellipse fill="none" stroke="none" cx="234.05" cy="-114" rx="1.8" ry="1.8"/>
</g>
<!-- temp2a&#45;&gt;temp2b -->
<g id="edge6" class="edge">
<title>temp2a&#45;&gt;temp2b</title>
</g>
<!-- temp2c -->
<g id="node11" class="node">
<title>temp2c</title>
<ellipse fill="none" stroke="none" cx="323.05" cy="-114" rx="1.8" ry="1.8"/>
</g>
<!-- temp2a&#45;&gt;temp2c -->
<g id="edge7" class="edge">
<title>temp2a&#45;&gt;temp2c</title>
</g>
<!-- temp2b&#45;&gt;temp2c -->
<g id="edge8" class="edge">
<title>temp2b&#45;&gt;temp2c</title>
<path fill="none" stroke="black" d="M236.25,-114C246.3,-114 288.31,-114 309.98,-114"/>
<polygon fill="black" stroke="black" points="309.93,-117.5 319.93,-114 309.93,-110.5 309.93,-117.5"/>
<text text-anchor="middle" x="278.55" y="-120.2" font-family="Times,serif" font-size="14.00" fill="#fffffe" fill-opacity="0.000000">wwwwwww</text>
</g>
<!-- resulttree1 -->
<g id="node12" class="node">
<title>resulttree1</title>
<polygon fill="none" stroke="black" points="368.05,-176 395.05,-203 341.05,-203 368.05,-176"/>
</g>
<!-- result -->
<g id="node14" class="node">
<title>result</title>
<polygon fill="none" stroke="black" points="383.05,-89.5 383.05,-138.5 437.05,-138.5 437.05,-89.5 383.05,-89.5"/>
<text text-anchor="middle" x="396.42" y="-121.2" font-family="Times,serif" font-size="14.00"> </text>
<polyline fill="none" stroke="black" points="383.05,-114 409.8,-114"/>
<text text-anchor="middle" x="396.42" y="-96.7" font-family="Times,serif" font-size="14.00">x</text>
<polyline fill="none" stroke="black" points="409.8,-89.5 409.8,-138.5"/>
<text text-anchor="middle" x="423.17" y="-121.2" font-family="Times,serif" font-size="14.00"> </text>
<polyline fill="none" stroke="black" points="409.8,-114 436.55,-114"/>
<text text-anchor="middle" x="423.17" y="-96.7" font-family="Times,serif" font-size="14.00">y</text>
</g>
<!-- resulttree1&#45;&gt;result -->
<g id="edge9" class="edge">
<title>resulttree1:s&#45;&gt;result:n</title>
<path fill="none" stroke="black" d="M371.26,-165.8C378.62,-156.06 396.05,-155.27 396.05,-139"/>
<polygon fill="black" stroke="black" points="367.72,-164.41 368.05,-175 374.39,-166.51 367.72,-164.41"/>
</g>
<!-- resulttree2 -->
<g id="node13" class="node">
<title>resulttree2</title>
<polygon fill="none" stroke="black" points="440.05,-176 467.05,-203 413.05,-203 440.05,-176"/>
</g>
<!-- resulttree2&#45;&gt;result -->
<g id="edge10" class="edge">
<title>resulttree2:s&#45;&gt;result:n</title>
<path fill="none" stroke="black" d="M437.54,-165.4C432.81,-156.5 423.05,-152.71 423.05,-139"/>
<polygon fill="black" stroke="black" points="434.34,-166.08 440.05,-175 441.15,-164.46 434.34,-166.08"/>
</g>
<!-- resultroot -->
<g id="node15" class="node">
<title>resultroot</title>
<text text-anchor="middle" x="410.05" y="-28.95" font-family="Times,serif" font-size="14.00">a&#39;</text>
</g>
<!-- result&#45;&gt;resultroot -->
<g id="edge11" class="edge">
<title>result&#45;&gt;resultroot</title>
<path fill="none" stroke="black" d="M410.05,-78.85C410.05,-69.44 410.05,-59.64 410.05,-51.7"/>
<polygon fill="black" stroke="black" points="406.55,-78.6 410.05,-88.6 413.55,-78.6 406.55,-78.6"/>
</g>
</g>
</svg>
