<?xml version="1.0" encoding="UTF-8" standalone="no"?>
<!DOCTYPE svg PUBLIC "-//W3C//DTD SVG 1.1//EN"
 "http://www.w3.org/Graphics/SVG/1.1/DTD/svg11.dtd">
<!-- Generated by graphviz version 2.37.20140119.0545 (20140119.0545)
 -->
<!-- Pages: 1 -->
<svg width="353pt" height="133pt"
 viewBox="0.00 0.00 352.50 133.33" xmlns="http://www.w3.org/2000/svg" xmlns:xlink="http://www.w3.org/1999/xlink">
<g id="graph0" class="graph" transform="scale(0.833333 0.833333) rotate(0) translate(4 156)">
<polygon fill="white" stroke="none" points="-4,4 -4,-156 419,-156 419,4 -4,4"/>
<g id="clust5" class="cluster"><title>clusterRes</title>
<polygon fill="none" stroke="none" points="331,-8 331,-144 407,-144 407,-8 331,-8"/>
</g>
<!-- left -->
<g id="node1" class="node"><title>left</title>
<polygon fill="none" stroke="black" points="29,-90 58.3479,-124.5 -0.347907,-124.5 29,-90"/>
<text text-anchor="middle" x="29" y="-109.3" font-family="Times New Roman,serif" font-size="14.00">x</text>
</g>
<!-- leftroot -->
<g id="node2" class="node"><title>leftroot</title>
<text text-anchor="middle" x="29" y="-30.3" font-family="Times New Roman,serif" font-size="14.00">a</text>
</g>
<!-- left&#45;&gt;leftroot -->
<g id="edge1" class="edge"><title>left&#45;&gt;leftroot</title>
<path fill="none" stroke="black" d="M29,-79.5165C29,-70.1825 29,-60.3647 29,-52.3313"/>
<polygon fill="black" stroke="black" points="25.5001,-79.7284 29,-89.7284 32.5001,-79.7284 25.5001,-79.7284"/>
</g>
<!-- temp1 -->
<g id="node3" class="node"><title>temp1</title>
<text text-anchor="middle" x="104" y="-109.3" font-family="Times New Roman,serif" font-size="14.00">+</text>
</g>
<!-- right -->
<g id="node4" class="node"><title>right</title>
<polygon fill="none" stroke="black" points="179,-90 208.348,-124.5 149.652,-124.5 179,-90"/>
<text text-anchor="middle" x="179" y="-109.3" font-family="Times New Roman,serif" font-size="14.00">x</text>
</g>
<!-- rightroot -->
<g id="node5" class="node"><title>rightroot</title>
<text text-anchor="middle" x="179" y="-30.3" font-family="Times New Roman,serif" font-size="14.00">a</text>
</g>
<!-- right&#45;&gt;rightroot -->
<g id="edge2" class="edge"><title>right&#45;&gt;rightroot</title>
<path fill="none" stroke="black" d="M179,-79.5165C179,-70.1825 179,-60.3647 179,-52.3313"/>
<polygon fill="black" stroke="black" points="175.5,-79.7284 179,-89.7284 182.5,-79.7284 175.5,-79.7284"/>
</g>
<!-- temp2b -->
<g id="node6" class="node"><title>temp2b</title>
<ellipse fill="none" stroke="none" cx="229" cy="-113" rx="1.8" ry="1.8"/>
</g>
<!-- temp2c -->
<g id="node7" class="node"><title>temp2c</title>
<ellipse fill="none" stroke="none" cx="319" cy="-113" rx="1.8" ry="1.8"/>
</g>
<!-- temp2b&#45;&gt;temp2c -->
<g id="edge3" class="edge"><title>temp2b&#45;&gt;temp2c</title>
<path fill="none" stroke="black" d="M230.88,-113C240.579,-113 285.352,-113 307.091,-113"/>
<polygon fill="black" stroke="black" points="307.131,-116.5 317.131,-113 307.131,-109.5 307.131,-116.5"/>
<text text-anchor="middle" x="273.6" y="-119.8" font-family="Times New Roman,serif" font-size="14.00" fill="#fffffe">wwwwwww</text>
</g>
<!-- result -->
<g id="node8" class="node"><title>result</title>
<polygon fill="none" stroke="black" points="369,-90 398.348,-124.5 339.652,-124.5 369,-90"/>
<text text-anchor="middle" x="369" y="-109.3" font-family="Times New Roman,serif" font-size="14.00">x</text>
</g>
<!-- resultroot -->
<g id="node9" class="node"><title>resultroot</title>
<text text-anchor="middle" x="369" y="-30.3" font-family="Times New Roman,serif" font-size="14.00">a</text>
</g>
<!-- result&#45;&gt;resultroot -->
<g id="edge4" class="edge"><title>result&#45;&gt;resultroot</title>
<path fill="none" stroke="black" d="M369,-79.5165C369,-70.1825 369,-60.3647 369,-52.3313"/>
<polygon fill="black" stroke="black" points="365.5,-79.7284 369,-89.7284 372.5,-79.7284 365.5,-79.7284"/>
</g>
</g>
</svg>
