<?xml version="1.0" encoding="UTF-8" standalone="no"?>
<!DOCTYPE svg PUBLIC "-//W3C//DTD SVG 1.1//EN"
 "http://www.w3.org/Graphics/SVG/1.1/DTD/svg11.dtd">
<!-- Generated by graphviz version 2.38.0 (20140413.2041)
 -->
<!-- Pages: 1 -->
<svg width="413pt" height="138pt"
 viewBox="0.00 0.00 496.06 166.00" xmlns="http://www.w3.org/2000/svg" xmlns:xlink="http://www.w3.org/1999/xlink">
<g id="graph0" class="graph" transform="scale(0.833333 0.833333) rotate(0) translate(4 162)">
<polygon fill="white" stroke="none" points="-4,4 -4,-162 492.057,-162 492.057,4 -4,4"/>
<g id="clust5" class="cluster"><title>clusterRes</title>
<polygon fill="none" stroke="none" points="330.057,-8 330.057,-150 480.057,-150 480.057,-8 330.057,-8"/>
</g>
<!-- left -->
<g id="node1" class="node"><title>left</title>
<polygon fill="none" stroke="black" points="29.0571,-98 58.1714,-131 -0.0572161,-131 29.0571,-98"/>
<text text-anchor="middle" x="29.0571" y="-115.8" font-family="Times,serif" font-size="14.00">x</text>
</g>
<!-- leftroot -->
<g id="node2" class="node"><title>leftroot</title>
<text text-anchor="middle" x="29.0571" y="-34.3" font-family="Times,serif" font-size="14.00">a</text>
</g>
<!-- left&#45;&gt;leftroot -->
<g id="edge1" class="edge"><title>left&#45;&gt;leftroot</title>
<path fill="none" stroke="black" d="M29.0571,-87.5313C29.0571,-76.9787 29.0571,-65.6112 29.0571,-56.5853"/>
<polygon fill="black" stroke="black" points="25.5572,-87.6954 29.0571,-97.6955 32.5572,-87.6955 25.5572,-87.6954"/>
</g>
<!-- temp1 -->
<g id="node3" class="node"><title>temp1</title>
<text text-anchor="middle" x="103.057" y="-115.8" font-family="Times,serif" font-size="14.00">+</text>
</g>
<!-- right -->
<g id="node4" class="node"><title>right</title>
<polygon fill="none" stroke="black" points="177.057,-98 206.171,-131 147.943,-131 177.057,-98"/>
<text text-anchor="middle" x="177.057" y="-115.8" font-family="Times,serif" font-size="14.00">y</text>
</g>
<!-- rightroot -->
<g id="node5" class="node"><title>rightroot</title>
<text text-anchor="middle" x="177.057" y="-34.3" font-family="Times,serif" font-size="14.00">b</text>
</g>
<!-- right&#45;&gt;rightroot -->
<g id="edge2" class="edge"><title>right&#45;&gt;rightroot</title>
<path fill="none" stroke="black" d="M177.057,-87.5313C177.057,-76.9787 177.057,-65.6112 177.057,-56.5853"/>
<polygon fill="black" stroke="black" points="173.557,-87.6954 177.057,-97.6955 180.557,-87.6955 173.557,-87.6954"/>
</g>
<!-- temp2b -->
<g id="node6" class="node"><title>temp2b</title>
<ellipse fill="none" stroke="none" cx="226.057" cy="-120" rx="1.8" ry="1.8"/>
</g>
<!-- temp2c -->
<g id="node7" class="node"><title>temp2c</title>
<ellipse fill="none" stroke="none" cx="318.057" cy="-120" rx="1.8" ry="1.8"/>
</g>
<!-- temp2b&#45;&gt;temp2c -->
<g id="edge3" class="edge"><title>temp2b&#45;&gt;temp2c</title>
<path fill="none" stroke="black" d="M227.979,-120C237.894,-120 283.662,-120 305.884,-120"/>
<polygon fill="black" stroke="black" points="306.146,-123.5 316.146,-120 306.146,-116.5 306.146,-123.5"/>
<text text-anchor="middle" x="272.057" y="-125.8" font-family="Times,serif" font-size="14.00" fill="#fffffe">wwwwwww</text>
</g>
<!-- resulttree1 -->
<g id="node8" class="node"><title>resulttree1</title>
<polygon fill="none" stroke="black" points="367.057,-98 396.171,-131 337.943,-131 367.057,-98"/>
<text text-anchor="middle" x="367.057" y="-115.8" font-family="Times,serif" font-size="14.00">x</text>
</g>
<!-- result -->
<g id="node10" class="node"><title>result</title>
<polygon fill="none" stroke="black" points="384.057,-16.5 384.057,-60.5 438.057,-60.5 438.057,-16.5 384.057,-16.5"/>
<text text-anchor="middle" x="397.164" y="-45.3" font-family="Times,serif" font-size="14.00"> </text>
<polyline fill="none" stroke="black" points="384.057,-38.5 410.271,-38.5 "/>
<text text-anchor="middle" x="397.164" y="-23.3" font-family="Times,serif" font-size="14.00">a</text>
<polyline fill="none" stroke="black" points="410.271,-16.5 410.271,-60.5 "/>
<text text-anchor="middle" x="423.771" y="-45.3" font-family="Times,serif" font-size="14.00"> </text>
<polyline fill="none" stroke="black" points="410.271,-38.5 437.271,-38.5 "/>
<text text-anchor="middle" x="423.771" y="-23.3" font-family="Times,serif" font-size="14.00">b</text>
</g>
<!-- resulttree1&#45;&gt;result -->
<g id="edge4" class="edge"><title>resulttree1:s&#45;&gt;result:a:n</title>
<path fill="none" stroke="black" d="M370.043,-88.2343C377.631,-77.9044 397.057,-78.0358 397.057,-61"/>
<polygon fill="black" stroke="black" points="366.634,-87.4136 367.057,-98 373.328,-89.4606 366.634,-87.4136"/>
</g>
<!-- resulttree2 -->
<g id="node9" class="node"><title>resulttree2</title>
<polygon fill="none" stroke="black" points="443.057,-98 472.171,-131 413.943,-131 443.057,-98"/>
<text text-anchor="middle" x="443.057" y="-115.8" font-family="Times,serif" font-size="14.00">y</text>
</g>
<!-- resulttree2&#45;&gt;result -->
<g id="edge5" class="edge"><title>resulttree2:s&#45;&gt;result:b:n</title>
<path fill="none" stroke="black" d="M440.727,-88.1319C435.654,-78.6185 424.057,-75.4421 424.057,-61"/>
<polygon fill="black" stroke="black" points="437.353,-89.0718 443.057,-98 444.166,-87.4633 437.353,-89.0718"/>
</g>
</g>
</svg>
