<?xml version="1.0" encoding="UTF-8" standalone="no"?>
<!DOCTYPE svg PUBLIC "-//W3C//DTD SVG 1.1//EN"
 "http://www.w3.org/Graphics/SVG/1.1/DTD/svg11.dtd">
<!-- Generated by graphviz version 5.0.0 (20220707.1540)
 -->
<!-- Pages: 1 -->
<svg width="418pt" height="142pt"
 viewBox="0.00 0.00 501.90 170.00" xmlns="http://www.w3.org/2000/svg" xmlns:xlink="http://www.w3.org/1999/xlink">
<g id="graph0" class="graph" transform="scale(0.833333 0.833333) rotate(0) translate(4 166)">
<polygon fill="white" stroke="transparent" points="-4,4 -4,-166 497.9,-166 497.9,4 -4,4"/>
<g id="clust5" class="cluster">
<title>clusterRes</title>
<polygon fill="none" stroke="transparent" points="331.9,-8 331.9,-154 485.9,-154 485.9,-8 331.9,-8"/>
</g>
<!-- left -->
<g id="node1" class="node">
<title>left</title>
<polygon fill="none" stroke="black" points="29.9,-100 59.69,-134.5 0.1,-134.5 29.9,-100"/>
<text text-anchor="middle" x="29.9" y="-119.3" font-family="Times,serif" font-size="14.00">x</text>
</g>
<!-- leftroot -->
<g id="node2" class="node">
<title>leftroot</title>
<text text-anchor="middle" x="29.9" y="-35.8" font-family="Times,serif" font-size="14.00">a</text>
</g>
<!-- left&#45;&gt;leftroot -->
<g id="edge1" class="edge">
<title>left&#45;&gt;leftroot</title>
<path fill="none" stroke="black" d="M29.9,-89.6C29.9,-78.65 29.9,-66.85 29.9,-57.57"/>
<polygon fill="black" stroke="black" points="26.4,-89.73 29.9,-99.73 33.4,-89.73 26.4,-89.73"/>
</g>
<!-- temp1 -->
<g id="node3" class="node">
<title>temp1</title>
<text text-anchor="middle" x="104.9" y="-119.3" font-family="Times,serif" font-size="14.00">+</text>
</g>
<!-- right -->
<g id="node4" class="node">
<title>right</title>
<polygon fill="none" stroke="black" points="179.9,-100 209.69,-134.5 150.1,-134.5 179.9,-100"/>
<text text-anchor="middle" x="179.9" y="-119.3" font-family="Times,serif" font-size="14.00">y</text>
</g>
<!-- rightroot -->
<g id="node5" class="node">
<title>rightroot</title>
<text text-anchor="middle" x="179.9" y="-35.8" font-family="Times,serif" font-size="14.00">b</text>
</g>
<!-- right&#45;&gt;rightroot -->
<g id="edge2" class="edge">
<title>right&#45;&gt;rightroot</title>
<path fill="none" stroke="black" d="M179.9,-89.6C179.9,-78.65 179.9,-66.85 179.9,-57.57"/>
<polygon fill="black" stroke="black" points="176.4,-89.73 179.9,-99.73 183.4,-89.73 176.4,-89.73"/>
</g>
<!-- temp2b -->
<g id="node6" class="node">
<title>temp2b</title>
<ellipse fill="transparent" stroke="transparent" cx="229.9" cy="-123" rx="1.8" ry="1.8"/>
</g>
<!-- temp2c -->
<g id="node7" class="node">
<title>temp2c</title>
<ellipse fill="transparent" stroke="transparent" cx="319.9" cy="-123" rx="1.8" ry="1.8"/>
</g>
<!-- temp2b&#45;&gt;temp2c -->
<g id="edge3" class="edge">
<title>temp2b&#45;&gt;temp2c</title>
<path fill="none" stroke="black" d="M231.78,-123C241.48,-123 286.25,-123 307.99,-123"/>
<polygon fill="black" stroke="black" points="308.03,-126.5 318.03,-123 308.03,-119.5 308.03,-126.5"/>
<text text-anchor="middle" x="274.9" y="-129.8" font-family="Times,serif" font-size="14.00" fill="#fffffe" fill-opacity="0.000000">wwwwwww</text>
</g>
<!-- resulttree1 -->
<g id="node8" class="node">
<title>resulttree1</title>
<polygon fill="none" stroke="black" points="369.9,-100 399.69,-134.5 340.1,-134.5 369.9,-100"/>
<text text-anchor="middle" x="369.9" y="-119.3" font-family="Times,serif" font-size="14.00">x</text>
</g>
<!-- result -->
<g id="node10" class="node">
<title>result</title>
<polygon fill="none" stroke="black" points="387.9,-16.5 387.9,-62.5 441.9,-62.5 441.9,-16.5 387.9,-16.5"/>
<text text-anchor="middle" x="401.4" y="-47.3" font-family="Times,serif" font-size="14.00"> </text>
<polyline fill="none" stroke="black" points="387.9,-39.5 414.9,-39.5 "/>
<text text-anchor="middle" x="401.4" y="-24.3" font-family="Times,serif" font-size="14.00">a</text>
<polyline fill="none" stroke="black" points="414.9,-16.5 414.9,-62.5 "/>
<text text-anchor="middle" x="428.4" y="-47.3" font-family="Times,serif" font-size="14.00"> </text>
<polyline fill="none" stroke="black" points="414.9,-39.5 441.9,-39.5 "/>
<text text-anchor="middle" x="428.4" y="-24.3" font-family="Times,serif" font-size="14.00">b</text>
</g>
<!-- resulttree1&#45;&gt;result -->
<g id="edge4" class="edge">
<title>resulttree1:s&#45;&gt;result:n</title>
<path fill="none" stroke="black" d="M372.98,-90.15C380.82,-79.81 400.9,-80.26 400.9,-63"/>
<polygon fill="black" stroke="black" points="369.55,-89.41 369.9,-100 376.23,-91.5 369.55,-89.41"/>
</g>
<!-- resulttree2 -->
<g id="node9" class="node">
<title>resulttree2</title>
<polygon fill="none" stroke="black" points="447.9,-100 477.69,-134.5 418.1,-134.5 447.9,-100"/>
<text text-anchor="middle" x="447.9" y="-119.3" font-family="Times,serif" font-size="14.00">y</text>
</g>
<!-- resulttree2&#45;&gt;result -->
<g id="edge5" class="edge">
<title>resulttree2:s&#45;&gt;result:n</title>
<path fill="none" stroke="black" d="M445.57,-90.13C440.49,-80.62 428.9,-77.44 428.9,-63"/>
<polygon fill="black" stroke="black" points="442.19,-91.07 447.9,-100 449.01,-89.46 442.19,-91.07"/>
</g>
</g>
</svg>
