<?xml version="1.0" encoding="UTF-8" standalone="no"?>
<!DOCTYPE svg PUBLIC "-//W3C//DTD SVG 1.1//EN"
 "http://www.w3.org/Graphics/SVG/1.1/DTD/svg11.dtd">
<!-- Generated by graphviz version 8.0.5 (20230430.1635)
 -->
<!-- Pages: 1 -->
<svg width="358pt" height="135pt"
 viewBox="0.00 0.00 429.05 162.00" xmlns="http://www.w3.org/2000/svg" xmlns:xlink="http://www.w3.org/1999/xlink">
<g id="graph0" class="graph" transform="scale(0.833333 0.833333) rotate(0) translate(4 158)">
<polygon fill="white" stroke="none" points="-4,4 -4,-158 425.05,-158 425.05,4 -4,4"/>
<g id="clust5" class="cluster">
<title>clusterRes</title>
<polygon fill="none" stroke="none" points="335.05,-8 335.05,-146 413.05,-146 413.05,-8 335.05,-8"/>
</g>
<!-- left -->
<g id="node1" class="node">
<title>left</title>
<polygon fill="none" stroke="black" points="31.05,-89 62.1,-125.75 0,-125.75 31.05,-89"/>
<text text-anchor="middle" x="31.05" y="-108.45" font-family="Times,serif" font-size="14.00">x</text>
</g>
<!-- leftroot -->
<g id="node2" class="node">
<title>leftroot</title>
<text text-anchor="middle" x="31.05" y="-28.95" font-family="Times,serif" font-size="14.00">a</text>
</g>
<!-- left&#45;&gt;leftroot -->
<g id="edge1" class="edge">
<title>left&#45;&gt;leftroot</title>
<path fill="none" stroke="black" d="M31.05,-77.67C31.05,-68.64 31.05,-59.33 31.05,-51.71"/>
<polygon fill="black" stroke="black" points="27.55,-77.4 31.05,-87.4 34.55,-77.4 27.55,-77.4"/>
</g>
<!-- temp1 -->
<g id="node3" class="node">
<title>temp1</title>
<text text-anchor="middle" x="107.05" y="-108.45" font-family="Times,serif" font-size="14.00">+</text>
</g>
<!-- right -->
<g id="node4" class="node">
<title>right</title>
<polygon fill="none" stroke="black" points="183.05,-89 214.1,-125.75 152,-125.75 183.05,-89"/>
<text text-anchor="middle" x="183.05" y="-108.45" font-family="Times,serif" font-size="14.00">x</text>
</g>
<!-- rightroot -->
<g id="node5" class="node">
<title>rightroot</title>
<text text-anchor="middle" x="183.05" y="-28.95" font-family="Times,serif" font-size="14.00">a</text>
</g>
<!-- right&#45;&gt;rightroot -->
<g id="edge2" class="edge">
<title>right&#45;&gt;rightroot</title>
<path fill="none" stroke="black" d="M183.05,-77.67C183.05,-68.64 183.05,-59.33 183.05,-51.71"/>
<polygon fill="black" stroke="black" points="179.55,-77.4 183.05,-87.4 186.55,-77.4 179.55,-77.4"/>
</g>
<!-- temp2b -->
<g id="node6" class="node">
<title>temp2b</title>
<ellipse fill="none" stroke="none" cx="234.05" cy="-113.5" rx="1.8" ry="1.8"/>
</g>
<!-- temp2c -->
<g id="node7" class="node">
<title>temp2c</title>
<ellipse fill="none" stroke="none" cx="323.05" cy="-113.5" rx="1.8" ry="1.8"/>
</g>
<!-- temp2b&#45;&gt;temp2c -->
<g id="edge3" class="edge">
<title>temp2b&#45;&gt;temp2c</title>
<path fill="none" stroke="black" d="M236.25,-113.5C246.3,-113.5 288.31,-113.5 309.98,-113.5"/>
<polygon fill="black" stroke="black" points="309.93,-117 319.93,-113.5 309.93,-110 309.93,-117"/>
<text text-anchor="middle" x="278.55" y="-119.7" font-family="Times,serif" font-size="14.00" fill="#fffffe" fill-opacity="0.000000">wwwwwww</text>
</g>
<!-- result -->
<g id="node8" class="node">
<title>result</title>
<polygon fill="none" stroke="black" points="374.05,-89 405.1,-125.75 343,-125.75 374.05,-89"/>
<text text-anchor="middle" x="374.05" y="-108.45" font-family="Times,serif" font-size="14.00">x</text>
</g>
<!-- resultroot -->
<g id="node9" class="node">
<title>resultroot</title>
<text text-anchor="middle" x="374.05" y="-28.95" font-family="Times,serif" font-size="14.00">a</text>
</g>
<!-- result&#45;&gt;resultroot -->
<g id="edge4" class="edge">
<title>result&#45;&gt;resultroot</title>
<path fill="none" stroke="black" d="M374.05,-77.67C374.05,-68.64 374.05,-59.33 374.05,-51.71"/>
<polygon fill="black" stroke="black" points="370.55,-77.4 374.05,-87.4 377.55,-77.4 370.55,-77.4"/>
</g>
</g>
</svg>
