<?xml version="1.0" encoding="UTF-8" standalone="no"?>
<!DOCTYPE svg PUBLIC "-//W3C//DTD SVG 1.1//EN"
 "http://www.w3.org/Graphics/SVG/1.1/DTD/svg11.dtd">
<!-- Generated by graphviz version 2.37.20140119.0545 (20140119.0545)
 -->
<!-- Pages: 1 -->
<svg width="648pt" height="135pt"
 viewBox="0.00 0.00 648.33 135.00" xmlns="http://www.w3.org/2000/svg" xmlns:xlink="http://www.w3.org/1999/xlink">
<g id="graph0" class="graph" transform="scale(0.833333 0.833333) rotate(0) translate(4 158)">
<polygon fill="white" stroke="none" points="-4,4 -4,-158 774,-158 774,4 -4,4"/>
<g id="clust1" class="cluster"><title>clusterA</title>
<polygon fill="none" stroke="none" points="8,-8 8,-146 150,-146 150,-8 8,-8"/>
</g>
<g id="clust5" class="cluster"><title>clusterB</title>
<polygon fill="none" stroke="none" points="220,-8 220,-146 362,-146 362,-8 220,-8"/>
</g>
<g id="clust10" class="cluster"><title>clusterC</title>
<polygon fill="none" stroke="none" points="476,-8 476,-146 762,-146 762,-8 476,-8"/>
</g>
<!-- A_u1 -->
<g id="node1" class="node"><title>A_u1</title>
<polygon fill="none" stroke="black" points="43,-102 70,-129 16,-129 43,-102"/>
<text text-anchor="middle" x="43" y="-116.3" font-family="Times New Roman,serif" font-size="14.00">u</text>
</g>
<!-- A_left -->
<g id="node3" class="node"><title>A_left</title>
<polygon fill="none" stroke="black" points="58,-17 58,-63 112,-63 112,-17 58,-17"/>
<text text-anchor="middle" x="71" y="-47.8" font-family="Times New Roman,serif" font-size="14.00"> </text>
<polyline fill="none" stroke="black" points="58,-40 84,-40 "/>
<text text-anchor="middle" x="71" y="-24.8" font-family="Times New Roman,serif" font-size="14.00">a</text>
<polyline fill="none" stroke="black" points="84,-17 84,-63 "/>
<text text-anchor="middle" x="98" y="-47.8" font-family="Times New Roman,serif" font-size="14.00"> </text>
<polyline fill="none" stroke="black" points="84,-40 112,-40 "/>
<text text-anchor="middle" x="98" y="-24.8" font-family="Times New Roman,serif" font-size="14.00">b</text>
</g>
<!-- A_u1&#45;&gt;A_left -->
<g id="edge1" class="edge"><title>A_u1:s&#45;&gt;A_left:a:n</title>
<path fill="none" stroke="black" d="M45.7871,-92.19C52.8694,-81.616 71,-80.8812 71,-64"/>
<polygon fill="black" stroke="black" points="42.3662,-91.4241 43,-102 49.0998,-93.3372 42.3662,-91.4241"/>
</g>
<!-- A_v1 -->
<g id="node2" class="node"><title>A_v1</title>
<polygon fill="none" stroke="black" points="115,-102 142,-129 88,-129 115,-102"/>
<text text-anchor="middle" x="115" y="-116.3" font-family="Times New Roman,serif" font-size="14.00">v</text>
</g>
<!-- A_v1&#45;&gt;A_left -->
<g id="edge2" class="edge"><title>A_v1:s&#45;&gt;A_left:b:n</title>
<path fill="none" stroke="black" d="M112.915,-92.0047C108.376,-82.2246 98,-78.4546 98,-64"/>
<polygon fill="black" stroke="black" points="109.532,-92.9252 115,-102 116.385,-91.496 109.532,-92.9252"/>
</g>
<!-- temp0 -->
<g id="node4" class="node"><title>temp0</title>
<ellipse fill="none" stroke="none" cx="185" cy="-120" rx="1.8" ry="1.8"/>
</g>
<!-- temp1 -->
<g id="node5" class="node"><title>temp1</title>
<text text-anchor="middle" x="185" y="-36.3" font-family="Times New Roman,serif" font-size="14.00">+</text>
</g>
<!-- temp0&#45;&gt;temp1 -->
<g id="edge3" class="edge"><title>temp0&#45;&gt;temp1</title>
</g>
<!-- A_w1 -->
<g id="node6" class="node"><title>A_w1</title>
<polygon fill="none" stroke="black" points="255,-102 282,-129 228,-129 255,-102"/>
<text text-anchor="middle" x="255" y="-116.3" font-family="Times New Roman,serif" font-size="14.00">w</text>
</g>
<!-- A_right -->
<g id="node8" class="node"><title>A_right</title>
<polygon fill="none" stroke="black" points="270,-17 270,-63 324,-63 324,-17 270,-17"/>
<text text-anchor="middle" x="283" y="-47.8" font-family="Times New Roman,serif" font-size="14.00"> </text>
<polyline fill="none" stroke="black" points="270,-40 296,-40 "/>
<text text-anchor="middle" x="283" y="-24.8" font-family="Times New Roman,serif" font-size="14.00">c</text>
<polyline fill="none" stroke="black" points="296,-17 296,-63 "/>
<text text-anchor="middle" x="310" y="-47.8" font-family="Times New Roman,serif" font-size="14.00"> </text>
<polyline fill="none" stroke="black" points="296,-40 324,-40 "/>
<text text-anchor="middle" x="310" y="-24.8" font-family="Times New Roman,serif" font-size="14.00">d</text>
</g>
<!-- A_w1&#45;&gt;A_right -->
<g id="edge4" class="edge"><title>A_w1:s&#45;&gt;A_right:c:n</title>
<path fill="none" stroke="black" d="M257.787,-92.19C264.869,-81.616 283,-80.8812 283,-64"/>
<polygon fill="black" stroke="black" points="254.366,-91.4241 255,-102 261.1,-93.3372 254.366,-91.4241"/>
</g>
<!-- A_x1 -->
<g id="node7" class="node"><title>A_x1</title>
<polygon fill="none" stroke="black" points="327,-102 354,-129 300,-129 327,-102"/>
<text text-anchor="middle" x="327" y="-116.3" font-family="Times New Roman,serif" font-size="14.00">x</text>
</g>
<!-- A_x1&#45;&gt;A_right -->
<g id="edge5" class="edge"><title>A_x1:s&#45;&gt;A_right:d:n</title>
<path fill="none" stroke="black" d="M324.915,-92.0047C320.376,-82.2246 310,-78.4546 310,-64"/>
<polygon fill="black" stroke="black" points="321.532,-92.9252 327,-102 328.385,-91.496 321.532,-92.9252"/>
</g>
<!-- temp2a -->
<g id="node9" class="node"><title>temp2a</title>
<ellipse fill="none" stroke="none" cx="425" cy="-120" rx="1.8" ry="1.8"/>
</g>
<!-- temp2b -->
<g id="node10" class="node"><title>temp2b</title>
<ellipse fill="none" stroke="none" cx="376" cy="-40" rx="1.8" ry="1.8"/>
</g>
<!-- temp2a&#45;&gt;temp2b -->
<g id="edge6" class="edge"><title>temp2a&#45;&gt;temp2b</title>
</g>
<!-- temp2c -->
<g id="node11" class="node"><title>temp2c</title>
<ellipse fill="none" stroke="none" cx="466" cy="-40" rx="1.8" ry="1.8"/>
</g>
<!-- temp2a&#45;&gt;temp2c -->
<g id="edge7" class="edge"><title>temp2a&#45;&gt;temp2c</title>
</g>
<!-- temp2b&#45;&gt;temp2c -->
<g id="edge8" class="edge"><title>temp2b&#45;&gt;temp2c</title>
<path fill="none" stroke="black" d="M377.88,-40C387.579,-40 432.352,-40 454.091,-40"/>
<polygon fill="black" stroke="black" points="454.131,-43.5001 464.131,-40 454.131,-36.5001 454.131,-43.5001"/>
<text text-anchor="middle" x="420.6" y="-46.8" font-family="Times New Roman,serif" font-size="14.00" fill="#fffffe">wwwwwww</text>
</g>
<!-- A_u2 -->
<g id="node12" class="node"><title>A_u2</title>
<polygon fill="none" stroke="black" points="511,-102 538,-129 484,-129 511,-102"/>
<text text-anchor="middle" x="511" y="-116.3" font-family="Times New Roman,serif" font-size="14.00">u</text>
</g>
<!-- A_result -->
<g id="node16" class="node"><title>A_result</title>
<polygon fill="none" stroke="black" points="578,-17 578,-63 672,-63 672,-17 578,-17"/>
<text text-anchor="middle" x="589.5" y="-47.8" font-family="Times New Roman,serif" font-size="14.00"> </text>
<polyline fill="none" stroke="black" points="578,-40 601,-40 "/>
<text text-anchor="middle" x="589.5" y="-24.8" font-family="Times New Roman,serif" font-size="14.00">a</text>
<polyline fill="none" stroke="black" points="601,-17 601,-63 "/>
<text text-anchor="middle" x="613" y="-47.8" font-family="Times New Roman,serif" font-size="14.00"> </text>
<polyline fill="none" stroke="black" points="601,-40 625,-40 "/>
<text text-anchor="middle" x="613" y="-24.8" font-family="Times New Roman,serif" font-size="14.00">b</text>
<polyline fill="none" stroke="black" points="625,-17 625,-63 "/>
<text text-anchor="middle" x="636.5" y="-47.8" font-family="Times New Roman,serif" font-size="14.00"> </text>
<polyline fill="none" stroke="black" points="625,-40 648,-40 "/>
<text text-anchor="middle" x="636.5" y="-24.8" font-family="Times New Roman,serif" font-size="14.00">c</text>
<polyline fill="none" stroke="black" points="648,-17 648,-63 "/>
<text text-anchor="middle" x="660" y="-47.8" font-family="Times New Roman,serif" font-size="14.00"> </text>
<polyline fill="none" stroke="black" points="648,-40 672,-40 "/>
<text text-anchor="middle" x="660" y="-24.8" font-family="Times New Roman,serif" font-size="14.00">d</text>
</g>
<!-- A_u2&#45;&gt;A_result -->
<g id="edge9" class="edge"><title>A_u2:s&#45;&gt;A_result:a:n</title>
<path fill="none" stroke="black" d="M513.42,-92.209C526.585,-70.8267 589,-98.4947 589,-64"/>
<polygon fill="black" stroke="black" points="510.002,-91.4523 511,-102 516.797,-93.1319 510.002,-91.4523"/>
</g>
<!-- A_v2 -->
<g id="node13" class="node"><title>A_v2</title>
<polygon fill="none" stroke="black" points="583,-102 610,-129 556,-129 583,-102"/>
<text text-anchor="middle" x="583" y="-116.3" font-family="Times New Roman,serif" font-size="14.00">v</text>
</g>
<!-- A_v2&#45;&gt;A_result -->
<g id="edge10" class="edge"><title>A_v2:s&#45;&gt;A_result:b:n</title>
<path fill="none" stroke="black" d="M585.769,-92.3467C593.195,-81.4371 613,-81.4831 613,-64"/>
<polygon fill="black" stroke="black" points="582.393,-91.4226 583,-102 589.121,-93.3524 582.393,-91.4226"/>
</g>
<!-- A_w2 -->
<g id="node14" class="node"><title>A_w2</title>
<polygon fill="none" stroke="black" points="655,-102 682,-129 628,-129 655,-102"/>
<text text-anchor="middle" x="655" y="-116.3" font-family="Times New Roman,serif" font-size="14.00">w</text>
</g>
<!-- A_w2&#45;&gt;A_result -->
<g id="edge11" class="edge"><title>A_w2:s&#45;&gt;A_result:c:n</title>
<path fill="none" stroke="black" d="M652.793,-91.9511C647.986,-82.1747 637,-78.5999 637,-64"/>
<polygon fill="black" stroke="black" points="649.436,-92.9837 655,-102 656.273,-91.4819 649.436,-92.9837"/>
</g>
<!-- A_x2 -->
<g id="node15" class="node"><title>A_x2</title>
<polygon fill="none" stroke="black" points="727,-102 754,-129 700,-129 727,-102"/>
<text text-anchor="middle" x="727" y="-116.3" font-family="Times New Roman,serif" font-size="14.00">x</text>
</g>
<!-- A_x2&#45;&gt;A_result -->
<g id="edge12" class="edge"><title>A_x2:s&#45;&gt;A_result:d:n</title>
<path fill="none" stroke="black" d="M724.121,-91.9425C711.297,-74.3722 660,-93.9545 660,-64"/>
<polygon fill="black" stroke="black" points="720.883,-93.3493 727,-102 727.613,-91.4229 720.883,-93.3493"/>
</g>
</g>
</svg>
