<?xml version="1.0" encoding="UTF-8" standalone="no"?>
<!DOCTYPE svg PUBLIC "-//W3C//DTD SVG 1.1//EN"
 "http://www.w3.org/Graphics/SVG/1.1/DTD/svg11.dtd">
<!-- Generated by graphviz version 2.37.20140119.0545 (20140119.0545)
 -->
<!-- Pages: 1 -->
<svg width="774pt" height="212pt"
 viewBox="0.00 0.00 774.00 212.00" xmlns="http://www.w3.org/2000/svg" xmlns:xlink="http://www.w3.org/1999/xlink">
<g id="graph0" class="graph" transform="scale(1 1) rotate(0) translate(18 194)">
<polygon fill="white" stroke="none" points="-18,18 -18,-194 756,-194 756,18 -18,18"/>
<g id="clust1" class="cluster"><title>clusterA</title>
<polygon fill="none" stroke="none" points="106,-8 106,-168 646,-168 646,-8 106,-8"/>
</g>
<!-- BasicBlockStartState -->
<g id="node1" class="node"><title>BasicBlockStartState</title>
<g id="a_node1"><a xlink:href="../BasicBlockStartState.html" xlink:title="{BasicBlockStartState | {&lt;alt1&gt; alt 1 |&lt;alt2&gt; alt 2 | &#0183;\n&#0183;\n&#0183; |&lt;altn&gt; alt n}}" target="_parent">
<polygon fill="none" stroke="black" points="114,-23 114,-145 354,-145 354,-23 114,-23"/>
<text text-anchor="middle" x="205" y="-80.3" font-family="Courier New" font-size="14.00">BasicBlockStartState</text>
<polyline fill="none" stroke="black" points="296,-23 296,-145 "/>
<text text-anchor="middle" x="325" y="-129.8" font-family="Courier New" font-size="14.00">alt 1</text>
<polyline fill="none" stroke="black" points="296,-122 354,-122 "/>
<text text-anchor="middle" x="325" y="-106.8" font-family="Courier New" font-size="14.00">alt 2</text>
<polyline fill="none" stroke="black" points="296,-99 354,-99 "/>
<text text-anchor="middle" x="325" y="-83.8" font-family="Courier New" font-size="14.00">·</text>
<text text-anchor="middle" x="325" y="-68.8" font-family="Courier New" font-size="14.00">·</text>
<text text-anchor="middle" x="325" y="-53.8" font-family="Courier New" font-size="14.00">·</text>
<polyline fill="none" stroke="black" points="296,-46 354,-46 "/>
<text text-anchor="middle" x="325" y="-30.8" font-family="Courier New" font-size="14.00">alt n</text>
</a>
</g>
</g>
<!-- content1 -->
<g id="node3" class="node"><title>content1</title>
<ellipse fill="none" stroke="black" stroke-dasharray="5,2" cx="438" cy="-142" rx="37.8943" ry="18"/>
<text text-anchor="middle" x="438" y="-138.3" font-family="Courier New" font-size="14.00">alt 1</text>
</g>
<!-- BasicBlockStartState&#45;&gt;content1 -->
<g id="edge3" class="edge"><title>BasicBlockStartState:alt1&#45;&gt;content1</title>
<path fill="none" stroke="black" d="M354,-134C366.215,-134 379.394,-134.869 391.575,-136.034"/>
<polygon fill="black" stroke="black" points="391.221,-139.516 401.529,-137.07 391.945,-132.554 391.221,-139.516"/>
<text text-anchor="middle" x="377" y="-138.8" font-family="Courier New" font-size="14.00">ε</text>
</g>
<!-- content2 -->
<g id="node4" class="node"><title>content2</title>
<ellipse fill="none" stroke="black" stroke-dasharray="5,2" cx="438" cy="-88" rx="37.8943" ry="18"/>
<text text-anchor="middle" x="438" y="-84.3" font-family="Courier New" font-size="14.00">alt 2</text>
</g>
<!-- BasicBlockStartState&#45;&gt;content2 -->
<g id="edge5" class="edge"><title>BasicBlockStartState:alt2&#45;&gt;content2</title>
<path fill="none" stroke="black" d="M354,-111C363.152,-111 363.41,-104.157 372,-101 378.314,-98.6792 385.133,-96.7404 391.898,-95.1303"/>
<polygon fill="black" stroke="black" points="392.676,-98.543 401.705,-93.0001 391.19,-91.7025 392.676,-98.543"/>
<text text-anchor="middle" x="377" y="-104.8" font-family="Courier New" font-size="14.00">ε</text>
</g>
<!-- more -->
<g id="node5" class="node"><title>more</title>
<ellipse fill="none" stroke="black" stroke-dasharray="5,2" cx="438" cy="-34" rx="37.8943" ry="18"/>
<text text-anchor="middle" x="438" y="-30.3" font-family="Courier New" font-size="14.00">alt n</text>
</g>
<!-- BasicBlockStartState&#45;&gt;more -->
<g id="edge7" class="edge"><title>BasicBlockStartState:altn&#45;&gt;more</title>
<path fill="none" stroke="black" d="M354,-34C365.702,-34 378.333,-34 390.125,-34"/>
<polygon fill="black" stroke="black" points="390.227,-37.5001 400.227,-34 390.227,-30.5001 390.227,-37.5001"/>
<text text-anchor="middle" x="377" y="-37.8" font-family="Courier New" font-size="14.00">ε</text>
</g>
<!-- BlockEndState -->
<g id="node2" class="node"><title>BlockEndState</title>
<g id="a_node2"><a xlink:href="../BlockEndState.html" xlink:title="\N" target="_parent">
<polygon fill="none" stroke="black" points="514,-70 514,-106 638,-106 638,-70 514,-70"/>
<text text-anchor="middle" x="576" y="-84.3" font-family="Courier New" font-size="14.00">BlockEndState</text>
</a>
</g>
</g>
<!-- end -->
<g id="node7" class="node"><title>end</title>
<ellipse fill="none" stroke="black" stroke-dasharray="5,2" cx="711" cy="-88" rx="27" ry="18"/>
<text text-anchor="middle" x="711" y="-84.3" font-family="Courier New" font-size="14.00">end</text>
</g>
<!-- BlockEndState&#45;&gt;end -->
<g id="edge2" class="edge"><title>BlockEndState&#45;&gt;end</title>
<path fill="none" stroke="black" d="M638.05,-88C650.263,-88 662.723,-88 673.767,-88"/>
<polygon fill="black" stroke="black" points="673.867,-91.5001 683.867,-88 673.867,-84.5001 673.867,-91.5001"/>
<text text-anchor="middle" x="661" y="-91.8" font-family="Courier New" font-size="14.00">ε</text>
</g>
<!-- content1&#45;&gt;BlockEndState -->
<g id="edge4" class="edge"><title>content1&#45;&gt;BlockEndState</title>
<path fill="none" stroke="black" stroke-dasharray="5,2" d="M467.51,-130.68C482.832,-124.596 502.247,-116.887 520.348,-109.7"/>
<polygon fill="black" stroke="black" points="521.663,-112.944 529.666,-106 519.08,-106.438 521.663,-112.944"/>
</g>
<!-- content2&#45;&gt;BlockEndState -->
<g id="edge6" class="edge"><title>content2&#45;&gt;BlockEndState</title>
<path fill="none" stroke="black" stroke-dasharray="5,2" d="M475.804,-88C484.503,-88 494.072,-88 503.729,-88"/>
<polygon fill="black" stroke="black" points="503.792,-91.5001 513.792,-88 503.792,-84.5001 503.792,-91.5001"/>
</g>
<!-- more&#45;&gt;BlockEndState -->
<g id="edge8" class="edge"><title>more&#45;&gt;BlockEndState</title>
<path fill="none" stroke="black" stroke-dasharray="5,2" d="M467.51,-45.3202C482.832,-51.4038 502.247,-59.1128 520.348,-66.3001"/>
<polygon fill="black" stroke="black" points="519.08,-69.5623 529.666,-69.9997 521.663,-63.0564 519.08,-69.5623"/>
</g>
<!-- begin -->
<g id="node6" class="node"><title>begin</title>
<ellipse fill="none" stroke="black" stroke-dasharray="5,2" cx="38" cy="-84" rx="37.8943" ry="18"/>
<text text-anchor="middle" x="38" y="-80.3" font-family="Courier New" font-size="14.00">begin</text>
</g>
<!-- begin&#45;&gt;BasicBlockStartState -->
<g id="edge1" class="edge"><title>begin&#45;&gt;BasicBlockStartState</title>
<path fill="none" stroke="black" stroke-dasharray="5,2" d="M75.9466,-84C84.3567,-84 93.7598,-84 103.671,-84"/>
<polygon fill="black" stroke="black" points="103.735,-87.5001 113.734,-84 103.734,-80.5001 103.735,-87.5001"/>
</g>
</g>
</svg>
