<?xml version="1.0" encoding="UTF-8" standalone="no"?>
<!DOCTYPE svg PUBLIC "-//W3C//DTD SVG 1.1//EN"
 "http://www.w3.org/Graphics/SVG/1.1/DTD/svg11.dtd">
<!-- Generated by graphviz version 2.37.20140119.0545 (20140119.0545)
 -->
<!-- Pages: 1 -->
<svg width="353pt" height="143pt"
 viewBox="0.00 0.00 352.50 143.33" xmlns="http://www.w3.org/2000/svg" xmlns:xlink="http://www.w3.org/1999/xlink">
<g id="graph0" class="graph" transform="scale(0.833333 0.833333) rotate(0) translate(4 168)">
<polygon fill="white" stroke="none" points="-4,4 -4,-168 419,-168 419,4 -4,4"/>
<g id="clust5" class="cluster"><title>clusterRes</title>
<polygon fill="none" stroke="none" points="331,-8 331,-156 407,-156 407,-8 331,-8"/>
</g>
<!-- left -->
<g id="node1" class="node"><title>left</title>
<polygon fill="none" stroke="black" points="29,-102 58.3479,-136.5 -0.347907,-136.5 29,-102"/>
<text text-anchor="middle" x="29" y="-121.3" font-family="Times New Roman,serif" font-size="14.00">x</text>
</g>
<!-- leftroot -->
<g id="node2" class="node"><title>leftroot</title>
<text text-anchor="middle" x="29" y="-36.3" font-family="Times New Roman,serif" font-size="14.00">a</text>
</g>
<!-- left&#45;&gt;leftroot -->
<g id="edge1" class="edge"><title>left&#45;&gt;leftroot</title>
<path fill="none" stroke="black" d="M29,-91.6126C29,-80.1507 29,-67.7131 29,-58.0358"/>
<polygon fill="black" stroke="black" points="25.5001,-91.7575 29,-101.758 32.5001,-91.7576 25.5001,-91.7575"/>
</g>
<!-- temp1 -->
<g id="node3" class="node"><title>temp1</title>
<text text-anchor="middle" x="104" y="-121.3" font-family="Times New Roman,serif" font-size="14.00">+</text>
</g>
<!-- right -->
<g id="node4" class="node"><title>right</title>
<polygon fill="none" stroke="black" points="179,-102 208.348,-136.5 149.652,-136.5 179,-102"/>
<text text-anchor="middle" x="179" y="-121.3" font-family="Times New Roman,serif" font-size="14.00">x</text>
</g>
<!-- rightroot -->
<g id="node5" class="node"><title>rightroot</title>
<text text-anchor="middle" x="179" y="-36.3" font-family="Times New Roman,serif" font-size="14.00">b</text>
</g>
<!-- right&#45;&gt;rightroot -->
<g id="edge2" class="edge"><title>right&#45;&gt;rightroot</title>
<path fill="none" stroke="black" d="M179,-91.6126C179,-80.1507 179,-67.7131 179,-58.0358"/>
<polygon fill="black" stroke="black" points="175.5,-91.7575 179,-101.758 182.5,-91.7576 175.5,-91.7575"/>
</g>
<!-- temp2b -->
<g id="node6" class="node"><title>temp2b</title>
<ellipse fill="none" stroke="none" cx="229" cy="-125" rx="1.8" ry="1.8"/>
</g>
<!-- temp2c -->
<g id="node7" class="node"><title>temp2c</title>
<ellipse fill="none" stroke="none" cx="319" cy="-125" rx="1.8" ry="1.8"/>
</g>
<!-- temp2b&#45;&gt;temp2c -->
<g id="edge3" class="edge"><title>temp2b&#45;&gt;temp2c</title>
<path fill="none" stroke="black" d="M230.88,-125C240.579,-125 285.352,-125 307.091,-125"/>
<polygon fill="black" stroke="black" points="307.131,-128.5 317.131,-125 307.131,-121.5 307.131,-128.5"/>
<text text-anchor="middle" x="273.6" y="-131.8" font-family="Times New Roman,serif" font-size="14.00" fill="#fffffe">wwwwwww</text>
</g>
<!-- resulttree -->
<g id="node8" class="node"><title>resulttree</title>
<polygon fill="none" stroke="black" points="369,-102 398.348,-136.5 339.652,-136.5 369,-102"/>
<text text-anchor="middle" x="369" y="-121.3" font-family="Times New Roman,serif" font-size="14.00">x</text>
</g>
<!-- result -->
<g id="node9" class="node"><title>result</title>
<polygon fill="none" stroke="black" points="342,-17 342,-63 396,-63 396,-17 342,-17"/>
<text text-anchor="middle" x="355" y="-47.8" font-family="Times New Roman,serif" font-size="14.00"> </text>
<polyline fill="none" stroke="black" points="342,-40 368,-40 "/>
<text text-anchor="middle" x="355" y="-24.8" font-family="Times New Roman,serif" font-size="14.00">a</text>
<polyline fill="none" stroke="black" points="368,-17 368,-63 "/>
<text text-anchor="middle" x="382" y="-47.8" font-family="Times New Roman,serif" font-size="14.00"> </text>
<polyline fill="none" stroke="black" points="368,-40 396,-40 "/>
<text text-anchor="middle" x="382" y="-24.8" font-family="Times New Roman,serif" font-size="14.00">b</text>
</g>
<!-- resulttree&#45;&gt;result -->
<g id="edge4" class="edge"><title>resulttree&#45;&gt;result:a:n</title>
<path fill="none" stroke="black" d="M360.373,-98.6092C357.492,-88.0359 355,-75.5522 355,-64"/>
<polygon fill="black" stroke="black" points="357.093,-99.8583 363.306,-108.44 363.801,-97.8571 357.093,-99.8583"/>
</g>
<!-- resulttree&#45;&gt;result -->
<g id="edge5" class="edge"><title>resulttree&#45;&gt;result:b:n</title>
<path fill="none" stroke="black" d="M377.067,-98.3472C379.718,-87.8151 382,-75.4311 382,-64"/>
<polygon fill="black" stroke="black" points="373.646,-97.5877 374.363,-108.158 380.394,-99.4477 373.646,-97.5877"/>
</g>
</g>
</svg>
