<?xml version="1.0" encoding="UTF-8" standalone="no"?>
<!DOCTYPE svg PUBLIC "-//W3C//DTD SVG 1.1//EN"
 "http://www.w3.org/Graphics/SVG/1.1/DTD/svg11.dtd">
<!-- Generated by graphviz version 2.37.20140119.0545 (20140119.0545)
 -->
<!-- Pages: 1 -->
<svg width="331pt" height="117pt"
 viewBox="0.00 0.00 330.83 116.67" xmlns="http://www.w3.org/2000/svg" xmlns:xlink="http://www.w3.org/1999/xlink">
<g id="graph0" class="graph" transform="scale(0.833333 0.833333) rotate(0) translate(4 136)">
<polygon fill="white" stroke="none" points="-4,4 -4,-136 393,-136 393,4 -4,4"/>
<!-- left -->
<g id="node1" class="node"><title>left</title>
<text text-anchor="middle" x="27" y="-105.3" font-family="Times New Roman,serif" font-size="14.00">$</text>
</g>
<!-- leftroot -->
<g id="node2" class="node"><title>leftroot</title>
<text text-anchor="middle" x="27" y="-20.3" font-family="Times New Roman,serif" font-size="14.00">a</text>
</g>
<!-- left&#45;&gt;leftroot -->
<g id="edge1" class="edge"><title>left&#45;&gt;leftroot</title>
<path fill="none" stroke="black" d="M27,-80.731C27,-68.0274 27,-53.2997 27,-42.1756"/>
<polygon fill="black" stroke="black" points="23.5001,-80.8023 27,-90.8023 30.5001,-80.8024 23.5001,-80.8023"/>
</g>
<!-- temp1 -->
<g id="node3" class="node"><title>temp1</title>
<text text-anchor="middle" x="99" y="-105.3" font-family="Times New Roman,serif" font-size="14.00">+</text>
</g>
<!-- right -->
<g id="node4" class="node"><title>right</title>
<polygon fill="none" stroke="black" points="174,-86 203.348,-120.5 144.652,-120.5 174,-86"/>
<text text-anchor="middle" x="174" y="-105.3" font-family="Times New Roman,serif" font-size="14.00">x</text>
</g>
<!-- rightroot -->
<g id="node5" class="node"><title>rightroot</title>
<text text-anchor="middle" x="174" y="-20.3" font-family="Times New Roman,serif" font-size="14.00">b</text>
</g>
<!-- right&#45;&gt;rightroot -->
<g id="edge2" class="edge"><title>right&#45;&gt;rightroot</title>
<path fill="none" stroke="black" d="M174,-75.6126C174,-64.1507 174,-51.7131 174,-42.0358"/>
<polygon fill="black" stroke="black" points="170.5,-75.7575 174,-85.7575 177.5,-75.7576 170.5,-75.7575"/>
</g>
<!-- temp2b -->
<g id="node6" class="node"><title>temp2b</title>
<ellipse fill="none" stroke="none" cx="224" cy="-109" rx="1.8" ry="1.8"/>
</g>
<!-- temp2c -->
<g id="node7" class="node"><title>temp2c</title>
<ellipse fill="none" stroke="none" cx="314" cy="-109" rx="1.8" ry="1.8"/>
</g>
<!-- temp2b&#45;&gt;temp2c -->
<g id="edge3" class="edge"><title>temp2b&#45;&gt;temp2c</title>
<path fill="none" stroke="black" d="M225.88,-109C235.579,-109 280.352,-109 302.091,-109"/>
<polygon fill="black" stroke="black" points="302.131,-112.5 312.131,-109 302.131,-105.5 302.131,-112.5"/>
<text text-anchor="middle" x="268.6" y="-115.8" font-family="Times New Roman,serif" font-size="14.00" fill="#fffffe">wwwwwww</text>
</g>
<!-- result -->
<g id="node8" class="node"><title>result</title>
<text text-anchor="middle" x="361" y="-105.3" font-family="Times New Roman,serif" font-size="14.00">$</text>
</g>
<!-- resultroot -->
<g id="node9" class="node"><title>resultroot</title>
<polygon fill="none" stroke="black" points="335,-1 335,-47 389,-47 389,-1 335,-1"/>
<text text-anchor="middle" x="348" y="-31.8" font-family="Times New Roman,serif" font-size="14.00"> </text>
<polyline fill="none" stroke="black" points="335,-24 361,-24 "/>
<text text-anchor="middle" x="348" y="-8.8" font-family="Times New Roman,serif" font-size="14.00">a</text>
<polyline fill="none" stroke="black" points="361,-1 361,-47 "/>
<text text-anchor="middle" x="375" y="-31.8" font-family="Times New Roman,serif" font-size="14.00"> </text>
<polyline fill="none" stroke="black" points="361,-24 389,-24 "/>
<text text-anchor="middle" x="375" y="-8.8" font-family="Times New Roman,serif" font-size="14.00">b</text>
</g>
<!-- result&#45;&gt;resultroot -->
<g id="edge4" class="edge"><title>result&#45;&gt;resultroot:a:n</title>
<path fill="none" stroke="black" d="M352.578,-80.9138C350.081,-70.702 348,-58.9165 348,-48"/>
<polygon fill="black" stroke="black" points="349.282,-82.1364 355.26,-90.8836 356.042,-80.3176 349.282,-82.1364"/>
</g>
<!-- result&#45;&gt;resultroot -->
<g id="edge5" class="edge"><title>result&#45;&gt;resultroot:b:n</title>
<path fill="none" stroke="black" d="M369.985,-81.2778C372.712,-70.9972 375,-59.0709 375,-48"/>
<polygon fill="black" stroke="black" points="366.614,-80.3375 367.181,-90.9171 373.335,-82.2926 366.614,-80.3375"/>
</g>
</g>
</svg>
