<?xml version="1.0" encoding="UTF-8" standalone="no"?>
<!DOCTYPE svg PUBLIC "-//W3C//DTD SVG 1.1//EN"
 "http://www.w3.org/Graphics/SVG/1.1/DTD/svg11.dtd">
<!-- Generated by graphviz version 2.37.20140119.0545 (20140119.0545)
 -->
<!-- Pages: 1 -->
<svg width="752pt" height="155pt"
 viewBox="0.00 0.00 752.00 155.00" xmlns="http://www.w3.org/2000/svg" xmlns:xlink="http://www.w3.org/1999/xlink">
<g id="graph0" class="graph" transform="scale(1 1) rotate(0) translate(18 137)">
<polygon fill="white" stroke="none" points="-18,18 -18,-137 734,-137 734,18 -18,18"/>
<g id="clust1" class="cluster"><title>cluster0</title>
<polygon fill="none" stroke="none" points="106,-8 106,-111 624,-111 624,-8 106,-8"/>
</g>
<!-- BasicBlockStartState -->
<g id="node1" class="node"><title>BasicBlockStartState</title>
<g id="a_node1"><a xlink:href="../BasicBlockStartState.html" xlink:title="{BasicBlockStartState | {&lt;alt1&gt; alt 1 |&lt;alt2&gt; alt 2}}" target="_parent">
<polygon fill="none" stroke="black" points="114,-45 114,-91 354,-91 354,-45 114,-45"/>
<text text-anchor="middle" x="205" y="-64.3" font-family="Courier New" font-size="14.00">BasicBlockStartState</text>
<polyline fill="none" stroke="black" points="296,-45 296,-91 "/>
<text text-anchor="middle" x="325" y="-75.8" font-family="Courier New" font-size="14.00">alt 1</text>
<polyline fill="none" stroke="black" points="296,-68 354,-68 "/>
<text text-anchor="middle" x="325" y="-52.8" font-family="Courier New" font-size="14.00">alt 2</text>
</a>
</g>
</g>
<!-- BlockEndState -->
<g id="node2" class="node"><title>BlockEndState</title>
<g id="a_node2"><a xlink:href="../BlockEndState.html" xlink:title="\N" target="_parent">
<polygon fill="none" stroke="black" points="492,-41 492,-77 616,-77 616,-41 492,-41"/>
<text text-anchor="middle" x="554" y="-55.3" font-family="Courier New" font-size="14.00">BlockEndState</text>
</a>
</g>
</g>
<!-- BasicBlockStartState&#45;&gt;BlockEndState -->
<g id="edge5" class="edge"><title>BasicBlockStartState:alt1&#45;&gt;BlockEndState</title>
<path fill="none" stroke="black" d="M354,-80C396.574,-80 443.99,-75.1876 481.856,-70.1703"/>
<polygon fill="black" stroke="black" points="482.33,-73.6381 491.768,-68.8237 481.388,-66.7019 482.33,-73.6381"/>
<text text-anchor="middle" x="427" y="-81.8" font-family="Courier New" font-size="14.00">ε</text>
</g>
<!-- content -->
<g id="node3" class="node"><title>content</title>
<ellipse fill="none" stroke="black" stroke-dasharray="5,2" cx="427" cy="-34" rx="27" ry="18"/>
<text text-anchor="middle" x="427" y="-30.3" font-family="Courier New" font-size="14.00">alt</text>
</g>
<!-- BasicBlockStartState&#45;&gt;content -->
<g id="edge3" class="edge"><title>BasicBlockStartState:alt2&#45;&gt;content</title>
<path fill="none" stroke="black" d="M354,-56C367.82,-56 382.506,-52.247 394.986,-47.8412"/>
<polygon fill="black" stroke="black" points="396.366,-51.0608 404.463,-44.2271 393.872,-44.5203 396.366,-51.0608"/>
<text text-anchor="middle" x="377" y="-57.8" font-family="Courier New" font-size="14.00">ε</text>
</g>
<!-- end -->
<g id="node5" class="node"><title>end</title>
<ellipse fill="none" stroke="black" stroke-dasharray="5,2" cx="689" cy="-59" rx="27" ry="18"/>
<text text-anchor="middle" x="689" y="-55.3" font-family="Courier New" font-size="14.00">end</text>
</g>
<!-- BlockEndState&#45;&gt;end -->
<g id="edge2" class="edge"><title>BlockEndState&#45;&gt;end</title>
<path fill="none" stroke="black" d="M616.05,-59C628.263,-59 640.723,-59 651.767,-59"/>
<polygon fill="black" stroke="black" points="651.867,-62.5001 661.867,-59 651.867,-55.5001 651.867,-62.5001"/>
<text text-anchor="middle" x="639" y="-62.8" font-family="Courier New" font-size="14.00">ε</text>
</g>
<!-- content&#45;&gt;BlockEndState -->
<g id="edge4" class="edge"><title>content&#45;&gt;BlockEndState</title>
<path fill="none" stroke="black" stroke-dasharray="5,2" d="M452.995,-38.999C461.526,-40.7052 471.536,-42.7071 481.866,-44.7733"/>
<polygon fill="black" stroke="black" points="481.339,-48.2371 491.832,-46.7663 482.712,-41.3731 481.339,-48.2371"/>
</g>
<!-- begin -->
<g id="node4" class="node"><title>begin</title>
<ellipse fill="none" stroke="black" stroke-dasharray="5,2" cx="38" cy="-68" rx="37.8943" ry="18"/>
<text text-anchor="middle" x="38" y="-64.3" font-family="Courier New" font-size="14.00">begin</text>
</g>
<!-- begin&#45;&gt;BasicBlockStartState -->
<g id="edge1" class="edge"><title>begin&#45;&gt;BasicBlockStartState</title>
<path fill="none" stroke="black" stroke-dasharray="5,2" d="M75.9466,-68C84.3567,-68 93.7598,-68 103.671,-68"/>
<polygon fill="black" stroke="black" points="103.735,-71.5001 113.734,-68 103.734,-64.5001 103.735,-71.5001"/>
</g>
</g>
</svg>
