<?xml version="1.0" encoding="UTF-8" standalone="no"?>
<!DOCTYPE svg PUBLIC "-//W3C//DTD SVG 1.1//EN"
 "http://www.w3.org/Graphics/SVG/1.1/DTD/svg11.dtd">
<!-- Generated by graphviz version 2.37.20140119.0545 (20140119.0545)
 -->
<!-- Pages: 1 -->
<svg width="406pt" height="197pt"
 viewBox="0.00 0.00 405.83 196.67" xmlns="http://www.w3.org/2000/svg" xmlns:xlink="http://www.w3.org/1999/xlink">
<g id="graph0" class="graph" transform="scale(0.833333 0.833333) rotate(0) translate(4 232)">
<polygon fill="white" stroke="none" points="-4,4 -4,-232 483,-232 483,4 -4,4"/>
<g id="clust6" class="cluster"><title>clusterRes</title>
<polygon fill="none" stroke="none" points="329,-8 329,-220 471,-220 471,-8 329,-8"/>
</g>
<!-- lefttree -->
<g id="node1" class="node"><title>lefttree</title>
</g>
<!-- left -->
<g id="node2" class="node"><title>left</title>
<polygon fill="none" stroke="black" points="29,-91 58.3479,-125.5 -0.347907,-125.5 29,-91"/>
<text text-anchor="middle" x="29" y="-110.3" font-family="Times New Roman,serif" font-size="14.00">x</text>
</g>
<!-- lefttree&#45;&gt;left -->
<g id="edge1" class="edge"><title>lefttree&#45;&gt;left</title>
</g>
<!-- leftroot -->
<g id="node3" class="node"><title>leftroot</title>
<text text-anchor="middle" x="29" y="-30.3" font-family="Times New Roman,serif" font-size="14.00">a</text>
</g>
<!-- left&#45;&gt;leftroot -->
<g id="edge2" class="edge"><title>left&#45;&gt;leftroot</title>
<path fill="none" stroke="black" d="M29,-80.6325C29,-70.8943 29,-60.5876 29,-52.2382"/>
<polygon fill="black" stroke="black" points="25.5001,-80.8569 29,-90.857 32.5001,-80.857 25.5001,-80.8569"/>
</g>
<!-- optree -->
<g id="node4" class="node"><title>optree</title>
</g>
<!-- temp1 -->
<g id="node5" class="node"><title>temp1</title>
<text text-anchor="middle" x="104" y="-110.3" font-family="Times New Roman,serif" font-size="14.00">+</text>
</g>
<!-- optree&#45;&gt;temp1 -->
<g id="edge3" class="edge"><title>optree&#45;&gt;temp1</title>
</g>
<!-- righttree -->
<g id="node6" class="node"><title>righttree</title>
</g>
<!-- right -->
<g id="node7" class="node"><title>right</title>
<polygon fill="none" stroke="black" points="179,-91 208.348,-125.5 149.652,-125.5 179,-91"/>
<text text-anchor="middle" x="179" y="-110.3" font-family="Times New Roman,serif" font-size="14.00">y</text>
</g>
<!-- righttree&#45;&gt;right -->
<g id="edge4" class="edge"><title>righttree&#45;&gt;right</title>
</g>
<!-- rightroot -->
<g id="node8" class="node"><title>rightroot</title>
<text text-anchor="middle" x="179" y="-30.3" font-family="Times New Roman,serif" font-size="14.00">a</text>
</g>
<!-- right&#45;&gt;rightroot -->
<g id="edge5" class="edge"><title>right&#45;&gt;rightroot</title>
<path fill="none" stroke="black" d="M179,-80.6325C179,-70.8943 179,-60.5876 179,-52.2382"/>
<polygon fill="black" stroke="black" points="175.5,-80.8569 179,-90.857 182.5,-80.857 175.5,-80.8569"/>
</g>
<!-- temp2a -->
<g id="node9" class="node"><title>temp2a</title>
<ellipse fill="none" stroke="none" cx="255" cy="-194" rx="1.8" ry="1.8"/>
</g>
<!-- temp2b -->
<g id="node10" class="node"><title>temp2b</title>
<ellipse fill="none" stroke="none" cx="229" cy="-114" rx="1.8" ry="1.8"/>
</g>
<!-- temp2a&#45;&gt;temp2b -->
<g id="edge6" class="edge"><title>temp2a&#45;&gt;temp2b</title>
</g>
<!-- temp2c -->
<g id="node11" class="node"><title>temp2c</title>
<ellipse fill="none" stroke="none" cx="319" cy="-114" rx="1.8" ry="1.8"/>
</g>
<!-- temp2a&#45;&gt;temp2c -->
<g id="edge7" class="edge"><title>temp2a&#45;&gt;temp2c</title>
</g>
<!-- temp2b&#45;&gt;temp2c -->
<g id="edge8" class="edge"><title>temp2b&#45;&gt;temp2c</title>
<path fill="none" stroke="black" d="M230.88,-114C240.579,-114 285.352,-114 307.091,-114"/>
<polygon fill="black" stroke="black" points="307.131,-117.5 317.131,-114 307.131,-110.5 307.131,-117.5"/>
<text text-anchor="middle" x="273.6" y="-120.8" font-family="Times New Roman,serif" font-size="14.00" fill="#fffffe">wwwwwww</text>
</g>
<!-- resulttree1 -->
<g id="node12" class="node"><title>resulttree1</title>
<polygon fill="none" stroke="black" points="364,-176 391,-203 337,-203 364,-176"/>
</g>
<!-- result -->
<g id="node14" class="node"><title>result</title>
<polygon fill="none" stroke="black" points="378,-91 378,-137 432,-137 432,-91 378,-91"/>
<text text-anchor="middle" x="391.5" y="-121.8" font-family="Times New Roman,serif" font-size="14.00"> </text>
<polyline fill="none" stroke="black" points="378,-114 405,-114 "/>
<text text-anchor="middle" x="391.5" y="-98.8" font-family="Times New Roman,serif" font-size="14.00">x</text>
<polyline fill="none" stroke="black" points="405,-91 405,-137 "/>
<text text-anchor="middle" x="418.5" y="-121.8" font-family="Times New Roman,serif" font-size="14.00"> </text>
<polyline fill="none" stroke="black" points="405,-114 432,-114 "/>
<text text-anchor="middle" x="418.5" y="-98.8" font-family="Times New Roman,serif" font-size="14.00">y</text>
</g>
<!-- resulttree1&#45;&gt;result -->
<g id="edge9" class="edge"><title>resulttree1:s&#45;&gt;result:x:n</title>
<path fill="none" stroke="black" d="M366.688,-166.265C373.517,-155.703 391,-154.671 391,-138"/>
<polygon fill="black" stroke="black" points="363.287,-165.429 364,-176 370.035,-167.292 363.287,-165.429"/>
</g>
<!-- resulttree2 -->
<g id="node13" class="node"><title>resulttree2</title>
<polygon fill="none" stroke="black" points="436,-176 463,-203 409,-203 436,-176"/>
</g>
<!-- resulttree2&#45;&gt;result -->
<g id="edge10" class="edge"><title>resulttree2:s&#45;&gt;result:y:n</title>
<path fill="none" stroke="black" d="M433.915,-166.005C429.376,-156.225 419,-152.455 419,-138"/>
<polygon fill="black" stroke="black" points="430.532,-166.925 436,-176 437.385,-165.496 430.532,-166.925"/>
</g>
<!-- resultroot -->
<g id="node15" class="node"><title>resultroot</title>
<text text-anchor="middle" x="405" y="-30.3" font-family="Times New Roman,serif" font-size="14.00">a&#39;</text>
</g>
<!-- result&#45;&gt;resultroot -->
<g id="edge11" class="edge"><title>result&#45;&gt;resultroot</title>
<path fill="none" stroke="black" d="M405,-80.6325C405,-70.8943 405,-60.5876 405,-52.2382"/>
<polygon fill="black" stroke="black" points="401.5,-80.8569 405,-90.857 408.5,-80.857 401.5,-80.8569"/>
</g>
</g>
</svg>
